<svg width="24" height="24" viewBox="0 0 24 24" fill="none" xmlns="http://www.w3.org/2000/svg">
<path d="M18.649 7.75H16.795C18.595 9.15 19.629 11.485 19.73 14.517C20.855 14.603 21.5001 15.31 21.5001 16.5V17.5C21.5001 18.771 20.7711 19.5 19.5001 19.5H18.5001C17.2291 19.5 16.5001 18.771 16.5001 17.5V16.5C16.5001 15.32 17.1341 14.616 18.2401 14.519C18.1601 12.374 17.4931 9.20199 14.4211 8.12799C14.2101 9.00399 13.5411 9.5 12.4991 9.5H11.4991C10.4581 9.5 9.78809 9.00399 9.57709 8.12799C6.50509 9.20199 5.83806 12.374 5.75806 14.519C6.86406 14.615 7.49805 15.32 7.49805 16.5V17.5C7.49805 18.771 6.76905 19.5 5.49805 19.5H4.49805C3.22705 19.5 2.49805 18.771 2.49805 17.5V16.5C2.49805 15.31 3.14307 14.604 4.26807 14.517C4.36907 11.485 5.40306 9.15 7.20306 7.75H5.34906C5.05206 8.482 4.33505 9 3.49805 9C2.39505 9 1.49805 8.103 1.49805 7C1.49805 5.897 2.39505 5 3.49805 5C4.33505 5 5.05206 5.518 5.34906 6.25H9.51709C9.61009 5.138 10.315 4.5 11.498 4.5H12.498C13.681 4.5 14.3861 5.138 14.4791 6.25H18.647C18.944 5.518 19.661 5 20.498 5C21.601 5 22.498 5.897 22.498 7C22.498 8.103 21.601 9 20.498 9C19.663 9 18.946 8.482 18.649 7.75Z" fill="currentColor"/>
</svg>
