<svg width="24" height="24" viewBox="0 0 24 24" fill="none" xmlns="http://www.w3.org/2000/svg">
<path d="M19.457 10.797C19.377 10.616 19.1981 10.5 19.0001 10.5H14.5001V2.99999C14.5001 2.79299 14.3731 2.60699 14.1791 2.53299C13.9841 2.45799 13.767 2.51198 13.628 2.66498L4.62805 12.665C4.49605 12.812 4.46209 13.022 4.54309 13.203C4.62309 13.384 4.80206 13.5 5.00006 13.5H9.50006V21C9.50006 21.207 9.62704 21.393 9.82104 21.467C9.88004 21.489 9.94006 21.5 10.0001 21.5C10.1391 21.5 10.2751 21.442 10.3721 21.334L19.3721 11.334C19.5041 11.188 19.537 10.977 19.457 10.797Z" fill="currentColor"/>
</svg>
