<svg width="24" height="24" viewBox="0 0 24 24" fill="none" xmlns="http://www.w3.org/2000/svg">
<path d="M21.7329 9.76887C21.1909 5.89387 18.1059 2.80878 14.2309 2.26778C13.7369 2.19778 13.234 2.34879 12.853 2.67879C12.469 3.01279 12.2489 3.49381 12.2489 4.00081V10.0089C12.2489 10.9689 13.03 11.7508 13.991 11.7508H19.9999C20.5059 11.7508 20.9879 11.5308 21.3209 11.1478C21.6519 10.7668 21.8019 10.2649 21.7329 9.76887ZM20.189 10.1618C20.161 10.1948 20.0979 10.2498 19.9999 10.2498H13.9919C13.8579 10.2498 13.7499 10.1419 13.7499 10.0079V3.99983C13.7499 3.90083 13.8049 3.83789 13.8379 3.80989C13.8649 3.78589 13.9179 3.74983 13.9919 3.74983C14.0019 3.74983 14.0129 3.75078 14.0229 3.75178C14.0239 3.75178 14.0239 3.75178 14.0239 3.75178C17.2379 4.20078 19.7969 6.76078 20.2469 9.97578C20.2599 10.0658 20.217 10.1308 20.189 10.1618ZM18.0439 12.6568H12.0929C11.6799 12.6568 11.3429 12.3208 11.3429 11.9068V5.95589C11.3429 5.44089 11.114 4.95781 10.715 4.63081C10.324 4.31181 9.81895 4.18281 9.32695 4.28181C7.04495 4.73981 4.99594 6.12479 3.70494 8.07979C2.39994 10.0568 1.95291 12.4488 2.44591 14.8138C3.14091 18.1488 5.84892 20.8568 9.18492 21.5528C9.81292 21.6838 10.4429 21.7489 11.0659 21.7489C12.7909 21.7489 14.4659 21.2528 15.9189 20.2938C17.8739 19.0028 19.2589 16.9548 19.7169 14.6728C19.8159 14.1828 19.6899 13.6759 19.3689 13.2849C19.0419 12.8859 18.5589 12.6568 18.0439 12.6568ZM15.0929 19.0428C13.4519 20.1268 11.4609 20.4978 9.49193 20.0848C6.73093 19.5088 4.4899 17.2679 3.9149 14.5079C3.5039 12.5369 3.8739 10.5478 4.9569 8.90584C6.0289 7.28184 7.72893 6.13288 9.62193 5.75288C9.63393 5.75088 9.64392 5.74983 9.65392 5.74983C9.70192 5.74983 9.73893 5.77082 9.76293 5.79182C9.78693 5.81082 9.84191 5.86589 9.84191 5.95589V11.9068C9.84191 13.1478 10.8519 14.1568 12.0919 14.1568H18.043C18.133 14.1568 18.1879 14.2118 18.2069 14.2358C18.2309 14.2658 18.2579 14.3149 18.2449 14.3789C17.8659 16.2709 16.7169 17.9708 15.0929 19.0428Z" fill="currentColor"/>
</svg>
