<svg width="37" height="24" viewBox="0 0 37 24" fill="none" xmlns="http://www.w3.org/2000/svg">
<path d="M13.4576 12.055C13.4576 16.0894 15.4352 19.6589 18.4464 21.7974C21.4397 19.6246 23.395 16.0459 23.395 11.9978C23.395 7.94971 21.4709 4.43282 18.52 2.25537C15.4642 4.38931 13.4553 7.98405 13.4553 12.055H13.4576Z" fill="currentColor"/>
<path d="M11.8459 12.055C11.8459 7.68403 13.8839 3.79164 17.0356 1.32341C15.4352 0.480824 13.6227 0 11.6986 0C5.23659 0 0 5.37149 0 12C0 18.6285 5.23659 24 11.6986 24C13.5892 24 15.3727 23.5375 16.9531 22.7201C13.8504 20.2473 11.8459 16.3892 11.8459 12.055Z" fill="currentColor"/>
<path d="M25.0066 23.8374C18.6718 23.8374 13.52 18.5507 13.52 12.0549C13.52 5.55924 18.674 0.272461 25.0066 0.272461C31.3391 0.272461 36.4931 5.55924 36.4931 12.0549C36.4931 18.5507 31.3391 23.8374 25.0066 23.8374ZM25.0066 1.92329C19.5602 1.92329 15.1316 6.46823 15.1316 12.0549C15.1316 17.6417 19.5624 22.1843 25.0066 22.1843C30.4508 22.1843 34.8838 17.6394 34.8838 12.0549C34.8838 6.47052 30.453 1.92329 25.0066 1.92329Z" fill="currentColor"/>
</svg>
