<svg width="24" height="24" viewBox="0 0 24 24" fill="none" xmlns="http://www.w3.org/2000/svg">
<path d="M18 21.75H6C3.582 21.75 2.25 20.418 2.25 18V9.73203C2.25 8.64303 2.79102 7.63203 3.69702 7.02803L9.91992 2.88004C11.1839 2.03804 12.8161 2.03804 14.0801 2.88004L20.303 7.02803C21.209 7.63203 21.75 8.64303 21.75 9.73203V18C21.75 20.418 20.418 21.75 18 21.75ZM12 3.74902C11.565 3.74902 11.131 3.87504 10.752 4.12804L4.52905 8.27603C4.04105 8.60103 3.75 9.14603 3.75 9.73203V18C3.75 19.577 4.423 20.25 6 20.25H18C19.577 20.25 20.25 19.577 20.25 18V9.73203C20.25 9.14603 19.9589 8.60103 19.4709 8.27603L13.248 4.12804C12.869 3.87504 12.435 3.74902 12 3.74902ZM12.8569 14.94L17.4409 11.606C17.7759 11.362 17.85 10.893 17.606 10.558C17.363 10.224 16.8961 10.148 16.5581 10.393L11.9751 13.726C11.9091 13.774 11.8231 13.774 11.7581 13.727L7.17407 10.393C6.83707 10.149 6.36798 10.224 6.12598 10.558C5.88198 10.893 5.95602 11.362 6.29102 11.606L10.875 14.94C11.171 15.155 11.518 15.263 11.865 15.263C12.213 15.263 12.5609 15.156 12.8569 14.94Z" fill="currentColor"/>
</svg>
