<svg width="24" height="24" viewBox="0 0 24 24" fill="none" xmlns="http://www.w3.org/2000/svg">
<rect x="0.25" y="3.67993" width="23.5" height="16.6429" rx="1.75" fill="white" stroke="#F5F5F5" stroke-width="0.5"/>
<mask id="mask0_91_3313" style="mask-type:luminance" maskUnits="userSpaceOnUse" x="0" y="3" width="24" height="18">
<rect x="0.25" y="3.67993" width="23.5" height="16.6429" rx="1.75" fill="white" stroke="white" stroke-width="0.5"/>
</mask>
<g mask="url(#mask0_91_3313)">
<path fill-rule="evenodd" clip-rule="evenodd" d="M0 14.8586H24V9.14429H0V14.8586Z" fill="#17508F"/>
<path fill-rule="evenodd" clip-rule="evenodd" d="M0 9.14422H24V3.42993H0V9.14422Z" fill="#E1444D"/>
<path fill-rule="evenodd" clip-rule="evenodd" d="M5.14307 12.0014C5.14307 11.4678 5.41747 10.3017 5.58598 9.63597C5.65968 9.34477 5.92278 9.14429 6.22317 9.14429H8.63558C8.93541 9.14429 9.19818 9.34409 9.27216 9.63465C9.44071 10.2965 9.71449 11.4557 9.71449 12.0014C9.71449 12.6317 9.2967 14.2731 9.17559 14.7356C9.15413 14.8176 9.11735 14.8932 9.0631 14.9583C8.83114 15.2366 8.12996 16.0014 7.42878 16.0014C6.72709 16.0014 6.02539 15.2355 5.79396 14.9577C5.74003 14.893 5.70341 14.8179 5.68191 14.7364C5.56074 14.2772 5.14307 12.6473 5.14307 12.0014Z" fill="white"/>
<mask id="mask1_91_3313" style="mask-type:luminance" maskUnits="userSpaceOnUse" x="5" y="9" width="5" height="8">
<path fill-rule="evenodd" clip-rule="evenodd" d="M5.14307 12.0014C5.14307 11.4678 5.41747 10.3017 5.58598 9.63597C5.65968 9.34477 5.92278 9.14429 6.22317 9.14429H8.63558C8.93541 9.14429 9.19818 9.34409 9.27216 9.63465C9.44071 10.2965 9.71449 11.4557 9.71449 12.0014C9.71449 12.6317 9.2967 14.2731 9.17559 14.7356C9.15413 14.8176 9.11735 14.8932 9.0631 14.9583C8.83114 15.2366 8.12996 16.0014 7.42878 16.0014C6.72709 16.0014 6.02539 15.2355 5.79396 14.9577C5.74003 14.893 5.70341 14.8179 5.68191 14.7364C5.56074 14.2772 5.14307 12.6473 5.14307 12.0014Z" fill="white"/>
</mask>
<g mask="url(#mask1_91_3313)">
<path fill-rule="evenodd" clip-rule="evenodd" d="M10.6516 9.61149L5.24721 16.3669L4.20605 15.534L9.61041 8.77856L10.6516 9.61149Z" fill="#E1444D"/>
<path fill-rule="evenodd" clip-rule="evenodd" d="M4.2061 9.61149L9.61045 16.3669L10.6516 15.534L5.24726 8.77856L4.2061 9.61149Z" fill="#E1444D"/>
</g>
</g>
</svg>
