<svg width="24" height="24" viewBox="0 0 24 24" fill="none" xmlns="http://www.w3.org/2000/svg">
<rect y="3.42993" width="24" height="17.1429" rx="2" fill="white"/>
<mask id="mask0_91_2751" style="mask-type:luminance" maskUnits="userSpaceOnUse" x="0" y="3" width="24" height="18">
<rect y="3.42993" width="24" height="17.1429" rx="2" fill="white"/>
</mask>
<g mask="url(#mask0_91_2751)">
<path fill-rule="evenodd" clip-rule="evenodd" d="M0 12.5728H24V3.42993H0V12.5728Z" fill="#0C49AE"/>
<path fill-rule="evenodd" clip-rule="evenodd" d="M0 20.5729H24V16.0015H0V20.5729Z" fill="#0C49AE"/>
<path fill-rule="evenodd" clip-rule="evenodd" d="M0 16.0013H24V12.5728H0V16.0013Z" fill="white"/>
<path fill-rule="evenodd" clip-rule="evenodd" d="M0 14.8584H24V13.7156H0V14.8584Z" fill="#CD232E"/>
<path fill-rule="evenodd" clip-rule="evenodd" d="M9.14285 11.5252C9.05101 11.5252 8.96041 11.5297 8.87123 11.5384C8.50477 11.574 8.17879 11.3059 8.14312 10.9394C8.10746 10.573 8.37562 10.247 8.74208 10.2113C8.87412 10.1985 9.00781 10.1919 9.14285 10.1919C9.27788 10.1919 9.41157 10.1985 9.54361 10.2113C9.91007 10.247 10.1782 10.573 10.1426 10.9394C10.1069 11.3059 9.78092 11.574 9.41446 11.5384C9.32528 11.5297 9.23468 11.5252 9.14285 11.5252ZM7.48285 11.2135C7.71659 11.498 7.67545 11.9181 7.39097 12.1518C7.25101 12.2668 7.12252 12.3953 7.00753 12.5353C6.77379 12.8197 6.35369 12.8609 6.0692 12.6271C5.78472 12.3934 5.74358 11.9733 5.97732 11.6888C6.14744 11.4818 6.33748 11.2917 6.54453 11.1216C6.82901 10.8879 7.24912 10.929 7.48285 11.2135ZM10.8028 11.2135C11.0366 10.929 11.4567 10.8879 11.7412 11.1216C11.9482 11.2917 12.1383 11.4818 12.3084 11.6888C12.5421 11.9733 12.501 12.3934 12.2165 12.6271C11.932 12.8609 11.5119 12.8197 11.2782 12.5353C11.1632 12.3953 11.0347 12.2668 10.8947 12.1518C10.6102 11.9181 10.5691 11.498 10.8028 11.2135ZM5.79512 13.2874C6.16158 13.3231 6.42974 13.6491 6.39408 14.0155C6.3854 14.1047 6.38094 14.1953 6.38094 14.2871C6.38094 14.379 6.3854 14.4696 6.39408 14.5587C6.42974 14.9252 6.16158 15.2512 5.79512 15.2869C5.42866 15.3225 5.10268 15.0544 5.06702 14.6879C5.05417 14.5559 5.04761 14.4222 5.04761 14.2871C5.04761 14.1521 5.05417 14.0184 5.06702 13.8864C5.10268 13.5199 5.42866 13.2517 5.79512 13.2874ZM12.4906 13.2874C12.857 13.2517 13.183 13.5199 13.2187 13.8864C13.2315 14.0184 13.2381 14.1521 13.2381 14.2871C13.2381 14.4222 13.2315 14.5559 13.2187 14.6879C13.183 15.0544 12.857 15.3225 12.4906 15.2869C12.1241 15.2512 11.8559 14.9252 11.8916 14.5587C11.9003 14.4696 11.9048 14.379 11.9048 14.2871C11.9048 14.1953 11.9003 14.1047 11.8916 14.0155C11.8559 13.6491 12.1241 13.3231 12.4906 13.2874ZM6.0692 15.9471C6.35369 15.7134 6.77379 15.7545 7.00752 16.039C7.12252 16.179 7.25101 16.3075 7.39097 16.4225C7.67545 16.6562 7.71659 17.0763 7.48285 17.3608C7.24912 17.6453 6.82901 17.6864 6.54453 17.4527C6.33748 17.2825 6.14744 17.0925 5.97732 16.8854C5.74358 16.601 5.78472 16.1809 6.0692 15.9471ZM12.2165 15.9471C12.501 16.1809 12.5421 16.601 12.3084 16.8854C12.1383 17.0925 11.9482 17.2825 11.7412 17.4527C11.4567 17.6864 11.0366 17.6453 10.8028 17.3608C10.5691 17.0763 10.6102 16.6562 10.8947 16.4225C11.0347 16.3075 11.1632 16.179 11.2782 16.039C11.5119 15.7545 11.932 15.7134 12.2165 15.9471ZM10.1426 17.6349C10.1782 18.0013 9.91007 18.3273 9.54361 18.363C9.41157 18.3758 9.27788 18.3824 9.14285 18.3824C9.00781 18.3824 8.87412 18.3758 8.74208 18.363C8.37562 18.3273 8.10746 18.0013 8.14313 17.6349C8.17879 17.2684 8.50477 17.0002 8.87123 17.0359C8.96041 17.0446 9.05101 17.049 9.14285 17.049C9.23468 17.049 9.32528 17.0446 9.41446 17.0359C9.78092 17.0002 10.1069 17.2684 10.1426 17.6349Z" fill="#F7D035"/>
</g>
</svg>
