<svg width="24" height="24" viewBox="0 0 24 24" fill="none" xmlns="http://www.w3.org/2000/svg">
<rect x="0.25" y="3.67993" width="23.5" height="16.6429" rx="1.75" fill="white" stroke="#F5F5F5" stroke-width="0.5"/>
<mask id="mask0_91_3049" style="mask-type:luminance" maskUnits="userSpaceOnUse" x="0" y="3" width="24" height="18">
<rect x="0.25" y="3.67993" width="23.5" height="16.6429" rx="1.75" fill="white" stroke="white" stroke-width="0.5"/>
</mask>
<g mask="url(#mask0_91_3049)">
<path fill-rule="evenodd" clip-rule="evenodd" d="M0 9.14422H24V3.42993H0V9.14422Z" fill="#FFA44A"/>
<path fill-rule="evenodd" clip-rule="evenodd" d="M0 20.5727H24V14.8584H0V20.5727Z" fill="#1A9F0B"/>
<path fill-rule="evenodd" clip-rule="evenodd" d="M11.9999 13.7157C12.9467 13.7157 13.7142 12.9482 13.7142 12.0014C13.7142 11.0546 12.9467 10.2871 11.9999 10.2871C11.0532 10.2871 10.2856 11.0546 10.2856 12.0014C10.2856 12.9482 11.0532 13.7157 11.9999 13.7157Z" fill="#181A93" fill-opacity="0.15"/>
<path fill-rule="evenodd" clip-rule="evenodd" d="M14.381 12.0013C14.381 13.3163 13.3151 14.3823 12.0001 14.3823C10.6851 14.3823 9.61914 13.3163 9.61914 12.0013C9.61914 10.6863 10.6851 9.62036 12.0001 9.62036C13.3151 9.62036 14.381 10.6863 14.381 12.0013ZM13.7144 12.0013C13.7144 12.9481 12.9469 13.7156 12.0001 13.7156C11.0533 13.7156 10.2858 12.9481 10.2858 12.0013C10.2858 11.0545 11.0533 10.287 12.0001 10.287C12.9469 10.287 13.7144 11.0545 13.7144 12.0013Z" fill="#181A93"/>
<path fill-rule="evenodd" clip-rule="evenodd" d="M12.0001 12.5728C12.3157 12.5728 12.5716 12.317 12.5716 12.0014C12.5716 11.6858 12.3157 11.4299 12.0001 11.4299C11.6845 11.4299 11.4287 11.6858 11.4287 12.0014C11.4287 12.317 11.6845 12.5728 12.0001 12.5728Z" fill="#181A93"/>
</g>
</svg>
