<svg width="24" height="24" viewBox="0 0 24 24" fill="none" xmlns="http://www.w3.org/2000/svg">
<rect x="0.25" y="3.67993" width="23.5" height="16.6429" rx="1.75" fill="white" stroke="#F5F5F5" stroke-width="0.5"/>
<mask id="mask0_91_3352" style="mask-type:luminance" maskUnits="userSpaceOnUse" x="0" y="3" width="24" height="18">
<rect x="0.25" y="3.67993" width="23.5" height="16.6429" rx="1.75" fill="white" stroke="white" stroke-width="0.5"/>
</mask>
<g mask="url(#mask0_91_3352)">
<path fill-rule="evenodd" clip-rule="evenodd" d="M0 14.8585H24V9.14422H7.92341V8.00136C7.92341 8.00136 7.11743 7.42993 6.28571 7.42993C5.454 7.42993 4.57143 8.00136 4.57143 8.00136V9.14422H0V14.8585ZM7.42857 10.2871C7.42857 10.9183 6.9169 11.43 6.28571 11.43C5.65453 11.43 5.14286 10.9183 5.14286 10.2871C5.14286 9.65591 5.65453 9.14424 6.28571 9.14424C6.9169 9.14424 7.42857 9.65591 7.42857 10.2871Z" fill="#0C47B7"/>
<g filter="url(#filter0_d_91_3352)">
<path fill-rule="evenodd" clip-rule="evenodd" d="M0 20.5729H24V14.8586H0V20.5729Z" fill="#E53B35"/>
</g>
</g>
<defs>
<filter id="filter0_d_91_3352" x="0" y="14.8586" width="24" height="5.71436" filterUnits="userSpaceOnUse" color-interpolation-filters="sRGB">
<feFlood flood-opacity="0" result="BackgroundImageFix"/>
<feColorMatrix in="SourceAlpha" type="matrix" values="0 0 0 0 0 0 0 0 0 0 0 0 0 0 0 0 0 0 127 0" result="hardAlpha"/>
<feOffset/>
<feColorMatrix type="matrix" values="0 0 0 0 0 0 0 0 0 0 0 0 0 0 0 0 0 0 0.06 0"/>
<feBlend mode="normal" in2="BackgroundImageFix" result="effect1_dropShadow_91_3352"/>
<feBlend mode="normal" in="SourceGraphic" in2="effect1_dropShadow_91_3352" result="shape"/>
</filter>
</defs>
</svg>
