<svg width="24" height="24" viewBox="0 0 24 24" fill="none" xmlns="http://www.w3.org/2000/svg">
<rect y="3.42993" width="24" height="17.1429" rx="2" fill="white"/>
<mask id="mask0_91_1883" style="mask-type:luminance" maskUnits="userSpaceOnUse" x="0" y="3" width="24" height="18">
<rect y="3.42993" width="24" height="17.1429" rx="2" fill="white"/>
</mask>
<g mask="url(#mask0_91_1883)">
<rect y="3.42993" width="24" height="17.1429" fill="#E92434"/>
<path fill-rule="evenodd" clip-rule="evenodd" d="M17.1429 12.0013C17.1429 14.8416 14.8404 17.1441 12 17.1441C9.15971 17.1441 6.85718 14.8416 6.85718 12.0013C6.85718 9.16093 9.15971 6.8584 12 6.8584C14.8404 6.8584 17.1429 9.16093 17.1429 12.0013ZM10.2857 12.0013C10.2857 10.1014 11.7122 8.53468 13.5525 8.31368C13.0752 8.11246 12.5506 8.00123 12 8.00123C9.79087 8.00123 8.00001 9.79209 8.00001 12.0012C8.00001 14.2104 9.79087 16.0012 12 16.0012C12.5505 16.0012 13.075 15.89 13.5523 15.6889C11.7121 15.4678 10.2857 13.9011 10.2857 12.0013ZM12.968 14.2771L14.0179 13.0042L15.5635 13.5816L14.6774 12.1898L15.7041 10.8983L14.1066 11.3109L13.1956 9.93532L13.0944 11.5822L11.5046 12.0235L13.0395 12.6287L12.968 14.2771Z" fill="white"/>
</g>
</svg>
