<svg width="24" height="24" viewBox="0 0 24 24" fill="none" xmlns="http://www.w3.org/2000/svg">
<rect x="0.25" y="3.67993" width="23.5" height="16.6429" rx="1.75" fill="white" stroke="#F5F5F5" stroke-width="0.5"/>
<mask id="mask0_91_2090" style="mask-type:luminance" maskUnits="userSpaceOnUse" x="0" y="3" width="24" height="18">
<rect x="0.25" y="3.67993" width="23.5" height="16.6429" rx="1.75" fill="white" stroke="white" stroke-width="0.5"/>
</mask>
<g mask="url(#mask0_91_2090)">
<path fill-rule="evenodd" clip-rule="evenodd" d="M0 14.8586H24V9.14429H0V14.8586Z" fill="#0C47B7"/>
<path fill-rule="evenodd" clip-rule="evenodd" d="M0 20.5727H24V14.8584H0V20.5727Z" fill="#E53B35"/>
<path d="M11.0029 6.19141C12.0775 6.19156 12.9597 7.04147 13.001 8.11523L13.2129 13.6172C13.2364 14.2275 12.9794 14.8154 12.5156 15.2129L10.3066 17.1064C9.30807 17.9621 7.83448 17.9622 6.83594 17.1064L4.62695 15.2129C4.16323 14.8154 3.90621 14.2275 3.92969 13.6172L4.1416 8.11523C4.1829 7.04153 5.06521 6.19166 6.13965 6.19141H11.0029Z" fill="#F73744" stroke="white" stroke-width="1.33333"/>
<mask id="mask1_91_2090" style="mask-type:luminance" maskUnits="userSpaceOnUse" x="3" y="5" width="11" height="14">
<path d="M11.0029 6.19141C12.0775 6.19156 12.9597 7.04147 13.001 8.11523L13.2129 13.6172C13.2364 14.2275 12.9794 14.8154 12.5156 15.2129L10.3066 17.1064C9.30807 17.9621 7.83448 17.9622 6.83594 17.1064L4.62695 15.2129C4.16323 14.8154 3.90621 14.2275 3.92969 13.6172L4.1416 8.11523C4.1829 7.04153 5.06521 6.19166 6.13965 6.19141H11.0029Z" fill="white" stroke="white" stroke-width="1.33333"/>
</mask>
<g mask="url(#mask1_91_2090)">
<path fill-rule="evenodd" clip-rule="evenodd" d="M7.99993 12.906C7.99993 12.7219 7.85069 12.5726 7.6666 12.5726H6.61898C6.43488 12.5726 6.28564 12.4234 6.28564 12.2393V11.7631C6.28564 11.579 6.43488 11.4298 6.61898 11.4298H7.6666C7.85069 11.4298 7.99993 11.2806 7.99993 11.0965V10.6203C7.99993 10.4362 7.85069 10.2869 7.6666 10.2869H7.19041C7.00631 10.2869 6.85707 10.1377 6.85707 9.9536V9.47741C6.85707 9.29332 7.00631 9.14408 7.19041 9.14408H7.6666C7.85069 9.14408 7.99993 8.99484 7.99993 8.81074V8.33455C7.99993 8.15046 8.14917 8.00122 8.33326 8.00122H8.80945C8.99355 8.00122 9.14279 8.15046 9.14279 8.33455V8.81074C9.14279 8.99484 9.29203 9.14408 9.47612 9.14408H9.95231C10.1364 9.14408 10.2856 9.29332 10.2856 9.47741V9.9536C10.2856 10.1377 10.1364 10.2869 9.95231 10.2869H9.47612C9.29203 10.2869 9.14279 10.4362 9.14279 10.6203V11.0965C9.14279 11.2806 9.29203 11.4298 9.47612 11.4298H10.5237C10.7078 11.4298 10.8571 11.579 10.8571 11.7631V12.2393C10.8571 12.4234 10.7078 12.5726 10.5237 12.5726H9.47612C9.29203 12.5726 9.14279 12.7219 9.14279 12.906V14.525C9.14279 14.7091 8.99355 14.8584 8.80945 14.8584H8.33326C8.14917 14.8584 7.99993 14.7091 7.99993 14.525V12.906Z" fill="white"/>
<path fill-rule="evenodd" clip-rule="evenodd" d="M7.53981 14.9375C6.15036 15.1564 5.14282 15.8058 5.14282 16.5728C5.14282 17.5196 6.67785 18.2871 8.57139 18.2871C10.4649 18.2871 12 17.5196 12 16.5728C12 15.8058 10.9925 15.1564 9.60303 14.9375C9.41907 14.5528 9.02628 14.2871 8.57142 14.2871C8.11656 14.2871 7.72377 14.5528 7.53981 14.9375Z" fill="#1251A1"/>
</g>
</g>
</svg>
