<svg width="24" height="24" viewBox="0 0 24 24" fill="none" xmlns="http://www.w3.org/2000/svg">
<rect y="3.42993" width="24" height="17.1429" rx="2" fill="white"/>
<mask id="mask0_91_1771" style="mask-type:luminance" maskUnits="userSpaceOnUse" x="0" y="3" width="24" height="18">
<rect y="3.42993" width="24" height="17.1429" rx="2" fill="white"/>
</mask>
<g mask="url(#mask0_91_1771)">
<rect y="3.42993" width="24" height="17.1429" fill="#19BFBF"/>
<path fill-rule="evenodd" clip-rule="evenodd" d="M12.0001 18.2872C15.4716 18.2872 18.2858 15.473 18.2858 12.0015C18.2858 8.53003 15.4716 5.71582 12.0001 5.71582C8.52857 5.71582 5.71436 8.53003 5.71436 12.0015C5.71436 15.473 8.52857 18.2872 12.0001 18.2872ZM17.1115 12.5729C16.8993 14.4921 15.6311 16.093 13.9007 16.7816C14.4579 15.6467 14.7834 14.1683 14.8461 12.5729H17.1115ZM13.7021 12.5729C13.6186 14.5006 13.1153 16.2043 12.3306 17.1338C12.2213 17.1407 12.1111 17.1442 12.0001 17.1442C11.8891 17.1442 11.7788 17.1407 11.6695 17.1338C10.8848 16.2043 10.3815 14.5006 10.2981 12.5729H13.7021ZM9.1541 12.5729C9.21679 14.1683 9.54229 15.6467 10.0994 16.7816C8.36911 16.093 7.10085 14.4921 6.88864 12.5729H9.1541ZM10.2981 11.4301H13.7021C13.6186 9.50222 13.1152 7.79839 12.3304 6.86894C12.2212 6.86202 12.1111 6.8585 12.0001 6.8585C11.8891 6.8585 11.779 6.86202 11.6697 6.86894C10.8849 7.79839 10.3815 9.50223 10.2981 11.4301ZM10.0996 7.22107C9.54233 8.35598 9.21679 9.83454 9.15409 11.4301H6.88861C7.10073 9.51071 8.3691 7.90966 10.0996 7.22107ZM17.1116 11.4301H14.8461C14.7834 9.83454 14.4578 8.35597 13.9006 7.22106C15.6311 7.90964 16.8995 9.51069 17.1116 11.4301Z" fill="white"/>
</g>
</svg>
