<svg width="24" height="24" viewBox="0 0 24 24" fill="none" xmlns="http://www.w3.org/2000/svg">
<rect y="3.42993" width="24" height="17.1429" rx="2" fill="white"/>
<mask id="mask0_91_3178" style="mask-type:luminance" maskUnits="userSpaceOnUse" x="0" y="3" width="24" height="18">
<rect y="3.42993" width="24" height="17.1429" rx="2" fill="white"/>
</mask>
<g mask="url(#mask0_91_3178)">
<rect y="3.42993" width="24" height="17.1429" fill="#E81B26"/>
<path fill-rule="evenodd" clip-rule="evenodd" d="M12 14.8586C13.5779 14.8586 14.8571 13.5794 14.8571 12.0014C14.8571 10.4235 13.5779 9.14429 12 9.14429C10.422 9.14429 9.14282 10.4235 9.14282 12.0014C9.14282 13.5794 10.422 14.8586 12 14.8586Z" fill="#FFE94F"/>
<path fill-rule="evenodd" clip-rule="evenodd" d="M8.74978 9.66923C8.92233 9.42917 9.12081 9.20901 9.34114 9.01285L1.68138 0.403564L-0.612785 2.95149L8.74978 9.66923ZM9.3411 14.9897C9.12078 14.7935 8.9223 14.5734 8.74975 14.3333L-0.612793 21.051L1.68137 23.5989L9.3411 14.9897ZM8.0397 12.567C8.01353 12.3822 8 12.1933 8 12.0013C8 11.8092 8.01354 11.6203 8.03971 11.4355L-4.54187e-05 10.287V13.7155L8.0397 12.567ZM12.7846 8.0782L13.7142 3.42983H10.2857L11.2153 8.07822C11.4691 8.02775 11.7314 8.00128 12 8.00128C12.2685 8.00128 12.5309 8.02774 12.7846 8.0782ZM15.9603 11.4355C15.9865 11.6203 16 11.8092 16 12.0013C16 12.1933 15.9865 12.3822 15.9603 12.567L24 13.7155V10.287L15.9603 11.4355ZM12.7846 15.9244C12.5309 15.9748 12.2685 16.0013 12 16.0013C11.7314 16.0013 11.4691 15.9748 11.2153 15.9244L10.2857 20.5727H13.7142L12.7846 15.9244ZM14.6588 14.9897C14.8792 14.7936 15.0777 14.5734 15.2502 14.3334L24.6127 21.051L22.3185 23.5989L14.6588 14.9897ZM14.6588 9.0128C14.8791 9.20896 15.0776 9.42912 15.2502 9.66918L24.6127 2.95149L22.3185 0.403564L14.6588 9.0128Z" fill="#FFE94F"/>
</g>
</svg>
