<svg width="24" height="24" viewBox="0 0 24 24" fill="none" xmlns="http://www.w3.org/2000/svg">
<rect x="0.25" y="3.67993" width="23.5" height="16.6429" rx="1.75" fill="white" stroke="#F5F5F5" stroke-width="0.5"/>
<mask id="mask0_91_3083" style="mask-type:luminance" maskUnits="userSpaceOnUse" x="0" y="3" width="24" height="18">
<rect x="0.25" y="3.67993" width="23.5" height="16.6429" rx="1.75" fill="white" stroke="white" stroke-width="0.5"/>
</mask>
<g mask="url(#mask0_91_3083)">
<path fill-rule="evenodd" clip-rule="evenodd" d="M0 20.5727H24V14.8584H0V20.5727Z" fill="#138E16"/>
<path fill-rule="evenodd" clip-rule="evenodd" d="M0 20.5728H8V14.8585H24V9.14422H8V3.42993H0V20.5728Z" fill="#ED2B35"/>
<path fill-rule="evenodd" clip-rule="evenodd" d="M4.00007 7.46855L3.00834 8.91783L3.52309 7.23885L1.77166 7.36709L3.40529 6.72271L2.21303 5.43335L3.73537 6.30881L4.00007 4.57275L4.26477 6.30881L5.78711 5.43335L4.59485 6.72271L6.22848 7.36709L4.47705 7.23885L4.9918 8.91783L4.00007 7.46855Z" fill="white"/>
</g>
</svg>
