<svg width="24" height="24" viewBox="0 0 24 24" fill="none" xmlns="http://www.w3.org/2000/svg">
<rect y="3.42993" width="24" height="17.1429" rx="2" fill="white"/>
<mask id="mask0_91_2136" style="mask-type:luminance" maskUnits="userSpaceOnUse" x="0" y="3" width="24" height="18">
<rect y="3.42993" width="24" height="17.1429" rx="2" fill="white"/>
</mask>
<g mask="url(#mask0_91_2136)">
<rect y="3.42993" width="24" height="17.1429" fill="#19BFBF"/>
<path fill-rule="evenodd" clip-rule="evenodd" d="M14.6215 18.623L13.77 17.7715C13.7334 17.7349 13.7058 17.6903 13.6895 17.6412L13.208 16.1967C13.1691 16.0802 13.06 16.0015 12.9372 16.0015C12.7514 16.0015 12.6151 16.1761 12.6602 16.3563L13.0972 18.1042C13.1256 18.2177 13.0923 18.3379 13.0095 18.4207L12.8072 18.623C12.677 18.7531 12.466 18.7531 12.3358 18.623L12.0977 18.3849C12.0352 18.3224 12.0001 18.2376 12.0001 18.1492V17.2231C12.0001 17.1713 11.988 17.1203 11.9649 17.074L11.5208 16.1858C11.4643 16.0729 11.3489 16.0015 11.2226 16.0015H9.79304C9.7413 16.0015 9.69026 16.0136 9.64397 16.0367L8.69499 16.5112C8.61592 16.5508 8.55579 16.6201 8.52784 16.7039L8.04373 18.1563C8.01578 18.2401 7.95565 18.3095 7.87657 18.349L7.00628 18.7841C6.91244 18.8311 6.80198 18.8311 6.70814 18.7841L5.89862 18.3794C5.78569 18.3229 5.71436 18.2075 5.71436 18.0812V16.3349C5.71436 16.1508 5.86359 16.0015 6.04769 16.0015H7.09531C7.2794 16.0015 7.42864 15.8523 7.42864 15.6682V14.9128C7.42864 14.8769 7.43442 14.8413 7.44575 14.8074L7.92409 13.3723C7.96947 13.2362 8.09685 13.1444 8.24032 13.1444H9.06424C9.11599 13.1444 9.16702 13.1323 9.21331 13.1092L10.2154 12.6082C10.2617 12.585 10.3127 12.573 10.3645 12.573H11.0953C11.2794 12.573 11.4286 12.4237 11.4286 12.2396V12.1396C11.4286 12.0512 11.4638 11.9664 11.5263 11.9039L11.673 11.7571C11.8339 11.5962 12.1051 11.6403 12.2069 11.8438L12.4794 12.3887C12.5358 12.5016 12.6513 12.573 12.7775 12.573H14.0455C14.189 12.573 14.3164 12.4812 14.3618 12.345L14.7812 11.0866C14.8266 10.9505 14.954 10.8587 15.0975 10.8587H15.7144C15.8722 10.8587 16.0001 10.7308 16.0001 10.573C16.0001 10.4152 15.8722 10.2872 15.7144 10.2872H15.1905C15.0065 10.2872 14.8572 10.138 14.8572 9.95392V9.22308C14.8572 9.17133 14.8693 9.1203 14.8924 9.07401L15.3212 8.21642C15.3854 8.08809 15.3602 7.9331 15.2588 7.83165L15.0929 7.66581C14.9627 7.53563 14.7517 7.53563 14.6215 7.66581L13.812 8.47533C13.7495 8.53784 13.7144 8.62263 13.7144 8.71103V9.66173C13.7144 9.69756 13.7086 9.73315 13.6972 9.76714L13.2189 11.2022C13.1735 11.3383 13.0462 11.4301 12.9027 11.4301H12.7096C12.6212 11.4301 12.5364 11.395 12.4739 11.3325L12.0824 10.941C12.0297 10.8883 12.0001 10.8168 12.0001 10.7422C12.0001 10.5332 11.7801 10.3972 11.5931 10.4907L11.0721 10.7512C10.9438 10.8154 10.7888 10.7902 10.6873 10.6888L10.3834 10.3849C10.3209 10.3224 10.2858 10.2376 10.2858 10.1492V9.28246C10.2858 9.19406 10.3209 9.10927 10.3834 9.04676L11.4286 8.00153L13.0873 6.34289C13.1239 6.3063 13.1685 6.27873 13.2176 6.26237L14.8059 5.73293C14.8399 5.7216 14.8755 5.71582 14.9113 5.71582H15.7941C15.9203 5.71582 16.0357 5.78715 16.0922 5.90008L16.5363 6.7883C16.5594 6.83458 16.5715 6.88562 16.5715 6.93737V8.43489C16.5715 8.5233 16.6066 8.60808 16.6691 8.67059L16.9973 8.99872C17.0865 9.088 17.1177 9.22005 17.0778 9.33983L16.652 10.6171C16.6045 10.7597 16.6583 10.9165 16.7833 10.9999L18.2858 12.0015L19.0909 12.4041C19.2702 12.4938 19.3304 12.7203 19.2192 12.8871L18.3418 14.2033C18.3053 14.258 18.2858 14.3224 18.2858 14.3882V15.7613C18.2858 15.9048 18.194 16.0321 18.0579 16.0775L16.7025 16.5293C16.6186 16.5573 16.5493 16.6174 16.5098 16.6965L16.0243 17.6674C16.0082 17.6995 15.9872 17.7287 15.9618 17.7541L15.0929 18.623C14.9627 18.7531 14.7517 18.7531 14.6215 18.623ZM9.71437 18.2871C10.03 18.2871 10.2858 18.0312 10.2858 17.7156C10.2858 17.4001 10.03 17.1442 9.71437 17.1442C9.39878 17.1442 9.14294 17.4001 9.14294 17.7156C9.14294 18.0312 9.39878 18.2871 9.71437 18.2871ZM8.00009 10.8585C8.00009 11.1741 7.74425 11.4299 7.42866 11.4299C7.11307 11.4299 6.85723 11.1741 6.85723 10.8585C6.85723 10.5429 7.11307 10.2871 7.42866 10.2871C7.74425 10.2871 8.00009 10.5429 8.00009 10.8585Z" fill="white"/>
<path fill-rule="evenodd" clip-rule="evenodd" d="M8.53624 10.929C8.55938 10.8827 8.57143 10.8316 8.57143 10.7799V10.3658C8.57143 10.3141 8.55938 10.263 8.53624 10.2168L8.2412 9.62669C8.13039 9.40506 8.29155 9.14429 8.53934 9.14429H8.80952C8.99362 9.14429 9.14286 9.29353 9.14286 9.47762V10.7799C9.14286 10.8316 9.15491 10.8827 9.17805 10.929L9.47308 11.519C9.5839 11.7407 9.42274 12.0014 9.17494 12.0014H8.53934C8.29155 12.0014 8.13039 11.7407 8.2412 11.519L8.53624 10.929Z" fill="white"/>
</g>
</svg>
