<svg width="24" height="24" viewBox="0 0 24 24" fill="none" xmlns="http://www.w3.org/2000/svg">
<rect y="3.42993" width="24" height="17.1429" rx="2" fill="white"/>
<mask id="mask0_91_2012" style="mask-type:luminance" maskUnits="userSpaceOnUse" x="0" y="3" width="24" height="18">
<rect y="3.42993" width="24" height="17.1429" rx="2" fill="white"/>
</mask>
<g mask="url(#mask0_91_2012)">
<rect y="3.42993" width="24" height="17.1429" fill="#FF2936"/>
<path fill-rule="evenodd" clip-rule="evenodd" d="M0 20.5728H9.14286V3.42993H0V20.5728Z" fill="#128415"/>
<path fill-rule="evenodd" clip-rule="evenodd" d="M12.762 12.0014C12.762 14.0001 11.1417 15.6204 9.14297 15.6204C7.14423 15.6204 5.52393 14.0001 5.52393 12.0014C5.52393 10.0026 7.14423 8.38232 9.14297 8.38232C11.1417 8.38232 12.762 10.0026 12.762 12.0014ZM11.4287 12.0014C11.4287 13.2637 10.4053 14.2871 9.14297 14.2871C7.88061 14.2871 6.85726 13.2637 6.85726 12.0014C6.85726 10.739 7.88061 9.71566 9.14297 9.71566C10.4053 9.71566 11.4287 10.739 11.4287 12.0014Z" fill="#FAF94F"/>
<path fill-rule="evenodd" clip-rule="evenodd" d="M8 10.6204C8 10.4363 8.14924 10.2871 8.33333 10.2871H9.95238C10.1365 10.2871 10.2857 10.4363 10.2857 10.6204V12.5728C10.2857 13.204 9.77404 13.7157 9.14286 13.7157C8.51167 13.7157 8 13.204 8 12.5728V10.6204Z" fill="white"/>
<path fill-rule="evenodd" clip-rule="evenodd" d="M9.14296 12.5729C9.45855 12.5729 9.71439 11.7457 9.71439 11.4301C9.71439 11.1145 9.45855 10.8586 9.14296 10.8586C8.82737 10.8586 8.57153 11.1145 8.57153 11.4301C8.57153 11.7457 8.82737 12.5729 9.14296 12.5729Z" fill="#1D50B5"/>
</g>
</svg>
