<svg width="24" height="24" viewBox="0 0 24 24" fill="none" xmlns="http://www.w3.org/2000/svg">
<rect y="3.42993" width="24" height="17.1429" rx="2" fill="#D01129"/>
<mask id="mask0_91_1139" style="mask-type:luminance" maskUnits="userSpaceOnUse" x="0" y="3" width="24" height="18">
<rect y="3.42993" width="24" height="17.1429" rx="2" fill="white"/>
</mask>
<g mask="url(#mask0_91_1139)">
<path fill-rule="evenodd" clip-rule="evenodd" d="M11.9041 12.0362C12.4706 12.0362 12.9299 11.554 12.9299 10.9593C12.9299 10.3645 12.4706 9.88232 11.9041 9.88232C11.3376 9.88232 10.8784 10.3645 10.8784 10.9593C10.8784 11.554 11.3376 12.0362 11.9041 12.0362Z" fill="#FFF101"/>
<path fill-rule="evenodd" clip-rule="evenodd" d="M10.9691 10.5263C11.2596 10.429 11.6365 10.5422 11.8844 10.7921C12.1477 10.7417 12.4116 10.3947 12.4934 10.0857C12.4035 9.05889 11.7638 8.28101 11.5693 7.74723C11.5078 7.57852 11.2226 7.31326 10.926 7.43677C10.6821 7.53837 10.5588 7.45931 9.73971 7.88825C9.29683 8.12018 8.92405 8.35839 8.72762 8.39991C8.53109 8.44143 8.32378 8.47845 8.1666 8.34917C7.9504 8.17134 7.70793 8.12217 7.56513 7.98817C7.39018 7.82398 7.27793 7.70004 7.1596 7.64982C7.04126 7.59949 6.84094 7.71126 6.92552 7.97727C7.11636 8.57805 7.56623 8.67535 7.75936 9.23693C7.85054 9.5024 7.98016 9.70193 8.26985 9.50073C8.55955 9.29952 8.96898 9.03226 9.66701 9.00416C10.1358 8.98518 10.6202 8.80421 10.8428 8.50728C10.8406 8.76416 10.9269 8.9747 10.9041 9.30885C10.8814 9.64311 10.885 10.0588 10.9691 10.5263Z" fill="white"/>
<path fill-rule="evenodd" clip-rule="evenodd" d="M11.5183 10.5545C11.4322 10.0491 11.5883 9.97619 11.4019 9.38369C11.2899 9.02741 11.2183 8.58086 11.2165 8.37305L11.1416 8.3959C11.1434 8.60372 11.2151 9.05037 11.327 9.40665C11.5073 9.97955 11.3672 10.0666 11.4357 10.5289C11.4569 10.5334 11.5013 10.5482 11.5183 10.5545Z" fill="#FFF101"/>
<path fill-rule="evenodd" clip-rule="evenodd" d="M11.0773 10.499C11.0779 10.4348 11.074 10.3677 11.0645 10.31C11.1962 10.2768 11.4218 10.4046 11.4155 10.3096C11.4136 10.2795 11.4165 10.1822 11.4183 10.1306C11.4154 10.2112 11.1018 10.0751 11.0477 10.1103C10.9897 9.81616 11.0616 9.51356 11.0156 9.32892C11.1203 9.29883 11.3129 9.36447 11.2893 9.27828C11.2759 9.23414 11.2503 9.12436 11.2335 9.05569C11.2499 9.12761 11.0971 9.06806 11.0453 9.10916C11.0185 8.94968 10.9792 8.64709 10.98 8.50879L10.8428 8.50732C10.8406 8.7642 10.9269 8.97474 10.9041 9.3089C10.8815 9.64316 10.8851 10.0589 10.9691 10.5263C10.9992 10.5171 11.0487 10.5052 11.0773 10.499Z" fill="#FFF101"/>
<path fill-rule="evenodd" clip-rule="evenodd" d="M10.7307 8.15101C10.5262 8.46105 10.0377 8.67504 9.58603 8.72233C9.05736 8.77769 8.70245 8.96244 8.44112 9.1433C8.41865 9.10084 8.3781 9.07798 8.34225 9.04998C7.95988 8.75263 8.11707 8.3497 8.26187 8.40726C8.20724 8.38503 8.17549 8.35504 8.14563 8.3325C8.0951 8.29318 7.9493 8.44385 7.96757 8.68312C7.97536 8.78503 8.05845 8.93538 8.12605 9.01507C8.00263 8.99148 7.94351 8.95835 7.87101 8.86639C7.91175 8.83976 7.96448 8.82466 8.00702 8.8212C7.99254 8.78472 7.97237 8.74424 7.96757 8.68312C7.90716 8.68259 7.83346 8.70472 7.77025 8.7498C7.61856 8.59116 7.46238 8.46461 7.3718 8.27735C7.2269 7.97738 7.3743 7.78802 7.56513 7.98828C7.39018 7.82409 7.27793 7.70016 7.1596 7.64993C7.04126 7.5996 6.84094 7.71137 6.92552 7.97738C7.11636 8.57816 7.56623 8.67546 7.75936 9.23704C7.85054 9.50251 7.98495 9.70938 8.26985 9.50084C8.3074 9.47337 8.31739 9.46687 8.35004 9.44254C8.44042 9.3877 8.58362 9.47976 8.56834 9.67992C8.64154 9.49612 8.5948 9.43981 8.53269 9.32962C8.48675 9.35531 8.49045 9.20485 8.46209 9.18503C8.62466 9.07892 8.82239 8.9725 9.07184 8.8967C9.08103 8.98655 9.10459 9.08196 9.18339 9.06812C9.22563 9.05827 9.26847 9.04936 9.3135 9.04149C9.23471 9.05533 9.21254 8.9509 9.20346 8.86115C9.32169 8.83263 9.45091 8.81103 9.59252 8.79887C9.75569 8.78482 9.92436 8.75001 10.0827 8.69601C10.1063 8.7822 10.155 8.92742 10.2362 8.8989C10.3082 8.87468 10.3782 8.84731 10.4439 8.81554C10.331 8.87206 10.2866 8.71069 10.2594 8.62535C10.4658 8.53109 10.6417 8.40254 10.7468 8.24915L10.7307 8.15101Z" fill="#FFF101"/>
<path fill-rule="evenodd" clip-rule="evenodd" d="M11.6341 8.30505C11.7337 8.22389 11.8193 8.18552 11.7333 8.01367C11.5927 7.73267 11.6801 7.73171 11.3722 7.55294C11.0587 7.37113 11.0983 7.35687 10.6834 7.51048C10.5813 7.54822 10.6041 7.58681 10.622 7.74219C10.6604 8.07708 10.7335 8.34677 10.8003 8.62231C11.0611 8.58656 11.4624 8.44502 11.6341 8.30505Z" fill="#FFF101"/>
<path fill-rule="evenodd" clip-rule="evenodd" d="M10.6608 8.22874C10.6061 8.06433 10.6207 8.08667 10.8191 8.13678C10.884 7.92006 10.9736 7.73714 11.0239 7.56173C11.08 7.36535 11.0976 7.33001 11.1801 7.37814C11.2858 7.43958 11.4018 7.50448 11.4774 7.54348C11.6094 7.61143 11.59 7.63523 11.527 7.74322C11.4639 7.85122 11.2579 8.0701 11.1307 8.29846C11.2984 8.42239 11.3522 8.43361 11.2331 8.48698C11.0998 8.54664 10.8783 8.62056 10.785 8.63807C10.7679 8.53018 10.7128 8.38465 10.6608 8.22874Z" fill="#FFF101"/>
<path fill-rule="evenodd" clip-rule="evenodd" d="M8.69204 9.77497L8.67885 9.94409L8.56012 9.83086L8.4273 9.92554L8.43609 9.75673L8.2832 9.70818L8.41382 9.60983L8.3562 9.45298L8.50949 9.49995L8.59048 9.35474L8.65199 9.50981L8.81017 9.48475L8.73268 9.63269L8.84932 9.74698L8.69204 9.77497Z" fill="#FFF101"/>
<path fill-rule="evenodd" clip-rule="evenodd" d="M12.0145 12.026C11.7889 11.8104 11.6938 11.4112 11.776 11.0608C11.6028 10.8467 11.1846 10.7801 10.8888 10.8602C10.0868 11.4554 9.76507 12.426 9.42205 12.8698C9.3136 13.0101 9.23741 13.4019 9.48766 13.61C9.69337 13.7809 9.68988 13.9325 10.4531 14.4628C10.8658 14.7496 11.2487 14.9694 11.3812 15.1273C11.5138 15.2852 11.648 15.4553 11.6199 15.6628C11.5814 15.9483 11.6619 16.1934 11.6229 16.3901C11.5749 16.6313 11.5288 16.7954 11.5465 16.9281C11.5643 17.0609 11.7565 17.1871 11.9337 16.9772C12.3337 16.5033 12.1891 16.0456 12.5558 15.5892C12.7291 15.3735 12.8289 15.1559 12.5182 14.993C12.2073 14.8303 11.7822 14.5916 11.4099 13.9711C11.1599 13.5543 10.7685 13.2042 10.4122 13.1503C10.6252 13.024 10.7558 12.8402 11.0428 12.6937C11.3298 12.5472 11.6709 12.3363 12.0145 12.026Z" fill="white"/>
<path fill-rule="evenodd" clip-rule="evenodd" d="M11.7632 11.5125C11.3894 11.8435 11.2512 11.7379 10.8556 12.2036C10.6178 12.4837 10.2853 12.7721 10.1147 12.8776L10.1711 12.9342C10.3416 12.8287 10.6742 12.5403 10.912 12.2602C11.2945 11.8099 11.4363 11.8938 11.7834 11.6003C11.7765 11.5789 11.7665 11.531 11.7632 11.5125Z" fill="#FFF101"/>
<path fill-rule="evenodd" clip-rule="evenodd" d="M11.938 11.9416C11.8847 11.9732 11.8313 12.0103 11.7885 12.0477C11.6952 11.9445 11.6878 11.6755 11.6127 11.7289C11.5887 11.7454 11.5071 11.7916 11.4635 11.8157C11.5316 11.778 11.5761 12.1313 11.6321 12.1628C11.4185 12.3627 11.133 12.4485 11.0038 12.5827C10.9266 12.5024 10.8844 12.2947 10.8251 12.3592C10.7954 12.3934 10.7177 12.4715 10.6694 12.5212C10.7205 12.4702 10.7478 12.6391 10.8075 12.6655C10.6895 12.7697 10.4595 12.9566 10.345 13.0251L10.4124 13.1506C10.6254 13.0243 10.756 12.8405 11.043 12.694C11.33 12.5475 11.6711 12.3366 12.0147 12.0263C11.992 12.0036 11.9573 11.9645 11.938 11.9416Z" fill="#FFF101"/>
<path fill-rule="evenodd" clip-rule="evenodd" d="M10.1743 13.4305C10.5323 13.4615 10.953 13.7987 11.2179 14.1858C11.5278 14.6388 11.8578 14.8691 12.1376 15.0163C12.1138 15.058 12.1152 15.1062 12.1101 15.1529C12.056 15.6492 11.6451 15.7078 11.6201 15.5473C11.6291 15.6081 11.6202 15.652 11.6166 15.6905C11.6094 15.7561 11.8066 15.8132 11.9948 15.677C12.075 15.6189 12.1574 15.4683 12.1894 15.367C12.2316 15.4909 12.2338 15.5613 12.1943 15.6732C12.1519 15.6495 12.1131 15.609 12.089 15.5722C12.0661 15.6035 12.0428 15.6421 11.9948 15.677C12.0245 15.7323 12.0797 15.7882 12.1485 15.8231C12.0935 16.0403 12.0672 16.2456 11.9579 16.4216C11.7831 16.7033 11.5531 16.664 11.6229 16.3903C11.5749 16.6315 11.5288 16.7956 11.5465 16.9283C11.5643 17.061 11.7565 17.1873 11.9337 16.9774C12.3337 16.5035 12.1891 16.0458 12.5558 15.5894C12.7291 15.3737 12.8326 15.1481 12.5182 14.9932C12.4766 14.9729 12.4663 14.9671 12.43 14.9495C12.3395 14.8948 12.3439 14.7185 12.5166 14.6323C12.3284 14.6577 12.3054 14.7284 12.2455 14.8399C12.2896 14.8688 12.1637 14.9407 12.1615 14.9764C11.9927 14.8816 11.8061 14.7551 11.6188 14.5661C11.6884 14.5129 11.7553 14.4437 11.7044 14.379C11.6751 14.3456 11.6464 14.311 11.6173 14.2739C11.6682 14.3387 11.5932 14.411 11.5236 14.4642C11.4411 14.371 11.3587 14.2643 11.2778 14.1416C11.1846 14.0002 11.0716 13.8643 10.9478 13.7473C11.0072 13.6827 11.1025 13.5659 11.0384 13.5062C10.9825 13.4529 10.9249 13.4029 10.8659 13.3591C10.9689 13.4336 10.858 13.5547 10.8012 13.622C10.6202 13.4815 10.4263 13.3858 10.2472 13.367L10.1743 13.4305Z" fill="#FFF101"/>
<path fill-rule="evenodd" clip-rule="evenodd" d="M9.70446 12.5995C9.58763 12.5495 9.64528 12.4819 9.54652 12.646C9.38504 12.9143 9.35384 12.8525 9.36043 13.2219C9.36712 13.5977 9.43664 13.5378 9.77087 13.8383C10.0278 13.636 10.3345 13.3303 10.5283 13.1317C10.3684 12.9125 9.90569 12.6858 9.70446 12.5995Z" fill="#FFF101"/>
<path fill-rule="evenodd" clip-rule="evenodd" d="M10.2735 13.4553C10.1652 13.5873 10.1763 13.5629 10.1185 13.3574C9.90728 13.4067 9.74436 13.4636 9.5747 13.5057C9.38456 13.5527 9.34671 13.5544 9.34502 13.4553C9.34292 13.3285 9.33853 13.1906 9.33283 13.1023C9.32295 12.9484 9.35221 12.954 9.47284 12.9574C9.59347 12.9607 9.84407 12.9918 10.096 12.9932C10.1144 12.7787 10.0967 12.7242 10.2004 12.8059C10.3161 12.8972 10.4879 13.0617 10.549 13.1377C10.4685 13.2072 10.3761 13.3301 10.2735 13.4553Z" fill="#FFF101"/>
<path fill-rule="evenodd" clip-rule="evenodd" d="M12.5331 14.4723L12.6792 14.3997L12.6451 14.5642L12.7897 14.6377L12.646 14.714L12.6824 14.8774L12.5359 14.8077L12.4353 14.9386L12.3975 14.7757L12.2372 14.7746L12.3345 14.6412L12.2346 14.51L12.3955 14.5064L12.4314 14.3433L12.5331 14.4723Z" fill="#FFF101"/>
<path fill-rule="evenodd" clip-rule="evenodd" d="M12.7287 10.3256C12.6638 10.6384 12.3819 10.9245 12.0518 11.0251C11.9618 11.2895 12.116 11.7029 12.33 11.932C13.2218 12.3636 14.1834 12.1709 14.7209 12.2608C14.8909 12.2892 15.2522 12.1626 15.2986 11.8312C15.3368 11.5587 15.4635 11.4861 15.5193 10.5268C15.5495 10.0081 15.5394 9.55006 15.6034 9.35063C15.6674 9.15121 15.7406 8.94413 15.9258 8.86591C16.1805 8.75823 16.3424 8.56227 16.5243 8.49947C16.7471 8.42251 16.9055 8.38235 17.0061 8.29994C17.1067 8.21753 17.1147 7.97952 16.8531 7.92342C16.2621 7.79656 15.9569 8.15692 15.3971 8.05165C15.1326 8.00196 14.9031 8.01989 14.9243 8.38403C14.9454 8.74806 14.9611 9.25396 14.6354 9.90266C14.4166 10.3384 14.3236 10.8694 14.4572 11.2203C14.2465 11.0898 14.0296 11.0629 13.7654 10.8752C13.501 10.6875 13.1564 10.4829 12.7287 10.3256Z" fill="white"/>
<path fill-rule="evenodd" clip-rule="evenodd" d="M12.4309 10.8109C12.8909 10.9853 12.8729 11.1637 13.4548 11.2906C13.8047 11.3668 14.2088 11.5249 14.3812 11.6273L14.3997 11.5477C14.2274 11.4454 13.8232 11.2874 13.4734 11.211C12.9106 11.0884 12.9089 10.9174 12.4933 10.7485C12.4791 10.7656 12.4446 10.7987 12.4309 10.8109Z" fill="#FFF101"/>
<path fill-rule="evenodd" clip-rule="evenodd" d="M12.6972 10.4377C12.7499 10.4703 12.8072 10.5003 12.8594 10.5206C12.8211 10.6569 12.6028 10.7982 12.6844 10.8399C12.71 10.8534 12.7888 10.9046 12.8305 10.932C12.7655 10.8889 13.0345 10.6719 13.0326 10.6051C13.3043 10.6995 13.5178 10.9162 13.6932 10.9666C13.6656 11.0769 13.5152 11.2191 13.5981 11.2408C13.6411 11.2507 13.7445 11.2823 13.8096 11.3013C13.742 11.2803 13.8676 11.1711 13.8595 11.1037C14.0045 11.1588 14.2737 11.2745 14.3874 11.3444L14.4572 11.2204C14.2465 11.0898 14.0296 11.063 13.7654 10.8753C13.501 10.6875 13.1564 10.483 12.7287 10.3257C12.7213 10.3576 12.7063 10.4086 12.6972 10.4377Z" fill="#FFF101"/>
<path fill-rule="evenodd" clip-rule="evenodd" d="M14.8072 11.2965C14.6537 10.9556 14.7215 10.4044 14.9085 9.96998C15.1272 9.46156 15.1521 9.04646 15.1336 8.7185C15.1799 8.71934 15.219 8.69386 15.2601 8.67519C15.6965 8.47629 15.9502 8.82062 15.8303 8.92348C15.876 8.88489 15.9167 8.87116 15.9501 8.85522C16.0079 8.8288 15.9564 8.62099 15.75 8.51802C15.662 8.47409 15.4966 8.47451 15.3969 8.49601C15.4782 8.39567 15.535 8.35855 15.6471 8.33852C15.6488 8.38895 15.6348 8.44442 15.6164 8.48479C15.6538 8.48982 15.6972 8.49171 15.75 8.51802C15.7807 8.46329 15.7992 8.38529 15.7937 8.30518C16.0004 8.24667 16.1828 8.16793 16.3825 8.17926C16.7024 8.1974 16.785 8.42618 16.5244 8.49947C16.7472 8.42251 16.9056 8.38235 17.0062 8.29994C17.1068 8.21753 17.1148 7.97952 16.8532 7.92342C16.2622 7.79656 15.957 8.15692 15.3972 8.05165C15.1327 8.00196 14.8948 8.02062 14.9244 8.38403C14.9283 8.43194 14.9287 8.44421 14.9324 8.48605C14.9324 8.59572 14.7849 8.67981 14.6275 8.56584C14.7424 8.72437 14.8122 8.71 14.9341 8.70864C14.9359 8.65401 15.0582 8.73255 15.0887 8.71671C15.095 8.9176 15.0838 9.15058 15.0216 9.41532C14.9429 9.37873 14.8526 9.35241 14.8245 9.43105C14.8115 9.47435 14.7974 9.51776 14.7815 9.56264C14.8094 9.484 14.9066 9.51619 14.9852 9.55278C14.9496 9.67451 14.9028 9.80285 14.8421 9.93768C14.772 10.0931 14.7165 10.2638 14.6818 10.4349C14.5989 10.4132 14.4548 10.3849 14.4376 10.473C14.4217 10.5505 14.4092 10.6279 14.4026 10.7035C14.4125 10.5725 14.5678 10.6128 14.6517 10.6307C14.6264 10.8656 14.6444 11.0898 14.7183 11.2621L14.8072 11.2965Z" fill="#FFF101"/>
<path fill-rule="evenodd" clip-rule="evenodd" d="M14.1931 12.0093C14.2102 12.1406 14.199 12.2376 14.3838 12.2452C14.6859 12.2579 14.6613 12.297 14.9627 12.1064C15.2694 11.9123 15.2775 11.9507 15.3583 11.4966C15.3782 11.3849 15.335 11.3863 15.1979 11.3248C14.9026 11.1923 14.6444 11.2013 14.3838 11.1243C14.2828 11.3794 14.1635 11.7833 14.1931 12.0093Z" fill="#FFF101"/>
<path fill-rule="evenodd" clip-rule="evenodd" d="M14.778 11.194C14.9411 11.2263 14.9153 11.2285 14.7748 11.3839C14.9211 11.5513 15.0331 11.669 15.1527 11.8024C15.2866 11.9517 15.3069 11.9852 15.226 12.0363C15.1224 12.1016 15.011 12.1746 14.941 12.224C14.8189 12.3099 14.809 12.2804 14.7514 12.169C14.6937 12.0578 14.6103 11.8161 14.4856 11.5865C14.2994 11.6769 14.2633 11.7203 14.2789 11.5852C14.2964 11.4342 14.3462 11.1958 14.3783 11.1023C14.4758 11.1407 14.6234 11.1632 14.778 11.194Z" fill="#FFF101"/>
<path fill-rule="evenodd" clip-rule="evenodd" d="M14.4872 8.63107L14.3542 8.53451L14.507 8.48313L14.4953 8.31495L14.6301 8.40743L14.7467 8.29272L14.7625 8.46069L14.9207 8.4867L14.8052 8.60266L14.8845 8.74882L14.7258 8.72712L14.6674 8.88355L14.5841 8.73907L14.4315 8.78803L14.4872 8.63107Z" fill="#FFF101"/>
<path fill-rule="evenodd" clip-rule="evenodd" d="M11.8801 10.797C11.6319 10.5468 11.2571 10.4369 10.971 10.5327L10.963 10.5277C10.8879 10.11 10.8709 9.70653 10.8979 9.30859C10.9084 9.15466 10.8993 9.04199 10.8692 8.84108C10.8567 8.75776 10.855 8.7461 10.8506 8.71161C10.8417 8.64242 10.837 8.58383 10.8366 8.52605C10.6169 8.80458 10.1522 8.99129 9.66728 9.01092C9.09364 9.03401 8.7354 9.18548 8.27333 9.5064C8.01662 9.6847 7.87002 9.57859 7.75352 9.23936C7.67638 9.01506 7.58231 8.88558 7.35669 8.64723L7.33933 8.6289C7.10303 8.37918 7.0003 8.23352 6.91963 7.97955C6.8443 7.74263 7.00705 7.57807 7.16196 7.64396C7.17251 7.64843 7.1831 7.65352 7.19379 7.65924C7.24368 7.68593 7.29487 7.72537 7.36262 7.7872C7.38582 7.80838 7.45382 7.87333 7.50647 7.92362L7.50647 7.92362L7.56932 7.98349C7.57741 7.99108 7.58577 7.99841 7.59454 8.00557C7.58236 7.99733 7.56966 7.99197 7.55665 7.9893L7.49789 7.93328L7.49789 7.93328L7.49789 7.93328C7.44528 7.88302 7.37751 7.8183 7.35444 7.79724C7.2874 7.73605 7.23693 7.69717 7.18814 7.67106C7.17776 7.66551 7.1675 7.66058 7.15729 7.65625C7.01234 7.5946 6.85949 7.74915 6.93148 7.97555C7.0114 8.22714 7.11314 8.3714 7.34819 8.6198L7.36555 8.63814C7.59237 8.87774 7.68735 9.00848 7.76527 9.23506C7.87943 9.56746 8.01829 9.66797 8.26645 9.49562C8.73026 9.17348 9.09052 9.02117 9.66681 8.99797C10.1568 8.97813 10.6257 8.78666 10.8379 8.50358L10.8491 8.50769C10.8485 8.57092 10.8532 8.63394 10.8629 8.71C10.8673 8.74435 10.8691 8.75598 10.8815 8.83919C10.9118 9.041 10.9209 9.15451 10.9104 9.30967C10.8836 9.70424 10.9002 10.1042 10.974 10.5182L10.9672 10.5204L10.9753 10.5254L10.974 10.5182C11.2637 10.4247 11.6393 10.5363 11.8834 10.786C12.1299 10.7388 12.4007 10.412 12.4872 10.0866C12.4445 9.59827 12.2867 9.15668 12.0032 8.61422C11.9594 8.53052 11.84 8.31093 11.782 8.20435L11.7501 8.14572C11.6597 7.97665 11.6027 7.85749 11.5635 7.74992C11.4823 7.52722 11.1787 7.33896 10.9283 7.44321C10.8943 7.4574 10.8611 7.46871 10.8248 7.47886C10.8016 7.48537 10.7779 7.49121 10.7456 7.49862C10.4122 7.57492 10.2277 7.64038 9.74254 7.89447L9.70159 7.91603C9.60833 7.96541 9.38366 8.08942 9.24382 8.16661C9.18443 8.19939 9.14034 8.22373 9.12813 8.23031C8.93602 8.33382 8.81571 8.38834 8.72889 8.40669C8.44178 8.46735 8.29662 8.46476 8.16279 8.35468C8.12064 8.32001 8.07559 8.28867 8.02597 8.25879C8.01317 8.25109 8.00019 8.24355 7.9868 8.23602L7.99074 8.23116L7.98895 8.22224C8.00378 8.23052 8.01808 8.2388 8.03217 8.24728C8.08229 8.27745 8.12783 8.30914 8.17047 8.34422C8.3004 8.45108 8.44278 8.45362 8.72641 8.3937C8.81172 8.37567 8.93135 8.32146 9.12242 8.21851C9.13458 8.21195 9.17852 8.1877 9.23775 8.155L9.23783 8.15496C9.37764 8.07779 9.60255 7.95363 9.69596 7.90418L9.73696 7.8826C10.2231 7.628 10.4086 7.5622 10.7429 7.48567C10.7751 7.4783 10.7986 7.4725 10.8216 7.46605C10.8575 7.45602 10.8901 7.44488 10.9237 7.43089C11.1812 7.32365 11.4916 7.51613 11.5751 7.7451C11.6141 7.85192 11.6709 7.9706 11.761 8.13916L11.7927 8.19748C11.8506 8.30394 11.9703 8.5239 12.0141 8.60777C12.2984 9.15166 12.4567 9.5948 12.4994 10.0876C12.4115 10.4198 12.1374 10.7506 11.8801 10.797ZM7.97705 8.21566L7.98895 8.22224L7.98871 8.22102C7.98482 8.21904 7.98094 8.21725 7.97705 8.21566ZM7.93059 8.20576C7.94601 8.20603 7.96153 8.2093 7.97705 8.21566C7.95376 8.2029 7.92902 8.19003 7.90168 8.17633C7.88867 8.16982 7.85983 8.15571 7.83297 8.1426L7.83267 8.13994C7.82215 8.13494 7.81187 8.13073 7.8018 8.12736L7.77736 8.1154C7.69887 8.07646 7.64526 8.04553 7.60196 8.01151L7.60198 8.01101C7.59952 8.00907 7.59704 8.00726 7.59454 8.00557L7.60196 8.01151L7.60169 8.0217L7.59759 8.02457C7.59401 8.0218 7.59049 8.019 7.58704 8.01618L7.5871 8.01614C7.58958 8.01779 7.59204 8.01956 7.59447 8.02148L7.59476 8.01079L7.5871 8.01614C7.58691 8.01602 7.58673 8.0159 7.58654 8.01578C7.57768 8.00853 7.56921 8.0011 7.56101 7.99341L7.55665 7.9893C7.47645 7.97281 7.38471 8.05815 7.33259 8.19553L7.34185 8.20341L7.59759 8.02457C7.63735 8.05534 7.6855 8.08367 7.75248 8.1176C7.65493 8.11298 7.57296 8.20415 7.46824 8.43722L7.47775 8.44516L7.82892 8.15521C7.85541 8.16815 7.88355 8.18191 7.89631 8.18831L7.93059 8.20576ZM7.97009 8.22677C7.95743 8.21984 7.94432 8.21288 7.93059 8.20576C7.81921 8.20379 7.71322 8.35819 7.64968 8.63312L7.6605 8.63892L7.9868 8.23602L7.97541 8.22969L7.97585 8.22913L7.98325 8.23264L7.98122 8.2225L7.97585 8.22913L7.97009 8.22677ZM7.66833 8.60885C7.7394 8.32301 7.8563 8.18314 7.97009 8.22677L7.97541 8.22969L7.66833 8.60885ZM7.66833 8.60885L7.6618 8.63605L7.65098 8.63026L7.66833 8.60885ZM7.81634 8.14906L7.82892 8.15521L7.83395 8.15106L7.83297 8.1426L7.81634 8.13447L7.81634 8.13447L7.8018 8.12736C7.78483 8.12167 7.76845 8.11835 7.75248 8.1176L7.77204 8.1274L7.79726 8.13974C7.6878 8.10372 7.60426 8.17304 7.49109 8.4176L7.47005 8.43498L7.47955 8.44292L7.49109 8.4176L7.81634 8.14906ZM7.81802 8.14767C7.81099 8.14463 7.80408 8.14198 7.79726 8.13974L7.81119 8.14655L7.81634 8.14906L7.81802 8.14767ZM7.81802 8.14767L7.82754 8.152L7.82625 8.14088L7.81802 8.14767ZM7.35218 8.18042L7.58704 8.01618C7.58687 8.01605 7.58671 8.01591 7.58654 8.01578C7.51139 7.96677 7.41133 8.04093 7.35218 8.18042ZM7.35218 8.18042L7.33492 8.19249L7.34418 8.20037C7.34675 8.19358 7.34942 8.18693 7.35218 8.18042Z" fill="black"/>
<path fill-rule="evenodd" clip-rule="evenodd" d="M11.5007 10.0818C11.4919 10.2755 11.4949 10.3798 11.5245 10.5534L11.5163 10.5608C11.5069 10.5573 11.4947 10.5531 11.482 10.5488C11.4631 10.5423 11.4431 10.5354 11.4296 10.5299C11.407 10.3776 11.4052 10.2828 11.4134 10.1039L11.4151 10.0668C11.425 9.837 11.4075 9.68311 11.3212 9.40876C11.2172 9.07767 11.1374 8.62574 11.14 8.38967L11.2228 8.37305C11.2248 8.6015 11.3043 9.05198 11.408 9.38169C11.4948 9.65771 11.5124 9.81322 11.5024 10.0445L11.5007 10.0818ZM11.5204 10.5485L11.5122 10.5558C11.5116 10.5521 11.511 10.5484 11.5104 10.5448C11.5139 10.5461 11.5173 10.5473 11.5204 10.5485ZM11.437 10.5225C11.4529 10.5259 11.4862 10.5363 11.5104 10.5448C11.4823 10.3765 11.4795 10.2717 11.4883 10.0812L11.4899 10.044C11.4998 9.81418 11.4824 9.66025 11.3961 9.38583C11.292 9.05491 11.2123 8.6031 11.2183 8.37943L11.1479 8.39593C11.1499 8.6242 11.2294 9.07481 11.333 9.40469C11.4199 9.68063 11.4375 9.83611 11.4275 10.0674L11.4258 10.1046C11.4177 10.2826 11.4195 10.3767 11.437 10.5225Z" fill="black"/>
<path fill-rule="evenodd" clip-rule="evenodd" d="M10.0445 7.72485C9.97454 7.75635 9.97509 7.86797 10.0316 8.04184C10.0768 8.18088 10.1569 8.35557 10.2532 8.534L10.2647 8.52902L10.053 7.72912L10.0445 7.72485ZM11.0706 10.3091C11.0797 10.3648 11.0841 10.4315 11.0834 10.4993L11.0785 10.5057L11.0571 10.5104C11.0259 10.5174 10.9904 10.5254 10.9629 10.5278C10.8878 10.11 10.8708 9.70661 10.8978 9.30867C10.9083 9.15473 10.8993 9.04207 10.8691 8.84116C10.8566 8.75783 10.8549 8.74617 10.8505 8.71168C10.8406 8.63505 10.8359 8.57144 10.8428 8.50101L10.9862 8.50907C10.9855 8.62763 11.0168 8.90027 11.0498 9.09863C11.0675 9.08876 11.0925 9.08607 11.1317 9.08683L11.1477 9.08723C11.1843 9.08828 11.1984 9.08791 11.2112 9.08434C11.2258 9.08027 11.2307 9.07293 11.2274 9.05785L11.2342 9.08565C11.2406 9.07818 11.2425 9.06782 11.2395 9.05448L11.2274 9.05765L11.2273 9.05746L11.2394 9.05429C11.2438 9.07206 11.2629 9.15132 11.2618 9.1465L11.2635 9.15374C11.2786 9.21572 11.2884 9.25423 11.2952 9.27671C11.3031 9.3056 11.2899 9.32244 11.2599 9.32855C11.2386 9.33287 11.218 9.33267 11.1585 9.32943C11.1411 9.32848 11.1314 9.32801 11.1207 9.32763C11.0926 9.32665 11.0696 9.32704 11.0509 9.32735H11.0509C11.0395 9.32754 11.0297 9.3277 11.0215 9.3275C11.04 9.40177 11.0412 9.46929 11.034 9.65949C11.0271 9.84425 11.028 9.93866 11.0438 10.0502C11.0462 10.0674 11.049 10.0843 11.0522 10.101C11.0756 10.0921 11.1173 10.0994 11.2232 10.1243L11.2304 10.126C11.2952 10.1412 11.3291 10.1478 11.3586 10.1498C11.3943 10.1522 11.4114 10.1457 11.412 10.1306L11.4245 10.1311L11.4245 10.1312L11.412 10.1307L11.4112 10.1553C11.4192 10.1502 11.4238 10.1427 11.4244 10.1323C11.4216 10.2143 11.4201 10.2851 11.4217 10.3094C11.4237 10.3398 11.4052 10.3529 11.3702 10.3522C11.3458 10.3517 11.3343 10.3494 11.2544 10.3315C11.229 10.3258 11.2109 10.3221 11.1929 10.3189C11.1399 10.3097 11.099 10.3083 11.0706 10.3091ZM11.4244 10.1323L11.4245 10.1312L11.4245 10.1312L11.4244 10.1323ZM11.2274 9.05765L11.2274 9.05765L11.2274 9.05785L11.2274 9.05765ZM11.071 10.494L11.076 10.4929L11.071 10.4993L11.071 10.494ZM10.0429 7.7402L10.0409 7.7326L10.0494 7.73686C10.0472 7.73787 10.045 7.73898 10.0429 7.7402ZM10.2387 8.47986C10.1541 8.31885 10.0843 8.16334 10.0434 8.03757C9.99095 7.87618 9.98854 7.77215 10.0429 7.7402L10.2387 8.47986ZM10.2387 8.47986C10.247 8.4957 10.2555 8.51159 10.2641 8.52751L10.2526 8.53249L10.2387 8.47986ZM10.0826 8.69935L10.0808 8.70008L10.0808 8.70018L10.0805 8.70033L10.0846 8.71447C10.1437 8.69137 10.2027 8.66424 10.2618 8.63334L10.2571 8.61945L10.2569 8.61956L10.2569 8.61945L10.2549 8.62046L10.0826 8.69935ZM10.0826 8.69935C10.14 8.67681 10.1975 8.65043 10.2549 8.62046L10.2569 8.61956L10.2616 8.63334L10.0849 8.71422L10.0808 8.70018L10.0826 8.69935ZM9.20202 8.85488C9.15691 8.86726 9.11305 8.88083 9.07007 8.89566L9.07335 8.91013L9.07347 8.91009L9.0735 8.91023C9.075 8.90972 9.07649 8.9092 9.07799 8.90869L9.20011 8.87095C9.20167 8.87052 9.20323 8.87009 9.20479 8.86966L9.20476 8.86951L9.20496 8.86945L9.20202 8.85488ZM9.20476 8.86951L9.20184 8.85509L9.07023 8.89576L9.07347 8.91009L9.07799 8.90869C9.11783 8.89505 9.15844 8.88249 9.20011 8.87095L9.20476 8.86951Z" fill="black"/>
<path fill-rule="evenodd" clip-rule="evenodd" d="M9.58544 8.71597C10.0632 8.66595 10.5324 8.44035 10.7256 8.14744L10.7369 8.15006L10.7519 8.25314C10.6498 8.40208 10.4779 8.53286 10.2653 8.62343C10.2648 8.62186 10.274 8.65091 10.2768 8.65969C10.2817 8.67457 10.2861 8.68734 10.2907 8.6995C10.3289 8.80112 10.3742 8.84338 10.4413 8.80979L10.4413 8.80986C10.4242 8.81814 10.4066 8.82621 10.3885 8.8341C10.3429 8.82846 10.3083 8.78205 10.2791 8.70439C10.2744 8.69201 10.2699 8.67906 10.265 8.66399C10.2622 8.65516 10.253 8.62604 10.2569 8.61958C10.4711 8.52179 10.6411 8.39237 10.7407 8.2505L10.7272 8.16791C10.7301 8.16362 10.7331 8.15931 10.7359 8.15498L10.7246 8.15236L10.7272 8.16791C10.5265 8.45812 10.0608 8.67946 9.58668 8.72909C9.1283 8.77709 8.77697 8.91898 8.4357 9.14673C8.42148 9.11985 8.4044 9.104 8.36146 9.0726L8.36129 9.07248C8.34992 9.06416 8.3448 9.06035 8.33858 9.05549C8.16576 8.9211 8.08668 8.75189 8.09819 8.59527C8.10622 8.48583 8.16049 8.40417 8.22299 8.39599C8.23394 8.40213 8.24526 8.40764 8.25736 8.41267C8.18973 8.3883 8.11974 8.47208 8.11062 8.5962C8.09946 8.74818 8.17653 8.91309 8.34601 9.04489C8.3521 9.04965 8.35715 9.0534 8.36842 9.06165L8.36858 9.06177C8.41306 9.0943 8.43114 9.11107 8.43771 9.13799C8.77169 8.90685 9.12492 8.7642 9.58544 8.71597ZM8.25967 8.41355L8.26411 8.40137C8.25028 8.39587 8.23645 8.39423 8.22299 8.39599C8.2117 8.38966 8.20081 8.38266 8.18985 8.37485C8.17952 8.36749 8.15216 8.34602 8.14416 8.33974C8.14285 8.33871 8.14206 8.33809 8.14195 8.33801C8.08158 8.29103 7.95846 8.4816 7.97383 8.68284C7.9808 8.77394 8.05448 8.92105 8.13075 9.01095L8.12497 9.02176C7.99876 8.99764 7.93893 8.96301 7.86775 8.86107C7.90441 8.83711 7.95308 8.82082 7.99794 8.81575L8.0013 8.82397L8.00151 8.8236L8.00658 8.81491C8.00378 8.81514 8.00097 8.81541 7.99814 8.81573C7.99807 8.81574 7.99801 8.81574 7.99794 8.81575L7.98874 8.79322C7.9798 8.77098 7.97321 8.75144 7.96973 8.7327C7.96705 8.71825 7.96621 8.70428 7.96756 8.68991C7.96569 8.6899 7.96382 8.6899 7.96194 8.68993C7.9011 8.69081 7.83132 8.71424 7.76588 8.75469L7.73673 8.72461C7.71923 8.70677 7.67384 8.66159 7.64205 8.62994C7.62637 8.61433 7.61399 8.60201 7.60991 8.59789C7.48757 8.47461 7.4182 8.38791 7.36627 8.28056C7.29765 8.13849 7.2895 8.00909 7.33761 7.94155C7.36967 7.89652 7.4204 7.88721 7.47776 7.91406C7.48463 7.92061 7.49138 7.92706 7.49789 7.93328C7.5092 7.94409 7.51981 7.95422 7.52913 7.96311C7.45371 7.89926 7.38541 7.89622 7.34759 7.94932C7.30287 8.01212 7.31069 8.13646 7.37739 8.27455C7.42854 8.38028 7.49713 8.46601 7.61854 8.58836C7.6226 8.59244 7.63491 8.6047 7.65053 8.62026C7.68233 8.65191 7.72784 8.69722 7.74542 8.71513C7.75562 8.72553 7.76531 8.73553 7.76677 8.74454C7.82475 8.70319 7.89419 8.67912 7.96124 8.6819C7.94612 8.47236 8.07665 8.27082 8.1493 8.32734C8.14945 8.32746 8.1504 8.3282 8.15195 8.32942C8.16046 8.3361 8.18694 8.35686 8.19685 8.36393C8.21836 8.37926 8.23953 8.39129 8.26415 8.40131L8.25968 8.41355C8.25968 8.41355 8.25968 8.41355 8.25967 8.41355ZM8.00356 8.82825C7.95934 8.83252 7.91053 8.8482 7.87584 8.86238C7.94315 8.94774 7.99818 8.98185 8.10967 9.00528C8.06965 8.95496 8.03131 8.89077 8.00356 8.82825ZM7.5693 7.98359C7.56939 7.98369 7.56949 7.98379 7.56958 7.98389L7.56101 7.99341C7.55504 7.98781 7.54366 7.97697 7.52913 7.96311C7.53955 7.97193 7.55011 7.98192 7.56075 7.99308L7.5693 7.98359ZM7.56882 7.98309C7.56899 7.98325 7.56916 7.98341 7.56932 7.98356L7.5693 7.98359C7.56914 7.98342 7.56898 7.98325 7.56882 7.98309ZM7.53909 7.95484C7.51819 7.93692 7.49758 7.92333 7.47776 7.91406C7.42918 7.86766 7.37466 7.81569 7.35444 7.79724C7.2874 7.73605 7.23693 7.69717 7.18814 7.67106C7.17776 7.66551 7.1675 7.66058 7.15729 7.65625C7.01234 7.5946 6.85949 7.74915 6.93148 7.97555C7.0114 8.22713 7.11314 8.3714 7.34819 8.6198L7.36555 8.63814C7.59237 8.87774 7.68735 9.00848 7.76527 9.23506C7.8181 9.38886 7.87439 9.48961 7.94556 9.54156C8.03024 9.60336 8.13448 9.59221 8.26632 9.4957C8.28193 9.48428 8.29278 9.47646 8.31103 9.46338L8.31158 9.46299C8.32383 9.45417 8.33346 9.44713 8.34696 9.43711C8.44748 9.37611 8.57063 9.47788 8.5755 9.64321C8.57168 9.6542 8.56739 9.66565 8.56262 9.67763L8.5746 9.68069C8.57558 9.66787 8.57586 9.65537 8.5755 9.64321C8.60866 9.5478 8.60632 9.48744 8.57567 9.42144C8.56987 9.40896 8.56306 9.39602 8.55367 9.37933C8.55351 9.37903 8.55331 9.37869 8.5531 9.37831C8.5482 9.36962 8.53218 9.34124 8.53566 9.33564C8.51979 9.34452 8.50696 9.33738 8.49793 9.31865C8.49174 9.30579 8.48766 9.29041 8.48113 9.25938L8.47955 9.25183C8.47127 9.21244 8.46597 9.19583 8.45867 9.19073L8.45883 9.17971C8.65165 9.05386 8.84648 8.95861 9.07808 8.89624C9.09005 9.01325 9.12021 9.07283 9.18207 9.06197C9.21157 9.05508 9.2404 9.04889 9.26918 9.04328C9.28112 9.04905 9.29484 9.05095 9.31052 9.04883C9.26873 9.0562 9.22746 9.06472 9.18444 9.07475C9.11177 9.08752 9.07833 9.02149 9.0736 8.90315C8.85375 8.96997 8.66191 9.06327 8.47223 9.18632C8.47953 9.19625 8.4844 9.21408 8.49173 9.24893L8.49331 9.25648C8.49959 9.28634 8.50352 9.30116 8.50906 9.31265C8.51529 9.32557 8.52115 9.32883 8.53809 9.32644L8.56441 9.37259C8.57396 9.38955 8.58091 9.40277 8.58688 9.41562C8.62273 9.49282 8.62164 9.56331 8.57413 9.68261L8.56215 9.67956C8.57569 9.50214 8.45135 9.38882 8.35368 9.44805C8.34061 9.45779 8.33093 9.46486 8.31862 9.47372L8.31807 9.47411C8.29983 9.4872 8.28902 9.49499 8.27345 9.50638C8.13766 9.60577 8.02787 9.61752 7.93843 9.55224C7.86455 9.49833 7.80715 9.3956 7.75352 9.23943C7.67638 9.01512 7.58231 8.88564 7.35669 8.6473L7.33933 8.62896C7.10303 8.37924 7.0003 8.23358 6.91963 7.97962C6.8443 7.7427 7.00705 7.57814 7.16196 7.64402C7.17251 7.6485 7.1831 7.65359 7.19379 7.65931C7.24368 7.68599 7.29487 7.72544 7.36262 7.78727C7.38582 7.80844 7.45382 7.87339 7.50647 7.92369C7.51836 7.93504 7.52946 7.94565 7.53909 7.95484ZM9.31252 9.03527C9.29803 9.0378 9.28361 9.04047 9.26918 9.04328C9.22842 9.02356 9.20841 8.95873 9.2021 8.85501C9.32495 8.82537 9.45466 8.80438 9.59205 8.79258C9.75649 8.77842 9.92456 8.74331 10.0888 8.69445C10.1271 8.8345 10.1734 8.9143 10.2344 8.8929C10.2895 8.87434 10.3407 8.85487 10.3885 8.8341C10.404 8.83603 10.4209 8.83317 10.4393 8.82515C10.3785 8.85412 10.3118 8.88053 10.2382 8.90528C10.1663 8.93054 10.1173 8.84618 10.0847 8.70241C9.92748 8.75601 9.75846 8.79132 9.59305 8.80557C9.45626 8.81732 9.32714 8.83821 9.20969 8.86062C9.22208 8.983 9.25131 9.04594 9.3125 9.03519L9.31252 9.03527ZM9.31457 9.0482L9.31456 9.04812L9.31457 9.0482ZM7.56882 7.98309C7.55888 7.97271 7.54895 7.96329 7.53909 7.95484C7.55246 7.96759 7.56298 7.9776 7.56882 7.98309ZM8.25967 8.41355L8.25965 8.41361C8.25888 8.4133 8.25812 8.41299 8.25736 8.41267C8.25813 8.41295 8.2589 8.41324 8.25967 8.41355ZM10.4393 8.82515C10.4417 8.82399 10.4442 8.82283 10.4466 8.82166L10.4413 8.80986C10.4413 8.80985 10.4413 8.80984 10.4414 8.80983L10.4467 8.8217C10.4442 8.82294 10.4417 8.82409 10.4393 8.82515Z" fill="black"/>
<path fill-rule="evenodd" clip-rule="evenodd" d="M11.7822 11.0627C11.7 11.4135 11.7967 11.8093 12.0188 12.0216L12.0187 12.0314C11.7119 12.3085 11.3878 12.5254 11.0457 12.7C10.9452 12.7513 10.8595 12.8088 10.7659 12.8839C10.7427 12.9025 10.7197 12.9216 10.69 12.9467C10.6927 12.9445 10.6335 12.9947 10.6171 13.0084C10.544 13.0697 10.4895 13.111 10.4308 13.1471C10.7705 13.2076 11.1568 13.5368 11.4154 13.968C11.7214 14.478 12.0258 14.7283 12.5211 14.9876C12.7965 15.1318 12.7822 15.3181 12.5608 15.5938C12.4133 15.7774 12.3547 15.9257 12.2691 16.2569C12.1759 16.6177 12.111 16.7776 11.9385 16.9819C11.7808 17.1689 11.5638 17.1032 11.5405 16.9294C11.5322 16.8673 11.537 16.7969 11.5541 16.699C11.5618 16.6551 11.593 16.5046 11.6085 16.4303L11.617 16.3892C11.619 16.3788 11.6208 16.3687 11.6223 16.3587C11.622 16.3726 11.624 16.3857 11.6279 16.3978L11.6206 16.4333C11.6051 16.5078 11.574 16.6576 11.5664 16.7012C11.5495 16.7979 11.5448 16.8669 11.5529 16.9274C11.5747 17.0901 11.7784 17.1517 11.9292 16.9731C12.1 16.7707 12.1643 16.6123 12.2571 16.2533C12.3431 15.9204 12.4023 15.7706 12.5512 15.5852C12.7682 15.3151 12.7817 15.1386 12.5156 14.9991C12.0183 14.7389 11.7122 14.4872 11.4048 13.9748C11.1435 13.5391 10.7511 13.2084 10.4115 13.157L10.4093 13.1448C10.4734 13.1068 10.5304 13.0642 10.6093 12.998C10.6257 12.9843 10.6848 12.9341 10.6822 12.9364C10.7119 12.9112 10.735 12.892 10.7583 12.8733C10.8526 12.7977 10.9389 12.7397 11.0403 12.688C11.3794 12.5149 11.7009 12.3001 12.0053 12.0261L12.0104 12.0311L12.0106 12.0213L12.0053 12.0261C11.7832 11.8092 11.6874 11.412 11.7714 11.0652C11.6092 10.8647 11.2042 10.7818 10.8926 10.8658C10.5928 11.0883 10.3432 11.3733 10.1064 11.7371C10.0412 11.8372 9.90929 12.0667 9.78092 12.2901L9.78091 12.2901L9.78089 12.2901L9.78089 12.2901L9.78089 12.2901L9.78088 12.2901C9.6475 12.5222 9.51791 12.7477 9.47084 12.8147C9.45603 12.8358 9.44148 12.8556 9.42709 12.8742C9.28395 13.0594 9.28048 13.4295 9.49173 13.6051C9.5016 13.6133 9.51115 13.6215 9.52048 13.63C9.54904 13.6559 9.57497 13.6826 9.60549 13.7169L9.64149 13.7583C9.66553 13.786 9.69447 13.8194 9.70766 13.8341C9.75348 13.8854 9.79916 13.9327 9.85383 13.9844C9.99494 14.1177 10.1859 14.2694 10.4568 14.4576C10.5946 14.5533 11.028 14.8396 11.0258 14.8381C11.2174 14.9674 11.3259 15.0515 11.3861 15.1232C11.5796 15.3536 11.6502 15.4872 11.6263 15.664C11.6164 15.7372 11.6135 15.8021 11.6163 15.8835L11.6103 15.8824L11.604 15.8883C11.6009 15.8042 11.6037 15.7376 11.6139 15.6623C11.6371 15.4907 11.5678 15.3596 11.3767 15.1321C11.3176 15.0616 11.2097 14.9779 11.0191 14.8493C11.0213 14.8508 10.5878 14.5645 10.4499 14.4687C10.1785 14.2801 9.98708 14.1281 9.84547 13.9943C9.79053 13.9424 9.7446 13.8948 9.69855 13.8433C9.68528 13.8284 9.65622 13.7949 9.63216 13.7672L9.63213 13.7671L9.59636 13.726C9.56613 13.692 9.54051 13.6656 9.51233 13.6401C9.50312 13.6318 9.49371 13.6236 9.48398 13.6155C9.26669 13.4349 9.27023 13.0565 9.4174 12.8661C9.43166 12.8477 9.44609 12.828 9.46079 12.8071C9.50751 12.7406 9.63649 12.5162 9.76953 12.2847L9.76953 12.2847C9.89813 12.0609 10.0305 11.8305 10.0961 11.7299C10.3337 11.3649 10.5843 11.0787 10.8874 10.8542C11.2053 10.7682 11.6152 10.852 11.7822 11.0627ZM11.6046 15.9042L11.604 15.8883L11.603 15.8893C11.6033 15.8944 11.6039 15.8993 11.6046 15.9042ZM11.6197 15.95C11.6123 15.9363 11.6073 15.9209 11.6046 15.9042C11.6067 15.9496 11.6104 16.0002 11.6155 16.06L11.6163 16.0699L11.6143 16.0716C11.6154 16.0837 11.6171 16.0952 11.6194 16.1061C11.6291 16.2256 11.6311 16.2876 11.6241 16.3452L11.6232 16.3457C11.6227 16.3501 11.6224 16.3544 11.6223 16.3587L11.6241 16.3452L11.6321 16.3406L11.6369 16.3431C11.6364 16.3477 11.6358 16.3523 11.6352 16.3569L11.6348 16.3567C11.635 16.3536 11.6352 16.3505 11.6356 16.3473L11.6266 16.3524L11.6348 16.3567C11.6348 16.3576 11.6348 16.3586 11.6348 16.3595C11.6332 16.3701 11.6314 16.3808 11.6292 16.3917L11.6279 16.3978C11.6545 16.479 11.7707 16.5197 11.91 16.4983L11.9119 16.486L11.6369 16.3431C11.6425 16.2942 11.6418 16.2419 11.6357 16.1551C11.6804 16.2465 11.7967 16.2756 12.0417 16.2542L12.0435 16.2416L11.6287 16.0673L11.6279 16.0587C11.6245 16.0187 11.6217 15.9829 11.6197 15.95ZM11.6171 15.9026C11.6178 15.9177 11.6186 15.9335 11.6197 15.95C11.674 16.052 11.8542 16.071 12.1124 15.9914L12.1117 15.9787L11.6163 15.8835L11.6168 15.8968L11.6162 15.8967L11.6154 15.8882L11.6081 15.8951L11.6162 15.8967L11.6171 15.9026ZM12.0831 15.9864C11.8115 16.0648 11.6376 16.0282 11.6171 15.9026L11.6168 15.8968L12.0831 15.9864ZM12.0831 15.9864L12.1089 15.9788L12.1095 15.9915L12.0831 15.9864ZM11.6299 16.0819L11.6287 16.0673L11.6228 16.0648L11.6163 16.0699L11.6194 16.1061C11.6231 16.1241 11.6285 16.1404 11.6357 16.1551L11.6317 16.104C11.6567 16.2214 11.7558 16.2627 12.014 16.2433L12.0389 16.2538L12.0407 16.2412L12.014 16.2433L11.6299 16.0819ZM11.6279 16.0811C11.6289 16.089 11.6302 16.0967 11.6317 16.104L11.6299 16.0819L11.6279 16.0811ZM11.6279 16.0811L11.6267 16.0703L11.6182 16.077L11.6279 16.0811ZM11.8877 16.4881L11.6352 16.3569C11.635 16.3577 11.6349 16.3586 11.6348 16.3595C11.6336 16.451 11.7443 16.5041 11.8877 16.4881ZM11.8877 16.4881L11.9063 16.4977L11.9082 16.4854C11.9013 16.4864 11.8945 16.4873 11.8877 16.4881Z" fill="black"/>
<path fill-rule="evenodd" clip-rule="evenodd" d="M11.3671 11.7733C11.5503 11.6742 11.6265 11.6253 11.7591 11.5078L11.7693 11.5116C11.7711 11.5219 11.7738 11.5353 11.7767 11.5492C11.7808 11.5695 11.7851 11.591 11.7873 11.6058C11.6689 11.7059 11.5999 11.7492 11.4291 11.8416L11.3939 11.8608C11.2148 11.9596 11.0936 12.0566 10.9167 12.265C10.6957 12.5252 10.3628 12.8236 10.1667 12.9393L10.1116 12.8723C10.299 12.7564 10.6309 12.4589 10.851 12.1996C11.029 11.99 11.1513 11.892 11.332 11.7925L11.3671 11.7733ZM11.757 11.5142L11.7672 11.518C11.7645 11.5204 11.7618 11.5228 11.7591 11.5252C11.7583 11.5212 11.7576 11.5176 11.757 11.5142ZM11.7591 11.5252C11.6305 11.6383 11.553 11.6876 11.3728 11.7851L11.3378 11.8042C11.1584 11.903 11.0373 12.0001 10.8603 12.2085C10.6394 12.4687 10.3065 12.7671 10.1191 12.8734L10.1679 12.9291C10.3553 12.8132 10.6872 12.5157 10.9074 12.2564C11.0854 12.0469 11.2077 11.9489 11.3882 11.8494L11.4234 11.8302C11.5935 11.7381 11.6619 11.6952 11.7775 11.603C11.7723 11.5868 11.7641 11.5511 11.7591 11.5252Z" fill="black"/>
<path fill-rule="evenodd" clip-rule="evenodd" d="M11.7844 12.0426C11.8257 12.0065 11.8786 11.9692 11.9348 11.9359L11.9425 11.9372L11.9572 11.9544C11.9784 11.979 12.0028 12.0074 12.0186 12.0313C11.7118 12.3084 11.3877 12.5253 11.0456 12.6999C10.9451 12.7512 10.8594 12.8087 10.7658 12.8838C10.7426 12.9024 10.7196 12.9215 10.6899 12.9466C10.6926 12.9443 10.6334 12.9946 10.617 13.0083C10.5376 13.0749 10.4801 13.1179 10.4068 13.1538L10.3418 13.0194C10.4401 12.9606 10.6497 12.7955 10.7962 12.6667C10.7786 12.6552 10.7637 12.633 10.7431 12.5934L10.7316 12.5711C10.7272 12.5628 10.7237 12.5564 10.7204 12.5507C10.7019 12.5189 10.6895 12.511 10.6746 12.5249L10.6937 12.5054C10.7061 12.5085 10.7182 12.5218 10.7311 12.5439C10.7345 12.5498 10.7381 12.5563 10.7425 12.5648L10.7541 12.5872C10.7766 12.6304 10.7917 12.6514 10.8098 12.6595L10.8114 12.6705C10.6641 12.8006 10.4487 12.9706 10.3503 13.0219L10.4092 13.1449C10.4733 13.1069 10.5303 13.0643 10.6092 12.9981C10.6255 12.9844 10.6847 12.9342 10.682 12.9365C10.7118 12.9113 10.7349 12.8921 10.7582 12.8734C10.8524 12.7978 10.9388 12.7398 11.0402 12.6881C11.3813 12.514 11.7045 12.2977 12.0102 12.0311C11.991 12.0118 11.9599 11.9773 11.9365 11.9499L11.9409 11.9473L11.9332 11.946L11.9365 11.9499C11.8826 11.9822 11.8318 12.0181 11.7838 12.0522C11.7553 12.0207 11.7337 11.9748 11.7111 11.9065C11.7081 11.8972 11.7012 11.8751 11.6945 11.8538L11.6945 11.8538C11.6882 11.8334 11.682 11.8137 11.6797 11.8066C11.6685 11.7729 11.6591 11.7518 11.6493 11.7396C11.639 11.7269 11.6291 11.725 11.616 11.7344C11.5979 11.7469 11.5442 11.7781 11.4871 11.81C11.4786 11.805 11.4698 11.8048 11.4605 11.8099L11.4605 11.8098C11.5244 11.7745 11.5894 11.737 11.6091 11.7234C11.6276 11.7102 11.6445 11.7134 11.6588 11.7311C11.67 11.7449 11.6798 11.767 11.6915 11.8022C11.6939 11.8094 11.7001 11.8293 11.7065 11.8499L11.7065 11.8499L11.7065 11.8499C11.7131 11.8712 11.7199 11.893 11.7229 11.9021C11.7449 11.9688 11.7659 12.0133 11.7844 12.0426ZM11.4675 11.8208L11.4871 11.81C11.4986 11.8167 11.5096 11.8323 11.5204 11.8554C11.534 11.8843 11.5454 11.9185 11.5659 11.987C11.5798 12.0337 11.5801 12.0346 11.5852 12.0508C11.6053 12.1148 11.6207 12.1491 11.6349 12.1571L11.6361 12.1678C11.5747 12.2253 11.5045 12.2763 11.4189 12.3286C11.3835 12.3502 11.2962 12.3992 11.2316 12.4354L11.2315 12.4354L11.2315 12.4355L11.2315 12.4355C11.1957 12.4555 11.1669 12.4717 11.1577 12.4772C11.0897 12.5175 11.0426 12.5515 10.9992 12.5874C10.9773 12.5646 10.9581 12.533 10.9333 12.4831L10.926 12.4683C10.9183 12.4526 10.907 12.4295 10.9029 12.4214C10.892 12.3999 10.8832 12.3848 10.8749 12.3738C10.8576 12.3508 10.8445 12.3474 10.8296 12.3637C10.8139 12.3818 10.7861 12.4109 10.7395 12.4586L10.738 12.4601C10.7436 12.4543 10.7152 12.4834 10.6937 12.5054C10.6844 12.503 10.675 12.5065 10.665 12.5165L10.6736 12.5259L10.6736 12.5259L10.6649 12.5165C10.6775 12.5035 10.7374 12.4423 10.7292 12.4507L10.7307 12.4492C10.7772 12.4016 10.8049 12.3726 10.8205 12.3546C10.8417 12.3316 10.8633 12.3371 10.8847 12.3656C10.8936 12.3774 10.9027 12.3931 10.9139 12.4152C10.9181 12.4234 10.9295 12.4467 10.9372 12.4624L10.9443 12.477C10.9628 12.5141 10.978 12.5408 10.9895 12.5609L10.9992 12.5781C11.0348 12.5412 11.0826 12.5066 11.1516 12.4657C11.1609 12.4601 11.19 12.4438 11.226 12.4236L11.226 12.4236L11.226 12.4236L11.226 12.4236L11.226 12.4236L11.226 12.4236C11.2906 12.3874 11.3775 12.3386 11.4126 12.3172C11.4949 12.267 11.5626 12.218 11.622 12.1633C11.6064 12.1486 11.592 12.1143 11.5733 12.0548C11.5682 12.0386 11.5679 12.0376 11.554 11.9909C11.5337 11.9231 11.5224 11.8892 11.5092 11.8611C11.4937 11.828 11.4801 11.8151 11.4675 11.8208ZM11.4675 11.8208L11.4663 11.8214L11.4605 11.8099L11.4605 11.8099L11.4663 11.8215L11.4675 11.8208ZM10.6736 12.5259L10.6746 12.5249L10.6737 12.5259L10.6736 12.5259ZM10.1658 14.2678C10.2267 14.3156 10.3186 14.2593 10.4337 14.121C10.5258 14.0104 10.6299 13.8502 10.7288 13.6736L10.719 13.6657L10.165 14.258L10.1658 14.2678ZM10.1792 14.2615L10.1739 14.2671L10.1732 14.2573C10.1752 14.2588 10.1772 14.2602 10.1792 14.2615ZM10.4243 14.1124C10.3174 14.2408 10.2328 14.295 10.1792 14.2615L10.6915 13.7138C10.601 13.8711 10.5076 14.0123 10.4243 14.1124ZM10.6915 13.7138C10.7004 13.6983 10.7092 13.6827 10.718 13.6669L10.7279 13.6748L10.6915 13.7138ZM10.7977 13.6276C10.8491 13.6674 10.8979 13.709 10.9438 13.7524L10.9519 13.7425L10.8053 13.6172L10.7977 13.6276ZM10.7974 13.6273L10.805 13.617C10.8568 13.6571 10.9059 13.699 10.9521 13.7427L10.944 13.7526L10.7974 13.6273ZM11.6217 14.5777C11.6224 14.5784 11.6231 14.5791 11.6238 14.5798L11.6334 14.5698C11.6334 14.5699 11.6335 14.5699 11.6335 14.5699L11.6239 14.58L11.6217 14.5777ZM11.5214 14.4721L11.6217 14.5777C11.5889 14.545 11.5557 14.51 11.5214 14.4721ZM11.5193 14.4698C11.5193 14.4697 11.5192 14.4697 11.5192 14.4696L11.529 14.4598L11.6334 14.5698L11.6334 14.5698C11.5994 14.5359 11.5649 14.4996 11.5292 14.46L11.5193 14.4698ZM11.5193 14.4698C11.52 14.4706 11.5207 14.4713 11.5214 14.4721L11.5193 14.4698L11.5193 14.4698Z" fill="black"/>
<path fill-rule="evenodd" clip-rule="evenodd" d="M10.1791 13.4356L10.1757 13.424C10.1807 13.4245 10.1857 13.425 10.1907 13.4255L10.1791 13.4356ZM10.9084 13.3995C10.9189 13.4247 10.917 13.4536 10.9044 13.4855C10.893 13.5146 10.8736 13.5446 10.8457 13.5796C10.8353 13.5927 10.825 13.6049 10.7984 13.6273C10.6103 13.4814 10.4186 13.3915 10.252 13.3721L10.1907 13.4255C10.5304 13.4629 10.9458 13.7757 11.2238 14.182C11.4925 14.5747 11.7851 14.8231 12.1438 15.0197C12.1287 15.0462 12.1242 15.0697 12.1198 15.1246L12.1196 15.1261C12.1186 15.1391 12.118 15.1459 12.1172 15.1537C12.0927 15.378 11.9927 15.5345 11.8577 15.6023C11.7635 15.6497 11.6691 15.6413 11.631 15.5887C11.6307 15.5779 11.6298 15.5673 11.6284 15.5559C11.6473 15.6239 11.7481 15.6425 11.8516 15.5905C11.9825 15.5247 12.08 15.3722 12.104 15.1522C12.1048 15.1446 12.1054 15.1379 12.1065 15.125L12.1066 15.1235C12.1111 15.0666 12.1159 15.0417 12.1349 15.0222C11.777 14.8339 11.4828 14.5842 11.2129 14.1896C10.9327 13.7801 10.5121 13.4663 10.1739 13.4371L10.1704 13.4255L10.2479 13.3605C10.4216 13.3787 10.6153 13.4696 10.7967 13.6177C10.815 13.5962 10.8251 13.5841 10.8354 13.5712C10.8625 13.5372 10.8813 13.5081 10.8921 13.4805C10.9111 13.4325 10.9034 13.3942 10.8624 13.3646L10.8695 13.3538C10.8697 13.3539 10.8698 13.354 10.87 13.3541L10.8631 13.3645C10.8781 13.3757 10.8932 13.3873 10.9084 13.3995ZM11.6417 14.3136C11.6458 14.3605 11.6024 14.411 11.5199 14.4687C11.4342 14.3721 11.3521 14.2646 11.2735 14.1454C11.1797 14.003 11.0667 13.8678 10.9442 13.7428C11.0406 13.6377 11.0832 13.5559 11.035 13.5111C10.9918 13.4698 10.9498 13.4327 10.9084 13.3995C10.903 13.3862 10.894 13.3739 10.8815 13.3627C10.934 13.4025 10.9874 13.4486 11.0426 13.5014C11.0994 13.5542 11.0545 13.6408 10.9521 13.7424C11.075 13.8587 11.1887 13.9947 11.283 14.1379C11.3613 14.2566 11.443 14.3636 11.52 14.459C11.615 14.3863 11.6521 14.3285 11.6126 14.2781L11.6222 14.2698C11.6223 14.2699 11.6224 14.2701 11.6225 14.2702L11.6133 14.2781C11.6227 14.2901 11.6322 14.3019 11.6417 14.3136ZM12.4835 14.6443C12.3747 14.6639 12.3289 14.7011 12.282 14.7864C12.2814 14.7874 12.2807 14.7887 12.2799 14.7902C12.272 14.8048 12.2538 14.8383 12.2497 14.8344C12.2641 14.8439 12.2653 14.8583 12.2559 14.8748C12.2492 14.8864 12.2384 14.8984 12.2189 14.9173L12.2132 14.9228C12.1797 14.955 12.1691 14.9671 12.1685 14.9769L12.1593 14.9822C11.9592 14.8698 11.7833 14.7403 11.616 14.5608C11.7065 14.4917 11.7406 14.4343 11.7006 14.3835C11.6806 14.3605 11.661 14.3374 11.6417 14.3136C11.6406 14.3019 11.6366 14.2904 11.6295 14.279C11.6556 14.3119 11.6819 14.3435 11.7093 14.3749C11.7563 14.4346 11.7184 14.4982 11.6232 14.5614C11.7883 14.7279 11.9611 14.8557 12.1573 14.9666C12.1617 14.9549 12.1743 14.9417 12.204 14.9131L12.2097 14.9076C12.2283 14.8896 12.2386 14.8782 12.2444 14.868C12.2507 14.857 12.2502 14.8507 12.2402 14.8367C12.2408 14.8356 12.2428 14.8317 12.2456 14.8265C12.2531 14.8124 12.2659 14.788 12.2705 14.7798C12.324 14.6825 12.3776 14.6445 12.5158 14.6259L12.5193 14.6383C12.5189 14.6385 12.5186 14.6386 12.5182 14.6388L12.5147 14.6264C12.5037 14.6319 12.4933 14.6379 12.4835 14.6443ZM11.606 16.5068C11.5906 16.5812 11.5726 16.6694 11.567 16.7012C11.5502 16.7979 11.5455 16.8669 11.5535 16.9274C11.5753 17.09 11.7791 17.1517 11.9298 16.9731C12.1007 16.7707 12.165 16.6123 12.2577 16.2533C12.3437 15.9204 12.4029 15.7706 12.5519 15.5852C12.6523 15.4602 12.7072 15.3586 12.7145 15.268C12.7231 15.16 12.6619 15.0708 12.5164 14.9992C12.4983 14.9903 12.4953 14.9889 12.4669 14.9746L12.4665 14.9744C12.4525 14.9673 12.4423 14.9623 12.4277 14.9552C12.3271 14.8943 12.3495 14.7314 12.4835 14.6443C12.4944 14.6423 12.5059 14.6405 12.5182 14.6388C12.3661 14.7155 12.3352 14.8846 12.4327 14.9436C12.4469 14.9504 12.4571 14.9555 12.4711 14.9625L12.4716 14.9628C12.4999 14.977 12.5029 14.9785 12.5209 14.9873C12.6708 15.0611 12.7353 15.1551 12.7262 15.2691C12.7186 15.3632 12.6626 15.4667 12.5607 15.5936C12.4132 15.7772 12.3546 15.9255 12.269 16.2567C12.1758 16.6175 12.1109 16.7774 11.9384 16.9818C11.7807 17.1687 11.5637 17.1031 11.5404 16.9292C11.5321 16.8671 11.5369 16.7968 11.554 16.6988C11.5617 16.6549 11.5929 16.5044 11.6084 16.4301C11.6129 16.4084 11.616 16.3932 11.6169 16.389L11.6176 16.3892C11.6063 16.4337 11.6027 16.4734 11.606 16.5068ZM12.0036 15.6785C12.0347 15.7336 12.089 15.7854 12.1553 15.8248C12.144 15.8694 12.1415 15.8806 12.1167 15.9897C12.067 16.209 12.0331 16.3138 11.964 16.4252C11.8812 16.5586 11.7785 16.6307 11.6988 16.6208C11.6455 16.6141 11.6125 16.5726 11.606 16.5068C11.6107 16.4841 11.6151 16.4627 11.6189 16.4445C11.607 16.54 11.6386 16.6001 11.6995 16.6077C11.7737 16.617 11.8723 16.5477 11.9528 16.418C12.0209 16.3083 12.0544 16.2046 12.1038 15.9867C12.1286 15.8774 12.1312 15.8662 12.1458 15.829C12.0827 15.797 12.0281 15.7459 11.9969 15.6835C11.8317 15.802 11.6002 15.7842 11.6105 15.6898C11.6111 15.6828 11.6119 15.6764 11.6135 15.6624C11.6189 15.6156 11.6197 15.5869 11.614 15.5484L11.6263 15.5463C11.6264 15.5464 11.6264 15.5464 11.6264 15.5465L11.6148 15.5484C11.6172 15.5638 11.6228 15.5773 11.631 15.5887C11.6317 15.6113 11.6301 15.6341 11.6267 15.6639C11.625 15.6779 11.6243 15.6843 11.6236 15.6912C11.6151 15.7695 11.8333 15.7862 11.9915 15.6721C11.9917 15.6719 11.9919 15.6718 11.9921 15.6717C12 15.666 12.008 15.6592 12.0161 15.6515C12.0294 15.6388 12.043 15.6237 12.0564 15.6067C12.0658 15.5947 12.0752 15.5818 12.0844 15.5682C12.126 15.5067 12.1633 15.4315 12.1843 15.365L12.1961 15.3648C12.2392 15.4915 12.2406 15.5633 12.1922 15.679C12.1542 15.6577 12.1164 15.6217 12.0896 15.5833C12.0921 15.5799 12.094 15.5772 12.0947 15.5762L12.0936 15.5762L12.0846 15.5759C12.0861 15.5782 12.0876 15.5804 12.0892 15.5826C12.0893 15.5828 12.0895 15.5831 12.0896 15.5833C12.089 15.5842 12.0883 15.5852 12.0876 15.5862C12.0818 15.5944 12.0742 15.605 12.0709 15.6094C12.0608 15.6231 12.0514 15.6346 12.0411 15.6456C12.0341 15.653 12.0268 15.66 12.0194 15.6652C12.0133 15.6695 12.0072 15.6726 12.0011 15.6738C12.0019 15.6754 12.0028 15.677 12.0036 15.6785ZM12.0964 15.5719C12.1223 15.6101 12.1596 15.6466 12.1885 15.6709C12.2252 15.567 12.2258 15.4999 12.1895 15.3869C12.1679 15.4485 12.1341 15.5154 12.0964 15.5719ZM11.6189 16.4445C11.621 16.4281 11.6243 16.4105 11.629 16.3921L11.6176 16.3892C11.6176 16.389 11.6177 16.3888 11.6177 16.3887L11.6298 16.3917C11.629 16.396 11.6258 16.4114 11.6213 16.4332C11.6205 16.4368 11.6197 16.4406 11.6189 16.4445ZM12.5182 14.6388C12.5182 14.6388 12.5182 14.6388 12.5182 14.6388L12.5182 14.6388C12.5182 14.6388 12.5182 14.6388 12.5182 14.6388ZM11.6295 14.279C11.6272 14.2761 11.6248 14.2732 11.6225 14.2702L11.623 14.2698C11.6254 14.2729 11.6275 14.2759 11.6295 14.279ZM10.8815 13.3627C10.8776 13.3598 10.8738 13.357 10.87 13.3541L10.8702 13.3538C10.8742 13.3567 10.878 13.3597 10.8815 13.3627ZM11.6264 15.5465L11.6271 15.5464C11.6276 15.5496 11.628 15.5528 11.6284 15.5559C11.6276 15.5529 11.6269 15.5497 11.6264 15.5465Z" fill="black"/>
<path fill-rule="evenodd" clip-rule="evenodd" d="M12.5348 14.4645L12.4362 14.3394L12.4254 14.3421L12.3894 14.5052L12.2345 14.5037L12.2297 14.5143L12.3296 14.6456L12.2323 14.7709L12.2372 14.7814L12.3974 14.7825L12.4293 14.9404L12.4402 14.943L12.5408 14.8121L12.6798 14.8836L12.6885 14.8761L12.6521 14.7128L12.7926 14.6438L12.7925 14.6321L12.6479 14.5586L12.6853 14.4013L12.6765 14.394L12.5348 14.4645ZM12.6704 14.4115L12.5358 14.4784L12.5283 14.4767L12.4344 14.3575L12.4375 14.3449L12.4266 14.3476L12.4344 14.3575L12.3956 14.5131L12.2469 14.5164L12.2395 14.506L12.2347 14.5167L12.2469 14.5164L12.3394 14.6454L12.2495 14.7687L12.2372 14.7682L12.2422 14.7788L12.2495 14.7687L12.4036 14.7743L12.4385 14.9248L12.4305 14.9346L12.4414 14.9372L12.4385 14.9248L12.5385 14.8019L12.6738 14.8663L12.6763 14.879L12.685 14.8716L12.6738 14.8663L12.6432 14.7083L12.7761 14.6378L12.787 14.6437L12.7869 14.632L12.7761 14.6378L12.639 14.5629L12.6704 14.4115ZM12.6704 14.4115L12.6819 14.4058L12.6731 14.3984L12.6704 14.4115Z" fill="black"/>
<path fill-rule="evenodd" clip-rule="evenodd" d="M12.0502 11.019C12.3807 10.9184 12.6588 10.6325 12.7227 10.3245L12.7309 10.3197C13.1131 10.4603 13.4543 10.6466 13.769 10.8701C13.8995 10.9628 13.9774 11 14.2064 11.0928C14.3155 11.137 14.3798 11.1665 14.4451 11.2056C14.3252 10.8665 14.4036 10.3506 14.6299 9.89986C14.8977 9.36671 14.9519 8.96499 14.9181 8.38468C14.8994 8.06207 15.0601 7.98192 15.3983 8.04546C15.6189 8.08695 15.7764 8.06642 16.0739 7.98393L16.0969 7.97752C16.4343 7.88378 16.6013 7.86291 16.8544 7.91726C17.0874 7.96722 17.1418 8.19747 17.01 8.30536C16.9601 8.34628 16.8957 8.3782 16.7964 8.41439C16.7651 8.42578 16.6686 8.45813 16.5989 8.48153L16.5989 8.48153L16.5264 8.50595L16.516 8.50967C16.5262 8.50313 16.535 8.49547 16.5423 8.48685L16.5953 8.46898L16.5953 8.46897L16.5954 8.46894C16.6652 8.44556 16.7612 8.41334 16.7923 8.40202C16.8905 8.36627 16.9537 8.33488 17.0023 8.29504C17.1256 8.19409 17.0746 7.97786 16.8519 7.93011C16.6011 7.87628 16.4358 7.89694 16.1001 7.9902L16.0771 7.99661C15.778 8.07956 15.619 8.10028 15.3961 8.05838C15.0647 7.99611 14.9125 8.07204 14.9306 8.3839C14.9645 8.96639 14.9099 9.37037 14.641 9.90599C14.4123 10.3614 14.3357 10.8836 14.4631 11.2181L14.4541 11.2262C14.3839 11.1827 14.319 11.1525 14.2019 11.105C13.9721 11.0119 13.8935 10.9744 13.762 10.8809C13.45 10.6593 13.1119 10.4744 12.7334 10.3345L12.7349 10.3273L12.7267 10.3321L12.7334 10.3345C12.6656 10.6446 12.3858 10.9304 12.0578 11.0276C11.9735 11.2752 12.1075 11.6847 12.3327 11.9263C12.4543 11.9852 12.5807 12.0341 12.7123 12.074C13.1178 12.1969 13.4499 12.2237 14.1098 12.2253C14.4486 12.2262 14.5807 12.231 14.722 12.2546C14.9464 12.2921 15.2534 12.1102 15.2926 11.8305C15.2991 11.784 15.3083 11.7414 15.3218 11.6927C15.3302 11.6626 15.3669 11.5425 15.3634 11.5543C15.382 11.492 15.3966 11.4376 15.4109 11.3747C15.4572 11.1702 15.4911 10.9061 15.5132 10.5267C15.5217 10.3805 15.524 10.3225 15.5351 10.0103C15.5489 9.61931 15.5618 9.46046 15.5976 9.34881C15.6911 9.0575 15.7659 8.92671 15.9235 8.86011C15.9867 8.83341 16.0452 8.80136 16.1095 8.75934L16.1115 8.76535L16.1196 8.76813C16.0534 8.81166 15.9932 8.84475 15.9282 8.87225C15.7751 8.9369 15.7018 9.0652 15.6094 9.35298C15.5741 9.46287 15.5613 9.62147 15.5475 10.0108C15.5365 10.3231 15.5342 10.3811 15.5257 10.5275C15.5035 10.9075 15.4695 11.1724 15.423 11.3777C15.4087 11.4409 15.394 11.4957 15.3753 11.5582C15.3787 11.5466 15.3421 11.6664 15.3338 11.6964C15.3204 11.7446 15.3113 11.7865 15.3049 11.8324C15.2646 12.1201 14.9507 12.3061 14.72 12.2676C14.5797 12.2441 14.4478 12.2393 14.1098 12.2384C13.4488 12.2368 13.1158 12.21 12.7088 12.0866C12.5766 12.0465 12.4497 11.9974 12.3256 11.9369C12.0956 11.6906 11.9599 11.2761 12.0502 11.019ZM16.132 8.7599L16.1196 8.76813L16.1209 8.76857C16.1248 8.7658 16.1285 8.76291 16.132 8.7599ZM16.1625 8.72339C16.1547 8.73694 16.1446 8.74916 16.132 8.7599C16.1529 8.74594 16.1744 8.73093 16.1969 8.71472C16.2095 8.70566 16.2373 8.68525 16.2633 8.66611L16.2656 8.66716C16.275 8.66013 16.2835 8.65293 16.2913 8.64549L16.3178 8.62603C16.3631 8.59323 16.3979 8.56984 16.4317 8.55032C16.4515 8.53886 16.4706 8.52901 16.4892 8.5207L16.4916 8.52203C16.5005 8.51853 16.5087 8.51439 16.516 8.50967C16.5072 8.51299 16.4982 8.51666 16.4892 8.5207L16.4816 8.51642L16.4812 8.51006C16.4858 8.50797 16.4904 8.50597 16.4949 8.50407L16.495 8.50585C16.4921 8.50729 16.489 8.50864 16.4858 8.50989L16.4957 8.5155L16.495 8.50585C16.4992 8.50382 16.5032 8.5016 16.5069 8.49921C16.5121 8.49719 16.5173 8.49529 16.5225 8.49351L16.5423 8.48685C16.598 8.42083 16.569 8.29801 16.4715 8.18481L16.4588 8.1893L16.4812 8.51006C16.4632 8.51825 16.4448 8.52782 16.4257 8.53885C16.3949 8.55667 16.3632 8.57761 16.3239 8.60575C16.3767 8.51934 16.3426 8.39908 16.2026 8.18712L16.1913 8.19178L16.2549 8.65628C16.2293 8.67514 16.2023 8.69504 16.1899 8.70393L16.1625 8.72339ZM16.1243 8.74955C16.1367 8.74122 16.1495 8.73251 16.1625 8.72339C16.2198 8.62309 16.1454 8.44949 15.9504 8.25429L15.9402 8.26123L16.1095 8.75934L16.1203 8.7522L16.1205 8.75271L16.1139 8.75769L16.1233 8.76092L16.1205 8.75271L16.1243 8.74955ZM15.961 8.28327C16.1619 8.4915 16.2185 8.66826 16.1243 8.74955L16.1203 8.7522L15.961 8.28327ZM15.961 8.28327L15.9418 8.26375L15.952 8.2568L15.961 8.28327ZM16.2664 8.64786L16.2549 8.65628L16.2558 8.66277L16.2633 8.66611L16.2768 8.65615L16.2772 8.6559L16.2772 8.65589L16.2913 8.64549C16.3044 8.63298 16.3153 8.61981 16.3239 8.60575L16.3107 8.61526L16.2838 8.63504C16.3679 8.55359 16.3524 8.44284 16.2075 8.21788L16.2037 8.19005L16.1924 8.19471L16.2075 8.21788L16.2664 8.64786ZM16.2667 8.65015C16.2728 8.64521 16.2785 8.64019 16.2838 8.63504L16.2699 8.64526L16.2699 8.64528L16.2664 8.64786L16.2667 8.65015ZM16.2667 8.65015L16.2584 8.65664L16.2682 8.66103L16.2667 8.65015ZM16.4744 8.2101L16.4949 8.50407C16.4989 8.50238 16.5029 8.50076 16.5069 8.49921C16.5836 8.45029 16.5678 8.32807 16.4744 8.2101ZM16.4744 8.2101L16.4728 8.18837L16.4601 8.19285C16.465 8.19859 16.4698 8.20434 16.4744 8.2101Z" fill="black"/>
<path fill-rule="evenodd" clip-rule="evenodd" d="M12.5227 10.8557C12.493 10.8426 12.4618 10.8298 12.4289 10.8173L12.427 10.8062C12.435 10.799 12.4452 10.7894 12.4556 10.7795C12.47 10.766 12.4849 10.7519 12.4957 10.7427C12.512 10.7493 12.5279 10.756 12.5434 10.7628C12.6643 10.816 12.7171 10.848 12.877 10.9556C13.0687 11.0848 13.2013 11.1452 13.4748 11.2049C13.8001 11.2758 14.2127 11.4292 14.4059 11.5495L14.3783 11.6332C14.1889 11.5208 13.7776 11.3678 13.4537 11.2973C13.1785 11.2373 13.0446 11.1762 12.8516 11.0462C12.6933 10.9395 12.6414 10.9081 12.5227 10.8557ZM12.4351 10.8162L12.4332 10.805C12.4365 10.8063 12.4398 10.8076 12.4432 10.8088C12.4403 10.8115 12.4376 10.8139 12.4351 10.8162ZM12.4982 10.7531C12.4875 10.766 12.4623 10.791 12.4432 10.8088C12.4726 10.8202 12.5006 10.8317 12.5275 10.8436C12.6471 10.8964 12.6994 10.9281 12.8584 11.0352C13.0501 11.1643 13.1827 11.2248 13.4562 11.2845C13.7813 11.3553 14.1938 11.5087 14.3753 11.626L14.3968 11.5537C14.2077 11.4414 13.7963 11.2884 13.4722 11.2177C13.1971 11.1577 13.0632 11.0966 12.8703 10.9667C12.711 10.8594 12.6586 10.8277 12.5386 10.775C12.5378 10.7746 12.5369 10.7742 12.5361 10.7738C12.5215 10.7674 12.5069 10.761 12.4982 10.7531Z" fill="black"/>
<path fill-rule="evenodd" clip-rule="evenodd" d="M15.0346 9.41736C15.0347 9.41729 15.0347 9.41722 15.0347 9.41715L15.0209 9.41382L14.9792 9.55128L14.9929 9.55495C14.9929 9.55491 14.9929 9.55486 14.9929 9.55481L14.9929 9.55481L14.993 9.55463C15.009 9.50661 15.0228 9.46126 15.0346 9.41746L15.0346 9.41736L15.0346 9.41736ZM15.0346 9.41736L15.0208 9.41403C15.009 9.45779 14.9953 9.50311 14.9792 9.55114L14.9929 9.55481C14.9929 9.55475 14.993 9.55469 14.993 9.55463L15.0346 9.41746C15.0346 9.41742 15.0346 9.41739 15.0346 9.41736ZM12.8574 10.527C12.8068 10.5073 12.7496 10.4778 12.6941 10.4435L12.6913 10.4358L12.6982 10.4136C12.708 10.382 12.7192 10.3458 12.7309 10.3197C13.1131 10.4603 13.4544 10.6466 13.769 10.8701C13.8995 10.9628 13.9774 11 14.2064 11.0928C14.3241 11.1405 14.3896 11.171 14.4627 11.2239L14.3844 11.3503C14.2866 11.2902 14.0452 11.182 13.8662 11.1134C13.8655 11.1319 13.8573 11.1532 13.8423 11.1808C13.8388 11.1871 13.8352 11.1935 13.8302 11.2021C13.8067 11.2424 13.802 11.251 13.7979 11.2651C13.793 11.2819 13.7965 11.2906 13.8115 11.2952L13.808 11.3078L13.8079 11.3078L13.8114 11.2952L13.7849 11.2874C13.7826 11.2801 13.783 11.2713 13.786 11.2613C13.7906 11.2456 13.7952 11.237 13.8195 11.1953C13.8245 11.1867 13.8281 11.1805 13.8314 11.1743C13.8481 11.1437 13.8555 11.122 13.8534 11.1047L13.8618 11.0977C14.0422 11.1664 14.2905 11.2774 14.3821 11.3413L14.4541 11.2262C14.3839 11.1827 14.319 11.1525 14.2019 11.1051C13.9721 11.0119 13.8935 10.9744 13.762 10.881C13.4482 10.658 13.1079 10.4723 12.7349 10.3275C12.7286 10.3545 12.7157 10.3998 12.7048 10.4349L12.7004 10.4322L12.7032 10.44L12.7048 10.4349C12.7583 10.4677 12.8133 10.496 12.8655 10.5227L12.8633 10.5298L12.8574 10.527ZM13.0264 10.6085L13.0264 10.6055L13.0346 10.5991C13.1354 10.6341 13.2295 10.6847 13.3517 10.7637L13.356 10.7666L13.356 10.7666C13.3806 10.7828 13.5007 10.8621 13.5349 10.8831C13.5992 10.9227 13.6493 10.9474 13.6993 10.9685C13.6938 10.9904 13.6836 11.0143 13.6685 11.0421C13.6608 11.0563 13.6523 11.0708 13.6408 11.0897L13.6402 11.0906L13.6402 11.0906C13.6025 11.1522 13.595 11.1644 13.5895 11.1775L13.5851 11.1887C13.575 11.2157 13.5787 11.2292 13.5995 11.2346C13.6225 11.2399 13.6605 11.2506 13.7241 11.2694L13.7289 11.2709L13.7722 11.2837L13.7849 11.2874C13.7878 11.2968 13.7952 11.3037 13.8074 11.3077L13.7688 11.2963L13.7256 11.2835L13.7207 11.282C13.6574 11.2633 13.6195 11.2526 13.5967 11.2474C13.5672 11.2396 13.5609 11.2174 13.5735 11.1839L13.5738 11.183C13.5755 11.1786 13.5768 11.1751 13.5783 11.1717C13.5839 11.1582 13.5917 11.1456 13.6294 11.084L13.6303 11.0826C13.6417 11.0639 13.6501 11.0496 13.6577 11.0356C13.6629 11.026 13.6675 11.0169 13.6717 11.0085L13.6717 11.0085L13.6717 11.0085L13.6717 11.0085L13.6717 11.0085C13.6793 10.9936 13.6855 10.9812 13.6916 10.9732C13.6448 10.9597 13.5938 10.9345 13.5286 10.8944C13.494 10.8732 13.3727 10.7931 13.3491 10.7775L13.3451 10.7749C13.2268 10.6983 13.1351 10.6487 13.0383 10.6142L13.0264 10.6085ZM12.814 10.9137C12.7582 10.8771 12.7066 10.8444 12.6873 10.8342C12.6678 10.8243 12.6679 10.808 12.6864 10.7787C12.6946 10.7657 12.7059 10.7509 12.7227 10.731L12.7487 10.7005L12.7704 10.6751C12.8156 10.6217 12.8428 10.5825 12.8586 10.543C12.8603 10.5386 12.8619 10.5342 12.8633 10.5298L13.0264 10.6085C13.0248 10.6304 12.999 10.6639 12.922 10.7519L12.9164 10.7583C12.8728 10.8081 12.8499 10.8364 12.8335 10.8627C12.8207 10.8831 12.8138 10.9002 12.814 10.9137ZM12.814 10.9137L12.8339 10.9267L12.8272 10.9378L12.8272 10.9378C12.8184 10.932 12.8142 10.9239 12.814 10.9137ZM13.8074 11.3077L13.8079 11.3078L13.8079 11.3078L13.8074 11.3077ZM15.5021 10.886C15.5111 10.8067 15.4187 10.7514 15.2471 10.7158C15.1098 10.6874 14.9257 10.6729 14.7304 10.6713L14.7288 10.6842L15.4943 10.8916L15.5021 10.886ZM15.4902 10.8769L15.4974 10.8789L15.4897 10.8845C15.49 10.8819 15.4901 10.8794 15.4902 10.8769ZM14.7823 10.6851C14.9573 10.6887 15.1205 10.703 15.2447 10.7287C15.404 10.7617 15.491 10.8115 15.4902 10.8769L14.7823 10.6851ZM14.7823 10.6851C14.7651 10.6848 14.7477 10.6845 14.7303 10.6844L14.7319 10.6715L14.7823 10.6851ZM14.694 10.4369L14.694 10.4366L14.694 10.4366L14.6941 10.4362L14.6801 10.4338C14.6653 10.4974 14.6539 10.5629 14.6455 10.6303L14.6597 10.632L14.6597 10.6318L14.6597 10.6318L14.6598 10.6315L14.694 10.4369ZM14.694 10.4369C14.6794 10.4999 14.668 10.5648 14.6598 10.6315L14.6597 10.6318L14.6456 10.63L14.68 10.4342L14.694 10.4366L14.694 10.4369Z" fill="black"/>
<path fill-rule="evenodd" clip-rule="evenodd" d="M14.9141 9.97293C14.7163 10.4324 14.6677 10.9718 14.8128 11.294L14.805 11.3029L14.7125 11.2651C14.6408 11.0979 14.6188 10.8763 14.6504 10.6374L14.6188 10.6306C14.5929 10.6252 14.5725 10.6216 14.5526 10.6195C14.464 10.6098 14.4141 10.6326 14.4087 10.7043L14.4087 10.7043C14.4104 10.6848 14.4125 10.6649 14.415 10.6447C14.4398 10.6098 14.4876 10.5992 14.5539 10.6064C14.5742 10.6086 14.5949 10.6123 14.6213 10.6178C14.6285 10.6193 14.651 10.6242 14.6578 10.6317C14.6315 10.8756 14.6532 11.0949 14.7204 11.2563L14.7952 11.2852C14.7972 11.29 14.7993 11.2948 14.8015 11.2996L14.8093 11.2907L14.7952 11.2852C14.6561 10.9576 14.7065 10.4235 14.9027 9.96755C15.0923 9.52677 15.1508 9.13639 15.1336 8.71221C15.1624 8.71274 15.1846 8.70504 15.23 8.68269L15.2321 8.68163C15.2446 8.67549 15.2503 8.67269 15.2575 8.66945C15.4547 8.57955 15.6338 8.59228 15.7572 8.68104C15.843 8.74272 15.8832 8.83222 15.8595 8.89311C15.8489 8.90002 15.8394 8.90756 15.8263 8.91864L15.8341 8.92882C15.8341 8.92883 15.8341 8.92883 15.8341 8.92884L15.8262 8.91866C15.8828 8.87012 15.8491 8.76299 15.7502 8.69184C15.6304 8.60571 15.4559 8.59331 15.2625 8.68146C15.2555 8.68464 15.2498 8.68739 15.2374 8.69347L15.2353 8.69454C15.1883 8.71772 15.1648 8.72587 15.1397 8.71836C15.1634 9.13762 15.1045 9.5301 14.9141 9.97293ZM15.8344 8.92855C15.846 8.91852 15.8543 8.90651 15.8595 8.89311C15.8765 8.88216 15.8965 8.87278 15.9392 8.85334L15.9475 8.84948C16.0164 8.81793 15.9209 8.61083 15.7472 8.52421C15.6686 8.48498 15.5107 8.4784 15.398 8.5027L15.392 8.49203C15.4751 8.38943 15.5335 8.35241 15.6532 8.33856C15.6547 8.38385 15.6438 8.43619 15.6255 8.47962L15.6171 8.47856L15.6173 8.47892L15.6219 8.48788C15.6231 8.48522 15.6243 8.48252 15.6255 8.47979C15.6255 8.47973 15.6255 8.47968 15.6255 8.47962L15.63 8.48019C15.6654 8.48445 15.6888 8.48827 15.7087 8.49568C15.7213 8.50035 15.7325 8.50644 15.7445 8.51497C15.7455 8.51328 15.7464 8.51156 15.7473 8.50983C15.777 8.45402 15.7926 8.37892 15.7919 8.29912C15.8249 8.28979 15.8572 8.28002 15.9033 8.26561C16.0502 8.21974 16.0754 8.21224 16.1379 8.19779C16.227 8.1772 16.3053 8.16859 16.3827 8.17298C16.5342 8.18157 16.6451 8.23885 16.6767 8.31636C16.6979 8.36801 16.6802 8.41877 16.6295 8.45748C16.6176 8.46146 16.6061 8.46533 16.5952 8.46898C16.5833 8.47296 16.5722 8.47669 16.5623 8.48001C16.6533 8.44343 16.6903 8.38266 16.6653 8.32152C16.6358 8.24945 16.5293 8.1944 16.3821 8.18606C16.3058 8.18173 16.2286 8.19022 16.1406 8.21058C16.0785 8.22493 16.0534 8.2324 15.9069 8.27815C15.8607 8.2926 15.8283 8.30239 15.7998 8.30496C15.8049 8.37844 15.7901 8.45356 15.7542 8.51318C15.9346 8.60416 16.0355 8.82349 15.9526 8.86144L15.9442 8.86535C15.8759 8.89644 15.8669 8.90118 15.8344 8.92855ZM15.6123 8.47845C15.631 8.43599 15.6424 8.38383 15.648 8.34524C15.544 8.36383 15.4884 8.39677 15.4132 8.48634C15.4749 8.47516 15.547 8.47242 15.6123 8.47845ZM16.5623 8.48001C16.5439 8.48618 16.5298 8.49096 16.5227 8.49339C16.5369 8.48941 16.5501 8.48493 16.5623 8.48001ZM16.5662 8.49247C16.591 8.48251 16.6122 8.4707 16.6295 8.45748C16.6934 8.43603 16.766 8.41157 16.7922 8.40202C16.8904 8.36627 16.9536 8.33488 17.0022 8.29504C17.1255 8.19409 17.0745 7.97786 16.8518 7.93011C16.601 7.87628 16.4356 7.89694 16.1 7.9902L16.0769 7.99661C15.7778 8.07956 15.6188 8.10028 15.396 8.05838C15.2426 8.02957 15.1315 8.03039 15.053 8.06913C14.9597 8.11522 14.9168 8.21557 14.9305 8.38374L14.9346 8.43834L14.9348 8.44106C14.936 8.45681 14.937 8.46902 14.9385 8.48632C14.9385 8.60824 14.7931 8.66929 14.6543 8.59111C14.6471 8.58212 14.6398 8.57248 14.6323 8.56214L14.6238 8.5715C14.6339 8.57882 14.6441 8.58534 14.6543 8.59111C14.6953 8.64225 14.7319 8.67208 14.7702 8.68758C14.8061 8.70212 14.8333 8.70427 14.9091 8.70277C14.9213 8.70253 14.9267 8.70244 14.9278 8.70868C14.9284 8.69001 14.9405 8.68185 14.9601 8.68283C14.9737 8.6835 14.9886 8.68749 15.0166 8.69675L15.0203 8.69797C15.062 8.71182 15.0776 8.71538 15.0858 8.71111L15.0948 8.71677C15.1023 8.95462 15.0834 9.1796 15.019 9.42159C14.9165 9.37392 14.8524 9.37156 14.8303 9.43329C14.8213 9.46336 14.812 9.49267 14.8022 9.52176C14.7908 9.53024 14.782 9.54274 14.7759 9.55956C14.7911 9.51663 14.8051 9.47383 14.8185 9.42901C14.8444 9.35649 14.9155 9.3591 15.0155 9.41401C15.0703 9.18053 15.0893 8.95926 15.0826 8.72569C15.0707 8.72748 15.0535 8.72275 15.0165 8.71045L15.0129 8.70923C14.986 8.70033 14.9716 8.69651 14.9595 8.69591C14.9461 8.69524 14.9406 8.69895 14.9341 8.71545L14.9093 8.71586C14.832 8.71739 14.8036 8.71516 14.7657 8.69979C14.7183 8.68058 14.6738 8.64102 14.6224 8.57006L14.6309 8.5607C14.7704 8.66174 14.926 8.60538 14.926 8.48691C14.9245 8.47015 14.9236 8.45788 14.9224 8.44206L14.9222 8.43934L14.918 8.38484C14.9039 8.21164 14.9492 8.10594 15.0477 8.05725C15.1291 8.01705 15.2425 8.01621 15.3982 8.04546C15.6188 8.08695 15.7763 8.06642 16.0738 7.98393L16.0968 7.97752C16.4342 7.88378 16.6012 7.86291 16.8543 7.91726C17.0873 7.96722 17.1417 8.19747 17.0099 8.30536C16.96 8.34628 16.8956 8.3782 16.7963 8.41439C16.765 8.42578 16.6685 8.45814 16.5988 8.48153C16.587 8.48548 16.576 8.48918 16.5662 8.49247ZM14.7872 9.56518C14.7923 9.55072 14.7973 9.53627 14.8022 9.52176C14.8388 9.49457 14.9022 9.50882 14.991 9.55497C14.9541 9.68123 14.9066 9.80974 14.8476 9.94076C14.777 10.0971 14.722 10.2674 14.6802 10.4415C14.5455 10.4063 14.4565 10.4085 14.4436 10.4747C14.4313 10.5345 14.4217 10.591 14.415 10.6447C14.4052 10.6586 14.399 10.6762 14.3967 10.698C14.4031 10.6276 14.4147 10.5528 14.4314 10.472C14.4466 10.3939 14.5408 10.3915 14.6756 10.4338C14.71 10.2637 14.7654 10.0924 14.8363 9.93514C14.8951 9.80469 14.9424 9.67676 14.9825 9.55903C14.8752 9.50906 14.8089 9.50413 14.7872 9.56519L14.7872 9.56518ZM14.7872 9.56518C14.7872 9.56519 14.7872 9.5652 14.7872 9.5652L14.7755 9.56062C14.7756 9.56026 14.7757 9.55991 14.7759 9.55956C14.7757 9.5599 14.7756 9.56025 14.7755 9.5606L14.7872 9.56518ZM16.5662 8.49247C16.5537 8.49749 16.5402 8.50204 16.5259 8.50607L16.5224 8.49351C16.5225 8.49347 16.5226 8.49343 16.5227 8.49339L16.5263 8.50595C16.5332 8.50356 16.5475 8.49874 16.5662 8.49247ZM15.8344 8.92855C15.8343 8.92864 15.8342 8.92873 15.8341 8.92882L15.8341 8.92882C15.8342 8.92873 15.8343 8.92864 15.8344 8.92855ZM14.3967 10.698C14.3966 10.6998 14.3964 10.7015 14.3963 10.7032L14.4087 10.7043C14.4087 10.7043 14.4087 10.7043 14.4087 10.7044L14.3962 10.7033C14.3964 10.7015 14.3965 10.6998 14.3967 10.698Z" fill="black"/>
</g>
</svg>
