<svg width="24" height="24" viewBox="0 0 24 24" fill="none" xmlns="http://www.w3.org/2000/svg">
<rect x="0.25" y="3.67993" width="23.5" height="16.6429" rx="1.75" fill="white" stroke="#F5F5F5" stroke-width="0.5"/>
<mask id="mask0_91_3287" style="mask-type:luminance" maskUnits="userSpaceOnUse" x="0" y="3" width="24" height="18">
<rect x="0.25" y="3.67993" width="23.5" height="16.6429" rx="1.75" fill="white" stroke="white" stroke-width="0.5"/>
</mask>
<g mask="url(#mask0_91_3287)">
<path fill-rule="evenodd" clip-rule="evenodd" d="M24.0001 11.4299H11.4287V3.42993H24.0001V11.4299Z" fill="#E52448"/>
<path fill-rule="evenodd" clip-rule="evenodd" d="M11.4286 20.5728H0V11.4299H11.4286V20.5728Z" fill="#1367AE"/>
<path fill-rule="evenodd" clip-rule="evenodd" d="M5.71418 8.36714L4.37067 9.27918L4.82291 7.71959L3.54034 6.72368L5.16334 6.67184L5.71418 5.14429L6.26502 6.67184L7.88802 6.72368L6.60546 7.71959L7.05769 9.27918L5.71418 8.36714Z" fill="#1367AE"/>
<path fill-rule="evenodd" clip-rule="evenodd" d="M17.7142 16.9384L16.3707 17.8505L16.8229 16.2909L15.5403 15.295L17.1633 15.2431L17.7142 13.7156L18.265 15.2431L19.888 15.295L18.6055 16.2909L19.0577 17.8505L17.7142 16.9384Z" fill="#E52448"/>
</g>
</svg>
