<svg width="24" height="24" viewBox="0 0 24 24" fill="none" xmlns="http://www.w3.org/2000/svg">
<rect y="3.42993" width="24" height="17.1429" rx="2" fill="white"/>
<mask id="mask0_91_1256" style="mask-type:luminance" maskUnits="userSpaceOnUse" x="0" y="3" width="24" height="18">
<rect y="3.42993" width="24" height="17.1429" rx="2" fill="white"/>
</mask>
<g mask="url(#mask0_91_1256)">
<rect y="3.42993" width="24" height="17.1429" fill="#FFBF19"/>
<path fill-rule="evenodd" clip-rule="evenodd" d="M9.14282 4.57275H21.5238C22.2602 4.57275 22.8571 5.16971 22.8571 5.90609V18.0966C22.8571 18.8329 22.2602 19.4299 21.5238 19.4299H9.14282V4.57275Z" fill="#A52531"/>
<path d="M1.14282 5.90609C1.14282 5.16971 1.73978 4.57275 2.47616 4.57275H4.57139V19.4299H2.47615C1.73977 19.4299 1.14282 18.8329 1.14282 18.0966V5.90609Z" fill="#03664F"/>
<rect x="4.57153" y="4.57275" width="3.42857" height="14.8571" rx="0.666667" fill="#FF6816"/>
<path fill-rule="evenodd" clip-rule="evenodd" d="M20.5714 6.287C20.5714 6.6026 20.8272 6.85843 21.1428 6.85843C21.4584 6.85843 21.7142 6.6026 21.7142 6.287V5.71558H21.1428C20.8272 5.71558 20.5714 5.97141 20.5714 6.287ZM11.4285 6.28711C11.4285 6.6027 11.1727 6.85854 10.8571 6.85854C10.5415 6.85854 10.2856 6.6027 10.2856 6.28711V5.71568H10.8571C11.1727 5.71568 11.4285 5.97152 11.4285 6.28711ZM21.1428 17.1442C20.8272 17.1442 20.5714 17.4001 20.5714 17.7156C20.5714 18.0312 20.8272 18.2871 21.1428 18.2871H21.7142V17.7156C21.7142 17.4001 21.4584 17.1442 21.1428 17.1442ZM11.4285 17.7156C11.4285 17.4001 11.1727 17.1442 10.8571 17.1442C10.5415 17.1442 10.2857 17.4001 10.2857 17.7156V18.2871H10.8571C11.1727 18.2871 11.4285 18.0312 11.4285 17.7156Z" fill="#FFBF18"/>
<path fill-rule="evenodd" clip-rule="evenodd" d="M13.7143 14.2073C13.7143 13.9357 13.4942 13.7156 13.2227 13.7156C13.1699 13.7156 13.1175 13.7072 13.0677 13.6894C12.7371 13.5712 11.4286 13.072 11.4286 12.5728C11.4286 12.2846 11.574 11.9963 11.7181 11.7815C11.8699 11.5551 11.9296 11.2661 11.8344 11.0108C11.6395 10.4881 11.3514 9.60727 11.4286 9.1442C11.4636 8.93447 11.5842 8.74608 11.7347 8.5856C12.0648 8.23369 12.5715 8.54498 12.5715 9.0275V11.0179C12.5715 11.2704 12.7142 11.5012 12.94 11.6142L13.4672 11.8778C13.6148 11.9516 13.793 11.9226 13.9097 11.806C14.0947 11.621 14.0441 11.3091 13.8101 11.1921L13.1429 10.8585V10.2871C13.4276 10.2871 13.5182 9.90327 13.2636 9.77595L13.1429 9.71563V9.1442H14.0096C14.1864 9.1442 14.356 9.07396 14.481 8.94894L14.6619 8.76803C14.787 8.64301 14.9565 8.57277 15.1333 8.57277H15.588C15.8405 8.57277 16.0714 8.71544 16.1843 8.94129L16.448 9.46864C16.5271 9.62678 16.5401 9.80986 16.4842 9.9776L16.2926 10.5524C16.1487 10.9841 16.47 11.4299 16.925 11.4299H18.6714C18.7904 11.4299 18.9045 11.3827 18.9886 11.2985C19.2051 11.082 19.1458 10.7171 18.872 10.5802L18.4265 10.3574C18.334 10.3112 18.2319 10.2871 18.1284 10.2871H17.8096C17.4414 10.2871 17.1429 9.98858 17.1429 9.62039V9.42034C17.1429 9.24353 17.2132 9.07396 17.3382 8.94894L17.7143 8.57277V9.1442C17.7143 9.45979 17.9702 9.71563 18.2858 9.71563H19.0166C19.2691 9.71563 19.5 9.85829 19.6129 10.0842L19.9466 10.7516C19.982 10.8223 20.0045 10.8982 20.0115 10.977C20.0386 11.2789 20.0971 12.0875 20.0001 12.5728C19.9235 12.9556 19.7153 13.3112 19.5726 13.5209C19.4845 13.6504 19.4286 13.8014 19.4286 13.958V15.5648C19.4286 15.8059 19.2332 16.0013 18.9921 16.0013C18.6676 16.0013 18.4565 15.6598 18.6016 15.3696L18.7969 14.9791C18.8348 14.9032 18.8348 14.8138 18.7969 14.7378L18.7699 14.6839C18.6493 14.4427 18.2858 14.5285 18.2858 14.7982C18.2858 14.8378 18.2765 14.877 18.2588 14.9124L17.8556 15.7188C17.769 15.892 17.5921 16.0013 17.3985 16.0013C17.0185 16.0013 16.7714 15.6015 16.9413 15.2617L17.0725 14.9992C17.1188 14.9067 17.1429 14.8046 17.1429 14.7011V14.3823C17.1429 14.0141 16.8444 13.7156 16.4762 13.7156H15.5239C15.1557 13.7156 14.8572 14.0141 14.8572 14.3823V14.7011C14.8572 14.8046 14.8331 14.9067 14.7868 14.9992L14.427 15.7188C14.3405 15.892 14.1635 16.0013 13.9699 16.0013C13.59 16.0013 13.3428 15.6015 13.5128 15.2617L13.644 14.9992C13.6902 14.9067 13.7143 14.8046 13.7143 14.7011V14.2073Z" fill="#FFBF18"/>
</g>
</svg>
