<svg width="24" height="24" viewBox="0 0 24 24" fill="none" xmlns="http://www.w3.org/2000/svg">
<rect x="0.25" y="3.67993" width="23.5" height="16.6429" rx="1.75" fill="white" stroke="#F5F5F5" stroke-width="0.5"/>
<mask id="mask0_91_2186" style="mask-type:luminance" maskUnits="userSpaceOnUse" x="0" y="3" width="24" height="18">
<rect x="0.25" y="3.67993" width="23.5" height="16.6429" rx="1.75" fill="white" stroke="white" stroke-width="0.5"/>
</mask>
<g mask="url(#mask0_91_2186)">
<path fill-rule="evenodd" clip-rule="evenodd" d="M0 8.00136H24V3.42993H0V8.00136Z" fill="#D82332"/>
<path fill-rule="evenodd" clip-rule="evenodd" d="M0 20.5729H24V16.0015H0V20.5729Z" fill="#D82332"/>
<path fill-rule="evenodd" clip-rule="evenodd" d="M11.2006 12.6465L10.9568 12.8739C11.1772 12.9357 11.483 12.8637 11.6047 12.6465H11.2006Z" fill="#064A89"/>
<path fill-rule="evenodd" clip-rule="evenodd" d="M9.23364 12.8015C9.39863 12.9665 9.67192 12.9472 9.83691 12.8428C10.002 12.7383 10.1233 12.7316 10.2261 12.7426C10.237 12.8357 10.2613 12.955 10.303 13.073H9.32425C9.29995 13.0126 9.25251 12.8716 9.23364 12.8015Z" fill="#064A89"/>
<path fill-rule="evenodd" clip-rule="evenodd" d="M9.41479 13.2425C9.6069 13.1517 9.80328 13.2237 9.88826 13.2892C10.0452 13.4102 10.3044 13.3774 10.4316 13.3087C10.4801 13.3879 10.5391 13.4657 10.6102 13.5252H9.56291C9.52037 13.4565 9.4284 13.2878 9.41479 13.2425Z" fill="#064A89"/>
<path fill-rule="evenodd" clip-rule="evenodd" d="M13.9697 13.9942C14.0157 13.9475 14.0779 13.8705 14.1186 13.8156C14.0509 13.8073 13.9723 13.7583 13.8886 13.7166C13.7344 13.6395 13.587 13.6395 13.4557 13.7303C13.261 13.865 13.0174 13.898 12.8281 13.7633C12.6203 13.6155 12.4277 13.6478 12.2653 13.7414C12.103 13.8347 12.0002 13.8403 11.9028 13.8403C11.8054 13.8403 11.7026 13.8347 11.5403 13.7414C11.3779 13.6478 11.1853 13.6155 10.9775 13.7633C10.7881 13.898 10.5446 13.865 10.3499 13.7303C10.2186 13.6395 10.0712 13.6395 9.91694 13.7166C9.83322 13.7583 9.75468 13.8073 9.68701 13.8156C9.72765 13.8705 9.78987 13.9475 9.83586 13.9942H13.9697Z" fill="#064A89"/>
<path fill-rule="evenodd" clip-rule="evenodd" d="M13.4629 14.4537C13.5062 14.4263 13.6253 14.3356 13.6848 14.2888C13.6198 14.3026 13.4718 14.2544 13.3953 14.2145C13.1734 14.0991 13.0273 14.1101 12.8623 14.1981C12.6973 14.2861 12.4646 14.3328 12.2942 14.2393C12.1238 14.1459 12.0019 14.1211 11.9127 14.1211C11.8234 14.1211 11.7016 14.1459 11.5312 14.2393C11.3608 14.3328 11.1281 14.2861 10.963 14.1981C10.798 14.1101 10.652 14.0991 10.4301 14.2145C10.3536 14.2544 10.2056 14.3026 10.1406 14.2888C10.2001 14.3356 10.3192 14.4263 10.3625 14.4537H13.4629Z" fill="#064A89"/>
<path fill-rule="evenodd" clip-rule="evenodd" d="M12.4871 13.5402C12.4411 13.5155 12.3874 13.4579 12.3383 13.3839C12.2598 13.2657 12.1354 13.1997 11.9487 13.1997C11.7621 13.1997 11.6376 13.2657 11.5592 13.3839C11.5101 13.4579 11.4563 13.5155 11.4104 13.5402H12.4871Z" fill="#064A89"/>
<path fill-rule="evenodd" clip-rule="evenodd" d="M12.1802 13.1156C12.1612 13.0826 12.1206 12.9781 12.1071 12.9231C12.0638 12.9369 11.98 12.9424 11.9313 12.9424C11.8826 12.9424 11.7987 12.9369 11.7554 12.9231C11.7419 12.9781 11.7013 13.0826 11.6824 13.1156H12.1802Z" fill="#064A89"/>
<path fill-rule="evenodd" clip-rule="evenodd" d="M12.6309 12.6465L12.8747 12.8739C12.6543 12.9357 12.3485 12.8637 12.2268 12.6465H12.6309Z" fill="#064A89"/>
<path fill-rule="evenodd" clip-rule="evenodd" d="M14.6565 12.8015C14.4916 12.9665 14.2183 12.9472 14.0533 12.8428C13.8882 12.7383 13.7669 12.7316 13.6641 12.7426C13.6531 12.8357 13.6289 12.955 13.5872 13.073H14.5659C14.5902 13.0126 14.6376 12.8716 14.6565 12.8015Z" fill="#064A89"/>
<path fill-rule="evenodd" clip-rule="evenodd" d="M14.5106 13.2425C14.3185 13.1517 14.1221 13.2237 14.0371 13.2892C13.8802 13.4102 13.6209 13.3774 13.4938 13.3087C13.4453 13.3879 13.3863 13.4657 13.3152 13.5252H14.3624C14.405 13.4565 14.497 13.2878 14.5106 13.2425Z" fill="#064A89"/>
<path fill-rule="evenodd" clip-rule="evenodd" d="M12.9933 14.6343C12.6652 14.7703 12.3062 14.8454 11.93 14.8454C11.5534 14.8454 11.1946 14.7704 10.8662 14.6341C10.9365 14.6259 11.0297 14.5914 11.1048 14.5489C11.2266 14.4802 11.4483 14.4664 11.5539 14.5352C11.6594 14.604 11.7866 14.6726 11.93 14.6726C12.0734 14.6726 12.2005 14.604 12.306 14.5352C12.4115 14.4664 12.6334 14.4802 12.7552 14.5489C12.8302 14.5914 12.9229 14.6261 12.9933 14.6343Z" fill="#064A89"/>
<path fill-rule="evenodd" clip-rule="evenodd" d="M12.5358 9.19593C11.9434 9.07225 11.4104 9.14368 11.4104 9.71004C11.4104 10.2653 11.4104 11.09 11.4104 11.2605C11.4104 11.431 11.4138 11.4525 11.6133 11.4997C12.0461 11.6021 12.0867 11.6124 12.5574 11.7223V10.1279C12.1895 10.0866 12.0489 9.87686 12.0489 9.63308C12.0489 9.39667 12.2111 9.24266 12.5358 9.19593Z" fill="#514537"/>
<path fill-rule="evenodd" clip-rule="evenodd" d="M11.0176 13.5685C10.6876 13.5685 10.3413 13.2771 10.3413 12.7218C10.3413 12.1664 10.3413 11.4682 10.3413 11.3417C10.3413 11.2167 10.3551 11.1991 10.3264 11.1699C10.3095 11.1528 10.3453 11.1273 10.3696 11.1026C10.4062 11.0654 10.4312 11.0345 10.3819 10.9843C10.3325 10.9342 10.3535 10.9211 10.3846 10.8896C10.4157 10.8579 10.4279 10.8263 10.3981 10.796C10.3684 10.7658 10.3616 10.7562 10.394 10.7232C10.4265 10.6902 10.413 10.6765 10.386 10.6489C10.3589 10.6215 10.3461 10.6015 10.3805 10.5665C10.4144 10.5321 10.417 10.5266 10.4563 10.5266C10.4955 10.5266 10.5807 10.5266 10.6186 10.5266C10.6565 10.5266 10.6572 10.5383 10.6253 10.5707C10.5841 10.6125 10.5719 10.629 10.6186 10.6765C10.6653 10.7238 10.6633 10.7397 10.6335 10.7699C10.5888 10.8153 10.5692 10.8462 10.6145 10.8923C10.6599 10.9383 10.6639 10.959 10.6294 10.994C10.595 11.029 10.5915 11.06 10.6294 11.0984C10.6585 11.128 10.6605 11.1452 10.6605 11.1974C10.6605 11.5122 10.6605 12.3699 10.6605 12.6063C10.6605 12.8427 10.8282 12.9857 11.1475 12.9857C11.4668 12.9857 11.575 12.8537 11.667 12.7658C11.6075 13.1891 11.4343 13.5685 11.0176 13.5685Z" fill="#514537"/>
<path fill-rule="evenodd" clip-rule="evenodd" d="M11.9491 12.2199C11.9937 12.2335 12.037 12.2995 12.037 12.371H12.125C12.125 12.3106 12.0992 12.2171 12.0526 12.1593C12.0519 12.1442 12.0499 12.1312 12.0465 12.1181C12.079 12.0768 12.1263 12.0108 12.125 11.9476C12.1241 11.9077 12.0776 11.9092 12.0722 11.9408C12.0677 11.9668 12.0506 12.0068 12.0181 12.0205C12.0181 11.9696 11.9896 11.9092 11.9491 11.9092C11.9086 11.9092 11.8801 11.9696 11.8801 12.0205C11.8476 12.0068 11.8305 11.9668 11.826 11.9408C11.8206 11.9092 11.774 11.9077 11.7732 11.9476C11.7719 12.0108 11.8192 12.0768 11.8517 12.1181C11.8483 12.1312 11.8463 12.1442 11.8456 12.1593C11.799 12.2171 11.7732 12.3106 11.7732 12.371H11.8612C11.8612 12.2995 11.9045 12.2335 11.9491 12.2199Z" fill="#514537"/>
<path fill-rule="evenodd" clip-rule="evenodd" d="M11.4955 12.2199C11.5401 12.2335 11.5835 12.2995 11.5835 12.371H11.6714C11.6714 12.3106 11.6457 12.2171 11.599 12.1593C11.5983 12.1442 11.5963 12.1312 11.5929 12.1181C11.6254 12.0768 11.6727 12.0108 11.6714 11.9476C11.6705 11.9077 11.624 11.9092 11.6186 11.9408C11.6141 11.9668 11.5969 12.0068 11.5645 12.0205C11.5645 11.9696 11.5361 11.9092 11.4955 11.9092C11.4549 11.9092 11.4265 11.9696 11.4265 12.0205C11.3941 12.0068 11.3768 11.9668 11.3724 11.9408C11.367 11.9092 11.3205 11.9077 11.3196 11.9476C11.3182 12.0108 11.3656 12.0768 11.3981 12.1181C11.3947 12.1312 11.3927 12.1442 11.392 12.1593C11.3454 12.2171 11.3196 12.3106 11.3196 12.371H11.4076C11.4076 12.2995 11.4509 12.2335 11.4955 12.2199Z" fill="#514537"/>
<path fill-rule="evenodd" clip-rule="evenodd" d="M11.0421 12.2199C11.0867 12.2335 11.13 12.2995 11.13 12.371H11.218C11.218 12.3106 11.1922 12.2171 11.1456 12.1593C11.1449 12.1442 11.1429 12.1312 11.1395 12.1181C11.172 12.0768 11.2193 12.0108 11.218 11.9476C11.2171 11.9077 11.1706 11.9092 11.1652 11.9408C11.1608 11.9668 11.1435 12.0068 11.111 12.0205C11.111 11.9696 11.0827 11.9092 11.0421 11.9092C11.0015 11.9092 10.9731 11.9696 10.9731 12.0205C10.9406 12.0068 10.9235 11.9668 10.919 11.9408C10.9136 11.9092 10.8671 11.9077 10.8662 11.9476C10.8649 12.0108 10.9122 12.0768 10.9447 12.1181C10.9413 12.1312 10.9393 12.1442 10.9386 12.1593C10.8919 12.2171 10.8662 12.3106 10.8662 12.371H10.9541C10.9541 12.2995 10.9975 12.2335 11.0421 12.2199Z" fill="#514537"/>
<path fill-rule="evenodd" clip-rule="evenodd" d="M12.4027 12.2199C12.3581 12.2335 12.3148 12.2995 12.3148 12.371H12.2268C12.2268 12.3106 12.2525 12.2171 12.2992 12.1593C12.2999 12.1442 12.3019 12.1312 12.3054 12.1181C12.2728 12.0768 12.2255 12.0108 12.2268 11.9476C12.2277 11.9077 12.2742 11.9092 12.2796 11.9408C12.2841 11.9668 12.3013 12.0068 12.3337 12.0205C12.3337 11.9696 12.3622 11.9092 12.4027 11.9092C12.4433 11.9092 12.4717 11.9696 12.4717 12.0205C12.5041 12.0068 12.5213 11.9668 12.5258 11.9408C12.5312 11.9092 12.5777 11.9077 12.5786 11.9476C12.5799 12.0108 12.5326 12.0768 12.5001 12.1181C12.5035 12.1312 12.5056 12.1442 12.5062 12.1593C12.5529 12.2171 12.5786 12.3106 12.5786 12.371H12.4906C12.4906 12.2995 12.4473 12.2335 12.4027 12.2199Z" fill="#514537"/>
<path fill-rule="evenodd" clip-rule="evenodd" d="M12.8561 12.2199C12.8115 12.2335 12.7682 12.2995 12.7682 12.371H12.6802C12.6802 12.3106 12.706 12.2171 12.7526 12.1593C12.7533 12.1442 12.7553 12.1312 12.7587 12.1181C12.7262 12.0768 12.6788 12.0108 12.6802 11.9476C12.681 11.9077 12.7276 11.9092 12.733 11.9408C12.7374 11.9668 12.7546 12.0068 12.7871 12.0205C12.7871 11.9696 12.8155 11.9092 12.8561 11.9092C12.8967 11.9092 12.9251 11.9696 12.9251 12.0205C12.9576 12.0068 12.9747 11.9668 12.9792 11.9408C12.9846 11.9092 13.031 11.9077 13.032 11.9476C13.0333 12.0108 12.986 12.0768 12.9535 12.1181C12.9568 12.1312 12.9588 12.1442 12.9596 12.1593C13.0063 12.2171 13.032 12.3106 13.032 12.371H12.9441C12.9441 12.2995 12.9007 12.2335 12.8561 12.2199Z" fill="#514537"/>
<path fill-rule="evenodd" clip-rule="evenodd" d="M10.7754 12.4622H13.1562V12.5764H10.7754V12.4622Z" fill="#514537"/>
<path fill-rule="evenodd" clip-rule="evenodd" d="M12.8761 13.5685C13.2062 13.5685 13.5525 13.2771 13.5525 12.7218C13.5525 12.1664 13.5525 11.4682 13.5525 11.3417C13.5525 11.2167 13.5386 11.1991 13.5674 11.1699C13.5843 11.1528 13.5484 11.1273 13.5241 11.1026C13.4876 11.0654 13.4625 11.0345 13.5119 10.9843C13.5613 10.9342 13.5403 10.9211 13.5093 10.8896C13.4781 10.8579 13.4659 10.8263 13.4957 10.796C13.5254 10.7658 13.5322 10.7562 13.4997 10.7232C13.4673 10.6902 13.4808 10.6765 13.5078 10.6489C13.5349 10.6215 13.5477 10.6015 13.5132 10.5665C13.4794 10.5321 13.4768 10.5266 13.4375 10.5266C13.3982 10.5266 13.3131 10.5266 13.2752 10.5266C13.2373 10.5266 13.2366 10.5383 13.2684 10.5707C13.3097 10.6125 13.3219 10.629 13.2752 10.6765C13.2285 10.7238 13.2305 10.7397 13.2603 10.7699C13.305 10.8153 13.3245 10.8462 13.2792 10.8923C13.2339 10.9383 13.2298 10.959 13.2644 10.994C13.2988 11.029 13.3023 11.06 13.2644 11.0984C13.2352 11.128 13.2332 11.1452 13.2332 11.1974C13.2332 11.5122 13.2332 12.3699 13.2332 12.6063C13.2332 12.8427 13.0654 12.9857 12.7463 12.9857C12.427 12.9857 12.3189 12.8537 12.2268 12.7658C12.2863 13.1891 12.4595 13.5685 12.8761 13.5685Z" fill="#514537"/>
<path fill-rule="evenodd" clip-rule="evenodd" d="M10.7754 11.7222C10.7754 11.7222 10.7755 11.6411 10.7755 11.5405L11.2514 11.7223L10.7754 11.7222Z" fill="#EEA339"/>
<path fill-rule="evenodd" clip-rule="evenodd" d="M10.2078 11.8069L9.14282 11.661C9.17375 11.4291 9.23226 11.203 9.31643 10.9878L10.2078 11.3473V11.8069Z" fill="#EEA339"/>
<path fill-rule="evenodd" clip-rule="evenodd" d="M12.4082 10.0264L12.5975 9.23633C12.819 9.29089 13.0343 9.3731 13.2384 9.48149L12.6279 10.669L12.6301 10.0727C12.5596 10.0731 12.4515 10.0621 12.4082 10.0264Z" fill="#EEA339"/>
<path fill-rule="evenodd" clip-rule="evenodd" d="M10.2329 11.8838L9.14808 11.8169C9.13411 12.048 9.14799 12.2813 9.18971 12.5115C9.18971 12.5115 10.2329 12.5181 10.2329 12.5115V11.8838Z" fill="#EEA339"/>
<path fill-rule="evenodd" clip-rule="evenodd" d="M10.222 11.1406C10.1869 11.0939 10.2085 11.069 10.2464 11.0442C10.2843 11.0195 10.2788 11.0002 10.26 10.9646C10.241 10.9288 10.2221 10.8903 10.2572 10.8518C10.2924 10.8133 10.2788 10.7968 10.2518 10.7694C10.2248 10.7419 10.2221 10.7117 10.2464 10.6896C10.2708 10.6676 10.2653 10.6511 10.2492 10.6292C10.2328 10.6071 10.201 10.5625 10.2295 10.5337L9.78695 10.1582C9.64074 10.3359 9.51557 10.532 9.41479 10.7424L10.222 11.1406Z" fill="#EEA339"/>
<path fill-rule="evenodd" clip-rule="evenodd" d="M11.2824 11.3451L10.755 10.8253C10.8293 10.7498 10.8368 10.7374 10.7841 10.6838C10.7266 10.6253 10.7245 10.6193 10.8415 10.5003C10.8814 10.4598 10.8591 10.4315 10.8023 10.4315C10.7455 10.4315 10.4844 10.4315 10.4546 10.4315C10.4249 10.4315 10.4015 10.4331 10.3797 10.4552L9.95923 10.0416C10.1197 9.87374 10.2989 9.72728 10.4925 9.60498L11.2824 10.8958V11.3451Z" fill="#EEA339"/>
<path fill-rule="evenodd" clip-rule="evenodd" d="M10.7338 11.4245C10.7338 11.2954 10.7339 11.1675 10.7339 11.1494C10.7339 11.1108 10.7312 11.0957 10.7014 11.0655C10.6717 11.0353 10.6866 11.0208 10.7096 10.9878L11.2099 11.4113V11.66L10.7338 11.4245Z" fill="#EEA339"/>
<path fill-rule="evenodd" clip-rule="evenodd" d="M11.2023 10.6696C11.2023 10.4216 11.2023 10.1922 11.2023 10.06C11.2023 9.66416 11.2242 9.46619 11.281 9.42637L11.2355 9.23633C11.0134 9.29707 10.7981 9.37928 10.594 9.48766L11.2023 10.6696Z" fill="#EEA339"/>
<path fill-rule="evenodd" clip-rule="evenodd" d="M13.1562 11.7222C13.1562 11.7222 13.1561 11.6411 13.1561 11.5405L12.6802 11.7223L13.1562 11.7222Z" fill="#EEA339"/>
<path fill-rule="evenodd" clip-rule="evenodd" d="M13.678 11.8069L14.7429 11.661C14.712 11.4291 14.6535 11.203 14.5693 10.9878L13.678 11.3473V11.8069Z" fill="#EEA339"/>
<path fill-rule="evenodd" clip-rule="evenodd" d="M13.678 11.8838L14.7627 11.8169C14.7767 12.048 14.7629 12.2813 14.7211 12.5115C14.7211 12.5115 13.678 12.5181 13.678 12.5115V11.8838Z" fill="#EEA339"/>
<path fill-rule="evenodd" clip-rule="evenodd" d="M13.6436 11.1406C13.6788 11.0939 13.657 11.069 13.6192 11.0442C13.5813 11.0195 13.5867 11.0002 13.6056 10.9646C13.6245 10.9288 13.6435 10.8903 13.6083 10.8518C13.5731 10.8133 13.5867 10.7968 13.6137 10.7694C13.6408 10.7419 13.6435 10.7117 13.6192 10.6896C13.5948 10.6676 13.6002 10.6511 13.6164 10.6292C13.6327 10.6071 13.6644 10.5625 13.6361 10.5337L14.0786 10.1582C14.2248 10.3359 14.3499 10.532 14.4507 10.7424L13.6436 11.1406Z" fill="#EEA339"/>
<path fill-rule="evenodd" clip-rule="evenodd" d="M12.6802 11.3451L13.2076 10.8253C13.1331 10.7498 13.1257 10.7374 13.1785 10.6838C13.236 10.6253 13.2381 10.6193 13.1211 10.5003C13.0811 10.4598 13.1035 10.4315 13.1603 10.4315C13.217 10.4315 13.4782 10.4315 13.5079 10.4315C13.5377 10.4315 13.5611 10.4331 13.5829 10.4552L14.0034 10.0416C13.8429 9.87374 13.6637 9.72728 13.4701 9.60498L12.6802 10.8958V11.3451Z" fill="#EEA339"/>
<path fill-rule="evenodd" clip-rule="evenodd" d="M13.1563 11.4245C13.1563 11.2954 13.1562 11.1675 13.1562 11.1494C13.1562 11.1108 13.1589 11.0957 13.1887 11.0655C13.2184 11.0353 13.2035 11.0208 13.1805 10.9878L12.6802 11.4113V11.66L13.1563 11.4245Z" fill="#EEA339"/>
<path fill-rule="evenodd" clip-rule="evenodd" d="M10.4126 11.1719C10.4316 11.1911 10.4397 11.2103 10.4397 11.257C10.4397 11.3038 10.4397 12.3264 10.4397 12.7278C10.4397 13.2171 10.7319 13.4893 11.0322 13.4893C11.3081 13.4893 11.4894 13.2336 11.5841 12.9368C11.4624 13.033 11.2838 13.0632 11.1133 13.0632C10.9158 13.0632 10.5966 12.9286 10.5966 12.6371C10.5966 12.3677 10.5966 11.3698 10.5966 11.2103C10.5966 11.1719 10.5587 11.1719 10.4126 11.1719Z" fill="#D82332"/>
<path fill-rule="evenodd" clip-rule="evenodd" d="M12.138 9.24477C11.7608 9.20597 11.4108 9.28569 11.4108 9.80864C11.4108 10.3585 11.4108 11.0292 11.4108 11.198C11.4108 11.43 11.3929 11.4025 11.5864 11.4512C11.9374 11.5397 11.9772 11.5509 12.4029 11.6497V10.2361C12.0394 10.1956 11.8819 9.95371 11.8819 9.68578C11.8819 9.4726 11.9746 9.27196 12.138 9.24477Z" fill="#D82332"/>
<path fill-rule="evenodd" clip-rule="evenodd" d="M13.4889 11.1719C13.4699 11.1911 13.4618 11.2103 13.4618 11.257C13.4618 11.3038 13.4618 12.3264 13.4618 12.7278C13.4618 13.2171 13.1696 13.4893 12.8693 13.4893C12.5934 13.4893 12.4121 13.2336 12.3174 12.9368C12.4392 13.033 12.6177 13.0632 12.7882 13.0632C12.9857 13.0632 13.3049 12.9286 13.3049 12.6371C13.3049 12.3677 13.3049 11.3698 13.3049 11.2103C13.3049 11.1719 13.3428 11.1719 13.4889 11.1719Z" fill="#D82332"/>
<mask id="mask1_91_2186" style="mask-type:luminance" maskUnits="userSpaceOnUse" x="9" y="9" width="6" height="6">
<path fill-rule="evenodd" clip-rule="evenodd" d="M12 14.8586C13.5779 14.8586 14.8571 13.5794 14.8571 12.0014C14.8571 10.4235 13.5779 9.14429 12 9.14429C10.422 9.14429 9.14282 10.4235 9.14282 12.0014C9.14282 13.5794 10.422 14.8586 12 14.8586Z" fill="white"/>
</mask>
<g mask="url(#mask1_91_2186)">
<path fill-rule="evenodd" clip-rule="evenodd" d="M12 19.4299C13.5779 19.4299 14.8571 18.1507 14.8571 16.5727C14.8571 14.9948 13.5779 13.7156 12 13.7156C10.422 13.7156 9.14282 14.9948 9.14282 16.5727C9.14282 18.1507 10.422 19.4299 12 19.4299Z" fill="#064A89"/>
</g>
</g>
</svg>
