<svg width="24" height="24" viewBox="0 0 24 24" fill="none" xmlns="http://www.w3.org/2000/svg">
<rect x="0.25" y="3.67993" width="23.5" height="16.6429" rx="1.75" fill="white" stroke="#F5F5F5" stroke-width="0.5"/>
<mask id="mask0_91_2678" style="mask-type:luminance" maskUnits="userSpaceOnUse" x="0" y="3" width="24" height="18">
<rect x="0.25" y="3.67993" width="23.5" height="16.6429" rx="1.75" fill="white" stroke="white" stroke-width="0.5"/>
</mask>
<g mask="url(#mask0_91_2678)">
<path fill-rule="evenodd" clip-rule="evenodd" d="M0 9.14422H24V3.42993H0V9.14422Z" fill="#0884E6"/>
<path fill-rule="evenodd" clip-rule="evenodd" d="M0 20.5727H24V14.8584H0V20.5727Z" fill="#0884E6"/>
<path fill-rule="evenodd" clip-rule="evenodd" d="M12 12.5729L11.1919 12.8096L11.4286 12.0015L11.1919 11.1934L12 11.4301L12.8082 11.1934L12.5715 12.0015L12.8082 12.8096L12 12.5729Z" fill="#0E88E9"/>
<path fill-rule="evenodd" clip-rule="evenodd" d="M16.5713 11.4299L15.7632 11.6666L15.9999 10.8584L15.7632 10.0503L16.5713 10.287L17.3794 10.0503L17.1428 10.8584L17.3794 11.6666L16.5713 11.4299Z" fill="#0E88E9"/>
<path fill-rule="evenodd" clip-rule="evenodd" d="M16.5713 13.7158L15.7632 13.9524L15.9999 13.1443L15.7632 12.3362L16.5713 12.5729L17.3794 12.3362L17.1428 13.1443L17.3794 13.9524L16.5713 13.7158Z" fill="#0E88E9"/>
<path fill-rule="evenodd" clip-rule="evenodd" d="M7.4285 13.7158L6.62038 13.9524L6.85707 13.1443L6.62038 12.3362L7.4285 12.5729L8.23662 12.3362L7.99993 13.1443L8.23662 13.9524L7.4285 13.7158Z" fill="#0E88E9"/>
<path fill-rule="evenodd" clip-rule="evenodd" d="M7.4285 11.4299L6.62038 11.6666L6.85707 10.8584L6.62038 10.0503L7.4285 10.287L8.23662 10.0503L7.99993 10.8584L8.23662 11.6666L7.4285 11.4299Z" fill="#0E88E9"/>
</g>
</svg>
