<svg width="24" height="24" viewBox="0 0 24 24" fill="none" xmlns="http://www.w3.org/2000/svg">
<rect x="0.25" y="3.67993" width="23.5" height="16.6429" rx="1.75" fill="white" stroke="#F5F5F5" stroke-width="0.5"/>
<mask id="mask0_91_2582" style="mask-type:luminance" maskUnits="userSpaceOnUse" x="0" y="3" width="24" height="18">
<rect x="0.25" y="3.67993" width="23.5" height="16.6429" rx="1.75" fill="white" stroke="white" stroke-width="0.5"/>
</mask>
<g mask="url(#mask0_91_2582)">
<path fill-rule="evenodd" clip-rule="evenodd" d="M12 16.0012C14.2091 16.0012 16 14.2104 16 12.0012C16 9.79208 14.2091 8.00122 12 8.00122C9.79086 8.00122 8 9.79208 8 12.0012C8 14.2104 9.79086 16.0012 12 16.0012Z" fill="#E01B41"/>
<mask id="mask1_91_2582" style="mask-type:luminance" maskUnits="userSpaceOnUse" x="8" y="8" width="8" height="9">
<path fill-rule="evenodd" clip-rule="evenodd" d="M12 16.0012C14.2091 16.0012 16 14.2104 16 12.0012C16 9.79208 14.2091 8.00122 12 8.00122C9.79086 8.00122 8 9.79208 8 12.0012C8 14.2104 9.79086 16.0012 12 16.0012Z" fill="white"/>
</mask>
<g mask="url(#mask1_91_2582)">
<path fill-rule="evenodd" clip-rule="evenodd" d="M8.00012 12.5726C9.14298 13.644 10.8573 14.2869 12.0001 12.5726C13.143 10.8583 15.4287 10.8583 16.0001 12.5726C16.5716 14.2869 16.0001 16.0012 16.0001 16.0012H8.00012C8.00012 16.0012 6.85727 11.5012 8.00012 12.5726Z" fill="#0E4B9C"/>
</g>
<path opacity="0.75" fill-rule="evenodd" clip-rule="evenodd" d="M17.8649 6.63584C17.7055 6.72788 17.6508 6.93175 17.7429 7.09118L19.1238 9.48306C19.2159 9.64249 19.4198 9.69711 19.5792 9.60507L19.9916 9.36697C20.151 9.27492 20.2056 9.07106 20.1136 8.91163L18.7326 6.51975C18.6406 6.36032 18.4367 6.30569 18.2773 6.39774L17.8649 6.63584ZM16.3803 7.49298C16.2209 7.58503 16.1663 7.78889 16.2583 7.94832L17.6393 10.3402C17.7313 10.4996 17.9352 10.5543 18.0946 10.4622L18.507 10.2241C18.6664 10.1321 18.7211 9.9282 18.629 9.76877L17.2481 7.37689C17.156 7.21746 16.9522 7.16284 16.7927 7.25488L16.3803 7.49298ZM3.88651 15.0912C3.79446 14.9318 3.84909 14.7279 4.00852 14.6359L4.42091 14.3978C4.58034 14.3057 4.78421 14.3604 4.87625 14.5198L6.25721 16.9117C6.34925 17.0711 6.29463 17.275 6.1352 17.367L5.72281 17.6051C5.56337 17.6972 5.35951 17.6425 5.26746 17.4831L3.88651 15.0912ZM5.49308 13.7787C5.33365 13.8708 5.27903 14.0747 5.37107 14.2341L6.75203 16.626C6.84407 16.7854 7.04794 16.84 7.20737 16.748L7.61976 16.5099C7.77919 16.4178 7.83382 16.214 7.74177 16.0545L6.36082 13.6627C6.26877 13.5032 6.06491 13.4486 5.90547 13.5406L5.49308 13.7787ZM17.6393 13.6626C17.7313 13.5032 17.9352 13.4486 18.0946 13.5406L18.507 13.7787C18.6664 13.8708 18.7211 14.0746 18.629 14.2341L17.2481 16.6259C17.156 16.7854 16.9522 16.84 16.7927 16.7479L16.3803 16.5099C16.2209 16.4178 16.1663 16.2139 16.2583 16.0545L17.6393 13.6626ZM19.5792 14.3978C19.4197 14.3057 19.2159 14.3603 19.1238 14.5198L17.7429 16.9117C17.6508 17.0711 17.7055 17.2749 17.8649 17.367L18.2773 17.6051C18.4367 17.6971 18.6406 17.6425 18.7326 17.4831L20.1136 15.0912C20.2056 14.9318 20.151 14.7279 19.9916 14.6359L19.5792 14.3978ZM5.26746 6.5198C5.35951 6.36037 5.56337 6.30574 5.72281 6.39779L6.1352 6.63588C6.29463 6.72793 6.34925 6.93179 6.25721 7.09122L4.87625 9.4831C4.78421 9.64254 4.58034 9.69716 4.42091 9.60511L4.00852 9.36702C3.84909 9.27497 3.79446 9.07111 3.88651 8.91168L5.26746 6.5198ZM7.20737 7.25493C7.04794 7.16288 6.84407 7.21751 6.75203 7.37694L5.37107 9.76882C5.27903 9.92825 5.33365 10.1321 5.49308 10.2242L5.90547 10.4623C6.06491 10.5543 6.26877 10.4997 6.36082 10.3402L7.74177 7.94837C7.83382 7.78894 7.77919 7.58507 7.61976 7.49303L7.20737 7.25493Z" fill="#262626"/>
</g>
</svg>
