<svg width="24" height="24" viewBox="0 0 24 24" fill="none" xmlns="http://www.w3.org/2000/svg">
<rect y="3.42993" width="24" height="17.1429" rx="2" fill="white"/>
<mask id="mask0_91_1731" style="mask-type:luminance" maskUnits="userSpaceOnUse" x="0" y="3" width="24" height="18">
<rect y="3.42993" width="24" height="17.1429" rx="2" fill="white"/>
</mask>
<g mask="url(#mask0_91_1731)">
<path fill-rule="evenodd" clip-rule="evenodd" d="M0 20.5728H24V3.42993H0V20.5728Z" fill="#079D7B"/>
<path fill-rule="evenodd" clip-rule="evenodd" d="M13.6157 10.8586C13.6157 11.1088 13.5975 11.3514 13.5634 11.5827C13.651 11.5558 13.7403 11.5301 13.8311 11.5057C15.3552 11.0973 16.7157 11.2321 16.8696 11.8067C17.0088 12.326 16.1149 13.0269 14.8165 13.4585C14.5872 12.7781 13.4134 12.5729 12 12.5729C10.5849 12.5729 9.4101 12.7786 9.18263 13.4608C7.90179 13.0284 7.02397 12.3349 7.16196 11.8199C7.31593 11.2453 8.67635 11.1105 10.2005 11.5189C10.2806 11.5404 10.3595 11.5629 10.4371 11.5864C10.4026 11.354 10.3842 11.1101 10.3842 10.8586C10.3842 9.28065 11.1076 8.00146 11.9999 8.00146C12.8923 8.00146 13.6157 9.28065 13.6157 10.8586ZM9.65873 13.604C9.8224 13.6475 9.98413 13.6847 10.1426 13.7158H7.42854C7.56409 14.1227 7.74653 14.5061 7.96897 14.8587H16.031C16.2534 14.5061 16.4358 14.1227 16.5714 13.7158H13.82C13.9835 13.6854 14.1506 13.6484 14.32 13.6047C14.1399 13.6107 13.9204 13.6259 13.6705 13.6432C13.2007 13.6757 12.6237 13.7157 12 13.7157C11.3762 13.7157 10.7992 13.6757 10.3294 13.6432C10.0696 13.6252 9.84268 13.6095 9.65873 13.604ZM12 17.1443C13.1543 17.1443 14.2144 16.7161 15.0469 16.0014H8.95302C9.78552 16.7161 10.8456 17.1443 12 17.1443Z" fill="white"/>
<path fill-rule="evenodd" clip-rule="evenodd" d="M12 6.85843C12.3156 6.85843 12.5715 6.6026 12.5715 6.287C12.5715 5.97141 12.3156 5.71558 12 5.71558C11.6845 5.71558 11.4286 5.97141 11.4286 6.287C11.4286 6.6026 11.6845 6.85843 12 6.85843ZM7.42861 9.71551C7.7442 9.71551 8.00003 9.45967 8.00003 9.14408C8.00003 8.82849 7.7442 8.57265 7.42861 8.57265C7.11302 8.57265 6.85718 8.82849 6.85718 9.14408C6.85718 9.45967 7.11302 9.71551 7.42861 9.71551ZM17.1429 9.14408C17.1429 9.45967 16.887 9.71551 16.5715 9.71551C16.2559 9.71551 16 9.45967 16 9.14408C16 8.82849 16.2559 8.57265 16.5715 8.57265C16.887 8.57265 17.1429 8.82849 17.1429 9.14408ZM14.8572 8.00122C15.1728 8.00122 15.4286 7.74538 15.4286 7.42979C15.4286 7.1142 15.1728 6.85836 14.8572 6.85836C14.5416 6.85836 14.2857 7.1142 14.2857 7.42979C14.2857 7.74538 14.5416 8.00122 14.8572 8.00122ZM9.71432 7.42979C9.71432 7.74538 9.45848 8.00122 9.14289 8.00122C8.8273 8.00122 8.57146 7.74538 8.57146 7.42979C8.57146 7.1142 8.8273 6.85836 9.14289 6.85836C9.45848 6.85836 9.71432 7.1142 9.71432 7.42979Z" fill="#FCD117"/>
</g>
</svg>
