<svg width="24" height="24" viewBox="0 0 24 24" fill="none" xmlns="http://www.w3.org/2000/svg">
<rect x="0.25" y="3.67993" width="23.5" height="16.6429" rx="1.75" fill="white" stroke="#F5F5F5" stroke-width="0.5"/>
<mask id="mask0_91_1851" style="mask-type:luminance" maskUnits="userSpaceOnUse" x="0" y="3" width="24" height="18">
<rect x="0.25" y="3.67993" width="23.5" height="16.6429" rx="1.75" fill="white" stroke="white" stroke-width="0.5"/>
</mask>
<g mask="url(#mask0_91_1851)">
<rect x="-5.40991" y="1.21606" width="2.28571" height="42.2857" transform="rotate(-55 -5.40991 1.21606)" fill="#E3243B"/>
<rect width="2.28571" height="42.2857" transform="matrix(-0.573576 -0.819152 -0.819152 0.573576 30.5396 1.21606)" fill="#E3243B"/>
<path fill-rule="evenodd" clip-rule="evenodd" d="M13.492 5.71551H11.6511L11.7257 5.67172L10.8799 5.18329L11.9735 5.3054L11.8197 4.57275L12.5716 5.18329L13.3234 4.57275L13.1697 5.3054L14.2632 5.18329L13.4174 5.67172L13.492 5.71551Z" fill="#FAEF32"/>
<path fill-rule="evenodd" clip-rule="evenodd" d="M10.8572 7.85843C10.8572 7.60138 10.8572 7.32035 10.8572 7.0489C10.8572 6.31252 11.4541 5.71558 12.1905 5.71558H12.9524C13.6888 5.71558 14.2857 6.31252 14.2857 7.0489C14.2857 7.32035 14.2857 7.60138 14.2857 7.85843C14.2857 9.38905 12.5715 10.0013 12.5715 10.0013C12.5715 10.0013 10.8572 9.38905 10.8572 7.85843Z" fill="#E3243B"/>
<mask id="mask1_91_1851" style="mask-type:luminance" maskUnits="userSpaceOnUse" x="10" y="5" width="5" height="6">
<path fill-rule="evenodd" clip-rule="evenodd" d="M10.8572 7.85843C10.8572 7.60138 10.8572 7.32035 10.8572 7.0489C10.8572 6.31252 11.4541 5.71558 12.1905 5.71558H12.9524C13.6888 5.71558 14.2857 6.31252 14.2857 7.0489C14.2857 7.32035 14.2857 7.60138 14.2857 7.85843C14.2857 9.38905 12.5715 10.0013 12.5715 10.0013C12.5715 10.0013 10.8572 9.38905 10.8572 7.85843Z" fill="white"/>
</mask>
<g mask="url(#mask1_91_1851)">
<path d="M12.1182 9.57261C12.1182 9.33592 12.31 9.14404 12.5467 9.14404C12.7834 9.14404 12.9753 9.33592 12.9753 9.57261C12.9753 9.80931 12.7834 10.0012 12.5467 10.0012C12.31 10.0012 12.1182 9.80931 12.1182 9.57261Z" fill="#FAEF32"/>
<path d="M11.4287 8.42979C11.4287 8.1931 11.6206 8.00122 11.8573 8.00122H13.2859C13.5225 8.00122 13.7144 8.1931 13.7144 8.42979C13.7144 8.66649 13.5225 8.85836 13.2859 8.85836H11.8573C11.6206 8.85836 11.4287 8.66649 11.4287 8.42979Z" fill="#FAEF32"/>
<path d="M11.4287 7.28697C11.4287 7.05028 11.6206 6.8584 11.8573 6.8584H13.2859C13.5225 6.8584 13.7144 7.05028 13.7144 7.28697C13.7144 7.52366 13.5225 7.71554 13.2859 7.71554H11.8573C11.6206 7.71554 11.4287 7.52366 11.4287 7.28697Z" fill="#FAEF32"/>
</g>
</g>
</svg>
