<svg width="24" height="24" viewBox="0 0 24 24" fill="none" xmlns="http://www.w3.org/2000/svg">
<rect x="0.25" y="3.67993" width="23.5" height="16.6429" rx="1.75" fill="white" stroke="#F5F5F5" stroke-width="0.5"/>
<mask id="mask0_91_1248" style="mask-type:luminance" maskUnits="userSpaceOnUse" x="0" y="3" width="24" height="18">
<rect x="0.25" y="3.67993" width="23.5" height="16.6429" rx="1.75" fill="white" stroke="white" stroke-width="0.5"/>
</mask>
<g mask="url(#mask0_91_1248)">
<rect x="16" y="3.42993" width="8" height="17.1429" fill="#63AEE3"/>
<path fill-rule="evenodd" clip-rule="evenodd" d="M0 20.5728H8V3.42993H0V20.5728Z" fill="#63AEE3"/>
<path fill-rule="evenodd" clip-rule="evenodd" d="M9.71427 10.7632C10.0825 10.7632 10.3809 11.0617 10.3809 11.4299C10.3809 12.0275 10.7044 12.5504 11.1891 12.8316C11.5076 13.0164 11.6159 13.4244 11.4311 13.7428C11.2464 14.0613 10.8384 14.1697 10.5199 13.9849C9.64107 13.4749 9.04761 12.5221 9.04761 11.4299C9.04761 11.0617 9.34608 10.7632 9.71427 10.7632ZM14.2857 10.7632C14.6539 10.7632 14.9524 11.0617 14.9524 11.4299C14.9524 12.4763 14.4075 13.395 13.5891 13.9184C13.2789 14.1168 12.8666 14.0262 12.6682 13.716C12.4699 13.4058 12.5605 12.9936 12.8707 12.7952C13.3221 12.5065 13.619 12.0026 13.619 11.4299C13.619 11.0617 13.9175 10.7632 14.2857 10.7632Z" fill="#628A40"/>
<path fill-rule="evenodd" clip-rule="evenodd" d="M12 12.5728C12.6312 12.5728 13.1429 12.0611 13.1429 11.43C13.1429 10.7988 12.6312 10.2871 12 10.2871C11.3689 10.2871 10.8572 10.7988 10.8572 11.43C10.8572 12.0611 11.3689 12.5728 12 12.5728Z" fill="#DCC26D"/>
</g>
</svg>
