<svg width="24" height="24" viewBox="0 0 24 24" fill="none" xmlns="http://www.w3.org/2000/svg">
<rect y="3.42993" width="24" height="17.1429" rx="2" fill="white"/>
<mask id="mask0_91_2760" style="mask-type:luminance" maskUnits="userSpaceOnUse" x="0" y="3" width="24" height="18">
<rect y="3.42993" width="24" height="17.1429" rx="2" fill="white"/>
</mask>
<g mask="url(#mask0_91_2760)">
<rect y="3.42993" width="24" height="17.1429" fill="#95CEF5"/>
<path fill-rule="evenodd" clip-rule="evenodd" d="M10.6563 9.27918L11.9998 8.36714L13.3433 9.27918L12.8911 7.71959L14.1737 6.72368L12.5507 6.67184L11.9998 5.14429L11.449 6.67184L9.82597 6.72368L11.1085 7.71959L10.6563 9.27918ZM10.6563 18.4221L11.9998 17.51L13.3433 18.4221L12.8911 16.8625L14.1737 15.8666L12.5507 15.8147L11.9998 14.2872L11.449 15.8147L9.82597 15.8666L11.1085 16.8625L10.6563 18.4221ZM16.5713 12.9385L15.2278 13.8506L15.68 12.291L14.3974 11.2951L16.0205 11.2432L16.5713 9.71569L17.1221 11.2432L18.7451 11.2951L17.4626 12.291L17.9148 13.8506L16.5713 12.9385ZM6.08497 13.8506L7.42848 12.9385L8.77199 13.8506L8.31976 12.291L9.60233 11.2951L7.97932 11.2432L7.42848 9.71569L6.87764 11.2432L5.25464 11.2951L6.53721 12.291L6.08497 13.8506Z" fill="white"/>
</g>
</svg>
