<svg width="24" height="24" viewBox="0 0 24 24" fill="none" xmlns="http://www.w3.org/2000/svg">
<rect y="3.42993" width="24" height="17.1429" rx="2" fill="white"/>
<mask id="mask0_91_2841" style="mask-type:luminance" maskUnits="userSpaceOnUse" x="0" y="3" width="24" height="18">
<rect y="3.42993" width="24" height="17.1429" rx="2" fill="white"/>
</mask>
<g mask="url(#mask0_91_2841)">
<rect y="3.42993" width="24" height="17.1429" fill="#79CFF6"/>
<rect y="3.42993" width="10.2857" height="8" fill="url(#paint0_linear_91_2841)"/>
<path fill-rule="evenodd" clip-rule="evenodd" d="M14.8572 12.0012C14.8572 10.2869 14.8572 8.00122 14.8572 8.00122H20.5715C20.5715 8.00122 20.5715 10.2869 20.5715 12.0012C20.5715 14.8584 17.7143 16.0012 17.7143 16.0012C17.7143 16.0012 14.8572 14.8584 14.8572 12.0012Z" fill="white"/>
<mask id="mask1_91_2841" style="mask-type:luminance" maskUnits="userSpaceOnUse" x="14" y="8" width="7" height="9">
<path fill-rule="evenodd" clip-rule="evenodd" d="M14.8572 12.0012C14.8572 10.2869 14.8572 8.00122 14.8572 8.00122H20.5715C20.5715 8.00122 20.5715 10.2869 20.5715 12.0012C20.5715 14.8584 17.7143 16.0012 17.7143 16.0012C17.7143 16.0012 14.8572 14.8584 14.8572 12.0012Z" fill="white"/>
</mask>
<g mask="url(#mask1_91_2841)">
<path fill-rule="evenodd" clip-rule="evenodd" d="M16.5713 10.287C16.5713 10.6026 16.3155 10.8584 15.9999 10.8584C15.6843 10.8584 15.4285 10.6026 15.4285 10.287C15.4285 9.97141 15.6843 9.71558 15.9999 9.71558C16.3155 9.71558 16.5713 9.97141 16.5713 10.287ZM19.9999 10.287C19.9999 10.6026 19.7441 10.8584 19.4285 10.8584C19.1129 10.8584 18.857 10.6026 18.857 10.287C18.857 9.97141 19.1129 9.71558 19.4285 9.71558C19.7441 9.71558 19.9999 9.97141 19.9999 10.287Z" fill="#2A915C"/>
<path fill-rule="evenodd" clip-rule="evenodd" d="M14.8572 8.00122H20.5715V9.14408H18.2857V11.4298H20.5715V12.5726H18.2857V16.0012H17.1429V12.5726H14.8572V11.4298H17.1429V9.14408H14.8572V8.00122Z" fill="#EB1D43"/>
</g>
<path fill-rule="evenodd" clip-rule="evenodd" d="M4 6.8585L0 3.42993H0.571429L4.57143 6.28707H5.71429L10.2857 3.42993V3.82982C10.2857 3.93747 10.2337 4.03849 10.1461 4.10107L6.28571 6.8585V8.00136L9.89784 11.0975C10.031 11.2116 9.9503 11.4299 9.77485 11.4299C9.73546 11.4299 9.69705 11.4176 9.665 11.3947L5.71429 8.57279H4.57143L0 11.4299V10.8585L4 8.00136V6.8585Z" fill="#DB1E36"/>
<path fill-rule="evenodd" clip-rule="evenodd" d="M3.99993 6.85845V8.00131L-7.43866e-05 10.8585V11.4299L4.57135 8.57274H5.71421L9.66493 11.3947C9.69698 11.4176 9.73538 11.4299 9.77477 11.4299C9.95022 11.4299 10.031 11.2116 9.89776 11.0974L6.28564 8.00131V6.85845L10.1461 4.10102C10.2337 4.03845 10.2856 3.93742 10.2856 3.82977V3.42988L5.71421 6.28703H4.57135L0.571354 3.42988H-7.43866e-05L3.99993 6.85845ZM4.785 5.62036L0.784997 2.76322H-1.80225L3.33326 7.16508V7.65823L-0.666741 10.5154V12.6327L4.76255 9.23941H5.50057L9.27744 11.9372C9.42256 12.0408 9.59644 12.0965 9.77477 12.0965C10.5692 12.0965 10.9348 11.1082 10.3316 10.5912L6.95231 7.69469V7.20153L10.5335 4.64351C10.7963 4.45579 10.9523 4.15272 10.9523 3.82977V2.22705L5.52301 5.62036H4.785Z" fill="white"/>
<path fill-rule="evenodd" clip-rule="evenodd" d="M0 6.28707V8.57279H4V11.3347C4 11.7029 4.29848 12.0014 4.66667 12.0014H5.61905C5.98724 12.0014 6.28571 11.7029 6.28571 11.3347V8.57279H10.1905C10.5587 8.57279 10.8571 8.27431 10.8571 7.90612V6.95374C10.8571 6.58555 10.5587 6.28707 10.1905 6.28707H6.28571V3.42993H4V6.28707H0Z" fill="url(#paint1_linear_91_2841)"/>
<path fill-rule="evenodd" clip-rule="evenodd" d="M0 6.8585H4.57143V6.28707V3.42993H5.71429V6.28707V6.8585H10.2857V8.00136H5.71429V8.57279V11.4299H4.57143V8.57279V8.00136H0V6.8585Z" fill="#DB1E36"/>
</g>
<defs>
<linearGradient id="paint0_linear_91_2841" x1="0" y1="3.42993" x2="0" y2="11.4299" gradientUnits="userSpaceOnUse">
<stop stop-color="#042C90"/>
<stop offset="1" stop-color="#00247E"/>
</linearGradient>
<linearGradient id="paint1_linear_91_2841" x1="0" y1="3.42993" x2="0" y2="12.0014" gradientUnits="userSpaceOnUse">
<stop stop-color="white"/>
<stop offset="1" stop-color="#F0F0F0"/>
</linearGradient>
</defs>
</svg>
