<svg width="24" height="24" viewBox="0 0 24 24" fill="none" xmlns="http://www.w3.org/2000/svg">
<rect y="3.42993" width="24" height="17.1429" rx="2" fill="white"/>
<mask id="mask0_91_2689" style="mask-type:luminance" maskUnits="userSpaceOnUse" x="0" y="3" width="24" height="18">
<rect y="3.42993" width="24" height="17.1429" rx="2" fill="white"/>
</mask>
<g mask="url(#mask0_91_2689)">
<rect y="3.42993" width="24" height="17.1429" fill="#128C4B"/>
<path fill-rule="evenodd" clip-rule="evenodd" d="M5.71436 13.7157H14.8572V13.0801C14.8572 12.5846 15.3788 12.2622 15.822 12.4839L16.0001 12.5729V13.7157H17.6191C17.9873 13.7157 18.2858 14.0142 18.2858 14.3824V14.6681C18.2858 15.4045 17.6888 16.0015 16.9524 16.0015H15.5239C15.1557 16.0015 14.8572 15.703 14.8572 15.3348V14.8586H7.13335C6.95654 14.8586 6.78697 14.7884 6.66195 14.6633L5.71436 13.7157Z" fill="white"/>
<path fill-rule="evenodd" clip-rule="evenodd" d="M5.71436 10.425C5.71436 10.3366 5.74947 10.2518 5.81199 10.1893L6.05008 9.95121C6.18026 9.82103 6.18026 9.60998 6.05008 9.4798L5.81199 9.24171C5.74947 9.1792 5.71436 9.09441 5.71436 9.00601V8.33455C5.71436 8.15046 5.86359 8.00122 6.04769 8.00122H6.63895C6.75949 8.00122 6.85721 8.09894 6.85721 8.21949C6.85721 8.44981 7.1677 8.5231 7.2707 8.3171L7.35589 8.14673C7.40048 8.05755 7.49162 8.00122 7.59133 8.00122H8.85721C9.01501 8.00122 9.14293 8.12914 9.14293 8.28693C9.14293 8.44473 9.01501 8.57265 8.85721 8.57265H8.28578C8.12799 8.57265 8.00007 8.70057 8.00007 8.85836C8.00007 9.01616 8.12799 9.14408 8.28578 9.14408H8.80959C8.99369 9.14408 9.14293 9.29332 9.14293 9.47741V11.0965C9.14293 11.2806 8.99369 11.4298 8.80959 11.4298H8.3334C8.14931 11.4298 8.00007 11.2806 8.00007 11.0965V10.5726C8.00007 10.4149 8.12799 10.2869 8.28578 10.2869C8.44358 10.2869 8.5715 10.159 8.5715 10.0012C8.5715 9.84343 8.44358 9.71551 8.28578 9.71551H7.76197C7.57788 9.71551 7.42864 9.86474 7.42864 10.0488V11.1441C7.42864 11.3019 7.30072 11.4298 7.14293 11.4298C6.98513 11.4298 6.85721 11.3019 6.85721 11.1441V10.5726C6.85721 10.4149 6.72929 10.2869 6.5715 10.2869C6.4137 10.2869 6.28578 10.4149 6.28578 10.5726V11.1441C6.28578 11.3019 6.15787 11.4298 6.00007 11.4298C5.84227 11.4298 5.71436 11.3019 5.71436 11.1441V10.425Z" fill="white"/>
<path fill-rule="evenodd" clip-rule="evenodd" d="M14.8572 10.425C14.8572 10.3366 14.8923 10.2518 14.9548 10.1893L15.1929 9.95121C15.3231 9.82103 15.3231 9.60998 15.1929 9.4798L14.9548 9.24171C14.8923 9.1792 14.8572 9.09441 14.8572 9.00601V8.33455C14.8572 8.15046 15.0064 8.00122 15.1905 8.00122H15.7818C15.9023 8.00122 16 8.09894 16 8.21949C16 8.44981 16.3105 8.5231 16.4135 8.3171L16.4987 8.14673C16.5433 8.05755 16.6344 8.00122 16.7341 8.00122H18C18.1578 8.00122 18.2857 8.12914 18.2857 8.28693C18.2857 8.44473 18.1578 8.57265 18 8.57265H17.4286C17.2708 8.57265 17.1429 8.70057 17.1429 8.85836C17.1429 9.01616 17.2708 9.14408 17.4286 9.14408H17.9524C18.1365 9.14408 18.2857 9.29332 18.2857 9.47741V11.0965C18.2857 11.2806 18.1365 11.4298 17.9524 11.4298H17.4762C17.2921 11.4298 17.1429 11.2806 17.1429 11.0965V10.5726C17.1429 10.4149 17.2708 10.2869 17.4286 10.2869C17.5864 10.2869 17.7143 10.159 17.7143 10.0012C17.7143 9.84343 17.5864 9.71551 17.4286 9.71551H16.9048C16.7207 9.71551 16.5715 9.86474 16.5715 10.0488V11.1441C16.5715 11.3019 16.4435 11.4298 16.2857 11.4298C16.128 11.4298 16 11.3019 16 11.1441V10.5726C16 10.4149 15.8721 10.2869 15.7143 10.2869C15.5565 10.2869 15.4286 10.4149 15.4286 10.5726V11.1441C15.4286 11.3019 15.3007 11.4298 15.1429 11.4298C14.9851 11.4298 14.8572 11.3019 14.8572 11.1441V10.425Z" fill="white"/>
<path fill-rule="evenodd" clip-rule="evenodd" d="M13.7142 8.85569C13.7142 9.01496 13.6249 9.23336 13.5079 9.35038L13.3491 9.50921C13.2352 9.62314 13.2321 9.80479 13.3491 9.92181L13.5079 10.0806C13.6219 10.1946 13.7142 10.4092 13.7142 10.5753V11.1414C13.7142 11.3007 13.5919 11.4298 13.4258 11.4298H12.8598C12.7005 11.4298 12.5714 11.3075 12.5714 11.1414V10.5753C12.5714 10.4161 12.5186 10.3924 12.4388 10.552L12.1325 11.1647C12.0593 11.3111 11.8654 11.4298 11.7169 11.4298H10.5687C10.4124 11.4298 10.2856 11.2973 10.2856 11.1441C10.2856 10.9863 10.408 10.8584 10.574 10.8584H11.1401C11.2994 10.8584 11.4285 10.7258 11.4285 10.5726C11.4285 10.4149 11.3062 10.2869 11.1401 10.2869H10.574C10.4148 10.2869 10.2856 10.164 10.2856 10.0067V8.28149C10.2856 8.1267 10.408 8.00122 10.574 8.00122H11.1401C11.2994 8.00122 11.4285 8.12353 11.4285 8.28961V8.85569C11.4285 9.01496 11.296 9.14408 11.1428 9.14408C10.985 9.14408 10.8571 9.27661 10.8571 9.42979C10.8571 9.58759 10.9794 9.71551 11.1455 9.71551H11.7115C11.8708 9.71551 11.9999 9.58099 11.9999 9.43243V8.2843C11.9999 8.12796 12.1325 8.00122 12.2856 8.00122C12.4434 8.00122 12.5714 8.12353 12.5714 8.28961V8.85569C12.5714 9.01496 12.7039 9.14408 12.8571 9.14408C13.0149 9.14408 13.1428 9.02177 13.1428 8.85569V8.28961C13.1428 8.13034 13.2753 8.00122 13.4285 8.00122C13.5863 8.00122 13.7142 8.12353 13.7142 8.28961V8.85569Z" fill="white"/>
</g>
</svg>
