<svg width="24" height="24" viewBox="0 0 24 24" fill="none" xmlns="http://www.w3.org/2000/svg">
<rect x="0.25" y="3.67993" width="23.5" height="16.6429" rx="1.75" fill="white" stroke="#F5F5F5" stroke-width="0.5"/>
<mask id="mask0_91_1756" style="mask-type:luminance" maskUnits="userSpaceOnUse" x="0" y="3" width="24" height="18">
<rect x="0.25" y="3.67993" width="23.5" height="16.6429" rx="1.75" fill="white" stroke="white" stroke-width="0.5"/>
</mask>
<g mask="url(#mask0_91_1756)">
<path fill-rule="evenodd" clip-rule="evenodd" d="M0 9.14422H24V3.42993H0V9.14422Z" fill="#04AAC8"/>
<path fill-rule="evenodd" clip-rule="evenodd" d="M0 20.5727H24V14.8584H0V20.5727Z" fill="#23C840"/>
<path fill-rule="evenodd" clip-rule="evenodd" d="M8.57135 5.71561C8.88694 5.71561 9.14278 5.45977 9.14278 5.14418C9.14278 4.82859 8.88694 4.57275 8.57135 4.57275C8.25576 4.57275 7.99992 4.82859 7.99992 5.14418C7.99992 5.45977 8.25576 5.71561 8.57135 5.71561ZM3.99993 8.00136C4.35253 8.00136 4.68027 7.89491 4.95275 7.71239C4.92113 7.71448 4.88923 7.71554 4.85708 7.71554C4.0681 7.71554 3.42851 7.07595 3.42851 6.28697C3.42851 5.49799 4.0681 4.8584 4.85708 4.8584C4.88911 4.8584 4.9209 4.85945 4.95241 4.86153C4.67999 4.67915 4.35238 4.57279 3.99993 4.57279C3.05316 4.57279 2.28564 5.3403 2.28564 6.28707C2.28564 7.23385 3.05316 8.00136 3.99993 8.00136ZM6.85707 7.42997C6.85707 7.74556 6.60124 8.00139 6.28564 8.00139C5.97005 8.00139 5.71422 7.74556 5.71422 7.42997C5.71422 7.11438 5.97005 6.85854 6.28564 6.85854C6.60124 6.85854 6.85707 7.11438 6.85707 7.42997ZM11.4285 5.14418C11.4285 5.45977 11.1727 5.71561 10.8571 5.71561C10.5415 5.71561 10.2857 5.45977 10.2857 5.14418C10.2857 4.82859 10.5415 4.57275 10.8571 4.57275C11.1727 4.57275 11.4285 4.82859 11.4285 5.14418ZM10.8571 8.00139C11.1727 8.00139 11.4285 7.74556 11.4285 7.42997C11.4285 7.11438 11.1727 6.85854 10.8571 6.85854C10.5415 6.85854 10.2857 7.11438 10.2857 7.42997C10.2857 7.74556 10.5415 8.00139 10.8571 8.00139ZM9.14278 7.42997C9.14278 7.74556 8.88694 8.00139 8.57135 8.00139C8.25576 8.00139 7.99992 7.74556 7.99992 7.42997C7.99992 7.11438 8.25576 6.85854 8.57135 6.85854C8.88694 6.85854 9.14278 7.11438 9.14278 7.42997Z" fill="white"/>
</g>
</svg>
