<svg width="24" height="24" viewBox="0 0 24 24" fill="none" xmlns="http://www.w3.org/2000/svg">
<rect y="3.42993" width="24" height="17.1429" rx="2" fill="white"/>
<mask id="mask0_91_3246" style="mask-type:luminance" maskUnits="userSpaceOnUse" x="0" y="3" width="24" height="18">
<rect y="3.42993" width="24" height="17.1429" rx="2" fill="white"/>
</mask>
<g mask="url(#mask0_91_3246)">
<g filter="url(#filter0_d_91_3246)">
<path fill-rule="evenodd" clip-rule="evenodd" d="M0 14.8586H24V9.14429H0V14.8586Z" fill="#262626"/>
</g>
<g filter="url(#filter1_d_91_3246)">
<path fill-rule="evenodd" clip-rule="evenodd" d="M0 20.5727H24V14.8584H0V20.5727Z" fill="#34B857"/>
</g>
<path fill-rule="evenodd" clip-rule="evenodd" d="M0 9.14422H24V3.42993H0V9.14422Z" fill="#F41F34"/>
<path fill-rule="evenodd" clip-rule="evenodd" d="M11.9999 13.7157C12.3525 13.7157 12.6802 13.6093 12.9526 13.4268C12.9211 13.4289 12.8892 13.4299 12.8571 13.4299C12.0681 13.4299 11.4285 12.7903 11.4285 12.0014C11.4285 11.2124 12.0681 10.5728 12.8571 10.5728C12.8892 10.5728 12.921 10.5739 12.9525 10.5759C12.6801 10.3935 12.3524 10.2871 11.9999 10.2871C11.0532 10.2871 10.2856 11.0546 10.2856 12.0014C10.2856 12.9482 11.0532 13.7157 11.9999 13.7157ZM13.7142 12.0014C13.7142 12.317 13.4583 12.5728 13.1427 12.5728C12.8272 12.5728 12.5713 12.317 12.5713 12.0014C12.5713 11.6858 12.8272 11.4299 13.1427 11.4299C13.4583 11.4299 13.7142 11.6858 13.7142 12.0014Z" fill="white"/>
</g>
<defs>
<filter id="filter0_d_91_3246" x="0" y="9.14429" width="24" height="5.71436" filterUnits="userSpaceOnUse" color-interpolation-filters="sRGB">
<feFlood flood-opacity="0" result="BackgroundImageFix"/>
<feColorMatrix in="SourceAlpha" type="matrix" values="0 0 0 0 0 0 0 0 0 0 0 0 0 0 0 0 0 0 127 0" result="hardAlpha"/>
<feOffset/>
<feColorMatrix type="matrix" values="0 0 0 0 0 0 0 0 0 0 0 0 0 0 0 0 0 0 0.06 0"/>
<feBlend mode="normal" in2="BackgroundImageFix" result="effect1_dropShadow_91_3246"/>
<feBlend mode="normal" in="SourceGraphic" in2="effect1_dropShadow_91_3246" result="shape"/>
</filter>
<filter id="filter1_d_91_3246" x="0" y="14.8584" width="24" height="5.71436" filterUnits="userSpaceOnUse" color-interpolation-filters="sRGB">
<feFlood flood-opacity="0" result="BackgroundImageFix"/>
<feColorMatrix in="SourceAlpha" type="matrix" values="0 0 0 0 0 0 0 0 0 0 0 0 0 0 0 0 0 0 127 0" result="hardAlpha"/>
<feOffset/>
<feColorMatrix type="matrix" values="0 0 0 0 0 0 0 0 0 0 0 0 0 0 0 0 0 0 0.06 0"/>
<feBlend mode="normal" in2="BackgroundImageFix" result="effect1_dropShadow_91_3246"/>
<feBlend mode="normal" in="SourceGraphic" in2="effect1_dropShadow_91_3246" result="shape"/>
</filter>
</defs>
</svg>
