<svg width="24" height="24" viewBox="0 0 24 24" fill="none" xmlns="http://www.w3.org/2000/svg">
<rect x="0.25" y="3.67993" width="23.5" height="16.6429" rx="1.75" fill="white" stroke="#F5F5F5" stroke-width="0.5"/>
<mask id="mask0_91_2334" style="mask-type:luminance" maskUnits="userSpaceOnUse" x="0" y="3" width="24" height="18">
<rect x="0.25" y="3.67993" width="23.5" height="16.6429" rx="1.75" fill="white" stroke="white" stroke-width="0.5"/>
</mask>
<g mask="url(#mask0_91_2334)">
<path fill-rule="evenodd" clip-rule="evenodd" d="M0 20.5727H24V14.8584H0V20.5727Z" fill="#262626"/>
<path fill-rule="evenodd" clip-rule="evenodd" d="M0 9.14422H24V3.42993H0V9.14422Z" fill="#E32139"/>
<path fill-rule="evenodd" clip-rule="evenodd" d="M8.00007 12.9384L6.65656 13.8505L7.10879 12.2909L5.82623 11.295L7.44923 11.2431L8.00007 9.71558L8.55091 11.2431L10.1739 11.295L8.89135 12.2909L9.34358 13.8505L8.00007 12.9384Z" fill="#128A49"/>
<path fill-rule="evenodd" clip-rule="evenodd" d="M16.0001 12.9384L14.6566 13.8505L15.1088 12.2909L13.8262 11.295L15.4492 11.2431L16.0001 9.71558L16.5509 11.2431L18.1739 11.295L16.8913 12.2909L17.3436 13.8505L16.0001 12.9384Z" fill="#128A49"/>
</g>
</svg>
