<svg width="24" height="24" viewBox="0 0 24 24" fill="none" xmlns="http://www.w3.org/2000/svg">
<path d="M0 5.42993C0 4.32536 0.895431 3.42993 2 3.42993H22C23.1046 3.42993 24 4.32536 24 5.42993V18.5728C24 19.6774 23.1046 20.5728 22 20.5728H2C0.89543 20.5728 0 19.6774 0 18.5728V5.42993Z" fill="white"/>
<mask id="mask0_91_2323" style="mask-type:luminance" maskUnits="userSpaceOnUse" x="0" y="3" width="24" height="18">
<path d="M0 5.42993C0 4.32536 0.895431 3.42993 2 3.42993H22C23.1046 3.42993 24 4.32536 24 5.42993V18.5728C24 19.6774 23.1046 20.5728 22 20.5728H2C0.89543 20.5728 0 19.6774 0 18.5728V5.42993Z" fill="white"/>
</mask>
<g mask="url(#mask0_91_2323)">
<path d="M0 3.42993H24V20.5728H0V3.42993Z" fill="#108B4D"/>
<path fill-rule="evenodd" clip-rule="evenodd" d="M16.9832 10.0585C17.0248 10.322 17.0465 10.5922 17.0465 10.8674C17.0465 13.7077 14.7439 16.0102 11.9036 16.0102C9.06328 16.0102 6.76074 13.7077 6.76074 10.8674C6.76074 10.5922 6.78236 10.322 6.82399 10.0585C7.21201 12.5145 9.3385 14.3924 11.9036 14.3924C14.4687 14.3924 16.5952 12.5145 16.9832 10.0585ZM12.0001 10.7706L10.5874 11.7776L11.1087 10.1229L9.71438 9.0906L11.4492 9.07498L12.0001 7.42993L12.551 9.07498L14.2858 9.0906L12.8915 10.1229L13.4127 11.7776L12.0001 10.7706Z" fill="#FFC941"/>
</g>
</svg>
