<svg width="24" height="24" viewBox="0 0 24 24" fill="none" xmlns="http://www.w3.org/2000/svg">
<rect x="0.25" y="3.67993" width="23.5" height="16.6429" rx="1.75" fill="white" stroke="#F5F5F5" stroke-width="0.5"/>
<mask id="mask0_91_3131" style="mask-type:luminance" maskUnits="userSpaceOnUse" x="0" y="3" width="24" height="18">
<rect x="0.25" y="3.67993" width="23.5" height="16.6429" rx="1.75" fill="white" stroke="white" stroke-width="0.5"/>
</mask>
<g mask="url(#mask0_91_3131)">
<path fill-rule="evenodd" clip-rule="evenodd" d="M0 9.14422H24V3.42993H0V9.14422Z" fill="#38BB56"/>
<path fill-rule="evenodd" clip-rule="evenodd" d="M0 20.5727H24V14.8584H0V20.5727Z" fill="#DE1B27"/>
<path fill-rule="evenodd" clip-rule="evenodd" d="M1.47616 8.00122C1.29206 8.00122 1.14282 8.15046 1.14282 8.33455V8.81074C1.14282 8.99484 1.29206 9.14408 1.47616 9.14408H1.95235C2.13644 9.14408 2.28568 8.99484 2.28568 8.81074V8.33455C2.28568 8.15046 2.13644 8.00122 1.95235 8.00122H1.47616ZM3.76182 8.00122C3.57773 8.00122 3.42849 8.15046 3.42849 8.33455V8.81074C3.42849 8.99484 3.57773 9.14408 3.76182 9.14408H4.23801C4.42211 9.14408 4.57135 8.99484 4.57135 8.81074V8.33455C4.57135 8.15046 4.42211 8.00122 4.23801 8.00122H3.76182ZM5.7143 8.33455C5.7143 8.15046 5.86354 8.00122 6.04763 8.00122H6.52382C6.70792 8.00122 6.85715 8.15046 6.85715 8.33455V8.81074C6.85715 8.99484 6.70792 9.14408 6.52382 9.14408H6.04763C5.86354 9.14408 5.7143 8.99484 5.7143 8.81074V8.33455ZM8.3333 8.00122C8.1492 8.00122 7.99997 8.15046 7.99997 8.33455V8.81074C7.99997 8.99484 8.1492 9.14408 8.3333 9.14408H8.80949C8.99358 9.14408 9.14282 8.99484 9.14282 8.81074V8.33455C9.14282 8.15046 8.99358 8.00122 8.80949 8.00122H8.3333ZM10.2856 8.33455C10.2856 8.15046 10.4349 8.00122 10.619 8.00122H11.0952C11.2793 8.00122 11.4285 8.15046 11.4285 8.33455V8.81074C11.4285 8.99484 11.2793 9.14408 11.0952 9.14408H10.619C10.4349 9.14408 10.2856 8.99484 10.2856 8.81074V8.33455ZM12.9048 8.00122C12.7207 8.00122 12.5714 8.15046 12.5714 8.33455V8.81074C12.5714 8.99484 12.7207 9.14408 12.9048 9.14408H13.381C13.5651 9.14408 13.7143 8.99484 13.7143 8.81074V8.33455C13.7143 8.15046 13.5651 8.00122 13.381 8.00122H12.9048ZM14.8571 8.33455C14.8571 8.15046 15.0063 8.00122 15.1904 8.00122H15.6666C15.8507 8.00122 16 8.15046 16 8.33455V8.81074C16 8.99484 15.8507 9.14408 15.6666 9.14408H15.1904C15.0063 9.14408 14.8571 8.99484 14.8571 8.81074V8.33455ZM17.4761 8.00122C17.292 8.00122 17.1428 8.15046 17.1428 8.33455V8.81074C17.1428 8.99484 17.292 9.14408 17.4761 9.14408H17.9523C18.1364 9.14408 18.2856 8.99484 18.2856 8.81074V8.33455C18.2856 8.15046 18.1364 8.00122 17.9523 8.00122H17.4761ZM19.4286 8.33455C19.4286 8.15046 19.5778 8.00122 19.7619 8.00122H20.2381C20.4222 8.00122 20.5714 8.15046 20.5714 8.33455V8.81074C20.5714 8.99484 20.4222 9.14408 20.2381 9.14408H19.7619C19.5778 9.14408 19.4286 8.99484 19.4286 8.81074V8.33455ZM22.0476 8.00122C21.8635 8.00122 21.7143 8.15046 21.7143 8.33455V8.81074C21.7143 8.99484 21.8635 9.14408 22.0476 9.14408H22.5238C22.7079 9.14408 22.8571 8.99484 22.8571 8.81074V8.33455C22.8571 8.15046 22.7079 8.00122 22.5238 8.00122H22.0476ZM1.14282 15.1917C1.14282 15.0076 1.29206 14.8584 1.47616 14.8584H1.95235C2.13644 14.8584 2.28568 15.0076 2.28568 15.1917V15.6679C2.28568 15.852 2.13644 16.0012 1.95235 16.0012H1.47616C1.29206 16.0012 1.14282 15.852 1.14282 15.6679V15.1917ZM3.76182 14.8584C3.57773 14.8584 3.42849 15.0076 3.42849 15.1917V15.6679C3.42849 15.852 3.57773 16.0012 3.76182 16.0012H4.23801C4.42211 16.0012 4.57135 15.852 4.57135 15.6679V15.1917C4.57135 15.0076 4.42211 14.8584 4.23801 14.8584H3.76182ZM5.7143 15.1917C5.7143 15.0076 5.86354 14.8584 6.04763 14.8584H6.52382C6.70792 14.8584 6.85715 15.0076 6.85715 15.1917V15.6679C6.85715 15.852 6.70792 16.0012 6.52382 16.0012H6.04763C5.86354 16.0012 5.7143 15.852 5.7143 15.6679V15.1917ZM8.3333 14.8584C8.1492 14.8584 7.99997 15.0076 7.99997 15.1917V15.6679C7.99997 15.852 8.1492 16.0012 8.3333 16.0012H8.80949C8.99358 16.0012 9.14282 15.852 9.14282 15.6679V15.1917C9.14282 15.0076 8.99358 14.8584 8.80949 14.8584H8.3333ZM10.2856 15.1917C10.2856 15.0076 10.4349 14.8584 10.619 14.8584H11.0952C11.2793 14.8584 11.4285 15.0076 11.4285 15.1917V15.6679C11.4285 15.852 11.2793 16.0012 11.0952 16.0012H10.619C10.4349 16.0012 10.2856 15.852 10.2856 15.6679V15.1917ZM12.9048 14.8584C12.7207 14.8584 12.5714 15.0076 12.5714 15.1917V15.6679C12.5714 15.852 12.7207 16.0012 12.9048 16.0012H13.381C13.5651 16.0012 13.7143 15.852 13.7143 15.6679V15.1917C13.7143 15.0076 13.5651 14.8584 13.381 14.8584H12.9048ZM14.8571 15.1917C14.8571 15.0076 15.0063 14.8584 15.1904 14.8584H15.6666C15.8507 14.8584 16 15.0076 16 15.1917V15.6679C16 15.852 15.8507 16.0012 15.6666 16.0012H15.1904C15.0063 16.0012 14.8571 15.852 14.8571 15.6679V15.1917ZM17.4761 14.8584C17.292 14.8584 17.1428 15.0076 17.1428 15.1917V15.6679C17.1428 15.852 17.292 16.0012 17.4761 16.0012H17.9523C18.1364 16.0012 18.2856 15.852 18.2856 15.6679V15.1917C18.2856 15.0076 18.1364 14.8584 17.9523 14.8584H17.4761ZM19.4286 15.1917C19.4286 15.0076 19.5778 14.8584 19.7619 14.8584H20.2381C20.4222 14.8584 20.5714 15.0076 20.5714 15.1917V15.6679C20.5714 15.852 20.4222 16.0012 20.2381 16.0012H19.7619C19.5778 16.0012 19.4286 15.852 19.4286 15.6679V15.1917ZM22.0476 14.8584C21.8635 14.8584 21.7143 15.0076 21.7143 15.1917V15.6679C21.7143 15.852 21.8635 16.0012 22.0476 16.0012H22.5238C22.7079 16.0012 22.8571 15.852 22.8571 15.6679V15.1917C22.8571 15.0076 22.7079 14.8584 22.5238 14.8584H22.0476Z" fill="white" fill-opacity="0.5"/>
<path fill-rule="evenodd" clip-rule="evenodd" d="M10.8458 10.7339C10.5016 11.0474 10.2856 11.4992 10.2856 12.0015C10.2856 12.9483 11.0532 13.7158 11.9999 13.7158C12.9467 13.7158 13.7142 12.9483 13.7142 12.0015C13.7142 11.5087 13.5063 11.0645 13.1734 10.7518L12.717 11.2377C12.9213 11.4297 13.0476 11.7003 13.0476 12.0015C13.0476 12.5801 12.5785 13.0491 11.9999 13.0491C11.4213 13.0491 10.9523 12.5801 10.9523 12.0015C10.9523 11.6946 11.0834 11.4192 11.2948 11.2267L10.8458 10.7339Z" fill="#D80915"/>
<rect x="11.4287" y="11.4299" width="1.14286" height="2.28572" rx="0.571429" fill="#D80915"/>
</g>
</svg>
