<svg width="24" height="24" viewBox="0 0 24 24" fill="none" xmlns="http://www.w3.org/2000/svg">
<rect y="3.42993" width="24" height="17.1429" rx="2" fill="white"/>
<mask id="mask0_91_2113" style="mask-type:luminance" maskUnits="userSpaceOnUse" x="0" y="3" width="24" height="18">
<rect y="3.42993" width="24" height="17.1429" rx="2" fill="white"/>
</mask>
<g mask="url(#mask0_91_2113)">
<path fill-rule="evenodd" clip-rule="evenodd" d="M0 5.71565H24V3.42993H0V5.71565Z" fill="#262626"/>
<path fill-rule="evenodd" clip-rule="evenodd" d="M0 14.8585H24V12.5728H0V14.8585Z" fill="#262626"/>
<path fill-rule="evenodd" clip-rule="evenodd" d="M0 12.5729H24V9.14429H0V12.5729Z" fill="#ED1623"/>
<path fill-rule="evenodd" clip-rule="evenodd" d="M0 9.14439H24V5.71582H0V9.14439Z" fill="#FEE044"/>
<path fill-rule="evenodd" clip-rule="evenodd" d="M0 20.5728H24V18.2871H0V20.5728Z" fill="#ED1623"/>
<path fill-rule="evenodd" clip-rule="evenodd" d="M0 18.287H24V14.8584H0V18.287Z" fill="#FEE044"/>
<path fill-rule="evenodd" clip-rule="evenodd" d="M12 16.0012C14.2091 16.0012 16 14.2104 16 12.0012C16 9.79208 14.2091 8.00122 12 8.00122C9.79086 8.00122 8 9.79208 8 12.0012C8 14.2104 9.79086 16.0012 12 16.0012Z" fill="white"/>
<path fill-rule="evenodd" clip-rule="evenodd" d="M11.0928 9.95141C10.9626 9.82123 10.9626 9.61018 11.0928 9.48001L11.4094 9.16339C11.4221 9.15067 11.4336 9.13715 11.4445 9.12285C11.4696 9.08998 11.522 9.02404 11.5862 8.95858C11.7535 8.78805 12.2593 8.77178 12.4211 8.9475C12.4357 8.96327 12.4495 8.97918 12.4624 8.99476C12.536 9.08335 12.54 9.20691 12.4885 9.30993L12.0351 10.2168C12.012 10.263 11.9999 10.3141 11.9999 10.3658V10.6526C11.9999 10.7788 12.0713 10.8942 12.1842 10.9507L13.0944 11.4058C13.1265 11.4218 13.1557 11.4429 13.181 11.4682L14.1158 12.403C14.2172 12.5044 14.2424 12.6594 14.1782 12.7877L13.921 13.3021C13.8193 13.5056 13.5481 13.5496 13.3872 13.3887L13.3785 13.38C13.2483 13.2498 13.0373 13.2498 12.9071 13.38L12.669 13.6181C12.6065 13.6806 12.5714 13.7654 12.5714 13.8538V14.1688C12.5714 14.2446 12.6015 14.3172 12.655 14.3708C12.835 14.5508 12.7076 14.8586 12.453 14.8586H12.1183C11.8637 14.8586 11.7363 14.5508 11.9162 14.3708C11.9698 14.3172 11.9999 14.2446 11.9999 14.1688V14.049C11.9999 13.8649 11.8507 13.7157 11.6666 13.7157H11.5666C11.4782 13.7157 11.3934 13.7508 11.3309 13.8133L11.0928 14.0514C10.9626 14.1816 10.7515 14.1816 10.6214 14.0514L10.5213 13.9514C10.3912 13.8212 10.3912 13.6102 10.5213 13.48L10.7594 13.2419C10.822 13.1794 10.9067 13.1443 10.9951 13.1443H11.1952C11.4922 13.1443 11.6409 12.7852 11.4309 12.5752L10.5213 11.6657C10.3912 11.5355 10.3912 11.3245 10.5213 11.1943L11.1928 10.5228C11.323 10.3927 11.323 10.1816 11.1928 10.0514L11.0928 9.95141Z" fill="#262626"/>
</g>
</svg>
