<svg width="24" height="24" viewBox="0 0 24 24" fill="none" xmlns="http://www.w3.org/2000/svg">
<rect y="3.42993" width="24" height="17.1429" rx="2" fill="white"/>
<mask id="mask0_91_2497" style="mask-type:luminance" maskUnits="userSpaceOnUse" x="0" y="3" width="24" height="18">
<rect y="3.42993" width="24" height="17.1429" rx="2" fill="white"/>
</mask>
<g mask="url(#mask0_91_2497)">
<rect y="3.42993" width="24" height="17.1429" fill="#F22A46"/>
<path fill-rule="evenodd" clip-rule="evenodd" d="M12 14.8586C13.5779 14.8586 14.8571 13.5794 14.8571 12.0014C14.8571 10.4235 13.5779 9.14429 12 9.14429C10.422 9.14429 9.14282 10.4235 9.14282 12.0014C9.14282 13.5794 10.422 14.8586 12 14.8586Z" fill="#FFF04D"/>
<path fill-rule="evenodd" clip-rule="evenodd" d="M10.6014 18.1295L12.0001 16.0416L13.3988 18.1295L13.7531 15.6415L15.9191 16.9158L15.1589 14.5205L17.6633 14.7287L15.939 12.9004L18.2858 12.0014L15.939 11.1024L17.6633 9.27414L15.1589 9.48236L15.9191 7.08704L13.7531 8.36128L13.3988 5.87329L12.0001 7.96117L10.6014 5.87329L10.2471 8.36128L8.08099 7.08704L8.84128 9.48236L6.33684 9.27414L8.06113 11.1024L5.71436 12.0014L8.06113 12.9004L6.33684 14.7287L8.84128 14.5205L8.08099 16.9158L10.2471 15.6415L10.6014 18.1295ZM16 12.0014C16 14.2105 14.2092 16.0014 12 16.0014C9.79088 16.0014 8.00002 14.2105 8.00002 12.0014C8.00002 9.79222 9.79088 8.00136 12 8.00136C14.2092 8.00136 16 9.79222 16 12.0014Z" fill="#FFF04D"/>
</g>
</svg>
