<svg width="24" height="24" viewBox="0 0 24 24" fill="none" xmlns="http://www.w3.org/2000/svg">
<rect y="3.42993" width="24" height="17.1429" rx="2" fill="white"/>
<mask id="mask0_91_3305" style="mask-type:luminance" maskUnits="userSpaceOnUse" x="0" y="3" width="24" height="18">
<rect y="3.42993" width="24" height="17.1429" rx="2" fill="white"/>
</mask>
<g mask="url(#mask0_91_3305)">
<g filter="url(#filter0_d_91_3305)">
<path fill-rule="evenodd" clip-rule="evenodd" d="M0 20.5726H24V16.0012H0V20.5726Z" fill="#2D754D"/>
</g>
<path fill-rule="evenodd" clip-rule="evenodd" d="M0 11.4299H24V3.42993H0V11.4299Z" fill="#25B1EB"/>
<path fill-rule="evenodd" clip-rule="evenodd" d="M0 16.0014H24V11.4299H0V16.0014Z" fill="#FECB2F"/>
<path fill-rule="evenodd" clip-rule="evenodd" d="M18.2857 8.57286L17.411 9.54173L17.4776 8.23812L16.174 8.30471L17.1429 7.43L16.174 6.5553L17.4776 6.62188L17.411 5.31828L18.2857 6.28714L19.1604 5.31828L19.0938 6.62188L20.3974 6.5553L19.4286 7.43L20.3974 8.30471L19.0938 8.23812L19.1604 9.54173L18.2857 8.57286Z" fill="#FECB2F"/>
</g>
<defs>
<filter id="filter0_d_91_3305" x="0" y="16.0012" width="24" height="4.57153" filterUnits="userSpaceOnUse" color-interpolation-filters="sRGB">
<feFlood flood-opacity="0" result="BackgroundImageFix"/>
<feColorMatrix in="SourceAlpha" type="matrix" values="0 0 0 0 0 0 0 0 0 0 0 0 0 0 0 0 0 0 127 0" result="hardAlpha"/>
<feOffset/>
<feColorMatrix type="matrix" values="0 0 0 0 0 0 0 0 0 0 0 0 0 0 0 0 0 0 0.06 0"/>
<feBlend mode="normal" in2="BackgroundImageFix" result="effect1_dropShadow_91_3305"/>
<feBlend mode="normal" in="SourceGraphic" in2="effect1_dropShadow_91_3305" result="shape"/>
</filter>
</defs>
</svg>
