<svg width="24" height="24" viewBox="0 0 24 24" fill="none" xmlns="http://www.w3.org/2000/svg">
<rect y="3.42993" width="24" height="17.1429" rx="2" fill="white"/>
<mask id="mask0_91_2169" style="mask-type:luminance" maskUnits="userSpaceOnUse" x="0" y="3" width="24" height="18">
<rect y="3.42993" width="24" height="17.1429" rx="2" fill="white"/>
</mask>
<g mask="url(#mask0_91_2169)">
<rect y="3.42993" width="24" height="17.1429" fill="#262626"/>
<path fill-rule="evenodd" clip-rule="evenodd" d="M0 3.42993H24V20.5728L0 3.42993Z" fill="#E8283F"/>
<path fill-rule="evenodd" clip-rule="evenodd" d="M5.71415 17.7158L4.90602 17.9524L5.14272 17.1443L4.90602 16.3362L5.71415 16.5729L6.52227 16.3362L6.28558 17.1443L6.52227 17.9524L5.71415 17.7158Z" fill="white"/>
<path fill-rule="evenodd" clip-rule="evenodd" d="M5.71415 10.8586L4.90602 11.0953L5.14272 10.2871L4.90602 9.47902L5.71415 9.71572L6.52227 9.47902L6.28558 10.2871L6.52227 11.0953L5.71415 10.8586Z" fill="white"/>
<path fill-rule="evenodd" clip-rule="evenodd" d="M2.85721 13.7158L2.04909 13.9524L2.28578 13.1443L2.04909 12.3362L2.85721 12.5729L3.66533 12.3362L3.42864 13.1443L3.66533 13.9524L2.85721 13.7158Z" fill="white"/>
<path fill-rule="evenodd" clip-rule="evenodd" d="M8.00003 13.1442L7.19191 13.3809L7.42861 12.5728L7.19191 11.7647L8.00003 12.0014L8.80816 11.7647L8.57146 12.5728L8.80816 13.3809L8.00003 13.1442Z" fill="white"/>
<path fill-rule="evenodd" clip-rule="evenodd" d="M16.1668 11.3718C16.03 11.2897 15.9191 11.0963 15.9191 10.9416L15.9191 9.88843C15.9191 9.73294 15.8072 9.64419 15.6379 9.70061L14.988 9.91724C14.8328 9.969 14.595 9.97367 14.4258 9.91724L13.7759 9.70061C13.6206 9.64886 13.6033 9.54173 13.7424 9.45826L15.2673 8.54335C15.4041 8.46126 15.4777 8.28285 15.4213 8.11357L15.2047 7.46368C15.1529 7.3084 15.2228 7.21982 15.3921 7.27625L16.042 7.49288C16.1973 7.54463 16.3883 7.47797 16.4718 7.33886L17.3867 5.81402C17.4688 5.6772 17.5726 5.67815 17.629 5.84743L17.8457 6.49732C17.8974 6.6526 17.9021 6.89034 17.8457 7.05962L17.629 7.70951C17.5773 7.86478 17.6622 7.99065 17.8169 7.99065H18.87C19.0255 7.99065 19.2167 8.09927 19.3002 8.23838L20.2151 9.76323C20.2972 9.90005 20.2312 10.0375 20.0828 10.0671L18.6244 10.3588C18.4692 10.3899 18.3169 10.5476 18.2873 10.6959L17.9956 12.1544C17.9645 12.3096 17.8308 12.3702 17.6917 12.2867L16.1668 11.3718Z" fill="#FFD84E"/>
</g>
</svg>
