<svg width="24" height="24" viewBox="0 0 24 24" fill="none" xmlns="http://www.w3.org/2000/svg">
<rect x="0.25" y="3.67993" width="23.5" height="16.6429" rx="1.75" fill="white" stroke="#F5F5F5" stroke-width="0.5"/>
<mask id="mask0_91_1616" style="mask-type:luminance" maskUnits="userSpaceOnUse" x="0" y="3" width="24" height="18">
<rect x="0.25" y="3.67993" width="23.5" height="16.6429" rx="1.75" fill="white" stroke="white" stroke-width="0.5"/>
</mask>
<g mask="url(#mask0_91_1616)">
<path fill-rule="evenodd" clip-rule="evenodd" d="M0 20.5727H24V14.8584H0V20.5727Z" fill="#199E56"/>
<path fill-rule="evenodd" clip-rule="evenodd" d="M0 9.14422H24V3.42993H0V9.14422Z" fill="#262626"/>
<path fill-rule="evenodd" clip-rule="evenodd" d="M0 3.42993L11.4286 12.0014L0 20.5728V3.42993Z" fill="#E6223A"/>
<path fill-rule="evenodd" clip-rule="evenodd" d="M3.99993 12.8585L3.25613 13.5459L3.32979 12.5358L2.32863 12.3829L3.16428 11.8107L2.65965 10.9326L3.62803 11.2291L3.99993 10.2871L4.37183 11.2291L5.34021 10.9326L4.83558 11.8107L5.67124 12.3829L4.67007 12.5358L4.74373 13.5459L3.99993 12.8585Z" fill="white"/>
</g>
</svg>
