<svg width="24" height="24" viewBox="0 0 24 24" fill="none" xmlns="http://www.w3.org/2000/svg">
<rect y="3.42993" width="24" height="17.1429" rx="2" fill="white"/>
<mask id="mask0_91_2021" style="mask-type:luminance" maskUnits="userSpaceOnUse" x="0" y="3" width="24" height="18">
<rect y="3.42993" width="24" height="17.1429" rx="2" fill="white"/>
</mask>
<g mask="url(#mask0_91_2021)">
<rect y="3.42993" width="24" height="17.1429" fill="url(#paint0_linear_91_2021)"/>
<path fill-rule="evenodd" clip-rule="evenodd" d="M14.8572 12.0012C14.8572 11.1353 14.8572 10.1235 14.8572 9.33419C14.8572 8.59782 15.4541 8.00122 16.1905 8.00122H19.2381C19.9745 8.00122 20.5715 8.59782 20.5715 9.3342C20.5715 10.1235 20.5715 11.1353 20.5715 12.0012C20.5715 14.8584 17.7143 16.0012 17.7143 16.0012C17.7143 16.0012 14.8572 14.8584 14.8572 12.0012Z" fill="#8FC5FF"/>
<mask id="mask1_91_2021" style="mask-type:luminance" maskUnits="userSpaceOnUse" x="14" y="8" width="7" height="9">
<path fill-rule="evenodd" clip-rule="evenodd" d="M14.8572 12.0012C14.8572 11.1353 14.8572 10.1235 14.8572 9.33419C14.8572 8.59782 15.4541 8.00122 16.1905 8.00122H19.2381C19.9745 8.00122 20.5715 8.59782 20.5715 9.3342C20.5715 10.1235 20.5715 11.1353 20.5715 12.0012C20.5715 14.8584 17.7143 16.0012 17.7143 16.0012C17.7143 16.0012 14.8572 14.8584 14.8572 12.0012Z" fill="white"/>
</mask>
<g mask="url(#mask1_91_2021)">
<path fill-rule="evenodd" clip-rule="evenodd" d="M17.2199 13.6157C17.2199 13.6157 17.7919 12.875 18.1284 12.875C18.4648 12.875 18.5266 13.3668 19.0439 13.3668C19.5613 13.3668 19.8341 12.583 20.3324 12.583C20.8307 12.583 20.3324 15.1545 20.3324 15.1545L19.6572 15.8509L15.7046 16.3075L17.2199 13.6157Z" fill="#366CC9"/>
<path fill-rule="evenodd" clip-rule="evenodd" d="M15.5368 12.4739L16.0412 12.0015L16.5369 13.2149L17.2023 12.0015L17.7745 15.4604L16.8229 15.2668L13.7144 13.8455L15.5368 12.4739Z" fill="#CF6200"/>
<rect x="14.8572" y="8.00122" width="5.71429" height="3.42857" fill="#FFFF00"/>
</g>
<path d="M16.1902 8.33423H19.238C19.7904 8.33423 20.238 8.78206 20.238 9.33423V12.0012C20.238 13.3057 19.5891 14.222 18.9197 14.8245C18.5849 15.1257 18.2492 15.3445 17.9968 15.4875C17.8824 15.5524 17.7849 15.6004 17.7146 15.634C17.6443 15.6004 17.547 15.5525 17.4324 15.4875C17.18 15.3445 16.8435 15.1259 16.5085 14.8245C15.8392 14.222 15.1902 13.3056 15.1902 12.0012V9.33423C15.1902 8.78217 15.6379 8.3344 16.1902 8.33423Z" stroke="white" stroke-width="0.666667"/>
<mask id="mask2_91_2021" style="mask-type:luminance" maskUnits="userSpaceOnUse" x="14" y="8" width="7" height="9">
<path fill-rule="evenodd" clip-rule="evenodd" d="M14.8572 12.0012C14.8572 11.1353 14.8572 10.1235 14.8572 9.33419C14.8572 8.59781 15.4541 8.00122 16.1905 8.00122H19.2381C19.9745 8.00122 20.5715 8.59782 20.5715 9.3342C20.5715 10.1235 20.5715 11.1353 20.5715 12.0012C20.5715 14.8584 17.7143 16.0012 17.7143 16.0012C17.7143 16.0012 14.8572 14.8584 14.8572 12.0012Z" fill="white"/>
</mask>
<g mask="url(#mask2_91_2021)">
</g>
<mask id="mask3_91_2021" style="mask-type:luminance" maskUnits="userSpaceOnUse" x="14" y="8" width="7" height="9">
<path fill-rule="evenodd" clip-rule="evenodd" d="M15.5238 12.0012C15.5238 13.1818 16.1071 14.015 16.7317 14.5771C17.0446 14.8587 17.3596 15.0637 17.5966 15.198C17.6387 15.2219 17.6781 15.2434 17.7143 15.2625C17.7505 15.2434 17.79 15.2219 17.8321 15.198C18.069 15.0637 18.3841 14.8587 18.6969 14.5771C19.3215 14.015 19.9048 13.1818 19.9048 12.0012V9.3342C19.9048 8.96624 19.6066 8.66789 19.2381 8.66789H16.1905C15.8221 8.66789 15.5238 8.96624 15.5238 9.33419V12.0012ZM14.8572 9.33419V12.0012C14.8572 14.8584 17.7143 16.0012 17.7143 16.0012C17.7143 16.0012 20.5715 14.8584 20.5715 12.0012V9.3342C20.5715 8.59782 19.9745 8.00122 19.2381 8.00122H16.1905C15.4541 8.00122 14.8572 8.59782 14.8572 9.33419Z" fill="white"/>
</mask>
<g mask="url(#mask3_91_2021)">
</g>
<path fill-rule="evenodd" clip-rule="evenodd" d="M4 6.8585L0 3.42993H0.571429L4.57143 6.28707H5.71429L10.2857 3.42993V3.82982C10.2857 3.93747 10.2337 4.03849 10.1461 4.10107L6.28571 6.8585V8.00136L9.89784 11.0975C10.031 11.2116 9.9503 11.4299 9.77485 11.4299C9.73546 11.4299 9.69705 11.4176 9.665 11.3947L5.71429 8.57279H4.57143L0 11.4299V10.8585L4 8.00136V6.8585Z" fill="#DB1E36"/>
<path fill-rule="evenodd" clip-rule="evenodd" d="M3.99993 6.85845V8.00131L-7.43866e-05 10.8585V11.4299L4.57135 8.57274H5.71421L9.66493 11.3947C9.69698 11.4176 9.73538 11.4299 9.77477 11.4299C9.95022 11.4299 10.031 11.2116 9.89776 11.0974L6.28564 8.00131V6.85845L10.1461 4.10102C10.2337 4.03845 10.2856 3.93742 10.2856 3.82977V3.42988L5.71421 6.28703H4.57135L0.571354 3.42988H-7.43866e-05L3.99993 6.85845ZM4.785 5.62036L0.784997 2.76322H-1.80225L3.33326 7.16508V7.65823L-0.666741 10.5154V12.6327L4.76255 9.23941H5.50057L9.27744 11.9372C9.42256 12.0408 9.59644 12.0965 9.77477 12.0965C10.5692 12.0965 10.9348 11.1082 10.3316 10.5912L6.95231 7.69469V7.20153L10.5335 4.64351C10.7963 4.45579 10.9523 4.15272 10.9523 3.82977V2.22705L5.52301 5.62036H4.785Z" fill="white"/>
<path fill-rule="evenodd" clip-rule="evenodd" d="M0 6.28707V8.57279H4V11.3347C4 11.7029 4.29848 12.0014 4.66667 12.0014H5.61905C5.98724 12.0014 6.28571 11.7029 6.28571 11.3347V8.57279H10.1905C10.5587 8.57279 10.8571 8.27431 10.8571 7.90612V6.95374C10.8571 6.58555 10.5587 6.28707 10.1905 6.28707H6.28571V3.42993H4V6.28707H0Z" fill="white"/>
<path fill-rule="evenodd" clip-rule="evenodd" d="M0 6.8585H4.57143V6.28707V3.42993H5.71429V6.28707V6.8585H10.2857V8.00136H5.71429V8.57279V11.4299H4.57143V8.57279V8.00136H0V6.8585Z" fill="#DB1E36"/>
</g>
<defs>
<linearGradient id="paint0_linear_91_2021" x1="0" y1="3.42993" x2="0" y2="20.5728" gradientUnits="userSpaceOnUse">
<stop stop-color="#07319C"/>
<stop offset="1" stop-color="#00247E"/>
</linearGradient>
</defs>
</svg>
