<svg width="24" height="24" viewBox="0 0 24 24" fill="none" xmlns="http://www.w3.org/2000/svg">
<rect y="3.42993" width="24" height="17.1429" rx="2" fill="white"/>
<mask id="mask0_91_2052" style="mask-type:luminance" maskUnits="userSpaceOnUse" x="0" y="3" width="24" height="18">
<rect y="3.42993" width="24" height="17.1429" rx="2" fill="white"/>
</mask>
<g mask="url(#mask0_91_2052)">
<rect y="3.42993" width="24" height="17.1429" fill="#19BFBF"/>
<path fill-rule="evenodd" clip-rule="evenodd" d="M6.88538 8.17074C6.86768 8.06455 6.90235 7.95636 6.97847 7.88024L9.04526 5.81345C9.10777 5.75094 9.19256 5.71582 9.28096 5.71582H10.6512C10.7774 5.71582 10.8928 5.78715 10.9493 5.90008L11.3365 6.67442C11.3929 6.78734 11.5084 6.85868 11.6346 6.85868H13.5083C13.6346 6.85868 13.75 6.93001 13.8065 7.04294L15.3365 10.103C15.3929 10.2159 15.5084 10.2872 15.6346 10.2872H16.4762C16.7509 10.2872 16.9077 10.6008 16.7429 10.8206L15.4466 12.5489C15.4346 12.5649 15.4241 12.582 15.4152 12.5998L14.8924 13.6454C14.8692 13.6917 14.8572 13.7428 14.8572 13.7945V14.78C14.8572 14.8317 14.8451 14.8828 14.822 14.9291L14.2857 16.0015L13.7143 17.1444L13.235 18.103C13.1786 18.2159 13.0631 18.2872 12.9369 18.2872H12.206C12.0798 18.2872 11.9644 18.2159 11.9079 18.103L11.4638 17.2148C11.4407 17.1685 11.4286 17.1175 11.4286 17.0657V13.8539C11.4286 13.7655 11.3935 13.6807 11.331 13.6182L10.9128 13.2C10.8762 13.1634 10.8487 13.1188 10.8323 13.0697L10.3617 11.658C10.3164 11.5219 10.189 11.4301 10.0455 11.4301H7.71098C7.54804 11.4301 7.40897 11.3123 7.38218 11.1516L6.88538 8.17074Z" fill="white"/>
<path fill-rule="evenodd" clip-rule="evenodd" d="M16 15.1917C16 15.0076 16.1492 14.8584 16.3333 14.8584H16.8095C16.9936 14.8584 17.1429 15.0076 17.1429 15.1917V15.9226C17.1429 15.9743 17.1308 16.0254 17.1077 16.0716L16.6636 16.9599C16.6071 17.0728 16.4917 17.1441 16.3654 17.1441H16.3333C16.1492 17.1441 16 16.9949 16 16.8108V15.1917Z" fill="white"/>
</g>
</svg>
