<svg width="24" height="24" viewBox="0 0 24 24" fill="none" xmlns="http://www.w3.org/2000/svg">
<rect y="3.42993" width="24" height="17.1429" rx="2" fill="white"/>
<mask id="mask0_91_2243" style="mask-type:luminance" maskUnits="userSpaceOnUse" x="0" y="3" width="24" height="18">
<rect y="3.42993" width="24" height="17.1429" rx="2" fill="white"/>
</mask>
<g mask="url(#mask0_91_2243)">
<rect y="3.42993" width="24" height="17.1429" fill="#07319C"/>
<path fill-rule="evenodd" clip-rule="evenodd" d="M14.8572 12.0012C14.8572 11.1353 14.8572 10.1235 14.8572 9.33419C14.8572 8.59782 15.4541 8.00122 16.1905 8.00122H19.2381C19.9745 8.00122 20.5715 8.59782 20.5715 9.3342C20.5715 10.1235 20.5715 11.1353 20.5715 12.0012C20.5715 14.8584 17.7143 16.0012 17.7143 16.0012C17.7143 16.0012 14.8572 14.8584 14.8572 12.0012Z" fill="#008339"/>
<mask id="mask1_91_2243" style="mask-type:luminance" maskUnits="userSpaceOnUse" x="14" y="8" width="7" height="9">
<path fill-rule="evenodd" clip-rule="evenodd" d="M14.8572 12.0012C14.8572 11.1353 14.8572 10.1235 14.8572 9.33419C14.8572 8.59782 15.4541 8.00122 16.1905 8.00122H19.2381C19.9745 8.00122 20.5715 8.59782 20.5715 9.3342C20.5715 10.1235 20.5715 11.1353 20.5715 12.0012C20.5715 14.8584 17.7143 16.0012 17.7143 16.0012C17.7143 16.0012 14.8572 14.8584 14.8572 12.0012Z" fill="white"/>
</mask>
<g mask="url(#mask1_91_2243)">
<path fill-rule="evenodd" clip-rule="evenodd" d="M16.5714 10.2869C16.887 10.2869 17.1429 10.0311 17.1429 9.71547C17.1429 9.39988 16.887 9.14404 16.5714 9.14404C16.2558 9.14404 16 9.39988 16 9.71547C16 10.0311 16.2558 10.2869 16.5714 10.2869ZM16.5715 11.4297C16.887 11.4297 17.1429 11.1739 17.1429 10.8583C17.1429 10.5427 16.887 10.2869 16.5715 10.2869C16.2559 10.2869 16 10.5427 16 10.8583C16 11.1739 16.2559 11.4297 16.5715 11.4297ZM17.1429 12.0013C17.1429 12.3148 16.8905 12.5693 16.5778 12.5727C16.8905 12.5761 17.1429 12.8306 17.1429 13.1441C17.1429 13.4597 16.887 13.7155 16.5715 13.7155C16.2559 13.7155 16 13.4597 16 13.1441C16 12.8306 16.2524 12.5761 16.5651 12.5727C16.2524 12.5693 16 12.3148 16 12.0013C16 11.6857 16.2559 11.4299 16.5715 11.4299C16.887 11.4299 17.1429 11.6857 17.1429 12.0013ZM19.4286 13.1441C19.4286 13.4597 19.1728 13.7155 18.8572 13.7155C18.5416 13.7155 18.2858 13.4597 18.2858 13.1441C18.2858 12.8306 18.5382 12.5761 18.8508 12.5727C18.5382 12.5693 18.2858 12.3148 18.2858 12.0013C18.2858 11.6857 18.5416 11.4299 18.8572 11.4299C19.1728 11.4299 19.4286 11.6857 19.4286 12.0013C19.4286 12.3148 19.1762 12.5693 18.8636 12.5727C19.1762 12.5761 19.4286 12.8306 19.4286 13.1441ZM19.4286 10.8583C19.4286 11.1739 19.1728 11.4297 18.8572 11.4297C18.5416 11.4297 18.2858 11.1739 18.2858 10.8583C18.2858 10.5448 18.5382 10.2903 18.8508 10.2869C18.5382 10.2835 18.2858 10.029 18.2858 9.71551C18.2858 9.39992 18.5416 9.14408 18.8572 9.14408C19.1728 9.14408 19.4286 9.39992 19.4286 9.71551C19.4286 10.029 19.1762 10.2835 18.8636 10.2869C19.1762 10.2903 19.4286 10.5448 19.4286 10.8583Z" fill="#FFD033"/>
<path fill-rule="evenodd" clip-rule="evenodd" d="M17.7143 13.1441C18.0298 13.1441 18.2857 12.3766 18.2857 11.4299C18.2857 10.4831 18.0298 9.71558 17.7143 9.71558C17.3987 9.71558 17.1428 10.4831 17.1428 11.4299C17.1428 12.3766 17.3987 13.1441 17.7143 13.1441Z" fill="white"/>
</g>
<path d="M14.2856 14.8585C14.2856 15.9484 15.8467 16.5728 17.7142 16.5728C19.5818 16.5728 21.1428 15.9484 21.1428 14.8585C21.1428 14.5429 20.887 14.2871 20.5714 14.2871C20.2558 14.2871 19.9999 14.5429 19.9999 14.8585C19.9999 14.8695 19.8614 15.0005 19.5223 15.1361C19.0619 15.3202 18.4134 15.43 17.7142 15.43C17.015 15.43 16.3665 15.3202 15.9061 15.1361C15.567 15.0005 15.4285 14.8695 15.4285 14.8585C15.4285 14.5429 15.1727 14.2871 14.8571 14.2871C14.5415 14.2871 14.2856 14.5429 14.2856 14.8585Z" fill="#FFD033"/>
<path d="M10.6191 3.82935C10.6191 4.04465 10.515 4.24717 10.3398 4.37231L6.61914 7.02954V7.84692L10.1152 10.844C10.4833 11.1596 10.2593 11.7629 9.77441 11.7629C9.66587 11.7628 9.56006 11.7293 9.47168 11.6663L5.6084 8.90649H4.66699L0.176758 11.7122L-0.333008 12.0315V10.6868L-0.193359 10.5872L3.66699 7.82935V7.01099L-0.216797 3.68286L-0.901367 3.09692H0.678711L0.765625 3.15845L4.67773 5.95337H5.61914L10.1094 3.14771L10.6191 2.82837V3.82935Z" fill="#DB1E36" stroke="white" stroke-width="0.666667"/>
<path fill-rule="evenodd" clip-rule="evenodd" d="M0 6.28707V8.57279H4V11.3347C4 11.7029 4.29848 12.0014 4.66667 12.0014H5.61905C5.98724 12.0014 6.28571 11.7029 6.28571 11.3347V8.57279H10.1905C10.5587 8.57279 10.8571 8.27431 10.8571 7.90612V6.95374C10.8571 6.58555 10.5587 6.28707 10.1905 6.28707H6.28571V3.42993H4V6.28707H0Z" fill="white"/>
<path fill-rule="evenodd" clip-rule="evenodd" d="M0 6.8585H4.57143V6.28707V3.42993H5.71429V6.28707V6.8585H10.2857V8.00136H5.71429V8.57279V11.4299H4.57143V8.57279V8.00136H0V6.8585Z" fill="#DB1E36"/>
</g>
</svg>
