<svg width="24" height="24" viewBox="0 0 24 24" fill="none" xmlns="http://www.w3.org/2000/svg">
<rect y="3.42993" width="24" height="17.1429" rx="2" fill="white"/>
<mask id="mask0_91_923" style="mask-type:luminance" maskUnits="userSpaceOnUse" x="0" y="3" width="24" height="18">
<rect y="3.42993" width="24" height="17.1429" rx="2" fill="white"/>
</mask>
<g mask="url(#mask0_91_923)">
<rect y="3.42993" width="24" height="17.1429" fill="#0A17A7"/>
<path fill-rule="evenodd" clip-rule="evenodd" d="M14.8572 12.0014C14.8572 10.2871 14.8572 9.14429 14.8572 9.14429L16 9.71572L17.1429 9.14429L18.2858 9.71572L19.4286 9.14429C19.4286 9.14429 19.4286 10.2871 19.4286 12.0014C19.4286 13.7157 17.1429 14.8586 17.1429 14.8586C17.1429 14.8586 14.8572 13.7157 14.8572 12.0014Z" fill="white"/>
<mask id="mask1_91_923" style="mask-type:luminance" maskUnits="userSpaceOnUse" x="14" y="9" width="6" height="6">
<path fill-rule="evenodd" clip-rule="evenodd" d="M14.8572 12.0014C14.8572 10.2871 14.8572 9.14429 14.8572 9.14429L16 9.71572L17.1429 9.14429L18.2858 9.71572L19.4286 9.14429C19.4286 9.14429 19.4286 10.2871 19.4286 12.0014C19.4286 13.7157 17.1429 14.8586 17.1429 14.8586C17.1429 14.8586 14.8572 13.7157 14.8572 12.0014Z" fill="white"/>
</mask>
<g mask="url(#mask1_91_923)">
<rect x="14.8572" y="13.7156" width="4.57143" height="1.14286" fill="#9ACCFF"/>
<path fill-rule="evenodd" clip-rule="evenodd" d="M17.143 11.43C17.4586 11.43 17.7144 11.1741 17.7144 10.8585C17.7144 10.5429 17.4586 10.2871 17.143 10.2871C16.8274 10.2871 16.5715 10.5429 16.5715 10.8585C16.5715 11.1741 16.8274 11.43 17.143 11.43ZM16.0001 12.5728C16.3157 12.5728 16.5716 12.317 16.5716 12.0014C16.5716 11.6858 16.3157 11.4299 16.0001 11.4299C15.6845 11.4299 15.4287 11.6858 15.4287 12.0014C15.4287 12.317 15.6845 12.5728 16.0001 12.5728ZM18.8573 12.0014C18.8573 12.317 18.6015 12.5728 18.2859 12.5728C17.9703 12.5728 17.7144 12.317 17.7144 12.0014C17.7144 11.6858 17.9703 11.4299 18.2859 11.4299C18.6015 11.4299 18.8573 11.6858 18.8573 12.0014Z" fill="url(#paint0_linear_91_923)"/>
</g>
<path d="M10.6191 3.82935C10.6191 4.04465 10.515 4.24717 10.3398 4.37231L6.61914 7.02954V7.84692L10.1152 10.844C10.4833 11.1596 10.2593 11.7629 9.77441 11.7629C9.66587 11.7628 9.56006 11.7293 9.47168 11.6663L5.6084 8.90649H4.66699L0.176758 11.7122L-0.333008 12.0315V10.6868L-0.193359 10.5872L3.66699 7.82935V7.01099L-0.216797 3.68286L-0.901367 3.09692H0.678711L0.765625 3.15845L4.67773 5.95337H5.61914L10.1094 3.14771L10.6191 2.82837V3.82935Z" fill="#FF2E3B" stroke="white" stroke-width="0.666667"/>
<path fill-rule="evenodd" clip-rule="evenodd" d="M0 6.28707V8.57279H4V11.3347C4 11.7029 4.29848 12.0014 4.66667 12.0014H5.61905C5.98724 12.0014 6.28571 11.7029 6.28571 11.3347V8.57279H10.1905C10.5587 8.57279 10.8571 8.27431 10.8571 7.90612V6.95374C10.8571 6.58555 10.5587 6.28707 10.1905 6.28707H6.28571V3.42993H4V6.28707H0Z" fill="white"/>
<path fill-rule="evenodd" clip-rule="evenodd" d="M0 6.8585H4.57143V6.28707V3.42993H5.71429V6.28707V6.8585H10.2857V8.00136H5.71429V8.57279V11.4299H4.57143V8.57279V8.00136H0V6.8585Z" fill="#FF2E3B"/>
</g>
<defs>
<linearGradient id="paint0_linear_91_923" x1="15.4287" y1="10.2871" x2="15.4287" y2="12.5728" gradientUnits="userSpaceOnUse">
<stop stop-color="#FFA51B"/>
<stop offset="1" stop-color="#FF9A00"/>
</linearGradient>
</defs>
</svg>
