<svg width="24" height="24" viewBox="0 0 24 24" fill="none" xmlns="http://www.w3.org/2000/svg">
<rect y="3.42993" width="24" height="17.1429" rx="2" fill="white"/>
<mask id="mask0_91_3000" style="mask-type:luminance" maskUnits="userSpaceOnUse" x="0" y="3" width="24" height="18">
<rect y="3.42993" width="24" height="17.1429" rx="2" fill="white"/>
</mask>
<g mask="url(#mask0_91_3000)">
<rect y="3.42993" width="24" height="17.1429" fill="#0A17A7"/>
<path fill-rule="evenodd" clip-rule="evenodd" d="M-1.09929 1.78735L9.14287 8.69577V2.28718H14.8572V8.69573L25.0992 1.78736L26.3774 3.6823L18.2796 9.14432H24V14.8586H18.2796L26.3774 20.3206L25.0992 22.2155L14.8572 15.3072V21.7157H9.14287V15.3071L-1.09928 22.2156L-2.37744 20.3206L5.72032 14.8586H7.62939e-06V9.14432H5.72034L-2.37744 3.6823L-1.09929 1.78735Z" fill="white"/>
<path fill-rule="evenodd" clip-rule="evenodd" d="M27.1356 1.53249C27.2368 1.68629 27.1941 1.89299 27.0403 1.99417L16.1843 9.13605C16.0305 9.23723 15.8238 9.19457 15.7226 9.04078C15.6214 8.88698 15.6641 8.68028 15.8179 8.5791L26.6739 1.43722C26.8277 1.33604 27.0344 1.3787 27.1356 1.53249Z" fill="#DB1F35"/>
<path fill-rule="evenodd" clip-rule="evenodd" d="M27.1622 21.9164C27.2651 21.7638 27.2247 21.5566 27.0721 21.4537L17.3402 14.8941C17.1876 14.7912 16.9804 14.8316 16.8775 14.9842C16.7746 15.1369 16.815 15.3441 16.9676 15.4469L26.6995 22.0065C26.8521 22.1094 27.0593 22.0691 27.1622 21.9164Z" fill="#DB1F35"/>
<path fill-rule="evenodd" clip-rule="evenodd" d="M-3.56561 1.81138C-3.46273 1.65872 -3.25556 1.61837 -3.1029 1.72125L7.04826 8.56249C7.20092 8.66538 7.24127 8.87254 7.13839 9.0252C7.0355 9.17786 6.82834 9.21822 6.67568 9.11533L-3.47548 2.27409C-3.62814 2.17121 -3.6685 1.96405 -3.56561 1.81138Z" fill="#DB1F35"/>
<path fill-rule="evenodd" clip-rule="evenodd" d="M-3.56699 22.7373C-3.46524 22.8908 -3.25839 22.9326 -3.10497 22.8309L8.1472 15.369C8.30062 15.2672 8.34252 15.0604 8.24077 14.907C8.13903 14.7535 7.93217 14.7116 7.77875 14.8134L-3.47341 22.2753C-3.62684 22.377 -3.66873 22.5839 -3.56699 22.7373Z" fill="#DB1F35"/>
<path fill-rule="evenodd" clip-rule="evenodd" d="M0 13.7156H10.2857V20.5728H13.7143V13.7156H24V10.2871H13.7143V3.42993H10.2857V10.2871H0V13.7156Z" fill="#E6273E"/>
</g>
</svg>
