<svg width="24" height="24" viewBox="0 0 24 24" fill="none" xmlns="http://www.w3.org/2000/svg">
<rect y="3.42993" width="24" height="17.1429" rx="2" fill="white"/>
<mask id="mask0_91_1957" style="mask-type:luminance" maskUnits="userSpaceOnUse" x="0" y="3" width="24" height="18">
<rect y="3.42993" width="24" height="17.1429" rx="2" fill="white"/>
</mask>
<g mask="url(#mask0_91_1957)">
<rect y="3.42993" width="24" height="17.1429" fill="#19BFBF"/>
<path fill-rule="evenodd" clip-rule="evenodd" d="M8.57143 17.1854C8.57143 17.1582 8.57477 17.131 8.58138 17.1046L9.14286 14.8587L9.69074 12.6671C9.70612 12.6056 9.70364 12.541 9.68359 12.4809L9.18652 10.9897C9.15856 10.9058 9.09843 10.8365 9.01936 10.7969L8.18426 10.3794C8.07133 10.3229 8 10.2075 8 10.0812V8.08022C8 8.02848 8.01205 7.97744 8.03519 7.93115L8.57143 6.85868L9.05073 5.90008C9.10719 5.78715 9.22261 5.71582 9.34887 5.71582H12.2381C12.4222 5.71582 12.5714 5.86506 12.5714 6.04915V6.52534C12.5714 6.70944 12.7207 6.85868 12.9048 6.85868H13.381C13.565 6.85868 13.7143 7.00792 13.7143 7.19201V7.79552C13.7143 7.92178 13.7856 8.0372 13.8985 8.09367L15.8157 9.05226C15.9287 9.10872 16 9.22415 16 9.3504V10.2086C16 10.2603 15.988 10.3113 15.9648 10.3576L15.4682 11.3509C15.4422 11.4028 15.4032 11.447 15.3549 11.4792L13.7879 12.5239C13.7397 12.556 13.7006 12.6003 13.6747 12.6521L12.611 14.7795C12.5851 14.8314 12.546 14.8756 12.4978 14.9078L10.9308 15.9524C10.8825 15.9846 10.8435 16.0288 10.8176 16.0807L9.80642 18.103C9.74995 18.2159 9.63453 18.2872 9.50827 18.2872H8.90476C8.72067 18.2872 8.57143 18.138 8.57143 17.9539V17.1854Z" fill="white"/>
</g>
</svg>
