<svg width="24" height="24" viewBox="0 0 24 24" fill="none" xmlns="http://www.w3.org/2000/svg">
<rect y="3.42993" width="24" height="17.1429" rx="2" fill="white"/>
<mask id="mask0_91_2928" style="mask-type:luminance" maskUnits="userSpaceOnUse" x="0" y="3" width="24" height="18">
<rect y="3.42993" width="24" height="17.1429" rx="2" fill="white"/>
</mask>
<g mask="url(#mask0_91_2928)">
<rect y="3.42993" width="24" height="17.1429" fill="#07319C"/>
<path fill-rule="evenodd" clip-rule="evenodd" d="M14.8572 12.0012C14.8572 11.1353 14.8572 10.1235 14.8572 9.3342C14.8572 8.59782 15.4541 8.00122 16.1905 8.00122H19.2381C19.9745 8.00122 20.5715 8.59782 20.5715 9.3342C20.5715 10.1235 20.5715 11.1353 20.5715 12.0012C20.5715 14.8584 17.7143 16.0012 17.7143 16.0012C17.7143 16.0012 14.8572 14.8584 14.8572 12.0012Z" fill="#0072C4"/>
<mask id="mask1_91_2928" style="mask-type:luminance" maskUnits="userSpaceOnUse" x="14" y="8" width="7" height="9">
<path fill-rule="evenodd" clip-rule="evenodd" d="M14.8572 12.0012C14.8572 11.1353 14.8572 10.1235 14.8572 9.3342C14.8572 8.59782 15.4541 8.00122 16.1905 8.00122H19.2381C19.9745 8.00122 20.5715 8.59782 20.5715 9.3342C20.5715 10.1235 20.5715 11.1353 20.5715 12.0012C20.5715 14.8584 17.7143 16.0012 17.7143 16.0012C17.7143 16.0012 14.8572 14.8584 14.8572 12.0012Z" fill="white"/>
</mask>
<g mask="url(#mask1_91_2928)">
<path fill-rule="evenodd" clip-rule="evenodd" d="M16.1735 11.3734C15.5879 11.9649 16.7356 11.8899 16.7356 11.8899L17.553 11.6282C17.553 11.6282 17.9205 11.6727 18.1685 11.7474C18.3328 11.797 18.7901 12.0011 18.7901 12.0011C18.7901 12.0011 19.7558 11.8083 19.4163 11.3734C19.0767 10.9385 16.7591 10.7819 16.1735 11.3734Z" fill="#005121"/>
<path fill-rule="evenodd" clip-rule="evenodd" d="M18.6084 10.7591C18.6319 10.7538 18.6867 10.755 18.7072 10.7799C18.7393 10.8188 18.8051 10.8059 18.8372 10.8434C18.8692 10.8811 18.9064 10.9158 18.9064 10.9694C18.9064 11.0229 18.9002 11.1557 18.9013 11.1849C18.903 11.2298 18.9107 11.2368 18.957 11.2356C19.0127 11.2342 19.0897 11.2298 19.0921 11.13C19.0937 11.0605 19.0245 11.017 19.0043 10.7696C19.0347 10.7436 19.0617 10.7204 19.0516 10.6858C19.0414 10.6511 19.109 10.6337 19.1022 10.5816C19.0954 10.5295 19.1697 10.4976 19.1393 10.4398C19.109 10.3819 19.1764 10.3791 19.1495 10.3327C19.1224 10.2865 19.1933 10.2459 19.1629 10.2055C19.1326 10.1649 19.2034 10.1274 19.1664 10.0782C19.1291 10.029 19.1865 10 19.1495 9.96235C19.1731 9.9248 19.1528 9.8177 19.0785 9.75697C19.0043 9.69612 18.8997 9.66434 18.8389 9.64116C18.7257 9.59805 18.5148 9.61797 18.3662 9.63539C18.2177 9.65269 17.9408 9.67011 17.8564 9.65857C17.7721 9.64703 17.573 9.63539 17.4159 9.6614C17.3622 9.67033 17.3011 9.65422 17.2691 9.62385C17.2434 9.59958 17.2286 9.60219 17.205 9.6036C17.1813 9.60502 17.1678 9.59773 17.1559 9.56877C17.1351 9.51784 17.0885 9.55288 17.0665 9.48921C17.0518 9.44665 16.9752 9.48344 16.9518 9.44731C16.928 9.41117 16.8994 9.40682 16.8352 9.41117C16.8319 9.3894 16.7965 9.37351 16.7643 9.37928C16.7694 9.34314 16.734 9.31419 16.6749 9.3156C16.6817 9.27076 16.599 9.23604 16.5567 9.26358C16.5298 9.23027 16.4757 9.23746 16.4622 9.26358C16.4335 9.23027 16.3424 9.24039 16.3204 9.27653C16.2817 9.25487 16.2062 9.30809 16.2125 9.39234C16.2141 9.41552 16.2156 9.43958 16.1769 9.44731C16.1044 9.46178 16.0622 9.54276 15.9996 9.5543C15.9373 9.56594 15.8748 9.58619 15.863 9.62091C15.8512 9.65563 15.8732 9.69188 15.8495 9.70918C15.8259 9.7266 15.8646 9.74249 15.8765 9.75109C15.8883 9.7598 15.9068 9.77427 15.9102 9.79452C15.9151 9.82325 15.9624 9.83185 16.0116 9.80028C16.0318 9.78733 16.0672 9.82641 16.1246 9.79887C16.182 9.77144 16.2635 9.78592 16.2495 9.83076C16.2428 9.85242 16.2579 9.8756 16.2766 9.89726C16.2951 9.91892 16.3229 9.98434 16.3069 10.0217C16.2833 10.0766 16.3305 10.1071 16.3187 10.1562C16.3069 10.2055 16.3255 10.2504 16.3002 10.3169C16.2748 10.3834 16.2744 10.4666 16.312 10.4905C16.3643 10.5238 16.3327 10.5897 16.3778 10.6178C16.4149 10.6409 16.393 10.6974 16.4622 10.7147C16.5314 10.7321 16.4909 10.7784 16.5634 10.7885C16.6361 10.7986 16.6613 10.8507 16.7373 10.8391C16.7933 10.8306 16.8227 10.8442 16.8554 10.857C16.8621 10.9034 16.8471 11.0735 16.8437 11.117C16.8406 11.1554 16.8201 11.2167 16.8201 11.2544C16.8201 11.2775 16.8673 11.2833 16.9214 11.2833C16.9752 11.2833 16.999 11.2616 16.9854 11.2009C16.9719 11.14 16.9686 10.9919 16.9721 10.8993C17.0189 10.9218 17.0635 10.9534 17.0615 10.9882C17.058 11.0446 17.0589 11.1458 17.0495 11.1979C17.0429 11.2356 17.053 11.2949 17.0564 11.334C17.0598 11.3484 17.1509 11.347 17.1881 11.334C17.2252 11.3209 17.2252 11.2862 17.2217 11.1285C17.2201 11.0505 17.1373 10.9707 17.242 10.9317C17.2927 10.9129 17.3636 10.8695 17.3906 10.8291C17.4175 10.7885 17.4767 10.8044 17.5189 10.8247C17.561 10.845 17.6286 10.8759 17.6709 10.8623C17.7248 10.845 17.7822 10.8883 17.8295 10.8623C17.8767 10.8363 17.9375 10.8811 17.9763 10.8493C18.0151 10.8174 18.0827 10.8478 18.1114 10.8174C18.1401 10.7871 18.2582 10.8348 18.3005 10.7944C18.3426 10.7538 18.4 10.8059 18.4389 10.7755C18.449 10.7675 18.4611 10.7657 18.4743 10.7667C18.4728 10.8352 18.4599 10.9441 18.4574 10.9781C18.4544 11.0166 18.4338 11.0778 18.4338 11.1154C18.4338 11.1386 18.481 11.1444 18.535 11.1444C18.5891 11.1444 18.6127 11.1227 18.5992 11.062C18.5857 11.0013 18.6051 10.8518 18.6084 10.7591Z" fill="#A3A3A3"/>
<path fill-rule="evenodd" clip-rule="evenodd" d="M15.877 9.70418C15.8996 9.68774 15.8786 9.65356 15.8899 9.62069C15.9012 9.58793 15.961 9.56878 16.0208 9.55789C16.0806 9.5469 16.121 9.47038 16.1906 9.45667C16.2277 9.44937 16.2262 9.42663 16.2245 9.40475C16.2187 9.32518 16.2908 9.2749 16.328 9.29547C16.349 9.26118 16.4363 9.25161 16.4638 9.28306C16.4767 9.25846 16.5284 9.25161 16.5543 9.28306C16.5947 9.25716 16.6739 9.28992 16.6674 9.33226C16.7241 9.33095 16.758 9.35827 16.7532 9.39245C16.7839 9.38701 16.8178 9.40203 16.8211 9.42249C16.8159 9.45612 16.8927 9.46472 16.8572 9.48649C16.826 9.50554 16.7965 9.49803 16.761 9.47201C16.7256 9.44589 16.6074 9.46907 16.5905 9.48214C16.5736 9.4952 16.5551 9.50097 16.5415 9.49084C16.528 9.48072 16.496 9.46472 16.4808 9.46625C16.4655 9.46766 16.4335 9.46766 16.4149 9.43729C16.3963 9.40693 16.3491 9.40257 16.3407 9.41411C16.3323 9.42565 16.3592 9.46766 16.3863 9.48355C16.4132 9.49955 16.3998 9.52992 16.4319 9.54722C16.4528 9.55865 16.4335 9.59784 16.4217 9.62102C16.4099 9.6442 16.3643 9.63691 16.3609 9.61961C16.3576 9.6023 16.3457 9.59065 16.3187 9.61667C16.2917 9.64279 16.2344 9.6355 16.2208 9.62831C16.2074 9.62102 16.1702 9.60807 16.1449 9.61525C16.1195 9.62254 16.1567 9.63408 16.1601 9.6442C16.1634 9.65433 16.1195 9.65868 16.0942 9.65868C16.069 9.65868 16.0605 9.67305 16.0757 9.67599C16.0909 9.67893 16.1499 9.68186 16.1736 9.67022C16.1972 9.65868 16.2697 9.67022 16.2766 9.69199C16.2833 9.71365 16.2344 9.72235 16.2056 9.71942C16.1632 9.71517 16.101 9.73825 16.0706 9.74543C16.0403 9.75272 15.9592 9.73389 15.9271 9.7426C15.8951 9.7512 15.8635 9.71713 15.877 9.70418Z" fill="#A3A3A3"/>
<path fill-rule="evenodd" clip-rule="evenodd" d="M16.42 9.88144C16.3897 9.89298 16.3999 9.9277 16.4269 9.94218C16.4539 9.95665 16.5146 9.96242 16.5535 9.95524C16.5922 9.94795 16.6007 9.95959 16.5755 9.97407C16.5501 9.98844 16.6142 9.99138 16.6091 10.0146C16.6042 10.0376 16.6327 10.0333 16.6598 10.0319C16.6868 10.0305 16.7223 10.013 16.7526 9.99714C16.783 9.98125 16.8049 9.99279 16.7762 10.0203C16.7477 10.0478 16.6514 10.0826 16.5755 10.0782C16.4994 10.0739 16.4589 10.0912 16.4758 10.1158C16.4927 10.1404 16.5737 10.1447 16.6159 10.1317C16.6581 10.1187 16.6514 10.1419 16.6193 10.1577C16.5872 10.1737 16.5416 10.1751 16.5028 10.1737C16.464 10.1723 16.4302 10.2056 16.4809 10.2243C16.5315 10.2431 16.5991 10.2316 16.6244 10.2475C16.6498 10.2634 16.7273 10.2388 16.729 10.2663C16.7306 10.2937 16.707 10.3039 16.6614 10.301C16.6159 10.2981 16.6293 10.3187 16.6632 10.3299C16.6936 10.3401 16.7477 10.3401 16.7762 10.3372C16.8049 10.3343 16.7966 10.3632 16.7679 10.3733C16.7392 10.3834 16.6463 10.3979 16.6007 10.3965C16.5552 10.3951 16.577 10.424 16.6362 10.424C16.8167 10.424 16.8776 10.3386 16.9232 10.2793C16.9455 10.2502 16.9889 10.2344 16.9991 10.2518C17.0092 10.2691 17.0109 10.2735 16.9907 10.288C16.9704 10.3025 16.9753 10.3112 17.0126 10.3126C17.0496 10.314 17.1037 10.3039 17.1359 10.2953C17.1679 10.2866 17.2623 10.3413 17.1847 10.3429C17.048 10.3459 16.8792 10.3951 16.8236 10.4153C16.7679 10.4356 16.6749 10.4737 16.6176 10.4717C16.5755 10.4703 16.5585 10.4862 16.5755 10.505C16.5922 10.5238 16.6463 10.5238 16.6767 10.5151C16.707 10.5064 16.7138 10.5151 16.6936 10.5324C16.6734 10.5499 16.6227 10.557 16.5872 10.5629C16.5519 10.5687 16.5343 10.5913 16.5619 10.6005C16.6142 10.6179 16.567 10.6338 16.6042 10.6425C16.6412 10.6512 16.6007 10.6786 16.6412 10.6873C16.6818 10.696 16.7054 10.6917 16.7357 10.6714C16.7662 10.6512 16.783 10.6395 16.8151 10.6425C16.8472 10.6454 16.8692 10.6308 16.8877 10.6092C16.9063 10.5875 16.9687 10.5484 16.9889 10.5673C17.0092 10.5861 17.0514 10.5513 17.0599 10.5701C17.0683 10.5889 17.1037 10.5774 17.1122 10.6034C17.1215 10.6324 17.1611 10.6381 17.1882 10.628C17.2151 10.6179 17.2371 10.5933 17.2371 10.557C17.2371 10.5209 17.2472 10.5064 17.2574 10.5455C17.2674 10.5846 17.3046 10.5961 17.3232 10.5774C17.3417 10.5586 17.3484 10.4935 17.335 10.4631C17.3215 10.4326 17.3197 10.3936 17.3333 10.3864C17.3468 10.3792 17.3789 10.4457 17.3924 10.4746C17.4059 10.5036 17.4412 10.4949 17.443 10.4659C17.4447 10.437 17.4768 10.4225 17.5004 10.4443C17.524 10.4659 17.5106 10.5383 17.5173 10.573C17.524 10.6078 17.5898 10.5643 17.5967 10.5759C17.6034 10.5875 17.6287 10.5903 17.6388 10.5657C17.649 10.5411 17.6726 10.5195 17.6861 10.534C17.6997 10.5484 17.7199 10.573 17.7282 10.6005C17.7367 10.628 17.7671 10.6425 17.7856 10.6135C17.8042 10.5846 17.8178 10.5282 17.811 10.489C17.8042 10.45 17.8161 10.4254 17.8329 10.4457C17.8498 10.4659 17.8481 10.5209 17.8498 10.5657C17.8515 10.6106 17.9072 10.6063 17.9072 10.5397C17.9072 10.5094 17.924 10.5036 17.9291 10.5209C17.9342 10.5383 17.9342 10.5673 17.9393 10.5802C17.9517 10.6123 17.995 10.5947 18 10.573C18.0051 10.5513 17.9967 10.4731 17.9865 10.4385C17.9764 10.4037 17.9967 10.3792 18.0136 10.3979C18.0305 10.4167 18.0338 10.4659 18.0372 10.5209C18.0405 10.5759 18.0759 10.5788 18.0946 10.5629C18.1131 10.5469 18.1131 10.5007 18.1047 10.4673C18.0962 10.4342 18.1233 10.4342 18.1351 10.4544C18.1469 10.4746 18.1672 10.4616 18.1638 10.4457C18.1605 10.4298 18.1772 10.4153 18.1941 10.437C18.211 10.4587 18.2059 10.5079 18.1976 10.5469C18.1891 10.5861 18.2397 10.5816 18.2633 10.5484C18.287 10.5151 18.2752 10.424 18.255 10.3951C18.2346 10.3661 18.2364 10.3285 18.2481 10.2953C18.26 10.262 18.282 10.2604 18.2837 10.275C18.2853 10.2894 18.2955 10.314 18.314 10.3328C18.3325 10.3516 18.3427 10.3546 18.346 10.3255C18.3494 10.2967 18.3663 10.3039 18.3731 10.3255C18.3799 10.3473 18.3916 10.3646 18.4085 10.3459C18.4254 10.327 18.4473 10.3415 18.4339 10.3705C18.4203 10.3994 18.4203 10.4254 18.4305 10.4544C18.4406 10.4833 18.476 10.479 18.4795 10.4457C18.4865 10.3765 18.4964 10.4225 18.5047 10.4529C18.5131 10.4833 18.5385 10.4818 18.5436 10.4645C18.5487 10.4471 18.5538 10.4429 18.5538 10.4616C18.5538 10.4804 18.5621 10.4963 18.5841 10.4963C18.6061 10.4963 18.601 10.4587 18.611 10.4356C18.6212 10.4124 18.6397 10.4443 18.6651 10.4977C18.6904 10.5513 18.7089 10.5007 18.7681 10.6222C18.7922 10.6718 18.8272 10.6294 18.8255 10.6121C18.8237 10.5947 18.8288 10.5832 18.8575 10.5832C18.8862 10.5832 18.9098 10.5774 18.8998 10.5586C18.8896 10.5397 18.8964 10.505 18.8947 10.4659C18.8931 10.4269 18.898 10.4052 18.9031 10.4269C18.9082 10.4485 18.9251 10.479 18.952 10.4949C18.979 10.5108 18.9976 10.4673 18.9756 10.4399C18.9538 10.4124 18.9234 10.3473 18.9251 10.2923C18.9263 10.2518 18.9452 10.2648 18.9452 10.2937C18.9452 10.3227 18.9621 10.3748 18.9875 10.3864C19.0128 10.3979 19.023 10.3444 19.0112 10.3169C18.9993 10.2894 18.9926 10.2518 19.0179 10.2445C19.0432 10.2374 19.0112 10.207 18.9892 10.1852C18.9672 10.1636 18.9538 10.1419 18.9926 10.1433C19.0313 10.1447 18.9993 10.1201 18.9807 10.1042C18.9621 10.0884 18.9301 10.0565 18.9807 10.0608C19.0313 10.0652 19.0146 10.0392 18.9943 10.0247C18.9739 10.0102 18.9621 9.98267 18.9976 9.98419C19.0331 9.98561 19.055 9.96819 19.0517 9.95524C19.0387 9.90506 18.9538 9.84672 18.9014 9.80188C18.8491 9.75704 18.7647 9.71219 18.7191 9.7049C18.6735 9.69761 18.6719 9.72667 18.6837 9.74397C18.6955 9.76128 18.7191 9.77293 18.7225 9.75551C18.7258 9.73821 18.7612 9.75704 18.7781 9.78011C18.795 9.80329 18.8524 9.83225 18.888 9.85826C18.9234 9.88427 18.8406 9.87132 18.8001 9.8366C18.777 9.81668 18.7798 9.84085 18.8103 9.86838C18.8406 9.89592 18.8018 9.90746 18.7698 9.88427C18.7376 9.8612 18.655 9.79611 18.6026 9.7541C18.5503 9.71219 18.5418 9.72231 18.5402 9.74974C18.5385 9.77728 18.5571 9.79611 18.5908 9.81919C18.6246 9.84237 18.6668 9.8785 18.6989 9.9031C18.7309 9.9277 18.704 9.94359 18.6837 9.92618C18.6633 9.90887 18.5943 9.8612 18.5538 9.82789C18.5131 9.79459 18.476 9.7787 18.4508 9.78305C18.4254 9.7874 18.4272 9.812 18.4575 9.83802C18.4879 9.86403 18.5251 9.91323 18.5251 9.94218C18.5251 9.97113 18.498 9.99138 18.4844 9.93935C18.471 9.88721 18.4068 9.82648 18.3596 9.78011C18.3124 9.73385 18.265 9.72514 18.2296 9.72808C18.1941 9.73091 18.1958 9.76563 18.1958 9.79317C18.1958 9.8206 18.1722 9.80471 18.1705 9.78446C18.1689 9.76422 18.1418 9.74691 18.1266 9.74833C18.1115 9.74974 18.1166 9.79176 18.1115 9.81059C18.1064 9.82931 18.0828 9.84672 18.0828 9.80329C18.0828 9.75987 18.027 9.73821 18.0034 9.73668C17.9798 9.73527 17.9578 9.74397 17.9696 9.7628C17.9814 9.78153 17.9764 9.83225 17.968 9.8612C17.9595 9.89004 17.9342 9.83943 17.9291 9.78588C17.924 9.73244 17.8448 9.69478 17.7891 9.71067C17.7333 9.72667 17.7756 9.76128 17.7654 9.79459C17.7553 9.82789 17.74 9.79753 17.735 9.7628C17.73 9.72808 17.703 9.70631 17.6659 9.71502C17.6287 9.72373 17.6034 9.74104 17.6051 9.76422C17.6067 9.7874 17.6067 9.80765 17.5983 9.8452C17.5898 9.88286 17.5747 9.86403 17.5764 9.83943C17.5781 9.81483 17.5696 9.77434 17.5611 9.75116C17.5527 9.72808 17.5392 9.74974 17.5426 9.7787C17.546 9.80765 17.5375 9.87415 17.524 9.91475C17.5106 9.95524 17.4903 9.95665 17.5004 9.90169C17.5106 9.84672 17.4852 9.76563 17.4599 9.72808C17.4418 9.7012 17.4009 9.69195 17.4009 9.7295C17.4009 9.76716 17.4127 9.79459 17.443 9.82212C17.4734 9.84955 17.4498 9.91758 17.4194 9.95382C17.3889 9.98996 17.3907 9.93782 17.4009 9.89875C17.4109 9.85968 17.3553 9.84672 17.3333 9.83943C17.3113 9.83225 17.3569 9.79317 17.3671 9.74104C17.372 9.71535 17.3653 9.69913 17.3451 9.69761C17.3248 9.69619 17.2708 9.74539 17.2472 9.78153C17.2539 9.74397 17.2472 9.71067 17.2269 9.71067C17.2067 9.71067 17.1847 9.74691 17.1696 9.77293C17.1544 9.79894 17.1392 9.78446 17.1544 9.75704C17.1696 9.7295 17.1931 9.6557 17.1628 9.63981C17.1324 9.62392 17.1054 9.68901 17.0734 9.67736C17.0552 9.67083 17.0801 9.62969 17.0903 9.61086C17.1003 9.59203 17.0801 9.57755 17.0345 9.61227C16.9889 9.6471 16.9687 9.70348 16.9568 9.73821C16.9451 9.77293 16.8641 9.82931 16.8202 9.85968C16.7762 9.89004 16.7577 9.8785 16.7797 9.86544C16.8016 9.85249 16.8454 9.812 16.8674 9.79611C16.8894 9.78011 16.8792 9.77075 16.8371 9.79818C16.7949 9.82572 16.7181 9.87568 16.6395 9.89298C16.5934 9.90321 16.5872 9.8945 16.6327 9.88144C16.6783 9.86838 16.783 9.80612 16.8084 9.77728C16.8242 9.7591 16.783 9.77434 16.7628 9.7787C16.7426 9.78305 16.7257 9.77728 16.7662 9.7628C16.8066 9.74833 16.935 9.63404 16.962 9.59203C16.9889 9.55012 16.9653 9.53412 16.9484 9.53565C16.9315 9.53706 16.9079 9.54719 16.913 9.52988C16.9181 9.51246 16.9063 9.48928 16.8843 9.49657C16.8623 9.50376 16.8641 9.54577 16.8556 9.56885C16.8472 9.59203 16.7999 9.62251 16.7695 9.62251C16.7392 9.62251 16.697 9.62827 16.6649 9.64993C16.6327 9.67159 16.6176 9.65135 16.6327 9.63404C16.648 9.61663 16.6818 9.61227 16.7155 9.61086C16.7493 9.60944 16.7864 9.60509 16.8151 9.57755C16.8438 9.55012 16.8454 9.52836 16.8236 9.52694C16.8016 9.52553 16.7644 9.50093 16.7526 9.4908C16.6927 9.43932 16.5828 9.51105 16.5399 9.55295C16.5163 9.57614 16.4353 9.64275 16.41 9.66006C16.3846 9.67736 16.3948 9.70196 16.4369 9.66876C16.4792 9.63546 16.4927 9.65864 16.4539 9.68324C16.415 9.70784 16.3864 9.74397 16.3999 9.75704C16.4133 9.76999 16.4656 9.7541 16.4943 9.73821C16.523 9.72231 16.5366 9.76128 16.4656 9.77434C16.418 9.78316 16.4014 9.79992 16.4387 9.80188C16.4674 9.80329 16.5112 9.79176 16.5519 9.77151C16.5922 9.75116 16.6244 9.7628 16.5906 9.78305C16.5568 9.80329 16.4825 9.83083 16.4454 9.83083C16.4143 9.83083 16.4505 9.86991 16.42 9.88144Z" fill="white"/>
<path fill-rule="evenodd" clip-rule="evenodd" d="M16.6157 9.55813C16.6563 9.51584 16.6918 9.49733 16.7288 9.52773C16.7625 9.55527 16.766 9.56727 16.7238 9.55813C16.6816 9.54899 16.6529 9.55813 16.6276 9.58544C16.6022 9.61287 16.5735 9.60213 16.6157 9.55813Z" fill="#A3A3A3"/>
<path fill-rule="evenodd" clip-rule="evenodd" d="M15.9473 9.66549C15.9777 9.63509 16.0265 9.63509 16.0485 9.60172C16.0705 9.56823 16.0941 9.58046 16.0671 9.61235C16.0401 9.64423 15.9878 9.65041 15.9658 9.67315C15.9439 9.69589 15.9321 9.68069 15.9473 9.66549Z" fill="#A3A3A3"/>
<path fill-rule="evenodd" clip-rule="evenodd" d="M16.1364 9.54919C16.1547 9.54668 16.1904 9.52485 16.2123 9.49902C16.2343 9.47319 16.2815 9.46405 16.3101 9.49445C16.3388 9.52485 16.3541 9.53548 16.3693 9.54165C16.3844 9.54771 16.3844 9.56748 16.3608 9.57342C16.3372 9.57959 16.3052 9.58416 16.2883 9.57651C16.2714 9.56896 16.246 9.56291 16.2258 9.56748C16.2055 9.57194 16.1971 9.56291 16.214 9.55525C16.2309 9.54771 16.2511 9.52485 16.2612 9.51571C16.2714 9.50668 16.2983 9.51422 16.2832 9.52336C16.268 9.53251 16.2747 9.55216 16.2899 9.55982C16.3052 9.56748 16.3355 9.56748 16.349 9.55376C16.3288 9.53399 16.295 9.50816 16.2815 9.50062C16.268 9.49296 16.2562 9.48988 16.2393 9.50816C16.2224 9.52645 16.1819 9.57045 16.1431 9.56896C16.1043 9.56748 16.1144 9.55216 16.1364 9.54919Z" fill="#A3A3A3"/>
<path fill-rule="evenodd" clip-rule="evenodd" d="M17.2031 9.82175C17.1881 9.84267 17.1744 9.86964 17.1727 9.89089C17.1711 9.91215 17.1905 9.92667 17.1929 9.90004C17.1954 9.87341 17.198 9.85752 17.2191 9.83775C17.2403 9.81798 17.2199 9.79821 17.2031 9.82175Z" fill="#A3A3A3"/>
<path fill-rule="evenodd" clip-rule="evenodd" d="M16.9963 9.82135C17.0138 9.81426 17.0435 9.79781 17.0579 9.78261C17.0722 9.76752 17.0815 9.77735 17.0672 9.79403C17.0528 9.81072 17.0199 9.83049 17.0047 9.83506C16.9896 9.83963 16.9778 9.82901 16.9963 9.82135Z" fill="#A3A3A3"/>
<path fill-rule="evenodd" clip-rule="evenodd" d="M17.0226 9.90587C16.9983 9.93504 16.9027 10.0044 16.874 10.0173C16.8453 10.0304 16.8555 10.0492 16.8876 10.0391C16.864 10.0578 16.8115 10.0883 16.7779 10.0969C16.7441 10.1056 16.7372 10.1316 16.7879 10.1157C16.8386 10.0998 16.9094 10.0578 16.928 10.0391C16.9466 10.0203 16.923 10.0116 16.9517 9.99131C16.9804 9.97107 17.0335 9.93406 17.0411 9.91893C17.0529 9.89585 17.0395 9.88562 17.0226 9.90587Z" fill="#A3A3A3"/>
<path fill-rule="evenodd" clip-rule="evenodd" d="M16.918 10.1419C16.9542 10.1243 17.0218 10.0619 17.0412 10.0261C17.053 10.0044 17.0766 10.0073 17.0581 10.0406C17.0395 10.0739 16.9703 10.1332 16.9467 10.1491C16.9231 10.165 16.8792 10.1606 16.918 10.1419Z" fill="#A3A3A3"/>
<path fill-rule="evenodd" clip-rule="evenodd" d="M17.686 9.79892C17.6761 9.81928 17.6742 9.86695 17.6776 9.89002C17.6809 9.91321 17.7012 9.93062 17.6978 9.8959C17.6945 9.86118 17.6945 9.82646 17.7062 9.81634C17.7181 9.80611 17.7029 9.7642 17.686 9.79892Z" fill="#A3A3A3"/>
<path fill-rule="evenodd" clip-rule="evenodd" d="M17.8919 9.88418C17.9091 9.89996 17.9172 9.97398 17.9156 10.0014C17.9139 10.0289 17.9426 10.0289 17.9408 9.98987C17.9392 9.95079 17.9358 9.9016 17.9206 9.87558C17.9054 9.84946 17.8683 9.86252 17.8919 9.88418Z" fill="#A3A3A3"/>
<path fill-rule="evenodd" clip-rule="evenodd" d="M18.0726 9.93189C18.083 9.95083 18.0962 9.98686 18.0962 10.0129C18.0962 10.039 18.1182 10.0273 18.1198 9.99698C18.1215 9.96661 18.1165 9.9406 18.1047 9.92035C18.0929 9.90011 18.0573 9.90435 18.0726 9.93189Z" fill="#A3A3A3"/>
<path fill-rule="evenodd" clip-rule="evenodd" d="M18.184 9.90925C18.1747 9.88594 18.1604 9.86514 18.1501 9.86822C18.14 9.87131 18.1468 9.89257 18.1604 9.91531C18.1737 9.93817 18.194 9.93508 18.184 9.90925Z" fill="#A3A3A3"/>
<path fill-rule="evenodd" clip-rule="evenodd" d="M17.4784 10.0708C17.4733 10.1314 17.4412 10.1851 17.4024 10.2039C17.3636 10.2227 17.3703 10.2531 17.4176 10.2227C17.4649 10.1924 17.5004 10.1402 17.5105 10.094C17.5205 10.0476 17.4818 10.0303 17.4784 10.0708Z" fill="#A3A3A3"/>
<path fill-rule="evenodd" clip-rule="evenodd" d="M17.3938 10.0435C17.3736 10.0638 17.3618 10.1072 17.3618 10.1404C17.3618 10.1737 17.3753 10.1491 17.3787 10.1303C17.3821 10.1115 17.3887 10.0854 17.4058 10.0767C17.4225 10.068 17.4141 10.0233 17.3938 10.0435Z" fill="#A3A3A3"/>
<path fill-rule="evenodd" clip-rule="evenodd" d="M18.8558 10.0854C18.8736 10.1147 18.8997 10.1621 18.9081 10.1896C18.9166 10.2171 18.8963 10.2243 18.8896 10.1997C18.8827 10.1751 18.8507 10.1201 18.8389 10.1013C18.8271 10.0826 18.8355 10.0521 18.8558 10.0854Z" fill="#A3A3A3"/>
<path fill-rule="evenodd" clip-rule="evenodd" d="M22.03 11.318C22.0918 11.4914 22.0014 11.682 21.8279 11.7438L21.822 11.7459L21.8057 11.7517L21.7444 11.7732C21.6917 11.7916 21.6161 11.8177 21.5244 11.8487C21.3413 11.9106 21.0928 11.9924 20.8327 12.0716C20.5739 12.1504 20.2982 12.2283 20.0624 12.2809C19.9448 12.3071 19.8309 12.3284 19.7307 12.3399C19.643 12.3499 19.5219 12.3583 19.4139 12.3294C19.264 12.2894 18.8716 12.2197 18.481 12.1582C18.2898 12.128 18.1054 12.1008 17.961 12.0813C17.8886 12.0715 17.8275 12.0638 17.7813 12.0586C17.7445 12.0544 17.725 12.0529 17.7178 12.0523C17.7146 12.052 17.7138 12.052 17.7151 12.052C17.566 12.052 17.1943 12.1154 16.807 12.1903C16.6815 12.2145 16.5612 12.2386 16.4534 12.2601C16.4014 12.2705 16.3523 12.2803 16.3069 12.2893C16.2383 12.3028 16.1776 12.3146 16.1305 12.3231C16.107 12.3273 16.0847 12.3311 16.0653 12.3339C16.0525 12.3358 16.0191 12.3407 15.9863 12.3407C15.9113 12.3407 15.8179 12.3261 15.7333 12.3102C15.6413 12.2931 15.5327 12.2692 15.416 12.2415C15.1821 12.186 14.9041 12.1127 14.6391 12.0401C14.3737 11.9674 14.1189 11.8947 13.9306 11.8403C13.8364 11.8131 13.7587 11.7904 13.7045 11.7745L13.6417 11.756L13.6197 11.7495C13.4433 11.6971 13.3423 11.5114 13.3947 11.3349C13.4471 11.1585 13.6327 11.0579 13.8092 11.1103L13.8306 11.1167L13.8923 11.1348C13.9457 11.1505 14.0225 11.1729 14.1156 11.1999C14.3021 11.2537 14.5538 11.3255 14.8153 11.3971C15.0774 11.4689 15.3469 11.54 15.5698 11.5928C15.6814 11.6193 15.7785 11.6405 15.8557 11.6549C15.8942 11.6621 15.9256 11.6672 15.95 11.6704C15.9612 11.6719 15.9695 11.6728 15.9754 11.6733C15.9844 11.6718 15.9967 11.6698 16.0127 11.6669C16.0535 11.6596 16.1092 11.6488 16.1776 11.6353C16.2207 11.6268 16.2685 11.6172 16.3198 11.6069C16.4287 11.5852 16.5531 11.5604 16.6805 11.5357C17.0402 11.4662 17.4868 11.3853 17.7151 11.3853C17.7787 11.3853 17.9143 11.4022 18.0505 11.4206C18.2007 11.441 18.39 11.4689 18.5848 11.4996C18.9595 11.5587 19.3806 11.6319 19.5758 11.6827C19.5774 11.6823 19.6003 11.6838 19.6551 11.6775C19.7226 11.6698 19.8111 11.6539 19.9173 11.6302C20.1288 11.583 20.3859 11.5108 20.6385 11.4339C20.89 11.3573 21.1317 11.2777 21.3109 11.2171C21.4004 11.1869 21.474 11.1614 21.5251 11.1436L21.584 11.123L21.5993 11.1176L21.6041 11.1159M15.9606 11.6754C15.9607 11.6754 15.9614 11.6753 15.9627 11.6751L15.9606 11.6754Z" fill="white"/>
<path fill-rule="evenodd" clip-rule="evenodd" d="M22.03 12.4608C22.0918 12.6342 22.0014 12.8249 21.8279 12.8867L21.822 12.8888L21.8057 12.8945L21.7444 12.916C21.6917 12.9344 21.6161 12.9605 21.5244 12.9915C21.3413 13.0534 21.0928 13.1353 20.8327 13.2144C20.5739 13.2932 20.2982 13.3711 20.0624 13.4237C19.9448 13.4499 19.831 13.4713 19.7307 13.4827C19.643 13.4927 19.5219 13.5011 19.4139 13.4722C19.264 13.4322 18.8716 13.3625 18.481 13.301C18.2898 13.2709 18.1054 13.2437 17.961 13.2241C17.8886 13.2143 17.8275 13.2066 17.7813 13.2014C17.7445 13.1973 17.725 13.1957 17.7178 13.1951C17.7146 13.1948 17.7138 13.1948 17.7151 13.1948C17.566 13.1948 17.1943 13.2583 16.807 13.3331C16.6815 13.3574 16.5612 13.3814 16.4534 13.4029C16.4014 13.4133 16.3523 13.4231 16.3069 13.4321C16.2383 13.4457 16.1776 13.4574 16.1305 13.4659C16.107 13.4701 16.0847 13.4739 16.0653 13.4768C16.0525 13.4786 16.0191 13.4836 15.9863 13.4836C15.9113 13.4836 15.8179 13.4689 15.7333 13.4531C15.6413 13.4359 15.5327 13.412 15.416 13.3843C15.1821 13.3289 14.9041 13.2555 14.6391 13.1829C14.3737 13.1102 14.1189 13.0376 13.9306 12.9831C13.8364 12.9559 13.7587 12.9332 13.7045 12.9173L13.6417 12.8988L13.6197 12.8923L13.7142 12.5727L13.8092 12.2531L13.8306 12.2595L13.8923 12.2777C13.9457 12.2933 14.0225 12.3158 14.1156 12.3427C14.3021 12.3966 14.5538 12.4683 14.8153 12.54C15.0774 12.6118 15.3469 12.6828 15.5698 12.7356C15.6814 12.7621 15.7785 12.7833 15.8557 12.7977C15.8942 12.8049 15.9256 12.81 15.95 12.8132C15.9612 12.8147 15.9695 12.8156 15.9754 12.8161C15.9844 12.8147 15.9967 12.8126 16.0127 12.8097C16.0535 12.8024 16.1092 12.7916 16.1776 12.7781C16.2207 12.7696 16.2685 12.76 16.3198 12.7498C16.4287 12.728 16.5531 12.7032 16.6805 12.6786C17.0402 12.609 17.4868 12.5281 17.7151 12.5281C17.7787 12.5281 17.9143 12.545 18.0505 12.5635C18.2007 12.5838 18.39 12.6118 18.5848 12.6425C18.9595 12.7015 19.3806 12.7747 19.5758 12.8255C19.5774 12.8251 19.6003 12.8266 19.6551 12.8203C19.7226 12.8126 19.8111 12.7967 19.9173 12.773C20.1288 12.7258 20.3859 12.6536 20.6385 12.5767C20.89 12.5001 21.1317 12.4205 21.3109 12.3599C21.4004 12.3297 21.474 12.3043 21.5251 12.2864L21.584 12.2658L21.5993 12.2604L21.6041 12.2587M15.9606 12.8182C15.9607 12.8182 15.9614 12.8181 15.9627 12.818L15.9606 12.8182ZM13.3947 12.4777C13.4471 12.3013 13.6327 12.2007 13.8092 12.2531L13.7142 12.5727L13.6197 12.8923C13.4433 12.8399 13.3423 12.6542 13.3947 12.4777Z" fill="white"/>
<path fill-rule="evenodd" clip-rule="evenodd" d="M13.9041 14.2194C13.9041 14.2194 13.9041 14.2194 13.9041 14.2194L13.925 14.2256L13.9862 14.2436C14.0392 14.2592 14.1155 14.2815 14.2081 14.3083C14.3937 14.3619 14.6438 14.4332 14.9033 14.5043C15.164 14.5757 15.4292 14.6456 15.6466 14.6971C15.748 14.7211 15.834 14.74 15.9017 14.753C16 14.7087 16.1446 14.6438 16.3178 14.5785C16.6662 14.4472 17.1601 14.302 17.7151 14.302C18.2568 14.302 18.6963 14.418 19.038 14.541C19.1889 14.5953 19.324 14.6524 19.429 14.6968C19.44 14.7014 19.4507 14.706 19.461 14.7103C19.5354 14.7416 19.585 14.7617 19.6199 14.7747C19.671 14.7687 19.7459 14.7555 19.8447 14.7335C20.0441 14.689 20.2918 14.6196 20.5414 14.5436C20.7886 14.4683 21.0268 14.3899 21.2041 14.33C21.2925 14.3001 21.3651 14.275 21.4154 14.2575L21.4731 14.2373L21.4878 14.2321L21.4913 14.2308M13.9041 14.2194C13.5511 14.1146 13.18 14.3157 13.0751 14.6686C12.9703 15.0216 13.1714 15.3927 13.5243 15.4975L13.5472 15.5043L13.6106 15.523C13.6652 15.539 13.7433 15.5618 13.838 15.5892C14.0272 15.6439 14.2836 15.717 14.551 15.7902C14.8174 15.8632 15.0996 15.9377 15.339 15.9945C15.4583 16.0228 15.5727 16.048 15.672 16.0665C15.7567 16.0824 15.8772 16.1027 15.9862 16.1027C16.0985 16.1027 16.1884 16.074 16.2111 16.0668C16.2117 16.0666 16.2123 16.0664 16.2129 16.0662C16.2493 16.0546 16.282 16.0417 16.3042 16.0325C16.3447 16.0159 16.3927 15.9942 16.434 15.9756C16.4376 15.974 16.4412 15.9723 16.4447 15.9708C16.5406 15.9275 16.6543 15.8766 16.7881 15.8262C17.0596 15.7238 17.384 15.6354 17.7151 15.6354C18.0595 15.6354 18.3422 15.7076 18.5863 15.7955C18.7016 15.837 18.8045 15.8804 18.9122 15.9259C18.9225 15.9302 18.9328 15.9346 18.9432 15.939L18.9462 15.9402C19.051 15.9844 19.1916 16.0437 19.3278 16.0801C19.5013 16.1265 19.6769 16.1101 19.7685 16.0997C19.8851 16.0864 20.0116 16.0623 20.1349 16.0349C20.3829 15.9795 20.6679 15.8989 20.9298 15.8191C21.1941 15.7386 21.446 15.6557 21.6311 15.5931C21.6858 15.5746 21.7348 15.5578 21.7768 15.5434L27.7627 16.5007C28.1263 16.5589 28.4682 16.3113 28.5263 15.9477C28.5845 15.5842 28.3369 15.2423 27.9733 15.1841L21.8213 14.2002C21.7108 14.1825 21.5967 14.1933 21.4913 14.2308" fill="white"/>
</g>
<path fill-rule="evenodd" clip-rule="evenodd" d="M15.5238 12.0012C15.5238 13.1818 16.1071 14.015 16.7317 14.5771C17.0446 14.8587 17.3596 15.0637 17.5966 15.198C17.6387 15.2219 17.6781 15.2434 17.7143 15.2625C17.7505 15.2434 17.79 15.2219 17.8321 15.198C18.069 15.0637 18.3841 14.8587 18.6969 14.5771C19.3215 14.015 19.9048 13.1818 19.9048 12.0012V9.3342C19.9048 8.96624 19.6066 8.66789 19.2381 8.66789H16.1905C15.8221 8.66789 15.5238 8.96624 15.5238 9.3342V12.0012ZM14.8572 9.3342V12.0012C14.8572 14.8584 17.7143 16.0012 17.7143 16.0012C17.7143 16.0012 20.5715 14.8584 20.5715 12.0012V9.3342C20.5715 8.59782 19.9745 8.00122 19.2381 8.00122H16.1905C15.4541 8.00122 14.8572 8.59782 14.8572 9.3342Z" fill="white"/>
<mask id="mask2_91_2928" style="mask-type:luminance" maskUnits="userSpaceOnUse" x="14" y="8" width="7" height="9">
<path fill-rule="evenodd" clip-rule="evenodd" d="M14.8572 12.0012C14.8572 11.1353 14.8572 10.1235 14.8572 9.3342C14.8572 8.59782 15.4541 8.00122 16.1905 8.00122H19.2381C19.9745 8.00122 20.5715 8.59782 20.5715 9.3342C20.5715 10.1235 20.5715 11.1353 20.5715 12.0012C20.5715 14.8584 17.7143 16.0012 17.7143 16.0012C17.7143 16.0012 14.8572 14.8584 14.8572 12.0012Z" fill="white"/>
</mask>
<g mask="url(#mask2_91_2928)">
</g>
<mask id="mask3_91_2928" style="mask-type:luminance" maskUnits="userSpaceOnUse" x="14" y="8" width="7" height="9">
<path fill-rule="evenodd" clip-rule="evenodd" d="M15.5238 12.0012C15.5238 13.1818 16.1071 14.015 16.7317 14.5771C17.0446 14.8587 17.3596 15.0637 17.5966 15.198C17.6387 15.2219 17.6781 15.2434 17.7143 15.2625C17.7505 15.2434 17.79 15.2219 17.8321 15.198C18.069 15.0637 18.3841 14.8587 18.6969 14.5771C19.3215 14.015 19.9048 13.1818 19.9048 12.0012V9.3342C19.9048 8.96624 19.6066 8.66789 19.2381 8.66789H16.1905C15.8221 8.66789 15.5238 8.96624 15.5238 9.3342V12.0012ZM14.8572 9.3342V12.0012C14.8572 14.8584 17.7143 16.0012 17.7143 16.0012C17.7143 16.0012 20.5715 14.8584 20.5715 12.0012V9.3342C20.5715 8.59782 19.9745 8.00122 19.2381 8.00122H16.1905C15.4541 8.00122 14.8572 8.59782 14.8572 9.3342Z" fill="white"/>
</mask>
<g mask="url(#mask3_91_2928)">
</g>
<path d="M10.6191 3.82935C10.6191 4.04465 10.515 4.24717 10.3398 4.37231L6.61914 7.02954V7.84692L10.1152 10.844C10.4833 11.1596 10.2593 11.7629 9.77441 11.7629C9.66587 11.7628 9.56006 11.7293 9.47168 11.6663L5.6084 8.90649H4.66699L0.176758 11.7122L-0.333008 12.0315V10.6868L-0.193359 10.5872L3.66699 7.82935V7.01099L-0.216797 3.68286L-0.901367 3.09692H0.678711L0.765625 3.15845L4.67773 5.95337H5.61914L10.1094 3.14771L10.6191 2.82837V3.82935Z" fill="#DB1E36" stroke="white" stroke-width="0.666667"/>
<path fill-rule="evenodd" clip-rule="evenodd" d="M0 6.28707V8.57279H4V11.3347C4 11.7029 4.29848 12.0014 4.66667 12.0014H5.61905C5.98724 12.0014 6.28571 11.7029 6.28571 11.3347V8.57279H10.1905C10.5587 8.57279 10.8571 8.27431 10.8571 7.90612V6.95374C10.8571 6.58555 10.5587 6.28707 10.1905 6.28707H6.28571V3.42993H4V6.28707H0Z" fill="white"/>
<path fill-rule="evenodd" clip-rule="evenodd" d="M0 6.8585H4.57143V6.28707V3.42993H5.71429V6.28707V6.8585H10.2857V8.00136H5.71429V8.57279V11.4299H4.57143V8.57279V8.00136H0V6.8585Z" fill="#DB1E36"/>
</g>
</svg>
