<svg width="24" height="24" viewBox="0 0 24 24" fill="none" xmlns="http://www.w3.org/2000/svg">
<path d="M0 5.42993C0 4.32536 0.895431 3.42993 2 3.42993H22C23.1046 3.42993 24 4.32536 24 5.42993V18.5728C24 19.6774 23.1046 20.5728 22 20.5728H2C0.89543 20.5728 0 19.6774 0 18.5728V5.42993Z" fill="white"/>
<mask id="mask0_91_1943" style="mask-type:luminance" maskUnits="userSpaceOnUse" x="0" y="3" width="24" height="18">
<path d="M0 5.42993C0 4.32536 0.895431 3.42993 2 3.42993H22C23.1046 3.42993 24 4.32536 24 5.42993V18.5728C24 19.6774 23.1046 20.5728 22 20.5728H2C0.89543 20.5728 0 19.6774 0 18.5728V5.42993Z" fill="white"/>
</mask>
<g mask="url(#mask0_91_1943)">
<path d="M0 3.42993H24V20.5728H0V3.42993Z" fill="#30C6E0"/>
<path fill-rule="evenodd" clip-rule="evenodd" d="M12.0001 15.4299C13.8937 15.4299 15.4287 13.8949 15.4287 12.0013C15.4287 10.1078 13.8937 8.57275 12.0001 8.57275C10.1066 8.57275 8.57153 10.1078 8.57153 12.0013C8.57153 13.8949 10.1066 15.4299 12.0001 15.4299Z" fill="#FFCD4B"/>
<path fill-rule="evenodd" clip-rule="evenodd" d="M10.6014 18.1295L12.0001 16.0416L13.3988 18.1295L13.7531 15.6415L15.9191 16.9158L15.1589 14.5205L17.6633 14.7287L15.939 12.9004L18.2858 12.0014L15.939 11.1024L17.6633 9.27414L15.1589 9.48236L15.9191 7.08704L13.7531 8.36128L13.3988 5.87329L12.0001 7.96117L10.6014 5.87329L10.2471 8.36128L8.08099 7.08704L8.84128 9.48236L6.33684 9.27414L8.06113 11.1024L5.71436 12.0014L8.06113 12.9004L6.33684 14.7287L8.84128 14.5205L8.08099 16.9158L10.2471 15.6415L10.6014 18.1295ZM16.0001 12.0015C16.0001 14.2106 14.2092 16.0015 12.0001 16.0015C9.79094 16.0015 8.00007 14.2106 8.00007 12.0015C8.00007 9.79234 9.79094 8.00148 12.0001 8.00148C14.2092 8.00148 16.0001 9.79234 16.0001 12.0015Z" fill="#FFCD4B"/>
<path fill-rule="evenodd" clip-rule="evenodd" d="M1.14282 4.90609C1.14282 4.72199 1.29206 4.57275 1.47616 4.57275H1.95235C2.13644 4.57275 2.28568 4.72199 2.28568 4.90609V5.38228C2.28568 5.56637 2.13644 5.71561 1.95235 5.71561H1.47616C1.29206 5.71561 1.14282 5.56637 1.14282 5.38228V4.90609ZM1.14282 7.19184C1.14282 7.00774 1.29206 6.8585 1.47616 6.8585H1.95235C2.13644 6.8585 2.28568 7.00774 2.28568 7.19184V7.66803C2.28568 7.85212 2.13644 8.00136 1.95235 8.00136H1.47616C1.29206 8.00136 1.14282 7.85212 1.14282 7.66803V7.19184ZM1.47616 9.14408C1.29206 9.14408 1.14282 9.29332 1.14282 9.47741V9.9536C1.14282 10.1377 1.29206 10.2869 1.47616 10.2869H1.95235C2.13644 10.2869 2.28568 10.1377 2.28568 9.9536V9.47741C2.28568 9.29332 2.13644 9.14408 1.95235 9.14408H1.47616ZM1.14282 11.7632C1.14282 11.5791 1.29206 11.4299 1.47616 11.4299H1.95235C2.13644 11.4299 2.28568 11.5791 2.28568 11.7632V12.2394C2.28568 12.4235 2.13644 12.5727 1.95235 12.5727H1.47616C1.29206 12.5727 1.14282 12.4235 1.14282 12.2394V11.7632ZM1.47616 13.7156C1.29206 13.7156 1.14282 13.8649 1.14282 14.049V14.5252C1.14282 14.7093 1.29206 14.8585 1.47616 14.8585H1.95235C2.13644 14.8585 2.28568 14.7093 2.28568 14.5252V14.049C2.28568 13.8649 2.13644 13.7156 1.95235 13.7156H1.47616ZM1.14282 16.3346C1.14282 16.1505 1.29206 16.0012 1.47616 16.0012H1.95235C2.13644 16.0012 2.28568 16.1505 2.28568 16.3346V16.8107C2.28568 16.9948 2.13644 17.1441 1.95235 17.1441H1.47616C1.29206 17.1441 1.14282 16.9948 1.14282 16.8107V16.3346ZM1.47616 18.287C1.29206 18.287 1.14282 18.4362 1.14282 18.6203V19.0965C1.14282 19.2806 1.29206 19.4299 1.47616 19.4299H1.95235C2.13644 19.4299 2.28568 19.2806 2.28568 19.0965V18.6203C2.28568 18.4362 2.13644 18.287 1.95235 18.287H1.47616ZM2.28568 17.4776C2.28568 17.2935 2.43491 17.1442 2.61901 17.1442H3.0952C3.27929 17.1442 3.42853 17.2935 3.42853 17.4776V17.9537C3.42853 18.1378 3.27929 18.2871 3.0952 18.2871H2.61901C2.43491 18.2871 2.28568 18.1378 2.28568 17.9537V17.4776ZM2.61901 14.8584C2.43491 14.8584 2.28568 15.0077 2.28568 15.1918V15.668C2.28568 15.8521 2.43491 16.0013 2.61901 16.0013H3.0952C3.27929 16.0013 3.42853 15.8521 3.42853 15.668V15.1918C3.42853 15.0077 3.27929 14.8584 3.0952 14.8584H2.61901ZM2.28568 12.906C2.28568 12.7219 2.43491 12.5726 2.61901 12.5726H3.0952C3.27929 12.5726 3.42853 12.7219 3.42853 12.906V13.3822C3.42853 13.5663 3.27929 13.7155 3.0952 13.7155H2.61901C2.43491 13.7155 2.28568 13.5663 2.28568 13.3822V12.906ZM2.61901 10.2871C2.43491 10.2871 2.28568 10.4363 2.28568 10.6204V11.0966C2.28568 11.2807 2.43491 11.4299 2.61901 11.4299H3.0952C3.27929 11.4299 3.42853 11.2807 3.42853 11.0966V10.6204C3.42853 10.4363 3.27929 10.2871 3.0952 10.2871H2.61901ZM2.28568 8.33462C2.28568 8.15053 2.43491 8.00129 2.61901 8.00129H3.0952C3.27929 8.00129 3.42853 8.15053 3.42853 8.33462V8.81081C3.42853 8.99491 3.27929 9.14415 3.0952 9.14415H2.61901C2.43491 9.14415 2.28568 8.99491 2.28568 8.81081V8.33462ZM2.61901 5.71551C2.43491 5.71551 2.28568 5.86475 2.28568 6.04884V6.52503C2.28568 6.70913 2.43491 6.85836 2.61901 6.85836H3.0952C3.27929 6.85836 3.42853 6.70913 3.42853 6.52503V6.04884C3.42853 5.86474 3.27929 5.71551 3.0952 5.71551H2.61901Z" fill="#FFCD4B"/>
</g>
</svg>
