<svg width="24" height="24" viewBox="0 0 24 24" fill="none" xmlns="http://www.w3.org/2000/svg">
<rect y="3.42993" width="24" height="17.1429" rx="2" fill="white"/>
<mask id="mask0_91_2266" style="mask-type:luminance" maskUnits="userSpaceOnUse" x="0" y="3" width="24" height="18">
<rect y="3.42993" width="24" height="17.1429" rx="2" fill="white"/>
</mask>
<g mask="url(#mask0_91_2266)">
<rect y="3.42993" width="24" height="17.1429" fill="#19BFBF"/>
<path fill-rule="evenodd" clip-rule="evenodd" d="M4.7204 10.5605C4.63807 10.7252 4.70481 10.9254 4.86947 11.0077L6.5589 11.8525C6.72356 11.9348 6.7903 12.135 6.70797 12.2997L6.43468 12.8462C6.35235 13.0109 6.15213 13.0777 5.98747 12.9953L5.21313 12.6082C5.16685 12.585 5.11581 12.573 5.06406 12.573H3.7618C3.57771 12.573 3.42847 12.7222 3.42847 12.9063V13.4756C3.42847 13.619 3.52028 13.7464 3.65639 13.7918L4.63109 14.1167C4.86616 14.1951 4.9366 14.4934 4.76138 14.6686L4.66895 14.761C4.60644 14.8236 4.57132 14.9083 4.57132 14.9967V15.376C4.57132 15.4118 4.5771 15.4474 4.58843 15.4814L5.09909 17.0134C5.12705 17.0973 5.18717 17.1666 5.26625 17.2061L6.07072 17.6084C6.19905 17.6725 6.35404 17.6474 6.45549 17.5459L7.42847 16.573L7.67288 16.3286C7.83376 16.1677 7.78974 15.8965 7.58624 15.7947L7.02339 15.5133C6.92144 15.4623 6.85704 15.3581 6.85704 15.2441C6.85704 15.0483 7.04103 14.9047 7.23097 14.9522L8.89026 15.367C9.03865 15.4041 9.14275 15.5374 9.14275 15.6904V16.472C9.14275 16.5378 9.16223 16.6022 9.19874 16.6569L10.1867 18.1388C10.2485 18.2315 10.3526 18.2872 10.464 18.2872H10.6314C10.7677 18.2872 10.8902 18.2043 10.9409 18.0777L11.7242 16.1193C11.831 15.8523 12.2032 15.8368 12.3319 16.094L12.5471 16.5246C12.5632 16.5566 12.5842 16.5859 12.6096 16.6112L13.6759 17.6776C13.7013 17.7029 13.7305 17.724 13.7626 17.74L14.3746 18.046C14.5963 18.1569 14.857 17.9957 14.857 17.7479V17.2825C14.857 17.1941 14.8219 17.1093 14.7594 17.0468L14.5213 16.8087C14.3911 16.6785 14.3911 16.4674 14.5213 16.3373L14.7594 16.0992C14.8219 16.0367 14.9067 16.0015 14.9951 16.0015H15.9212C15.973 16.0015 16.024 15.9895 16.0703 15.9663L16.9585 15.5222C17.0714 15.4658 17.1428 15.3504 17.1428 15.2241V14.4253C17.1428 14.3369 17.1076 14.2521 17.0451 14.1896L16.807 13.9515C16.6769 13.8213 16.6769 13.6103 16.807 13.4801L17.3872 12.9C17.548 12.7391 17.8193 12.7831 17.921 12.9866L18.215 13.5746C18.2583 13.6611 18.3468 13.7158 18.4435 13.7158C18.6335 13.7158 18.7571 13.5159 18.6721 13.346L18.4347 12.8711C18.3524 12.7064 18.4191 12.5062 18.5838 12.4239L19.1303 12.1506C19.295 12.0683 19.3617 11.8681 19.2794 11.7034L18.9188 10.9822C18.8792 10.9031 18.8099 10.843 18.7261 10.815L17.6544 10.4578C17.4193 10.3794 17.3489 10.0811 17.5241 9.90587L18.188 9.24202C18.2505 9.17951 18.3353 9.14439 18.4237 9.14439H19.7939C19.9201 9.14439 20.0356 9.07306 20.092 8.96013L20.3529 8.43835C20.4579 8.22839 20.3187 7.97857 20.0849 7.95732L14.9596 7.49138C14.692 7.46705 14.5741 7.14157 14.7642 6.95153C14.8236 6.89208 14.857 6.81144 14.857 6.72737V6.04915C14.857 5.86506 14.7078 5.71582 14.5237 5.71582H12.138C12.0496 5.71582 11.9648 5.75094 11.9023 5.81345L10.3509 7.36482C10.3082 7.40754 10.2546 7.43785 10.196 7.4525L7.9999 8.00153L5.83381 8.54306C5.75661 8.56236 5.67506 8.5534 5.60389 8.51782L5.2911 8.36142C5.02549 8.22862 4.73189 8.48325 4.8258 8.76498L5.09909 9.58483C5.12705 9.6687 5.12054 9.76024 5.081 9.83931L4.7204 10.5605ZM12.5713 17.7156C12.5713 18.0312 12.3155 18.2871 11.9999 18.2871C11.6843 18.2871 11.4284 18.0312 11.4284 17.7156C11.4284 17.4001 11.6843 17.1442 11.9999 17.1442C12.3155 17.1442 12.5713 17.4001 12.5713 17.7156ZM8.57129 12.5729C8.88688 12.5729 9.14272 12.3171 9.14272 12.0015C9.14272 11.6859 8.88688 11.4301 8.57129 11.4301C8.2557 11.4301 7.99986 11.6859 7.99986 12.0015C7.99986 12.3171 8.2557 12.5729 8.57129 12.5729ZM19.4285 14.2871V14.8585L18.8546 15.4323C18.6447 15.6423 18.7934 16.0014 19.0903 16.0014H19.2225C19.3487 16.0014 19.4641 15.93 19.5206 15.8171L19.9999 14.8585L19.4285 14.2871ZM19.4285 14.2871L19.7443 14.1291C19.9503 14.0261 19.8771 13.7156 19.6467 13.7156C19.5262 13.7156 19.4285 13.8134 19.4285 13.9339V14.2871Z" fill="white"/>
</g>
</svg>
