<svg width="24" height="24" viewBox="0 0 24 24" fill="none" xmlns="http://www.w3.org/2000/svg">
<rect y="3.42993" width="24" height="17.1429" rx="2" fill="white"/>
<mask id="mask0_91_2278" style="mask-type:luminance" maskUnits="userSpaceOnUse" x="0" y="3" width="24" height="18">
<rect y="3.42993" width="24" height="17.1429" rx="2" fill="white"/>
</mask>
<g mask="url(#mask0_91_2278)">
<path fill-rule="evenodd" clip-rule="evenodd" d="M0 20.5728H24V3.42993H0V20.5728Z" fill="#30C375"/>
<rect x="3.42847" y="3.42993" width="3.42857" height="17.1429" fill="#DE414F"/>
<path fill-rule="evenodd" clip-rule="evenodd" d="M5.14275 6.85847C6.08953 6.85847 6.85704 6.34679 6.85704 5.71561C6.85704 5.08443 6.08953 4.57275 5.14275 4.57275C4.19598 4.57275 3.42847 5.08443 3.42847 5.71561C3.42847 6.34679 4.19598 6.85847 5.14275 6.85847Z" fill="white"/>
<mask id="mask1_91_2278" style="mask-type:luminance" maskUnits="userSpaceOnUse" x="3" y="4" width="4" height="3">
<path fill-rule="evenodd" clip-rule="evenodd" d="M5.14275 6.85847C6.08953 6.85847 6.85704 6.34679 6.85704 5.71561C6.85704 5.08443 6.08953 4.57275 5.14275 4.57275C4.19598 4.57275 3.42847 5.08443 3.42847 5.71561C3.42847 6.34679 4.19598 6.85847 5.14275 6.85847Z" fill="white"/>
</mask>
<g mask="url(#mask1_91_2278)">
<path fill-rule="evenodd" clip-rule="evenodd" d="M5.14272 6.28714C5.45831 6.28714 5.71415 6.03131 5.71415 5.71572C5.71415 5.40012 5.45831 5.14429 5.14272 5.14429C4.82713 5.14429 4.57129 5.40012 4.57129 5.71572C4.57129 6.03131 4.82713 6.28714 5.14272 6.28714Z" fill="#DD404F"/>
<rect x="3.42847" y="4.57275" width="1.71429" height="1.14286" fill="#FBAF29"/>
<rect x="5.14282" y="5.71558" width="1.71429" height="1.14286" fill="#FBAF29"/>
</g>
<path fill-rule="evenodd" clip-rule="evenodd" d="M5.14275 19.43C6.08953 19.43 6.85704 18.9183 6.85704 18.2871C6.85704 17.656 6.08953 17.1443 5.14275 17.1443C4.19598 17.1443 3.42847 17.656 3.42847 18.2871C3.42847 18.9183 4.19598 19.43 5.14275 19.43Z" fill="white"/>
<mask id="mask2_91_2278" style="mask-type:luminance" maskUnits="userSpaceOnUse" x="3" y="17" width="4" height="3">
<path fill-rule="evenodd" clip-rule="evenodd" d="M5.14275 19.43C6.08953 19.43 6.85704 18.9183 6.85704 18.2871C6.85704 17.656 6.08953 17.1443 5.14275 17.1443C4.19598 17.1443 3.42847 17.656 3.42847 18.2871C3.42847 18.9183 4.19598 19.43 5.14275 19.43Z" fill="white"/>
</mask>
<g mask="url(#mask2_91_2278)">
<path fill-rule="evenodd" clip-rule="evenodd" d="M5.14272 18.8587C5.45831 18.8587 5.71415 18.6028 5.71415 18.2872C5.71415 17.9717 5.45831 17.7158 5.14272 17.7158C4.82713 17.7158 4.57129 17.9717 4.57129 18.2872C4.57129 18.6028 4.82713 18.8587 5.14272 18.8587Z" fill="#DD404F"/>
<rect x="3.42847" y="17.1443" width="1.71429" height="1.14286" fill="#FBAF29"/>
<rect x="5.14282" y="18.2871" width="1.71429" height="1.14286" fill="#FBAF29"/>
</g>
<path fill-rule="evenodd" clip-rule="evenodd" d="M5.14275 13.7156C6.08953 13.7156 6.85704 13.204 6.85704 12.5728C6.85704 11.9416 6.08953 11.4299 5.14275 11.4299C4.19598 11.4299 3.42847 11.9416 3.42847 12.5728C3.42847 13.204 4.19598 13.7156 5.14275 13.7156Z" fill="#28AE67"/>
<mask id="mask3_91_2278" style="mask-type:luminance" maskUnits="userSpaceOnUse" x="3" y="11" width="4" height="3">
<path fill-rule="evenodd" clip-rule="evenodd" d="M5.14275 13.7156C6.08953 13.7156 6.85704 13.204 6.85704 12.5728C6.85704 11.9416 6.08953 11.4299 5.14275 11.4299C4.19598 11.4299 3.42847 11.9416 3.42847 12.5728C3.42847 13.204 4.19598 13.7156 5.14275 13.7156Z" fill="white"/>
</mask>
<g mask="url(#mask3_91_2278)">
<path fill-rule="evenodd" clip-rule="evenodd" d="M5.14286 13.1443C5.77404 13.1443 6.28571 12.8885 6.28571 12.5729C6.28571 12.2573 5.77404 12.0015 5.14286 12.0015C4.51167 12.0015 4 12.2573 4 12.5729C4 12.8885 4.51167 13.1443 5.14286 13.1443Z" fill="#DD404F"/>
</g>
<path fill-rule="evenodd" clip-rule="evenodd" d="M5.14275 16.0013C6.08953 16.0013 6.85704 15.7454 6.85704 15.4298C6.85704 15.1142 6.08953 14.8584 5.14275 14.8584C4.19598 14.8584 3.42847 15.1142 3.42847 15.4298C3.42847 15.7454 4.19598 16.0013 5.14275 16.0013Z" fill="#28AE67"/>
<mask id="mask4_91_2278" style="mask-type:luminance" maskUnits="userSpaceOnUse" x="3" y="14" width="4" height="3">
<path fill-rule="evenodd" clip-rule="evenodd" d="M5.14275 16.0013C6.08953 16.0013 6.85704 15.7454 6.85704 15.4298C6.85704 15.1142 6.08953 14.8584 5.14275 14.8584C4.19598 14.8584 3.42847 15.1142 3.42847 15.4298C3.42847 15.7454 4.19598 16.0013 5.14275 16.0013Z" fill="white"/>
</mask>
<g mask="url(#mask4_91_2278)">
</g>
<path fill-rule="evenodd" clip-rule="evenodd" d="M5.14275 10.2869C6.08953 10.2869 6.85704 9.77526 6.85704 9.14408C6.85704 8.5129 6.08953 8.00122 5.14275 8.00122C4.19598 8.00122 3.42847 8.5129 3.42847 9.14408C3.42847 9.77526 4.19598 10.2869 5.14275 10.2869Z" fill="#FBAF29"/>
<mask id="mask5_91_2278" style="mask-type:luminance" maskUnits="userSpaceOnUse" x="3" y="8" width="4" height="3">
<path fill-rule="evenodd" clip-rule="evenodd" d="M5.14275 10.2869C6.08953 10.2869 6.85704 9.77526 6.85704 9.14408C6.85704 8.5129 6.08953 8.00122 5.14275 8.00122C4.19598 8.00122 3.42847 8.5129 3.42847 9.14408C3.42847 9.77526 4.19598 10.2869 5.14275 10.2869Z" fill="white"/>
</mask>
<g mask="url(#mask5_91_2278)">
<path fill-rule="evenodd" clip-rule="evenodd" d="M5.14272 9.71561C5.45831 9.71561 5.71415 9.45977 5.71415 9.14418C5.71415 8.82859 5.45831 8.57275 5.14272 8.57275C4.82713 8.57275 4.57129 8.82859 4.57129 9.14418C4.57129 9.45977 4.82713 9.71561 5.14272 9.71561Z" fill="#DD404F"/>
<rect x="3.42847" y="8.00122" width="1.14286" height="2.28571" fill="#28AE67"/>
<rect x="5.71411" y="8.00122" width="1.14286" height="2.28571" fill="#28AE67"/>
</g>
<path fill-rule="evenodd" clip-rule="evenodd" d="M12.7051 7.06254C12.5022 7.3043 12.5338 7.66473 12.7755 7.86759C13.0173 8.07045 13.3777 8.03892 13.5806 7.79716C13.7834 7.5554 13.7519 7.19497 13.5101 6.99211C13.2684 6.78925 12.908 6.82079 12.7051 7.06254ZM11.2244 9.27785C10.9826 9.07499 10.6222 9.10653 10.4194 9.34828C10.2165 9.59004 10.248 9.95047 10.4898 10.1533C10.7315 10.3562 11.092 10.3247 11.2948 10.0829C11.4977 9.84114 11.4662 9.48071 11.2244 9.27785ZM10.0816 8.13502C9.83981 7.93216 9.47938 7.96369 9.27652 8.20545C9.07367 8.44721 9.1052 8.80764 9.34696 9.0105C9.58871 9.21335 9.94915 9.18182 10.152 8.94006C10.3549 8.69831 10.3233 8.33787 10.0816 8.13502ZM12.3673 5.84928C12.1256 5.64642 11.7651 5.67795 11.5623 5.91971C11.3594 6.16147 11.3909 6.5219 11.6327 6.72476C11.8745 6.92762 12.2349 6.89608 12.4377 6.65433C12.6406 6.41257 12.6091 6.05214 12.3673 5.84928ZM11.7959 7.56356C11.5541 7.36071 11.1937 7.39224 10.9908 7.634C10.788 7.87575 10.8195 8.23619 11.0612 8.43904C11.303 8.6419 11.6634 8.61037 11.8663 8.36861C12.0691 8.12685 12.0376 7.76642 11.7959 7.56356Z" fill="white"/>
<path fill-rule="evenodd" clip-rule="evenodd" d="M14.9795 11.5303C13.6183 12.8915 11.4114 12.8915 10.0502 11.5303C9.91832 11.3984 9.79921 11.2586 9.69287 11.1123C11.0558 12.1034 12.9749 11.9843 14.2042 10.755C15.4335 9.52568 15.5526 7.60662 14.5615 6.24365C14.7078 6.34999 14.8476 6.4691 14.9795 6.601C16.3407 7.96218 16.3407 10.1691 14.9795 11.5303Z" fill="white"/>
</g>
</svg>
