<svg width="24" height="24" viewBox="0 0 24 24" fill="none" xmlns="http://www.w3.org/2000/svg">
<rect y="3.42993" width="24" height="17.1429" rx="2" fill="white"/>
<mask id="mask0_91_1702" style="mask-type:luminance" maskUnits="userSpaceOnUse" x="0" y="3" width="24" height="18">
<rect y="3.42993" width="24" height="17.1429" rx="2" fill="white"/>
</mask>
<g mask="url(#mask0_91_1702)">
<path fill-rule="evenodd" clip-rule="evenodd" d="M24 3.42993V12.0014H0V3.42993H24Z" fill="#29C53F"/>
<path fill-rule="evenodd" clip-rule="evenodd" d="M24 12.0015V21.1443H0V12.0015H24Z" fill="#579DED"/>
<path fill-rule="evenodd" clip-rule="evenodd" d="M0 20.5728L24 12.0014L0 3.42993V20.5728Z" fill="#F42D56"/>
<path fill-rule="evenodd" clip-rule="evenodd" d="M7.42847 14.6679C8.90123 14.6679 10.0951 13.474 10.0951 12.0012C10.0951 10.5285 8.90123 9.33455 7.42847 9.33455C5.95571 9.33455 4.7618 10.5285 4.7618 12.0012C4.7618 13.474 5.95571 14.6679 7.42847 14.6679ZM11.4285 12.0012C11.4285 14.2104 9.63761 16.0012 7.42847 16.0012C5.21933 16.0012 3.42847 14.2104 3.42847 12.0012C3.42847 9.79208 5.21933 8.00122 7.42847 8.00122C9.63761 8.00122 11.4285 9.79208 11.4285 12.0012Z" fill="#FFC63C"/>
<path fill-rule="evenodd" clip-rule="evenodd" d="M6.85707 11.43C7.17266 11.43 7.4285 11.1741 7.4285 10.8585C7.4285 10.5429 7.17266 10.2871 6.85707 10.2871C6.54148 10.2871 6.28564 10.5429 6.28564 10.8585C6.28564 11.1741 6.54148 11.43 6.85707 11.43Z" fill="#FFC63C"/>
<path fill-rule="evenodd" clip-rule="evenodd" d="M8.00014 12.0015C8.31573 12.0015 8.57157 11.7457 8.57157 11.4301C8.57157 11.1145 8.31573 10.8586 8.00014 10.8586C7.68455 10.8586 7.42871 11.1145 7.42871 11.4301C7.42871 11.7457 7.68455 12.0015 8.00014 12.0015Z" fill="#FFC63C"/>
<path fill-rule="evenodd" clip-rule="evenodd" d="M7.42861 10.8584C7.7442 10.8584 8.00003 10.6026 8.00003 10.287C8.00003 9.97141 7.7442 9.71558 7.42861 9.71558C7.11301 9.71558 6.85718 9.97141 6.85718 10.287C6.85718 10.6026 7.11301 10.8584 7.42861 10.8584Z" fill="#FFC63C"/>
<path fill-rule="evenodd" clip-rule="evenodd" d="M6.85707 12.5728C7.17266 12.5728 7.4285 12.317 7.4285 12.0014C7.4285 11.6858 7.17266 11.4299 6.85707 11.4299C6.54148 11.4299 6.28564 11.6858 6.28564 12.0014C6.28564 12.317 6.54148 12.5728 6.85707 12.5728Z" fill="#FFC63C"/>
<path fill-rule="evenodd" clip-rule="evenodd" d="M8.00014 13.1443C8.31573 13.1443 8.57157 12.8885 8.57157 12.5729C8.57157 12.2573 8.31573 12.0015 8.00014 12.0015C7.68455 12.0015 7.42871 12.2573 7.42871 12.5729C7.42871 12.8885 7.68455 13.1443 8.00014 13.1443Z" fill="#FFC63C"/>
<path fill-rule="evenodd" clip-rule="evenodd" d="M6.85707 13.7156C7.17266 13.7156 7.4285 13.4598 7.4285 13.1442C7.4285 12.8286 7.17266 12.5728 6.85707 12.5728C6.54148 12.5728 6.28564 12.8286 6.28564 13.1442C6.28564 13.4598 6.54148 13.7156 6.85707 13.7156Z" fill="#FFC63C"/>
<path fill-rule="evenodd" clip-rule="evenodd" d="M8.00014 14.2871C8.31573 14.2871 8.57157 14.0313 8.57157 13.7157C8.57157 13.4001 8.31573 13.1443 8.00014 13.1443C7.68455 13.1443 7.42871 13.4001 7.42871 13.7157C7.42871 14.0313 7.68455 14.2871 8.00014 14.2871Z" fill="#FFC63C"/>
</g>
</svg>
