<svg width="24" height="24" viewBox="0 0 24 24" fill="none" xmlns="http://www.w3.org/2000/svg">
<rect x="0.25" y="3.67993" width="23.5" height="16.6429" rx="1.75" fill="white" stroke="#F5F5F5" stroke-width="0.5"/>
<mask id="mask0_91_1593" style="mask-type:luminance" maskUnits="userSpaceOnUse" x="0" y="3" width="24" height="18">
<rect x="0.25" y="3.67993" width="23.5" height="16.6429" rx="1.75" fill="white" stroke="white" stroke-width="0.5"/>
</mask>
<g mask="url(#mask0_91_1593)">
<path fill-rule="evenodd" clip-rule="evenodd" d="M0 9.14422H24V3.42993H0V9.14422Z" fill="#E41D33"/>
<path fill-rule="evenodd" clip-rule="evenodd" d="M0 20.5727H24V14.8584H0V20.5727Z" fill="#262626"/>
<path fill-rule="evenodd" clip-rule="evenodd" d="M9.14282 10.9538C9.14282 10.5856 9.4413 10.2871 9.80949 10.2871H10.0797C10.2059 10.2871 10.3213 10.3584 10.3778 10.4714L10.8571 11.43C10.8571 11.43 11.4849 10.2871 12 10.2871C12.5714 10.2871 13.1428 11.43 13.1428 11.43L13.6221 10.4714C13.6786 10.3584 13.794 10.2871 13.9203 10.2871H14.1904C14.5586 10.2871 14.8571 10.5856 14.8571 10.9538V12.47C14.8571 13.0025 14.2637 13.3201 13.8206 13.0247L13.1428 12.5728H12.5714V13.1443C12.5714 13.4598 12.3156 13.7157 12 13.7157C11.6844 13.7157 11.4285 13.4598 11.4285 13.1443V12.5728H10.8571L10.1793 13.0247C9.73625 13.3201 9.14282 13.0025 9.14282 12.47V10.9538Z" fill="#F4B32E" fill-opacity="0.25"/>
<path fill-rule="evenodd" clip-rule="evenodd" d="M10.4262 12.0589L9.87366 10.9538H9.80949L9.80949 12.47L10.4262 12.0589ZM10.8571 12.5728L10.1793 13.0247C9.73625 13.3201 9.14282 13.0025 9.14282 12.47V10.9538C9.14282 10.5856 9.4413 10.2871 9.80949 10.2871H10.0797C10.2059 10.2871 10.3213 10.3584 10.3778 10.4714L10.8571 11.43C10.8571 11.43 11.038 11.1007 11.2853 10.7956C11.4986 10.5323 11.7614 10.2871 12 10.2871C12.2588 10.2871 12.5176 10.5216 12.7234 10.7782C12.9718 11.088 13.1428 11.43 13.1428 11.43L13.6221 10.4714C13.6786 10.3584 13.794 10.2871 13.9203 10.2871H14.1904C14.5586 10.2871 14.8571 10.5856 14.8571 10.9538V12.47C14.8571 13.0025 14.2637 13.3201 13.8206 13.0247L13.1428 12.5728H12.5714V13.1443C12.5714 13.4598 12.3156 13.7157 12 13.7157C11.6844 13.7157 11.4285 13.4598 11.4285 13.1443V12.5728H10.8571ZM13.5737 12.0589L14.1904 12.47V10.9538H14.1263L13.5737 12.0589ZM12.6356 11.9062H11.3562L11.441 11.7517L11.4449 11.7448L11.4614 11.716C11.4765 11.6899 11.4995 11.6514 11.5287 11.6045C11.588 11.5095 11.6697 11.3865 11.7624 11.2668C11.8526 11.1504 11.9389 11.0559 12.012 10.9935C12.0829 11.0521 12.166 11.1434 12.2523 11.2585C12.3395 11.3747 12.4146 11.4945 12.4688 11.5873C12.4954 11.633 12.516 11.6705 12.5295 11.6957L12.544 11.7231L12.5467 11.7285L12.6356 11.9062ZM11.9434 10.9458C11.9427 10.9456 11.9424 10.9454 11.9424 10.9454L11.9434 10.9458Z" fill="#C6A846"/>
</g>
</svg>
