<svg width="24" height="24" viewBox="0 0 24 24" fill="none" xmlns="http://www.w3.org/2000/svg">
<rect x="0.25" y="3.67993" width="23.5" height="16.6429" rx="1.75" fill="white" stroke="#F5F5F5" stroke-width="0.5"/>
<mask id="mask0_91_3332" style="mask-type:luminance" maskUnits="userSpaceOnUse" x="0" y="3" width="24" height="18">
<rect x="0.25" y="3.67993" width="23.5" height="16.6429" rx="1.75" fill="white" stroke="white" stroke-width="0.5"/>
</mask>
<g mask="url(#mask0_91_3332)">
<path fill-rule="evenodd" clip-rule="evenodd" d="M0 12.5728H24V3.42993H0V12.5728Z" fill="#E12237"/>
<path fill-rule="evenodd" clip-rule="evenodd" d="M5.71422 11.4301C6.52428 11.4301 7.26874 11.1492 7.85546 10.6794C7.54467 10.7954 7.20827 10.8587 6.85707 10.8587C5.27912 10.8587 3.99993 9.57955 3.99993 8.00159C3.99993 6.42364 5.27912 5.14445 6.85707 5.14445C7.20831 5.14445 7.54475 5.20783 7.85557 5.32378C7.26883 4.85397 6.52433 4.573 5.71422 4.573C3.82067 4.573 2.28564 6.10802 2.28564 8.00157C2.28564 9.89512 3.82067 11.4301 5.71422 11.4301ZM6.85707 7.43016C6.85707 7.74576 6.60124 8.00159 6.28564 8.00159C5.97005 8.00159 5.71422 7.74576 5.71422 7.43016C5.71422 7.11457 5.97005 6.85874 6.28564 6.85874C6.60124 6.85874 6.85707 7.11457 6.85707 7.43016ZM7.42848 10.2873C7.74407 10.2873 7.99991 10.0314 7.99991 9.71583C7.99991 9.40024 7.74407 9.1444 7.42848 9.1444C7.11289 9.1444 6.85705 9.40024 6.85705 9.71583C6.85705 10.0314 7.11289 10.2873 7.42848 10.2873ZM10.2856 9.71583C10.2856 10.0314 10.0298 10.2873 9.71422 10.2873C9.39862 10.2873 9.14279 10.0314 9.14279 9.71583C9.14279 9.40024 9.39862 9.1444 9.71422 9.1444C10.0298 9.1444 10.2856 9.40024 10.2856 9.71583ZM10.857 8.00159C11.1726 8.00159 11.4285 7.74576 11.4285 7.43016C11.4285 7.11457 11.1726 6.85874 10.857 6.85874C10.5415 6.85874 10.2856 7.11457 10.2856 7.43016C10.2856 7.74576 10.5415 8.00159 10.857 8.00159ZM9.14281 5.71588C9.14281 6.03147 8.88697 6.28731 8.57138 6.28731C8.25579 6.28731 7.99995 6.03147 7.99995 5.71588C7.99995 5.40029 8.25579 5.14445 8.57138 5.14445C8.88697 5.14445 9.14281 5.40029 9.14281 5.71588Z" fill="white"/>
</g>
</svg>
