<svg width="24" height="24" viewBox="0 0 24 24" fill="none" xmlns="http://www.w3.org/2000/svg">
<rect x="0.25" y="3.67993" width="23.5" height="16.6429" rx="1.75" fill="white" stroke="#F5F5F5" stroke-width="0.5"/>
<mask id="mask0_91_2316" style="mask-type:luminance" maskUnits="userSpaceOnUse" x="0" y="3" width="24" height="18">
<rect x="0.25" y="3.67993" width="23.5" height="16.6429" rx="1.75" fill="white" stroke="white" stroke-width="0.5"/>
</mask>
<g mask="url(#mask0_91_2316)">
<path fill-rule="evenodd" clip-rule="evenodd" d="M0 8.00136H24V3.42993H0V8.00136Z" fill="#F03340"/>
<path fill-rule="evenodd" clip-rule="evenodd" d="M0 20.5729H24V16.0015H0V20.5729Z" fill="#F03340"/>
<path fill-rule="evenodd" clip-rule="evenodd" d="M11.0939 14.0503C11.2788 13.8654 11.2788 13.5657 11.0939 13.3808L11.0281 13.3151C10.9221 13.209 10.7682 13.1664 10.6227 13.2028L10.2976 13.284C9.91731 13.3791 9.68128 12.8832 9.99488 12.648L10.2886 12.4277C10.4708 12.2911 10.3741 12.0013 10.1465 12.0013C9.89648 12.0013 9.81693 11.6643 10.0405 11.5525L10.531 11.3072C10.7546 11.1954 10.6751 10.8584 10.4251 10.8584C10.1974 10.8584 10.1008 10.5686 10.2829 10.432L11.6001 9.44412C11.8371 9.26635 12.163 9.26635 12.4001 9.44412L13.7172 10.432C13.8993 10.5686 13.8027 10.8584 13.575 10.8584C13.3251 10.8584 13.2455 11.1954 13.4691 11.3072L13.9596 11.5525C14.1832 11.6643 14.1036 12.0013 13.8536 12.0013C13.626 12.0013 13.5294 12.2911 13.7115 12.4277L14.0052 12.648C14.3188 12.8832 14.0828 13.3791 13.7025 13.284L13.3774 13.2028C13.2319 13.1664 13.078 13.209 12.972 13.3151L12.9062 13.3808C12.7214 13.5657 12.7214 13.8654 12.9062 14.0503C13.2044 14.3485 12.9932 14.8584 12.5715 14.8584H11.4286C11.0069 14.8584 10.7957 14.3485 11.0939 14.0503Z" fill="#1FC065"/>
</g>
</svg>
