<svg width="24" height="24" viewBox="0 0 24 24" fill="none" xmlns="http://www.w3.org/2000/svg">
<rect x="0.25" y="3.67993" width="23.5" height="16.6429" rx="1.75" fill="white" stroke="#F5F5F5" stroke-width="0.5"/>
<mask id="mask0_91_3443" style="mask-type:luminance" maskUnits="userSpaceOnUse" x="0" y="3" width="24" height="18">
<rect x="0.25" y="3.67993" width="23.5" height="16.6429" rx="1.75" fill="white" stroke="white" stroke-width="0.5"/>
</mask>
<g mask="url(#mask0_91_3443)">
<path fill-rule="evenodd" clip-rule="evenodd" d="M0 6.8585H24V3.42993H0V6.8585Z" fill="#0B389F"/>
<path fill-rule="evenodd" clip-rule="evenodd" d="M0 13.7154H24V10.2869H0V13.7154Z" fill="#0B389F"/>
<path fill-rule="evenodd" clip-rule="evenodd" d="M0 20.5729H24V17.1443H0V20.5729Z" fill="#0B389F"/>
<path fill-rule="evenodd" clip-rule="evenodd" d="M0 3.42993L11.4286 12.0014L0 20.5728V3.42993Z" fill="#E12A43"/>
<path fill-rule="evenodd" clip-rule="evenodd" d="M3.99958 12.8779L2.65607 13.8505L3.16589 12.2722L1.82574 11.295L3.48433 11.2921L3.99958 9.71558L4.51483 11.2921L6.17342 11.295L4.83327 12.2722L5.34309 13.8505L3.99958 12.8779Z" fill="white"/>
</g>
</svg>
