<svg width="24" height="24" viewBox="0 0 24 24" fill="none" xmlns="http://www.w3.org/2000/svg">
<rect x="0.25" y="3.67993" width="23.5" height="16.6429" rx="1.75" fill="white" stroke="#F5F5F5" stroke-width="0.5"/>
<mask id="mask0_91_3452" style="mask-type:luminance" maskUnits="userSpaceOnUse" x="0" y="3" width="24" height="18">
<rect x="0.25" y="3.67993" width="23.5" height="16.6429" rx="1.75" fill="white" stroke="white" stroke-width="0.5"/>
</mask>
<g mask="url(#mask0_91_3452)">
<path fill-rule="evenodd" clip-rule="evenodd" d="M17.1433 6.287C17.4545 6.13139 17.7704 6.48921 17.5774 6.77873L17.2009 7.3434C17.1629 7.40048 17.1139 7.44945 17.0568 7.4875L15.4839 8.5361C15.4474 8.56045 15.4134 8.58835 15.3823 8.6194L15.329 8.67274C15.0686 8.93309 15.0686 9.3552 15.329 9.61555L15.529 9.8156C15.7894 10.076 15.7894 10.4981 15.529 10.7584L15.1973 11.0901C14.9944 11.293 14.6844 11.3433 14.4278 11.215L14.311 11.1566C13.9817 10.9919 13.5812 11.1254 13.4166 11.4547L13.2668 11.7543C13.1877 11.9124 13.049 12.0327 12.8813 12.0886L11.5316 12.5385C11.4636 12.5612 11.3925 12.5727 11.3208 12.5727H10.6982C10.4456 12.5727 10.2148 12.7154 10.1019 12.9412L10.0128 13.1193C9.84819 13.4486 9.44774 13.5821 9.11842 13.4174L7.52575 12.6211C7.46166 12.5891 7.40316 12.5469 7.35249 12.4962L6.48139 11.6251C6.35637 11.5001 6.28613 11.3305 6.28613 11.1537V10.6911C6.28613 10.4679 6.46704 10.287 6.69019 10.287C6.79736 10.287 6.90013 10.2444 6.97591 10.1687L7.80516 9.33941C7.93018 9.21439 8.09975 9.14415 8.27656 9.14415H8.66277C8.94972 9.14415 9.20448 8.96053 9.29522 8.6883L9.5286 7.98818C9.63492 7.66922 9.96211 7.47934 10.2918 7.54528L12.4248 7.97189C12.5216 7.99125 12.6215 7.98887 12.7173 7.96493L14.7866 7.44761C14.8338 7.43581 14.8795 7.41889 14.923 7.39713L16.0004 6.85843L17.1433 6.287Z" fill="#E7832C"/>
<path fill-rule="evenodd" clip-rule="evenodd" d="M12.0001 17.1441C12.3157 17.1441 12.5716 16.8882 12.5716 16.5726C12.5716 16.2571 12.3157 16.0012 12.0001 16.0012C11.6845 16.0012 11.4287 16.2571 11.4287 16.5726C11.4287 16.8882 11.6845 17.1441 12.0001 17.1441Z" fill="#445128"/>
<path opacity="0.75" fill-rule="evenodd" clip-rule="evenodd" d="M7.70218 13.6906C7.37286 13.8553 7.23937 14.2558 7.40403 14.5851C7.77936 15.3357 8.49205 15.846 9.0267 16.1515C9.30534 16.3107 9.56262 16.4294 9.75054 16.5085C9.84493 16.5482 9.92293 16.5785 9.97877 16.5992C10.0067 16.6096 10.0292 16.6177 10.0455 16.6234L10.0652 16.6303L10.0715 16.6324L10.0737 16.6332L10.0749 16.6336C10.0751 16.6336 10.0752 16.6337 10.286 16.0012L10.0749 16.6336C10.4242 16.75 10.8021 16.5613 10.9185 16.212C11.0349 15.8629 10.8463 15.4856 10.4974 15.3689C10.4974 15.369 10.4973 15.3689 10.4974 15.3689L10.4878 15.3656C10.4787 15.3624 10.4638 15.3571 10.4437 15.3496C10.4036 15.3347 10.3432 15.3113 10.268 15.2796C10.1166 15.2159 9.90958 15.1203 9.68822 14.9938C9.22287 14.7279 8.7927 14.381 8.5966 13.9888C8.43194 13.6595 8.03149 13.526 7.70218 13.6906Z" fill="#445128"/>
<path opacity="0.75" fill-rule="evenodd" clip-rule="evenodd" d="M16.2983 13.6906C16.6276 13.8553 16.7611 14.2558 16.5965 14.5851C16.2211 15.3357 15.5084 15.846 14.9738 16.1515C14.6951 16.3107 14.4379 16.4294 14.2499 16.5085C14.1556 16.5482 14.0776 16.5785 14.0217 16.5992C13.9938 16.6096 13.9713 16.6177 13.955 16.6234L13.9353 16.6303L13.929 16.6324L13.9268 16.6332L13.9256 16.6336C13.9254 16.6336 13.9253 16.6337 13.7145 16.0012L13.9256 16.6336C13.5763 16.75 13.1984 16.5613 13.082 16.212C12.9656 15.8629 13.1542 15.4856 13.5031 15.3689C13.503 15.369 13.5032 15.3689 13.5031 15.3689L13.5127 15.3656C13.5218 15.3624 13.5367 15.3571 13.5567 15.3496C13.5969 15.3347 13.6573 15.3113 13.7325 15.2796C13.8839 15.2159 14.0909 15.1203 14.3123 14.9938C14.7776 14.7279 15.2078 14.381 15.4039 13.9888C15.5685 13.6595 15.969 13.526 16.2983 13.6906Z" fill="#445128"/>
</g>
</svg>
