<svg width="24" height="24" viewBox="0 0 24 24" fill="none" xmlns="http://www.w3.org/2000/svg">
<rect y="3.42993" width="24" height="17.1429" rx="2" fill="white"/>
<mask id="mask0_91_1280" style="mask-type:luminance" maskUnits="userSpaceOnUse" x="0" y="3" width="24" height="18">
<rect y="3.42993" width="24" height="17.1429" rx="2" fill="white"/>
</mask>
<g mask="url(#mask0_91_1280)">
<rect y="3.42993" width="24" height="17.1429" fill="url(#paint0_linear_91_1280)"/>
<path fill-rule="evenodd" clip-rule="evenodd" d="M14.8572 12.0012C14.8572 11.1353 14.8572 10.1235 14.8572 9.33419C14.8572 8.59782 15.4541 8.00122 16.1905 8.00122H19.2381C19.9745 8.00122 20.5715 8.59782 20.5715 9.3342C20.5715 10.1235 20.5715 11.1353 20.5715 12.0012C20.5715 14.8584 17.7143 16.0012 17.7143 16.0012C17.7143 16.0012 14.8572 14.8584 14.8572 12.0012Z" fill="#8FC5FF"/>
<mask id="mask1_91_1280" style="mask-type:luminance" maskUnits="userSpaceOnUse" x="14" y="8" width="7" height="9">
<path fill-rule="evenodd" clip-rule="evenodd" d="M14.8572 12.0012C14.8572 11.1353 14.8572 10.1235 14.8572 9.33419C14.8572 8.59782 15.4541 8.00122 16.1905 8.00122H19.2381C19.9745 8.00122 20.5715 8.59782 20.5715 9.3342C20.5715 10.1235 20.5715 11.1353 20.5715 12.0012C20.5715 14.8584 17.7143 16.0012 17.7143 16.0012C17.7143 16.0012 14.8572 14.8584 14.8572 12.0012Z" fill="white"/>
</mask>
<g mask="url(#mask1_91_1280)">
<path fill-rule="evenodd" clip-rule="evenodd" d="M17.2199 13.6157C17.2199 13.6157 17.7919 12.875 18.1284 12.875C18.4648 12.875 18.5266 13.3668 19.0439 13.3668C19.5613 13.3668 19.8341 12.583 20.3324 12.583C20.8307 12.583 20.3324 15.1545 20.3324 15.1545L19.6572 15.8509L15.7046 16.3075L17.2199 13.6157Z" fill="#366CC9"/>
<path fill-rule="evenodd" clip-rule="evenodd" d="M15.5368 12.4739L16.0412 12.0015L16.5369 13.2149L17.2023 12.0015L17.7745 15.4604L16.8229 15.2668L13.7144 13.8455L15.5368 12.4739Z" fill="#CF6200"/>
<rect x="14.8572" y="8.00122" width="5.71429" height="3.42857" fill="#FFFF00"/>
</g>
<path d="M16.1902 8.33423H19.238C19.7904 8.33423 20.238 8.78206 20.238 9.33423V12.0012C20.238 13.3057 19.5891 14.222 18.9197 14.8245C18.5849 15.1257 18.2492 15.3445 17.9968 15.4875C17.8824 15.5524 17.7849 15.6004 17.7146 15.634C17.6443 15.6004 17.547 15.5525 17.4324 15.4875C17.18 15.3445 16.8435 15.1259 16.5085 14.8245C15.8392 14.222 15.1902 13.3056 15.1902 12.0012V9.33423C15.1902 8.78217 15.6379 8.3344 16.1902 8.33423Z" stroke="white" stroke-width="0.666667"/>
<mask id="mask2_91_1280" style="mask-type:luminance" maskUnits="userSpaceOnUse" x="14" y="8" width="7" height="9">
<path d="M16.1902 8.33423H19.238C19.7904 8.33423 20.238 8.78206 20.238 9.33423V12.0012C20.238 13.3057 19.5891 14.222 18.9197 14.8245C18.5849 15.1257 18.2492 15.3445 17.9968 15.4875C17.8824 15.5524 17.7849 15.6004 17.7146 15.634C17.6443 15.6004 17.547 15.5525 17.4324 15.4875C17.18 15.3445 16.8435 15.1259 16.5085 14.8245C15.8392 14.222 15.1902 13.3056 15.1902 12.0012V9.33423C15.1902 8.78217 15.6379 8.3344 16.1902 8.33423Z" fill="white" stroke="white" stroke-width="0.666667"/>
</mask>
<g mask="url(#mask2_91_1280)">
</g>
<path d="M10.6191 3.82935C10.6191 4.04465 10.515 4.24717 10.3398 4.37231L6.61914 7.02954V7.84692L10.1152 10.844C10.4833 11.1596 10.2593 11.7629 9.77441 11.7629C9.66587 11.7628 9.56006 11.7293 9.47168 11.6663L5.6084 8.90649H4.66699L0.176758 11.7122L-0.333008 12.0315V10.6868L-0.193359 10.5872L3.66699 7.82935V7.01099L-0.216797 3.68286L-0.901367 3.09692H0.678711L0.765625 3.15845L4.67773 5.95337H5.61914L10.1094 3.14771L10.6191 2.82837V3.82935Z" fill="#DB1E36" stroke="white" stroke-width="0.666667"/>
<path fill-rule="evenodd" clip-rule="evenodd" d="M0 6.28707V8.57279H4V11.3347C4 11.7029 4.29848 12.0014 4.66667 12.0014H5.61905C5.98724 12.0014 6.28571 11.7029 6.28571 11.3347V8.57279H10.1905C10.5587 8.57279 10.8571 8.27431 10.8571 7.90612V6.95374C10.8571 6.58555 10.5587 6.28707 10.1905 6.28707H6.28571V3.42993H4V6.28707H0Z" fill="white"/>
<path fill-rule="evenodd" clip-rule="evenodd" d="M0 6.8585H4.57143V6.28707V3.42993H5.71429V6.28707V6.8585H10.2857V8.00136H5.71429V8.57279V11.4299H4.57143V8.57279V8.00136H0V6.8585Z" fill="#DB1E36"/>
</g>
<defs>
<linearGradient id="paint0_linear_91_1280" x1="0" y1="3.42993" x2="0" y2="20.5728" gradientUnits="userSpaceOnUse">
<stop stop-color="#07319C"/>
<stop offset="1" stop-color="#00247E"/>
</linearGradient>
</defs>
</svg>
