<svg width="24" height="24" viewBox="0 0 24 24" fill="none" xmlns="http://www.w3.org/2000/svg">
<rect y="3.42993" width="24" height="17.1429" rx="2" fill="white"/>
<mask id="mask0_91_2606" style="mask-type:luminance" maskUnits="userSpaceOnUse" x="0" y="3" width="24" height="18">
<rect y="3.42993" width="24" height="17.1429" rx="2" fill="white"/>
</mask>
<g mask="url(#mask0_91_2606)">
<path fill-rule="evenodd" clip-rule="evenodd" d="M24 3.42993H11.4286V4.57279H24V3.42993ZM24 5.71567H11.4286V6.85853H24V5.71567ZM11.4286 8.00134H24V9.14419H11.4286V8.00134ZM24 10.2871H11.4286V11.4299H24V10.2871ZM0 12.5728H24V13.7157H0V12.5728ZM24 14.8585H0V16.0013H24V14.8585ZM0 17.1442H24V18.2871H0V17.1442ZM24 19.43H0V20.5728H24V19.43Z" fill="#E1244A"/>
<rect y="3.42993" width="13.7143" height="9.14286" fill="#0C3F8E"/>
<path fill-rule="evenodd" clip-rule="evenodd" d="M5.71422 11.4299C6.52428 11.4299 7.26874 11.149 7.85546 10.6792C7.54467 10.7951 7.20827 10.8585 6.85707 10.8585C5.27912 10.8585 3.99993 9.5793 3.99993 8.00135C3.99993 6.42339 5.27912 5.14421 6.85707 5.14421C7.20831 5.14421 7.54475 5.20759 7.85557 5.32353C7.26883 4.85372 6.52433 4.57275 5.71422 4.57275C3.82067 4.57275 2.28564 6.10778 2.28564 8.00133C2.28564 9.89487 3.82067 11.4299 5.71422 11.4299ZM8.1511 10.0607L9.14283 8.93845L10.1346 10.0607L9.87552 8.5856L11.3712 8.50992L10.0565 7.79277L10.9299 6.57618L9.54945 7.15697L9.14283 5.71559L8.73622 7.15697L7.35579 6.57618L8.22919 7.79277L6.91443 8.50992L8.41015 8.5856L8.1511 10.0607Z" fill="#FFD34F"/>
</g>
</svg>
