<svg width="24" height="24" viewBox="0 0 24 24" fill="none" xmlns="http://www.w3.org/2000/svg">
<rect x="0.25" y="3.67993" width="23.5" height="16.6429" rx="1.75" fill="white" stroke="#F5F5F5" stroke-width="0.5"/>
<mask id="mask0_91_2982" style="mask-type:luminance" maskUnits="userSpaceOnUse" x="0" y="3" width="24" height="18">
<rect x="0.25" y="3.67993" width="23.5" height="16.6429" rx="1.75" fill="white" stroke="white" stroke-width="0.5"/>
</mask>
<g mask="url(#mask0_91_2982)">
<rect x="16" y="3.42993" width="8" height="17.1429" fill="#E3283E"/>
<path fill-rule="evenodd" clip-rule="evenodd" d="M0 20.5728H8V3.42993H0V20.5728Z" fill="#128A60"/>
<path d="M10.381 11.4299C10.381 11.0617 10.0825 10.7633 9.71436 10.7633C9.34617 10.7633 9.04769 11.0617 9.04769 11.4299H10.381ZM10.52 13.985C10.8385 14.1698 11.2464 14.0614 11.4312 13.7429C11.616 13.4245 11.5076 13.0165 11.1892 12.8317L10.52 13.985ZM12.8707 12.7953C12.5606 12.9937 12.4699 13.4059 12.6683 13.7161C12.8667 14.0263 13.279 14.1169 13.5891 13.9185L12.8707 12.7953ZM14.9524 11.4299C14.9524 11.0617 14.654 10.7633 14.2858 10.7633C13.9176 10.7633 13.6191 11.0617 13.6191 11.4299H14.9524ZM9.04769 11.4299C9.04769 12.5222 9.64115 13.475 10.52 13.985L11.1892 12.8317C10.7045 12.5505 10.381 12.0276 10.381 11.4299H9.04769ZM13.5891 13.9185C14.4075 13.3951 14.9524 12.4764 14.9524 11.4299H13.6191C13.6191 12.0027 13.3222 12.5065 12.8707 12.7953L13.5891 13.9185Z" fill="#8C9157"/>
<path fill-rule="evenodd" clip-rule="evenodd" d="M12 12.5729C12.6312 12.5729 13.1429 11.8053 13.1429 10.8586C13.1429 9.9118 12.6312 9.14429 12 9.14429C11.3689 9.14429 10.8572 9.9118 10.8572 10.8586C10.8572 11.8053 11.3689 12.5729 12 12.5729Z" fill="#C59262"/>
</g>
</svg>
