<svg width="24" height="24" viewBox="0 0 24 24" fill="none" xmlns="http://www.w3.org/2000/svg">
<rect x="0.25" y="3.67993" width="23.5" height="16.6429" rx="1.75" fill="white" stroke="#F5F5F5" stroke-width="0.5"/>
<mask id="mask0_91_2657" style="mask-type:luminance" maskUnits="userSpaceOnUse" x="0" y="3" width="24" height="18">
<rect x="0.25" y="3.67993" width="23.5" height="16.6429" rx="1.75" fill="white" stroke="white" stroke-width="0.5"/>
</mask>
<g mask="url(#mask0_91_2657)">
<path fill-rule="evenodd" clip-rule="evenodd" d="M0 8.00136H24V3.42993H0V8.00136Z" fill="#FFCB49"/>
<path fill-rule="evenodd" clip-rule="evenodd" d="M0 16.0014H24V11.4299H0V16.0014Z" fill="#DC1D34"/>
<path fill-rule="evenodd" clip-rule="evenodd" d="M0 20.5729H24V16.0015H0V20.5729Z" fill="#4985D4"/>
<path fill-rule="evenodd" clip-rule="evenodd" d="M0 20.5728L11.4286 12.0014L0 3.42993V20.5728Z" fill="#4BA343"/>
<path fill-rule="evenodd" clip-rule="evenodd" d="M4.57139 15.4299C4.86737 15.4299 5.15458 15.3924 5.42854 15.3219C3.94977 14.9413 2.85711 13.5989 2.85711 12.0013C2.85711 10.4037 3.94977 9.06138 5.42854 8.68077C5.15458 8.61026 4.86737 8.57275 4.57139 8.57275C2.67785 8.57275 1.14282 10.1078 1.14282 12.0013C1.14282 13.8949 2.67785 15.4299 4.57139 15.4299ZM6.85715 9.71563C6.85715 10.0312 6.60132 10.2871 6.28573 10.2871C5.97013 10.2871 5.7143 10.0312 5.7143 9.71563C5.7143 9.40004 5.97013 9.14421 6.28573 9.14421C6.60132 9.14421 6.85715 9.40004 6.85715 9.71563ZM6.28573 12.5727C6.60132 12.5727 6.85715 12.3169 6.85715 12.0013C6.85715 11.6857 6.60132 11.4299 6.28573 11.4299C5.97013 11.4299 5.7143 11.6857 5.7143 12.0013C5.7143 12.3169 5.97013 12.5727 6.28573 12.5727ZM6.85715 14.287C6.85715 14.6026 6.60132 14.8585 6.28573 14.8585C5.97013 14.8585 5.7143 14.6026 5.7143 14.287C5.7143 13.9714 5.97013 13.7156 6.28573 13.7156C6.60132 13.7156 6.85715 13.9714 6.85715 14.287Z" fill="white"/>
</g>
</svg>
