<svg width="24" height="24" viewBox="0 0 24 24" fill="none" xmlns="http://www.w3.org/2000/svg">
<rect y="3.42993" width="24" height="17.1429" rx="2" fill="white"/>
<mask id="mask0_91_2059" style="mask-type:luminance" maskUnits="userSpaceOnUse" x="0" y="3" width="24" height="18">
<rect y="3.42993" width="24" height="17.1429" rx="2" fill="white"/>
</mask>
<g mask="url(#mask0_91_2059)">
<path fill-rule="evenodd" clip-rule="evenodd" d="M-1.14282 21.7157H25.1429V2.28711H-1.14282V21.7157Z" fill="#FE3030"/>
<path fill-rule="evenodd" clip-rule="evenodd" d="M-1.14282 12.5728H12.5715V2.28711H-1.14282V12.5728Z" fill="#0909B6"/>
<path fill-rule="evenodd" clip-rule="evenodd" d="M6.28561 9.43L5.19223 10.6411L5.27546 9.01158L3.64595 9.09481L4.85704 8.00143L3.64595 6.90805L5.27546 6.99128L5.19223 5.36177L6.28561 6.57286L7.37899 5.36177L7.29576 6.99128L8.92527 6.90805L7.71418 8.00143L8.92527 9.09481L7.29576 9.01158L7.37899 10.6411L6.28561 9.43Z" fill="white"/>
</g>
</svg>
