<svg width="24" height="24" viewBox="0 0 24 24" fill="none" xmlns="http://www.w3.org/2000/svg">
<rect x="0.25" y="3.67993" width="23.5" height="16.6429" rx="1.75" fill="white" stroke="#F5F5F5" stroke-width="0.5"/>
<mask id="mask0_91_3361" style="mask-type:luminance" maskUnits="userSpaceOnUse" x="0" y="3" width="24" height="18">
<rect x="0.25" y="3.67993" width="23.5" height="16.6429" rx="1.75" fill="white" stroke="white" stroke-width="0.5"/>
</mask>
<g mask="url(#mask0_91_3361)">
<path fill-rule="evenodd" clip-rule="evenodd" d="M0 20.5728H24V11.4299H0V20.5728Z" fill="#7CCCF5"/>
<path fill-rule="evenodd" clip-rule="evenodd" d="M9.71427 10.7632C10.0825 10.7632 10.3809 11.0617 10.3809 11.4299C10.3809 12.0275 10.7044 12.5504 11.1891 12.8316C11.5076 13.0164 11.6159 13.4244 11.4311 13.7428C11.2464 14.0613 10.8384 14.1697 10.5199 13.9849C9.64107 13.4749 9.04761 12.5221 9.04761 11.4299C9.04761 11.0617 9.34608 10.7632 9.71427 10.7632ZM14.2857 10.7632C14.6539 10.7632 14.9524 11.0617 14.9524 11.4299C14.9524 12.4763 14.4075 13.395 13.5891 13.9184C13.2789 14.1168 12.8666 14.0262 12.6682 13.716C12.4699 13.4058 12.5605 12.9936 12.8707 12.7952C13.3221 12.5065 13.619 12.0026 13.619 11.4299C13.619 11.0617 13.9175 10.7632 14.2857 10.7632Z" fill="#445F42"/>
<path fill-rule="evenodd" clip-rule="evenodd" d="M11.9998 12.5729C12.631 12.5729 13.1426 11.8053 13.1426 10.8586C13.1426 9.9118 12.631 9.14429 11.9998 9.14429C11.3686 9.14429 10.8569 9.9118 10.8569 10.8586C10.8569 11.8053 11.3686 12.5729 11.9998 12.5729Z" fill="#D89F3D"/>
</g>
</svg>
