<svg width="24" height="24" viewBox="0 0 24 24" fill="none" xmlns="http://www.w3.org/2000/svg">
<rect y="3.42993" width="24" height="17.1429" rx="2" fill="white"/>
<mask id="mask0_91_1877" style="mask-type:luminance" maskUnits="userSpaceOnUse" x="0" y="3" width="24" height="18">
<rect y="3.42993" width="24" height="17.1429" rx="2" fill="white"/>
</mask>
<g mask="url(#mask0_91_1877)">
<rect y="3.42993" width="24" height="17.1429" fill="#19BFBF"/>
<path fill-rule="evenodd" clip-rule="evenodd" d="M11.4285 16.0015L10.9492 15.0429C10.8927 14.93 10.7773 14.8587 10.651 14.8587H10.4237C10.3353 14.8587 10.2505 14.8236 10.188 14.761L8.09753 12.6706C8.03501 12.6081 7.9999 12.5233 7.9999 12.4349V11.5682C7.9999 11.4798 7.96478 11.395 7.90226 11.3325L6.92232 10.3525C6.8796 10.3098 6.8493 10.2563 6.83465 10.1977L6.32999 8.17905C6.30235 8.06849 6.22014 7.97971 6.11202 7.94367L4.5938 7.4376C4.57883 7.43261 4.56424 7.42657 4.55014 7.41951L3.61273 6.95081C3.4998 6.89434 3.42847 6.77892 3.42847 6.65267V6.04915C3.42847 5.86506 3.57771 5.71582 3.7618 5.71582H4.43325C4.52166 5.71582 4.60644 5.75094 4.66896 5.81345L5.04512 6.18962C5.10763 6.25213 5.19242 6.28725 5.28082 6.28725H6.14754C6.23594 6.28725 6.32073 6.25213 6.38324 6.18962L6.75941 5.81345C6.82192 5.75094 6.9067 5.71582 6.99511 5.71582H9.06406C9.11581 5.71582 9.16685 5.72787 9.21313 5.75101L10.2152 6.25206C10.2615 6.2752 10.3126 6.28725 10.3643 6.28725H11.3498C11.4015 6.28725 11.4526 6.2752 11.4988 6.25206L12.5009 5.75101C12.5472 5.72787 12.5983 5.71582 12.65 5.71582H14.5237C14.7078 5.71582 14.857 5.86506 14.857 6.04915V6.52534C14.857 6.70944 14.7078 6.85868 14.5237 6.85868H14.0475C13.8634 6.85868 13.7142 7.00792 13.7142 7.19201V8.36695C13.7142 8.49321 13.7855 8.60863 13.8984 8.66509L14.3746 8.90319C14.5963 9.01401 14.857 8.85284 14.857 8.60505V7.76344C14.857 7.57934 15.0063 7.43011 15.1904 7.43011H16.2856C16.4434 7.43011 16.5713 7.55802 16.5713 7.71582C16.5713 7.87362 16.6992 8.00153 16.857 8.00153H17.9523C18.1364 8.00153 18.2856 8.15077 18.2856 8.33487V9.0903C18.2856 9.12613 18.2798 9.16172 18.2685 9.19571L17.7391 10.784C17.7227 10.8331 17.6951 10.8777 17.6585 10.9143L16.0381 12.5347C16.0128 12.56 15.9917 12.5893 15.9757 12.6213L15.4637 13.6454C15.4405 13.6917 15.4285 13.7428 15.4285 13.7945V14.5253C15.4285 14.7094 15.2792 14.8587 15.0951 14.8587H15.063C14.9368 14.8587 14.8214 14.7873 14.7649 14.6744L14.3777 13.9001C14.3213 13.7872 14.2059 13.7158 14.0796 13.7158H12.7773C12.6511 13.7158 12.5357 13.7872 12.4792 13.9001L12.0744 14.7096C12.0275 14.8034 12.0275 14.9139 12.0744 15.0077L12.4792 15.8173C12.5357 15.9302 12.6511 16.0015 12.7773 16.0015H13.5761C13.6645 16.0015 13.7493 16.0367 13.8118 16.0992L14.7594 17.0468C14.8219 17.1093 14.857 17.1941 14.857 17.2825V17.9539C14.857 18.138 14.7078 18.2872 14.5237 18.2872H13.9202C13.7939 18.2872 13.6785 18.2159 13.6221 18.103L13.2349 17.3287C13.1784 17.2157 13.063 17.1444 12.9367 17.1444H12.2059C12.0796 17.1444 11.9642 17.0731 11.9078 16.9601L11.4285 16.0015Z" fill="white"/>
</g>
</svg>
