<svg width="24" height="24" viewBox="0 0 24 24" fill="none" xmlns="http://www.w3.org/2000/svg">
<rect y="3.42993" width="24" height="17.1429" rx="2" fill="white"/>
<mask id="mask0_91_1864" style="mask-type:luminance" maskUnits="userSpaceOnUse" x="0" y="3" width="24" height="18">
<rect y="3.42993" width="24" height="17.1429" rx="2" fill="white"/>
</mask>
<g mask="url(#mask0_91_1864)">
<path fill-rule="evenodd" clip-rule="evenodd" d="M0 14.8586H24V9.14429H0V14.8586Z" fill="#063191"/>
<path fill-rule="evenodd" clip-rule="evenodd" d="M0 20.5727H24V14.8584H0V20.5727Z" fill="#E2213B"/>
<path fill-rule="evenodd" clip-rule="evenodd" d="M12 11.43C12.3156 11.43 12.5714 11.1741 12.5714 10.8585C12.5714 10.5429 12.3156 10.2871 12 10.2871C11.6844 10.2871 11.4286 10.5429 11.4286 10.8585C11.4286 11.1741 11.6844 11.43 12 11.43ZM9.71429 12.0015C10.0299 12.0015 10.2857 11.7456 10.2857 11.43C10.2857 11.1144 10.0299 10.8586 9.71429 10.8586C9.3987 10.8586 9.14287 11.1144 9.14287 11.43C9.14287 11.7456 9.3987 12.0015 9.71429 12.0015ZM14.8571 11.43C14.8571 11.7456 14.6013 12.0015 14.2857 12.0015C13.9701 12.0015 13.7143 11.7456 13.7143 11.43C13.7143 11.1144 13.9701 10.8586 14.2857 10.8586C14.6013 10.8586 14.8571 11.1144 14.8571 11.43ZM8.57143 13.7158C8.88702 13.7158 9.14286 13.4599 9.14286 13.1443C9.14286 12.8287 8.88702 12.5729 8.57143 12.5729C8.25584 12.5729 8 12.8287 8 13.1443C8 13.4599 8.25584 13.7158 8.57143 13.7158ZM16 13.1443C16 13.4599 15.7442 13.7158 15.4286 13.7158C15.113 13.7158 14.8571 13.4599 14.8571 13.1443C14.8571 12.8287 15.113 12.5729 15.4286 12.5729C15.7442 12.5729 16 12.8287 16 13.1443Z" fill="white"/>
<path fill-rule="evenodd" clip-rule="evenodd" d="M0 9.14422H24V3.42993H0V9.14422Z" fill="#FFD044"/>
</g>
</svg>
