<svg width="24" height="24" viewBox="0 0 24 24" fill="none" xmlns="http://www.w3.org/2000/svg">
<rect y="3.42993" width="24" height="17.1429" rx="2" fill="white"/>
<mask id="mask0_91_2728" style="mask-type:luminance" maskUnits="userSpaceOnUse" x="0" y="3" width="24" height="18">
<rect y="3.42993" width="24" height="17.1429" rx="2" fill="white"/>
</mask>
<g mask="url(#mask0_91_2728)">
<path fill-rule="evenodd" clip-rule="evenodd" d="M0 14.8585H24V3.42993H0V14.8585Z" fill="#E54252"/>
<path fill-rule="evenodd" clip-rule="evenodd" d="M0 20.5727H24V14.8584H0V20.5727Z" fill="#5CBE6B"/>
<path fill-rule="evenodd" clip-rule="evenodd" d="M0 3.42993H3.42857V6.00143L2.85719 6.8585L3.42857 7.71558V9.43L2.85719 10.2871L3.42857 11.1441V12.8586L2.85719 13.7156L3.42857 14.5727V16.2871L2.85719 17.1442L3.42857 18.0013V20.5728H0V3.42993Z" fill="white"/>
<path fill-rule="evenodd" clip-rule="evenodd" d="M-0.571498 5.14429L-1.71436 6.85857L-0.571498 8.57286L-1.71436 10.2871L-0.571498 12.0014L-1.71436 13.7157L-0.571498 15.43L-1.71436 17.1443L-0.571498 18.8586L0.571359 17.1443L-0.571498 15.43L0.571359 13.7157L-0.571498 12.0014L0.571359 10.2871L-0.571498 8.57286L0.571359 6.85857L-0.571498 5.14429Z" fill="#E54252"/>
<path fill-rule="evenodd" clip-rule="evenodd" d="M0.571289 5.14422L1.71415 3.42993L2.857 5.14422L1.71415 6.8585L0.571289 5.14422ZM1.71415 10.2871L0.571289 8.57279L1.71415 6.8585L2.857 8.57279L1.71415 10.2871ZM1.71415 13.7156L0.571289 12.0014L1.71415 10.2871L2.857 12.0014L1.71415 13.7156ZM1.71415 17.1442L2.857 15.4299L1.71415 13.7156L0.571289 15.4299L1.71415 17.1442ZM1.71415 17.1442L2.857 18.8585L1.71415 20.5728L0.571289 18.8585L1.71415 17.1442Z" fill="#E54252"/>
</g>
</svg>
