<svg width="24" height="24" viewBox="0 0 24 24" fill="none" xmlns="http://www.w3.org/2000/svg">
<rect y="3.42993" width="24" height="17.1429" rx="2" fill="white"/>
<mask id="mask0_91_2558" style="mask-type:luminance" maskUnits="userSpaceOnUse" x="0" y="3" width="24" height="18">
<rect y="3.42993" width="24" height="17.1429" rx="2" fill="white"/>
</mask>
<g mask="url(#mask0_91_2558)">
<path fill-rule="evenodd" clip-rule="evenodd" d="M0 20.5728H24V3.42993H0V20.5728Z" fill="#F0371D"/>
<path fill-rule="evenodd" clip-rule="evenodd" d="M11.9863 10.4121C12.8115 9.7213 12.8617 9.56683 13.0595 8.95826C13.1255 8.75513 13.0789 8.58829 13.0239 8.39126C12.9447 8.10716 12.8479 7.76028 13.0458 7.15129C12.1453 6.85872 11.0991 7.59481 10.709 8.79539C10.319 9.99597 10.7327 11.2064 11.6331 11.499C11.7943 11.5514 11.7762 11.5135 11.7273 11.4109C11.6414 11.231 11.4606 10.852 11.9863 10.4121ZM10.2772 11.6737C9.8753 10.6753 9.74389 10.5799 9.22621 10.2038C9.05342 10.0782 8.88037 10.0709 8.67599 10.0623C8.3813 10.0499 8.02149 10.0348 7.50345 9.65842C6.94695 10.4244 7.32373 11.6468 8.345 12.3888C9.36628 13.1308 10.6453 13.1114 11.2018 12.3454C11.3014 12.2083 11.2598 12.2138 11.1472 12.2287C10.9496 12.2547 10.5332 12.3096 10.2772 11.6737ZM15.4285 12.219C14.7887 12.219 14.6262 12.219 13.7143 11.6476C13.1334 11.2836 12.8288 11.5727 12.6842 11.71C12.6018 11.7882 12.5714 11.8171 12.5714 11.6476C12.5714 10.7008 13.5948 9.9333 14.8571 9.9333C16.1195 9.9333 17.1428 10.7008 17.1428 11.6476C16.5025 11.6476 16.2025 11.8468 15.9568 12.01C15.7864 12.1232 15.6421 12.219 15.4285 12.219ZM15.4285 11.1443C15.4285 11.3021 15.3006 11.43 15.1428 11.43C14.985 11.43 14.8571 11.3021 14.8571 11.1443C14.8571 10.9865 14.985 10.8586 15.1428 10.8586C15.3006 10.8586 15.4285 10.9865 15.4285 11.1443ZM13.0732 13.6728C12.8116 14.7167 12.8618 14.8712 13.0595 15.4798C13.1255 15.6829 13.2612 15.7905 13.4215 15.9176C13.6526 16.1009 13.9348 16.3246 14.1327 16.9336C15.0331 16.641 15.4469 15.4306 15.0568 14.23C14.6667 13.0294 13.6205 12.2933 12.7201 12.5859C12.5589 12.6383 12.5957 12.6583 12.6956 12.7125C12.8708 12.8076 13.2399 13.0079 13.0732 13.6728ZM14.0816 15.1477C13.9315 15.1965 13.7703 15.1143 13.7215 14.9643C13.6728 14.8142 13.7549 14.653 13.905 14.6042C14.055 14.5555 14.2162 14.6376 14.265 14.7877C14.3138 14.9378 14.2316 15.0989 14.0816 15.1477ZM10.949 13.689C9.8753 13.7627 9.74389 13.8582 9.22621 14.2343C9.05342 14.3598 8.99302 14.5222 8.92169 14.7139C8.81883 14.9903 8.69324 15.3278 8.17521 15.7042C8.73171 16.4702 10.0107 16.4896 11.032 15.7476C12.0533 15.0056 12.4301 13.7832 11.8736 13.0172C11.7739 12.8801 11.7663 12.9213 11.7456 13.0331C11.7093 13.2291 11.6329 13.642 10.949 13.689ZM9.85795 15.1037C9.7652 14.9761 9.7935 14.7974 9.92116 14.7046C10.0488 14.6119 10.2275 14.6402 10.3202 14.7678C10.413 14.8955 10.3847 15.0742 10.257 15.1669C10.1294 15.2597 9.9507 15.2314 9.85795 15.1037ZM8.59455 11.0732C8.6873 10.9456 8.86598 10.9173 8.99363 11.01C9.12129 11.1028 9.14959 11.2815 9.05684 11.4091C8.96409 11.5368 8.78542 11.5651 8.65776 11.4723C8.5301 11.3796 8.5018 11.2009 8.59455 11.0732ZM12.0374 8.62613C12.1874 8.67489 12.2696 8.83608 12.2208 8.98615C12.172 9.13622 12.0109 9.21835 11.8608 9.16959C11.7107 9.12083 11.6286 8.95964 11.6773 8.80957C11.7261 8.6595 11.8873 8.57737 12.0374 8.62613Z" fill="white"/>
</g>
</svg>
