<svg width="24" height="24" viewBox="0 0 24 24" fill="none" xmlns="http://www.w3.org/2000/svg">
<rect y="3.42993" width="24" height="17.1429" rx="2" fill="#009F60"/>
<mask id="mask0_91_1297" style="mask-type:luminance" maskUnits="userSpaceOnUse" x="0" y="3" width="24" height="18">
<rect y="3.42993" width="24" height="17.1429" rx="2" fill="white"/>
</mask>
<g mask="url(#mask0_91_1297)">
<rect x="20.5715" y="12.5728" width="3.42857" height="8" fill="#EA8B42"/>
<path fill-rule="evenodd" clip-rule="evenodd" d="M17.1428 20.5728H20.5714V12.5728H17.1428V20.5728Z" fill="#1A1919"/>
<path fill-rule="evenodd" clip-rule="evenodd" d="M13.7144 20.5728H17.1429V12.5728H13.7144V20.5728Z" fill="#DB3C36"/>
<path fill-rule="evenodd" clip-rule="evenodd" d="M18.0123 6.41628C17.9336 6.41849 17.8757 6.39121 17.8549 6.34535C17.9834 6.27 18.0702 6.28681 18.1779 6.38281C18.1986 6.30775 18.1779 6.22413 18.1324 6.174C18.0868 6.12386 18.0495 6.12386 17.9875 6.11958C17.9253 6.11545 17.8632 6.09879 17.8217 6.09879C17.7611 5.96504 17.609 6.02166 17.4629 6.07652C17.2255 6.16559 17.0121 6.32736 16.9163 6.48884C16.8725 6.56272 16.8672 6.59177 16.8403 6.63365C16.8625 6.63084 16.8611 6.63084 16.8749 6.62244C16.8583 6.80633 16.8362 6.97621 16.8693 7.08489C16.828 7.24371 16.8611 7.34399 16.9107 7.39413C16.9605 7.44426 16.9811 7.4652 16.9895 7.52375C16.9977 7.58214 17.0225 7.63641 17.064 7.66989C17.1054 7.70336 17.1302 7.7535 17.1344 7.78284C17.1385 7.81204 17.2666 7.93798 17.3207 7.97086C17.3414 7.98325 17.3455 8.00847 17.3705 8.04179C17.3166 8.35943 17.532 8.67707 17.4822 8.99044C17.5195 8.99457 17.5691 8.99044 17.619 8.9779C17.6603 9.24526 17.6851 9.37488 17.4532 9.45422C17.2213 9.5337 17.0945 9.61186 17.1592 9.70078C17.2047 9.76345 17.2991 9.70889 17.358 9.65477C17.4035 9.61304 17.4573 9.57543 17.4988 9.5629C17.5402 9.55036 17.5486 9.5629 17.5277 9.61717C17.507 9.67158 17.3953 9.78852 17.3911 9.84707C17.3869 9.90561 17.4366 9.94734 17.5154 9.90133C17.594 9.85532 17.6632 9.73499 17.681 9.66318C17.6933 9.61304 17.7142 9.57956 17.7099 9.66318C17.7058 9.74679 17.6561 9.8972 17.768 9.92227C17.8798 9.94734 17.913 9.81359 17.8757 9.69237C17.8383 9.57131 17.826 9.50436 17.8425 9.46262C17.8591 9.42074 17.8757 9.39582 17.917 9.40821C17.9584 9.42074 18.0413 9.40408 18.0371 9.33728C18.0329 9.27048 17.975 9.21606 17.9087 9.25366C17.8425 9.29127 17.7928 9.28566 17.8217 9.20353C17.8425 9.14498 17.8798 9.0739 17.8839 9.02804C17.9294 9.09484 18.1861 9.10325 18.2897 9.04058C18.3146 9.16592 18.3808 9.27873 18.236 9.39582C18.0909 9.51276 17.975 9.62557 17.9791 9.70919C17.9834 9.7928 18.0164 9.84279 18.0909 9.80106C18.1654 9.75932 18.211 9.70078 18.2276 9.64651C18.2442 9.5921 18.2774 9.5921 18.2608 9.65905C18.2442 9.72585 18.2152 9.822 18.2276 9.88054C18.2401 9.93894 18.3312 9.94321 18.3683 9.8888C18.4057 9.83453 18.3973 9.76345 18.3891 9.69237C18.3808 9.6213 18.3933 9.54624 18.4098 9.51689C18.4264 9.48769 18.4595 9.44581 18.4927 9.5253C18.5259 9.60463 18.5423 9.66731 18.6086 9.68825C18.6749 9.70919 18.7245 9.67984 18.7122 9.6005C18.6997 9.52117 18.6127 9.43328 18.5259 9.36648C18.4389 9.29967 18.4678 9.2662 18.4719 9.20353C18.4761 9.14085 18.4637 9.02804 18.4595 8.9779C18.5382 9.03645 18.6252 9.02804 18.6665 9.02804C18.7079 9.02804 18.776 9.01521 18.7079 8.95284C18.5713 8.82749 18.6168 8.75213 18.5216 8.66026C18.4264 8.56839 18.3394 8.42624 18.3105 8.30517C18.2814 8.18395 18.2176 7.96246 18.0909 7.84965C18.0205 7.78697 17.9998 7.61562 18.0164 7.41919C18.0329 7.22277 18.0371 7.00555 17.8591 6.90528C17.681 6.805 17.6851 6.72139 17.7431 6.63365C17.801 6.5459 17.8755 6.46008 17.9709 6.45389C17.9923 6.45256 18.0419 6.44843 18.062 6.43368C18.053 6.42675 18.0385 6.41569 18.0123 6.41628Z" fill="#EA8B42"/>
<path fill-rule="evenodd" clip-rule="evenodd" d="M16.8541 6.86768C16.8497 6.95262 16.8518 7.02738 16.8693 7.08489C16.828 7.24371 16.861 7.34399 16.9107 7.39413C16.9605 7.44427 16.9811 7.46521 16.9895 7.52375C16.9977 7.58215 17.0225 7.63641 17.064 7.66989C17.1054 7.70336 17.1302 7.7535 17.1343 7.78285C17.1385 7.81205 17.2666 7.93798 17.3207 7.97087C17.3414 7.98325 17.3455 8.00847 17.3705 8.0418C17.348 8.17378 17.3717 8.30576 17.404 8.43745C17.1113 8.68253 16.8224 8.56692 16.9439 8.31623C16.7009 8.51118 16.2814 8.50572 16.3753 8.31623C15.9942 8.44998 15.8783 8.3385 15.928 8.21595C15.6078 8.3441 15.4421 8.22156 15.4863 8.13234C15.2212 8.20475 15.05 8.16021 15.0224 8.11568C14.9949 8.07114 15.061 7.97087 15.1219 7.92073C15.0004 7.96526 14.8844 7.96526 14.7739 7.9486C14.6636 7.93179 14.6912 7.89831 14.7132 7.84817C14.7354 7.79804 14.7644 7.7187 14.8527 7.64069C14.6415 7.68242 14.3765 7.71177 14.1901 7.64895C14.155 7.63715 14.0949 7.62388 14.1321 7.58642C14.1694 7.54882 14.2812 7.4568 14.4179 7.39826C14.1073 7.44427 13.5192 7.47774 13.3536 7.28972C13.5151 7.32305 13.7221 7.25625 13.8547 7.20198C13.3329 7.14344 12.6207 6.78406 12.6123 6.4331C12.7614 6.67538 13.0183 6.75899 13.275 6.8342C12.927 6.62937 12.7822 6.38281 12.7698 6.21986C12.9685 6.41216 13.2707 6.62937 13.569 6.67966C13.3577 6.56685 13.0844 6.23667 13.0099 6.00677C13.1632 6.14465 13.5565 6.36615 13.8257 6.43723C13.6394 6.29094 13.3372 5.9441 13.3536 5.75195C13.424 5.82303 13.598 5.95664 13.954 6.16559C14.3102 6.37455 14.5034 6.35922 14.7974 6.42189C14.7437 6.34948 14.6953 6.25334 14.6912 6.22827C14.7782 6.2408 14.8609 6.27428 15.1094 6.42882C15.3579 6.58351 15.9008 6.63085 16.211 6.7674C16.4386 6.86768 16.763 6.805 16.8541 6.86768Z" fill="#EA8B42"/>
<path fill-rule="evenodd" clip-rule="evenodd" d="M18.7282 9.01367C18.7419 9.00276 18.7419 8.98388 18.7078 8.95277C18.5711 8.82742 18.6167 8.75207 18.5215 8.6602C18.4263 8.56833 18.3393 8.42617 18.3103 8.3051C18.2812 8.18388 18.2175 7.96239 18.0908 7.84958C18.0204 7.78691 17.9997 7.61555 18.0163 7.41913C18.0304 7.25102 18.0355 7.06772 17.925 6.9555C18.1321 6.89695 18.3228 6.88427 18.3889 6.95107C18.7326 6.86333 19.0309 6.83679 19.3235 6.81747C19.6602 6.79506 20.2952 6.65024 20.748 6.34381C20.7204 6.45529 20.5658 6.62237 20.4277 6.70599C20.886 6.5945 21.4382 6.38835 21.9075 6.03738C21.9019 6.28261 21.7033 6.46635 21.5872 6.56678C21.9075 6.38835 22.3767 6.16553 22.5369 5.88696C22.6073 6.17246 22.1284 6.54584 21.8687 6.752C22.1338 6.62385 22.4762 6.50543 22.6087 6.31594C22.6059 6.54717 22.305 6.83413 22.0179 7.00121C22.3106 6.88988 22.6363 6.77279 22.824 6.60011C22.846 6.83281 21.9488 7.36766 21.5043 7.5138C21.8909 7.41913 22.3933 7.29098 22.6142 7.15723C22.6031 7.20457 22.5131 7.27093 22.4475 7.31929C22.1775 7.51896 21.7632 7.62617 21.5099 7.67542C21.5431 7.81478 21.4989 7.89279 21.3443 7.90385C21.1897 7.91506 20.8156 7.85518 20.628 7.76036C20.6004 7.77703 20.5672 7.78278 20.5298 7.78691C20.712 7.92479 20.7742 8.02506 20.7369 8.08361C20.6997 8.14215 20.5692 8.13153 20.4699 8.11074C20.5485 8.33223 20.2855 8.31764 20.0661 8.19214C20.1531 8.3051 20.1656 8.4011 20.0454 8.42617C19.9253 8.45124 19.83 8.44298 19.714 8.36763C19.7058 8.45124 19.6257 8.50698 19.5195 8.47911C19.8839 8.7006 19.8632 8.78141 19.801 8.86488C19.739 8.94849 19.5215 8.93183 19.4056 8.85662C19.3559 9.02798 19.1579 9.02857 19.01 8.89216C19.0087 8.96044 18.8677 9.09596 18.7282 9.01367Z" fill="#EA8B42"/>
<path fill-rule="evenodd" clip-rule="evenodd" d="M17.0378 9.85395C17.0439 9.80116 17.0489 9.73981 17.093 9.70074C17.1372 9.66166 17.1648 9.62833 17.2034 9.66726C17.2421 9.70634 17.2173 9.74262 17.1648 9.75928C17.1123 9.77594 17.0765 9.82328 17.0681 9.85395C17.0599 9.88463 17.0323 9.90129 17.0378 9.85395Z" fill="black"/>
<path fill-rule="evenodd" clip-rule="evenodd" d="M17.3385 10.1103C17.3111 10.0227 17.3248 9.90972 17.3551 9.87624C17.3855 9.84277 17.4241 9.8205 17.46 9.85398C17.4958 9.88745 17.5097 9.93479 17.4434 9.96266C17.3848 9.98728 17.3799 10.0489 17.3773 10.0936C17.3745 10.1381 17.3551 10.1632 17.3385 10.1103Z" fill="black"/>
<path fill-rule="evenodd" clip-rule="evenodd" d="M17.7251 9.88459C17.7038 9.92042 17.7306 10.0657 17.8024 10.1018C17.8533 10.1275 17.8769 10.1214 17.8465 10.0739C17.8162 10.0266 17.8273 9.98206 17.8439 9.95699C17.8603 9.93193 17.8577 9.88739 17.8217 9.86512C17.7858 9.84271 17.7416 9.85672 17.7251 9.88459Z" fill="black"/>
<path fill-rule="evenodd" clip-rule="evenodd" d="M18.0372 9.7538C17.9916 9.71929 17.9489 9.76073 17.9323 9.78993C17.8991 9.84847 17.924 9.93209 17.9765 9.97942C18.0289 10.0268 18.0206 9.96276 18.004 9.93489C17.9875 9.90702 17.9847 9.85127 18.0206 9.84567C18.0564 9.84021 18.0814 9.78713 18.0372 9.7538Z" fill="black"/>
<path fill-rule="evenodd" clip-rule="evenodd" d="M18.2967 9.84843C18.2523 9.8353 18.2084 9.8819 18.2138 9.93764C18.218 9.97923 18.2222 10.0323 18.2635 10.0602C18.2913 10.0788 18.3105 10.0909 18.2967 10.0407C18.2829 9.99058 18.3051 9.9487 18.3298 9.93484C18.3546 9.92098 18.3436 9.86244 18.2967 9.84843Z" fill="black"/>
<path fill-rule="evenodd" clip-rule="evenodd" d="M18.6639 9.61174C18.6317 9.63445 18.6334 9.68709 18.6639 9.70656C18.6941 9.72602 18.7384 9.75389 18.7301 9.80123C18.7218 9.84857 18.7466 9.86538 18.7688 9.81244C18.7908 9.7595 18.7936 9.68149 18.7688 9.64521C18.7438 9.60894 18.6913 9.59227 18.6639 9.61174Z" fill="black"/>
<path fill-rule="evenodd" clip-rule="evenodd" d="M17.8632 6.34141C17.8824 6.38392 17.9374 6.40903 18.012 6.40693L18.012 6.40693C18.0357 6.4064 18.05 6.41275 18.0673 6.44099C18.0491 6.45433 18.0148 6.46026 17.9714 6.46295C17.8922 6.46809 17.8231 6.52883 17.7507 6.63861C17.6855 6.73721 17.7083 6.80973 17.8635 6.8971C18.0177 6.98393 18.0493 7.13517 18.0255 7.41984C18.008 7.62667 18.0332 7.78586 18.0969 7.84262C18.2024 7.93656 18.2703 8.09888 18.3193 8.30288C18.3472 8.41973 18.4318 8.56078 18.5279 8.65348C18.5505 8.67527 18.5666 8.69723 18.5795 8.7223C18.5869 8.73672 18.5923 8.74974 18.6011 8.77309C18.6314 8.85372 18.6519 8.88888 18.714 8.94589C18.7485 8.97749 18.7552 9.00377 18.7339 9.02089C18.7199 9.03217 18.6945 9.03712 18.6664 9.03712L18.6511 9.03733C18.5843 9.03856 18.5412 9.03308 18.4917 9.00841C18.4844 9.00477 18.4773 9.00077 18.4703 8.99638L18.4745 9.04286C18.4763 9.06356 18.4777 9.08193 18.4789 9.0994C18.4818 9.14326 18.4827 9.17827 18.481 9.204C18.4804 9.21374 18.4793 9.22223 18.4772 9.2356C18.4733 9.26031 18.4726 9.26707 18.4733 9.27782C18.4752 9.30416 18.4907 9.32781 18.5314 9.35902C18.6378 9.44089 18.7096 9.52548 18.7212 9.59894C18.734 9.6815 18.6822 9.72107 18.6057 9.6969C18.5589 9.68211 18.5348 9.65147 18.507 9.58506C18.5055 9.58139 18.5015 9.5715 18.4972 9.56083C18.4921 9.54822 18.4865 9.53451 18.4841 9.52872C18.4706 9.49632 18.4583 9.48593 18.4474 9.48906C18.4381 9.49174 18.4278 9.50358 18.4177 9.52127C18.4006 9.55167 18.3907 9.62699 18.3981 9.69117L18.3982 9.69186C18.4107 9.80042 18.4086 9.84626 18.3758 9.89387C18.3343 9.95468 18.2328 9.94919 18.2185 9.88231C18.212 9.85133 18.2156 9.8104 18.2273 9.75609C18.2305 9.74114 18.2342 9.72565 18.239 9.70661L18.2518 9.65668C18.2582 9.63092 18.2564 9.61649 18.2548 9.61619C18.2523 9.6157 18.2428 9.62781 18.2363 9.64908C18.2177 9.70982 18.1675 9.76854 18.0953 9.80897C18.0192 9.85161 17.9749 9.80823 17.9698 9.7095C17.966 9.63085 18.0531 9.5312 18.2301 9.38851C18.2645 9.36074 18.2876 9.33253 18.3013 9.30299C18.3261 9.24951 18.3225 9.20844 18.2952 9.10352C18.2896 9.08193 18.2861 9.06785 18.2832 9.05456C18.1786 9.10814 17.9597 9.10355 17.89 9.04768C17.8853 9.06967 17.8751 9.09652 17.8545 9.14564L17.8544 9.14588C17.8415 9.17672 17.836 9.19047 17.8303 9.20646C17.818 9.24138 17.8206 9.25981 17.8329 9.26482C17.8462 9.27026 17.8723 9.26353 17.9041 9.2455C17.9725 9.20667 18.0412 9.25752 18.0462 9.33657C18.0503 9.40201 17.9739 9.43495 17.9142 9.4169C17.8832 9.40761 17.8691 9.4199 17.8509 9.46588C17.8363 9.50298 17.8456 9.5639 17.8843 9.68952C17.9275 9.82971 17.8784 9.95637 17.7659 9.93113C17.697 9.91569 17.6789 9.86105 17.6886 9.76547C17.6898 9.75363 17.6912 9.74231 17.6936 9.72463C17.6989 9.686 17.6999 9.67719 17.7007 9.66257C17.7013 9.64911 17.7014 9.63849 17.7008 9.63082C17.6973 9.63907 17.6932 9.65144 17.6898 9.66526C17.6685 9.75112 17.5931 9.86634 17.5199 9.90916C17.4413 9.95507 17.3767 9.9194 17.3818 9.84626C17.3838 9.81936 17.403 9.78504 17.4425 9.72952L17.4534 9.71425C17.5035 9.64499 17.5118 9.63279 17.5191 9.61371C17.5373 9.56635 17.5346 9.56153 17.5013 9.57159C17.464 9.58289 17.4123 9.61724 17.3641 9.66143C17.2823 9.73661 17.1955 9.76637 17.1517 9.70608C17.117 9.65835 17.1313 9.61127 17.1893 9.56652C17.2403 9.52714 17.3263 9.48781 17.4502 9.44536C17.6464 9.37821 17.6614 9.31359 17.6211 8.98671C17.5712 8.99925 17.5203 9.00381 17.473 8.98885C17.4933 8.86103 17.4774 8.75829 17.4167 8.52355C17.3547 8.28343 17.3384 8.17525 17.3631 8.0472C17.3566 8.0386 17.3512 8.03017 17.3456 8.02039L17.3337 7.99901C17.3275 7.98842 17.3226 7.98264 17.3158 7.97861C17.257 7.94282 17.1296 7.81568 17.1252 7.78399C17.1207 7.75201 17.0936 7.70557 17.0581 7.67693C17.0164 7.64325 16.9892 7.58837 16.9803 7.52492C16.9732 7.47538 16.9627 7.45947 16.9041 7.40049C16.8428 7.33864 16.8226 7.2274 16.8604 7.08744C16.8349 7.00353 16.8373 6.92272 16.8611 6.6706L16.864 6.63858C16.8613 6.63953 16.8584 6.64022 16.8545 6.64085L16.8414 6.64265L16.8325 6.62852C16.838 6.61999 16.8428 6.61168 16.8475 6.60257C16.8515 6.59473 16.8515 6.59472 16.8554 6.58668C16.8538 6.59005 16.8702 6.55504 16.8758 6.54368C16.8853 6.52453 16.8955 6.50556 16.9083 6.48398C17.0056 6.32 17.2211 6.15721 17.4596 6.06775C17.6856 5.98287 17.7764 5.97676 17.8216 6.08944C17.8416 6.08944 17.8517 6.09083 17.9105 6.10041C17.9441 6.10589 17.9656 6.10876 17.988 6.11025L18.0022 6.1112C18.0551 6.11478 18.0773 6.11951 18.1042 6.13709C18.1159 6.1448 18.1274 6.15481 18.1391 6.16765C18.1879 6.22146 18.2077 6.30881 18.1867 6.38513L18.1717 6.38956C18.0634 6.29301 17.9807 6.28206 17.8632 6.34141ZM18.0563 6.441C18.0418 6.42983 18.0311 6.42509 18.0124 6.42551L18.0125 6.42551C17.9313 6.42779 17.8692 6.39948 17.8502 6.33741C17.9741 6.2647 18.0636 6.27352 18.1724 6.36591C18.1714 6.37077 18.1703 6.37559 18.169 6.38037L18.1839 6.37593C18.18 6.37249 18.1762 6.36915 18.1724 6.36591C18.1857 6.29926 18.167 6.22596 18.1255 6.18022C18.1148 6.16849 18.1045 6.1595 18.0941 6.15268C18.0707 6.13734 18.0509 6.13313 18.0009 6.12975L17.9868 6.1288C17.9636 6.12726 17.9416 6.12432 17.9075 6.11876C17.8968 6.11702 17.8878 6.11556 17.88 6.1143C17.8458 6.10876 17.8351 6.10702 17.8133 6.10263C17.7659 5.99822 17.6826 6.00382 17.466 6.08517C17.2312 6.17326 17.019 6.33351 16.9241 6.49356C16.9115 6.51473 16.9015 6.53329 16.8922 6.55204C16.8867 6.5632 16.8703 6.59807 16.8719 6.59478C16.8679 6.60305 16.8679 6.60305 16.8638 6.61123L16.8638 6.61124C16.862 6.61463 16.8602 6.61792 16.8584 6.62116C16.8567 6.62181 16.8548 6.62229 16.8515 6.62282L16.8391 6.62452L16.8479 6.63866C16.8517 6.63283 16.8551 6.62709 16.8584 6.62116C16.8588 6.62103 16.8591 6.62089 16.8594 6.62074C16.8613 6.61989 16.863 6.6189 16.87 6.61458L16.8839 6.62329L16.8793 6.6725C16.8558 6.92144 16.8535 7.00171 16.8781 7.08724C16.8419 7.22637 16.8609 7.33089 16.9171 7.38764C16.9783 7.44919 16.9907 7.46799 16.9985 7.52248C17.0068 7.58162 17.0319 7.63224 17.0696 7.66272C17.1086 7.69425 17.1382 7.74487 17.1433 7.78157C17.1468 7.80597 17.2709 7.92991 17.3253 7.96296C17.3351 7.96885 17.3419 7.9768 17.3495 7.98983L17.3615 8.01137C17.3629 8.01379 17.3643 8.01611 17.3657 8.01849C17.3696 8.02515 17.3738 8.0323 17.3794 8.04336C17.3571 8.17504 17.3731 8.28148 17.4345 8.51908C17.4958 8.75631 17.512 8.86069 17.4831 8.9813C17.5171 8.98506 17.5611 8.98166 17.6141 8.97757C17.6186 8.97722 17.6232 8.97687 17.6279 8.97651C17.6808 9.31887 17.6638 9.39187 17.4561 9.46296C17.334 9.50481 17.2495 9.54345 17.2005 9.58128C17.1496 9.62055 17.1385 9.6569 17.1665 9.69537C17.2009 9.74265 17.2771 9.71649 17.3517 9.64798C17.4018 9.60209 17.4555 9.56635 17.496 9.55409C17.5468 9.53873 17.5591 9.56079 17.5362 9.62048C17.528 9.64188 17.5201 9.65351 17.4683 9.72523L17.4574 9.74039C17.4201 9.79278 17.4017 9.82568 17.4001 9.84773C17.396 9.90549 17.4443 9.93213 17.5106 9.89339C17.5791 9.85331 17.6518 9.74233 17.6719 9.66098C17.6789 9.6327 17.6876 9.6113 17.6964 9.60538C17.7073 9.59811 17.7153 9.60618 17.7178 9.61908C17.7196 9.62825 17.72 9.64298 17.719 9.66365C17.7182 9.67903 17.7171 9.68797 17.7118 9.72729C17.7094 9.74476 17.708 9.75591 17.7068 9.76748C17.698 9.85486 17.7131 9.90058 17.7698 9.9133C17.8638 9.93436 17.9065 9.82413 17.8668 9.69512C17.8267 9.56525 17.817 9.50184 17.8338 9.45923C17.8551 9.40549 17.8768 9.3866 17.9195 9.3994C17.9687 9.41428 18.0309 9.38744 18.0279 9.33788C18.0236 9.27121 17.9684 9.23033 17.9131 9.26171C17.8769 9.28227 17.846 9.29023 17.826 9.28206C17.8019 9.27223 17.7978 9.24347 17.813 9.20046C17.8188 9.18402 17.8244 9.17006 17.8375 9.1389L17.8376 9.13865C17.8634 9.07696 17.8725 9.05134 17.8746 9.02723L17.8914 9.02286C17.9338 9.08505 18.1852 9.093 18.2849 9.0327L18.2986 9.0388C18.302 9.05594 18.3057 9.07108 18.313 9.09902C18.3413 9.20808 18.3452 9.25215 18.3179 9.31093C18.3029 9.34317 18.278 9.37356 18.2416 9.40302C18.07 9.54142 17.9847 9.63886 17.9882 9.70873C17.9926 9.7958 18.0249 9.82743 18.0863 9.79303C18.1545 9.75483 18.2016 9.69983 18.2187 9.64383C18.2277 9.61436 18.2427 9.59529 18.2582 9.59823C18.2754 9.60147 18.2784 9.62585 18.2696 9.6613L18.2568 9.7113C18.252 9.73014 18.2484 9.74543 18.2452 9.76013C18.2341 9.81207 18.2306 9.85091 18.2364 9.87862C18.247 9.92791 18.3274 9.93226 18.3607 9.88358C18.3899 9.84106 18.3919 9.79812 18.3799 9.69414L18.3798 9.69346C18.372 9.62572 18.3825 9.54661 18.4017 9.51234C18.4141 9.49061 18.4269 9.47596 18.4423 9.4715C18.4646 9.46508 18.4843 9.48181 18.501 9.52174C18.5035 9.52766 18.5091 9.54158 18.5143 9.55426C18.5185 9.56481 18.5225 9.57452 18.524 9.57808C18.5498 9.63996 18.5709 9.66673 18.6112 9.67947C18.6753 9.6997 18.7136 9.67037 18.703 9.60196C18.6924 9.53462 18.6231 9.45298 18.5202 9.37381C18.4757 9.33966 18.4572 9.31158 18.455 9.27925C18.4541 9.26656 18.4549 9.25915 18.459 9.2329C18.461 9.22003 18.4621 9.21201 18.4627 9.20294C18.4643 9.17821 18.4634 9.14389 18.4606 9.10079C18.4594 9.08346 18.458 9.06521 18.4562 9.04463L18.4502 8.97871L18.4648 8.97052C18.476 8.97885 18.4877 8.986 18.4999 8.99206C18.546 9.01506 18.5866 9.02024 18.6508 9.01905L18.6664 9.01884C18.6906 9.01884 18.7126 9.01455 18.7224 9.00666C18.7325 8.99856 18.7289 8.98471 18.7016 8.95966C18.6369 8.90033 18.6151 8.86285 18.5839 8.77975C18.5754 8.75702 18.5702 8.74454 18.5632 8.73092C18.5512 8.70762 18.5362 8.68729 18.5151 8.66693C18.4166 8.57187 18.3302 8.42776 18.3014 8.30734C18.2533 8.10687 18.1865 7.94719 18.0847 7.85656C18.0151 7.7946 17.9892 7.63078 18.0072 7.41844C18.0304 7.14057 18 6.9953 17.8545 6.91333C17.6904 6.82098 17.6639 6.73662 17.7354 6.62858C17.8107 6.5144 17.8836 6.45033 17.9702 6.4447C17.9826 6.44393 17.9944 6.44284 18.0052 6.44185C18.0284 6.43969 18.0467 6.43799 18.0563 6.441Z" fill="black"/>
<path fill-rule="evenodd" clip-rule="evenodd" d="M16.6303 6.82401C16.7719 6.82901 16.8234 6.83536 16.8592 6.85998L16.8632 6.86806C16.8583 6.9626 16.8623 7.03064 16.8781 7.08712C16.8419 7.22626 16.8609 7.33078 16.9171 7.38753C16.9783 7.44908 16.9907 7.46788 16.9985 7.52236C17.0068 7.58151 17.0319 7.63213 17.0696 7.66261C17.1086 7.69414 17.1382 7.74476 17.1433 7.78146C17.1468 7.80586 17.2709 7.9298 17.3253 7.96285C17.3351 7.96873 17.3419 7.97669 17.3495 7.98972L17.3615 8.01126C17.3629 8.01367 17.3643 8.01599 17.3657 8.01837C17.3696 8.02503 17.3738 8.03218 17.3794 8.04325C17.3601 8.15691 17.3724 8.27047 17.4098 8.44443C17.2712 8.56043 17.1215 8.6049 17.0158 8.57145C16.9199 8.54113 16.8822 8.4534 16.922 8.34409C16.8092 8.42374 16.6594 8.47021 16.5331 8.46952C16.403 8.4688 16.3296 8.41679 16.3587 8.33151C16.0444 8.43706 15.8695 8.37728 15.9126 8.23164C15.6524 8.32867 15.4369 8.26136 15.471 8.14581C15.2476 8.20311 15.0532 8.18288 15.0145 8.12043C14.9904 8.08134 15.0279 8.00235 15.0849 7.94249C14.9862 7.97148 14.8856 7.97467 14.7724 7.95762C14.7192 7.9495 14.6928 7.93698 14.6857 7.91564C14.6803 7.89935 14.682 7.89443 14.7022 7.85002L14.7047 7.84434C14.7047 7.84449 14.718 7.81373 14.7226 7.80368C14.7306 7.78608 14.7385 7.77044 14.7474 7.75485C14.7677 7.71934 14.7922 7.68665 14.8232 7.65564C14.5648 7.70399 14.3444 7.71063 14.1871 7.65759L14.1635 7.64999C14.1416 7.64271 14.1281 7.63635 14.1195 7.62736C14.1066 7.61385 14.1085 7.59693 14.1255 7.57982C14.1757 7.5292 14.2646 7.46415 14.359 7.41569C13.9107 7.47478 13.4816 7.44901 13.3466 7.29573L13.3554 7.2806C13.4812 7.30656 13.643 7.27442 13.8178 7.20665C13.2453 7.13021 12.6108 6.75738 12.603 6.43322L12.62 6.42816C12.7361 6.6168 12.8911 6.70657 13.2104 6.8051C12.934 6.62635 12.7745 6.40428 12.7606 6.22046L12.7761 6.21313C13.0019 6.43166 13.2708 6.60229 13.5177 6.65987C13.3132 6.52681 13.0711 6.2256 13.0011 6.00953L13.016 5.99982C13.172 6.14019 13.5339 6.33846 13.7848 6.41584C13.5564 6.22396 13.3304 5.91391 13.3444 5.75107L13.36 5.74536C13.4473 5.8335 13.6476 5.97506 13.9585 6.15754C14.1512 6.27056 14.298 6.32246 14.4913 6.35818C14.5187 6.36323 14.5452 6.36774 14.5868 6.37457C14.6895 6.39141 14.7275 6.39788 14.7761 6.40792C14.7311 6.34275 14.6866 6.25766 14.682 6.22967L14.6924 6.21905C14.789 6.23297 14.8814 6.27612 15.1141 6.42089C15.2263 6.49072 15.3634 6.53175 15.6961 6.60915L15.7114 6.61272C15.9799 6.67521 16.0993 6.7081 16.2146 6.75887C16.2747 6.78537 16.345 6.80194 16.4288 6.8116C16.4856 6.81813 16.5265 6.82035 16.6303 6.82401ZM16.8446 6.87254C16.8447 6.87077 16.8448 6.869 16.8449 6.86721L16.8488 6.87529C16.8475 6.87434 16.8461 6.87343 16.8446 6.87254ZM13.3808 7.30371C13.5145 7.32179 13.6805 7.28321 13.858 7.21053L13.8556 7.19283C13.3043 7.13098 12.6793 6.78005 12.6251 6.46998C12.7503 6.65414 12.9227 6.74062 13.2723 6.84306L13.2795 6.82626C12.9845 6.65256 12.8089 6.4294 12.7817 6.24404C13.0223 6.47195 13.3088 6.64516 13.5674 6.68876L13.5732 6.67153C13.3744 6.56536 13.1177 6.26229 13.0301 6.0364C13.2101 6.18512 13.5823 6.38252 13.8233 6.44615L13.8313 6.42998C13.6056 6.25282 13.3687 5.94204 13.3622 5.77332C13.4576 5.86337 13.6538 6.00017 13.9493 6.17356C14.1439 6.28772 14.2926 6.34033 14.488 6.37642C14.5155 6.3815 14.5421 6.38602 14.5838 6.39287C14.7019 6.41221 14.734 6.41783 14.7954 6.43092L14.8047 6.41639C14.7627 6.35992 14.7173 6.27734 14.7038 6.23965C14.7926 6.25535 14.8852 6.30033 15.1044 6.43667C15.2191 6.50802 15.3569 6.54927 15.6919 6.62722L15.7073 6.63079C15.9746 6.693 16.0933 6.72572 16.2072 6.77585C16.2693 6.8032 16.3413 6.82017 16.4268 6.83002C16.4841 6.83663 16.5254 6.83886 16.6297 6.84254C16.7604 6.84716 16.8128 6.8531 16.8446 6.87254C16.84 6.9663 16.8443 7.0346 16.8604 7.0876C16.8226 7.22755 16.8428 7.33879 16.9041 7.40064C16.9627 7.45962 16.9732 7.47553 16.9803 7.52507C16.9892 7.58853 17.0164 7.6434 17.0581 7.67708C17.0936 7.70572 17.1207 7.75216 17.1252 7.78414C17.1296 7.81583 17.257 7.94297 17.3158 7.97876C17.3225 7.98279 17.3275 7.98857 17.3337 7.99916L17.3456 8.02055C17.3512 8.03033 17.3566 8.03876 17.363 8.04735C17.3414 8.15697 17.354 8.27273 17.395 8.43966C17.2639 8.54269 17.1204 8.58532 17.0213 8.55398C16.9276 8.52435 16.8966 8.43463 16.9521 8.32027L16.9381 8.30904C16.8264 8.39862 16.666 8.45193 16.5332 8.45119C16.4048 8.45048 16.3434 8.40101 16.3834 8.32035L16.3721 8.30754C16.0438 8.4228 15.8791 8.36087 15.9364 8.21944L15.9245 8.20741C15.6553 8.31515 15.4417 8.24269 15.4944 8.13646L15.4838 8.12346C15.2602 8.18454 15.0641 8.16565 15.0301 8.11082C15.0086 8.076 15.0608 7.9829 15.1276 7.92786L15.1186 7.91208C15.0101 7.95187 14.9008 7.95844 14.7752 7.9395C14.7283 7.93235 14.7072 7.92237 14.7031 7.90992C14.7 7.90056 14.7018 7.89539 14.7189 7.8578L14.7215 7.85191C14.7684 7.74603 14.7858 7.71565 14.8477 7.65762L14.8586 7.64762L14.8508 7.63166C14.5819 7.68481 14.3527 7.6941 14.193 7.64022L14.1693 7.6326C14.1502 7.62626 14.1385 7.62077 14.1327 7.6147C14.1274 7.60911 14.128 7.60349 14.1385 7.59294C14.1969 7.53415 14.3098 7.45455 14.4214 7.40675L14.4164 7.38915C13.9748 7.45457 13.537 7.43857 13.3808 7.30371ZM13.3808 7.30371C13.3733 7.29729 13.3665 7.2906 13.3604 7.28363L13.3517 7.29876C13.3612 7.30073 13.3709 7.30237 13.3808 7.30371ZM14.7038 6.23965C14.7019 6.23444 14.7007 6.23009 14.7002 6.22678L14.6898 6.2374C14.6945 6.23808 14.6991 6.23882 14.7038 6.23965ZM13.3622 5.77332C13.362 5.76621 13.3621 5.75934 13.3627 5.75276L13.347 5.75846C13.3518 5.76326 13.3568 5.76822 13.3622 5.77332ZM13.0301 6.0364C13.0259 6.02539 13.022 6.01455 13.0186 6.00394L13.0037 6.01365C13.012 6.02109 13.0208 6.02868 13.0301 6.0364ZM12.7817 6.24404C12.7804 6.23567 12.7795 6.22738 12.7789 6.21918L12.7633 6.22651C12.7694 6.23239 12.7755 6.23823 12.7817 6.24404ZM12.6251 6.46998C12.6229 6.45754 12.6217 6.44517 12.6214 6.43289L12.6044 6.43795C12.6112 6.44895 12.6181 6.45962 12.6251 6.46998Z" fill="black"/>
<path fill-rule="evenodd" clip-rule="evenodd" d="M18.7236 9.02183L18.7226 9.00667C18.7326 8.99867 18.729 8.98476 18.7016 8.95978C18.637 8.90046 18.6152 8.86298 18.584 8.77988C18.5754 8.75715 18.5702 8.74467 18.5632 8.73105C18.5512 8.70774 18.5363 8.68742 18.5152 8.66705C18.4166 8.572 18.3302 8.42788 18.3014 8.30747C18.2533 8.107 18.1865 7.94732 18.0848 7.85669C18.0152 7.79472 17.9893 7.63091 18.0072 7.41857C18.0094 7.39246 18.0111 7.36763 18.0123 7.344L18.0182 7.34719L18.0181 7.34796L18.0193 7.34773L18.0302 7.35339C18.029 7.37472 18.0275 7.39697 18.0255 7.42021C18.008 7.62704 18.0332 7.78623 18.0969 7.84298C18.2024 7.93692 18.2703 8.09925 18.3193 8.30325C18.3472 8.4201 18.4318 8.56115 18.5279 8.65385C18.5505 8.67564 18.5666 8.6976 18.5795 8.72267C18.587 8.73709 18.5924 8.7501 18.6011 8.77346C18.6314 8.85409 18.6519 8.88924 18.714 8.94625C18.7425 8.9722 18.7521 8.99469 18.7427 9.01132C18.7394 9.00968 18.7361 9.00792 18.7329 9.00603L18.734 9.02118C18.7378 9.01818 18.7406 9.01488 18.7427 9.01132C18.854 9.06705 18.9993 8.9764 19.0009 8.89228L19.0163 8.88567C19.1656 9.02341 19.3511 9.01211 19.3968 8.85435L19.4106 8.84918C19.5294 8.92625 19.738 8.93473 19.7937 8.85966C19.8704 8.7567 19.8253 8.67603 19.5148 8.48729L19.5219 8.47049C19.6189 8.49594 19.6969 8.44841 19.7049 8.36702L19.7191 8.36019C19.8261 8.42977 19.9167 8.44394 20.0436 8.41744C20.1476 8.39574 20.1496 8.31588 20.0589 8.19808L20.0707 8.18443C20.1797 8.24678 20.2983 8.28076 20.3789 8.27269C20.4639 8.26417 20.496 8.21183 20.4613 8.11413L20.4718 8.10202C20.5992 8.12868 20.7003 8.12448 20.7292 8.07894C20.7641 8.02423 20.6968 7.92509 20.5244 7.79456L20.5289 7.77804C20.5739 7.77306 20.6005 7.76653 20.6322 7.75243C20.8028 7.83864 21.1716 7.90743 21.3437 7.89495C21.4877 7.88465 21.5341 7.81679 21.5082 7.66667C21.8775 7.59487 22.2173 7.47842 22.4421 7.31217C22.4665 7.29418 22.4774 7.28604 22.4913 7.27536C22.5111 7.26018 22.5279 7.24655 22.5426 7.23363C22.5653 7.21368 22.5822 7.1959 22.5929 7.18057C22.6019 7.17554 22.6106 7.17049 22.619 7.16542L22.6053 7.15543C22.6035 7.16287 22.5994 7.17127 22.5929 7.18057C22.4036 7.28637 22.0727 7.38441 21.5066 7.52305L21.5015 7.50534L21.5022 7.50511L21.5029 7.50489C22.0057 7.33914 22.7825 6.83654 22.8142 6.62156L22.8302 6.6072L22.8149 6.60128C22.8155 6.60771 22.8153 6.61448 22.8142 6.62156C22.6839 6.73551 22.5001 6.82619 22.1933 6.9446L22.1068 6.97767L22.0212 7.01013L22.0133 6.99354C22.3226 6.81358 22.5718 6.54945 22.5974 6.34665C22.604 6.33843 22.6103 6.33007 22.6163 6.32153L22.5996 6.31613C22.5995 6.32613 22.5987 6.33631 22.5974 6.34665C22.5119 6.45309 22.3702 6.53506 22.0978 6.65775L22.089 6.66169L21.9712 6.71467C21.9335 6.73181 21.902 6.74647 21.8728 6.7606L21.8631 6.74506C21.9992 6.63699 22.0466 6.59854 22.1207 6.53399C22.2601 6.41246 22.3664 6.30212 22.438 6.19796C22.511 6.09164 22.5441 5.99614 22.5324 5.91251C22.5368 5.90565 22.5409 5.89877 22.5449 5.89187L22.528 5.88947C22.5299 5.89705 22.5314 5.90473 22.5324 5.91251C22.4335 6.06946 22.2421 6.21333 21.9356 6.38662C21.8871 6.41409 21.7653 6.48042 21.6797 6.52705L21.6797 6.52707C21.6364 6.55066 21.6024 6.56921 21.5917 6.57513L21.5813 6.5601C21.7766 6.39115 21.8866 6.24319 21.8976 6.05655L21.9131 6.04507L21.8984 6.03746C21.8983 6.04387 21.898 6.05023 21.8976 6.05655C21.4797 6.3651 20.967 6.5846 20.4299 6.71524L20.425 6.70322L20.425 6.70309L20.4249 6.70309L20.423 6.69839C20.5538 6.6192 20.691 6.47127 20.7314 6.36631L20.7532 6.35175L20.7392 6.34188C20.7372 6.34971 20.7346 6.35787 20.7314 6.36631C20.3379 6.6245 19.7525 6.79845 19.3241 6.82696C18.9365 6.85256 18.6856 6.88515 18.3825 6.95787C18.3247 6.89949 18.1543 6.9026 17.9422 6.96059C17.9388 6.95678 17.9353 6.95302 17.9316 6.94932L17.9276 6.96467L17.9422 6.96059C18.0159 7.04271 18.0384 7.15139 18.0317 7.32329L18.0146 7.32666L18.0125 7.33999C18.0217 7.15469 17.9987 7.04356 17.9186 6.96219L17.9226 6.94684C18.1478 6.88316 18.3298 6.8784 18.3867 6.94235C18.6824 6.86687 18.9343 6.83415 19.3229 6.80849C19.7563 6.77964 20.3525 6.6006 20.743 6.33638L20.757 6.34625C20.7324 6.4454 20.6078 6.59171 20.4778 6.68424C21.0002 6.55113 21.4971 6.3331 21.9021 6.0302L21.9168 6.0378C21.9126 6.21998 21.8206 6.36422 21.6526 6.52075L21.6712 6.51065L21.6712 6.51063C21.7568 6.464 21.8782 6.39784 21.9266 6.37047C22.2437 6.1912 22.4362 6.04385 22.529 5.88257L22.5458 5.88496C22.5693 5.98006 22.5356 6.0882 22.4531 6.20833C22.3805 6.31402 22.2732 6.42536 22.1327 6.54783C22.0709 6.60174 22.0276 6.63748 21.9363 6.7103L21.9636 6.69779L22.0815 6.64479L22.0903 6.64085C22.3805 6.51014 22.5206 6.4262 22.6013 6.31086L22.618 6.31626C22.6156 6.51264 22.3954 6.76914 22.1051 6.95848L22.1867 6.92731C22.5042 6.80478 22.6888 6.71226 22.8178 6.59352L22.8332 6.59945C22.8517 6.79456 22.1797 7.25286 21.6606 7.46578C22.1538 7.3416 22.4443 7.24959 22.6095 7.14955L22.6232 7.15954C22.6174 7.18424 22.5939 7.21291 22.5547 7.24741C22.5397 7.26063 22.5226 7.2745 22.5025 7.28992C22.4885 7.30069 22.4775 7.30887 22.453 7.32693C22.2254 7.4952 21.8835 7.6124 21.5189 7.67349C21.5546 7.82323 21.5006 7.90212 21.345 7.91325C21.1697 7.92596 20.7976 7.85655 20.6328 7.76847C20.6114 7.78137 20.5879 7.78842 20.5533 7.79345C20.7201 7.92303 20.7858 8.02423 20.7447 8.08877C20.711 8.14174 20.6114 8.14787 20.4836 8.1231C20.5133 8.22274 20.4731 8.28169 20.3807 8.29094C20.3046 8.29857 20.1986 8.27125 20.0968 8.21938C20.1697 8.32995 20.158 8.41231 20.0473 8.43541C19.9206 8.46186 19.8273 8.44894 19.7211 8.3832C19.7071 8.45442 19.6439 8.49931 19.5633 8.49546C19.8469 8.67277 19.8901 8.76094 19.8084 8.87059C19.7474 8.95294 19.5381 8.94667 19.4108 8.8709C19.3567 9.02856 19.1694 9.04109 19.0171 8.91091C18.9969 9.00476 18.8409 9.09102 18.7236 9.02183ZM18.438 7.29257C18.4424 7.28057 18.4458 7.2676 18.4479 7.25363L18.437 7.2432L18.0317 7.32329L18.0311 7.33596L18.0208 7.33026L18.0182 7.34719L18.0193 7.34773L18.0306 7.34541L18.0302 7.35339C18.1878 7.43246 18.3619 7.42788 18.4256 7.31894C18.5635 7.39392 18.7816 7.35716 18.8519 7.25207C19.0497 7.3237 19.2347 7.28068 19.2676 7.09914L19.2556 7.08876L18.8672 7.22198C18.8727 7.2065 18.8753 7.18989 18.8744 7.17226L18.438 7.29257ZM18.4339 7.30264C18.4353 7.29936 18.4367 7.29601 18.438 7.29257L18.4196 7.29765L18.4176 7.31442L18.4256 7.31894L18.4281 7.31445L18.4463 7.30897C18.5763 7.37117 18.7719 7.3358 18.8419 7.24835L18.8519 7.25207C18.8534 7.24984 18.8548 7.24757 18.8562 7.24527L18.8723 7.23973C19.0493 7.29898 19.2092 7.26141 19.2462 7.11151L19.2615 7.10625L19.2495 7.09588C19.2486 7.10122 19.2474 7.10643 19.2462 7.11151L18.8723 7.23973C18.8686 7.2385 18.865 7.23722 18.8613 7.23591C18.8635 7.23137 18.8655 7.22673 18.8672 7.22198L18.8566 7.22562C18.8634 7.21191 18.8674 7.19722 18.8679 7.18168L18.4463 7.30897C18.4421 7.30696 18.4379 7.30485 18.4339 7.30264ZM18.8527 7.23278C18.8555 7.23385 18.8584 7.23489 18.8613 7.23591C18.8597 7.23908 18.858 7.2422 18.8562 7.24527L18.8475 7.24826L18.8476 7.24071C18.8494 7.23811 18.8511 7.23546 18.8527 7.23278ZM18.8527 7.23278C18.851 7.23217 18.8494 7.23155 18.8478 7.23092L18.8476 7.24071C18.8458 7.2433 18.8439 7.24585 18.8419 7.24835L18.8412 7.24811L18.8415 7.23077L18.8566 7.22562C18.8554 7.22803 18.8541 7.23042 18.8527 7.23278ZM18.4339 7.30264C18.4321 7.3067 18.4301 7.31064 18.4281 7.31445L18.4249 7.31543L18.4269 7.29865L18.4339 7.30264ZM18.044 7.34269L18.0306 7.34541L18.0311 7.33596L18.044 7.34269ZM18.4273 7.26443C18.3956 7.40895 18.2125 7.42761 18.044 7.34269L18.4273 7.26443ZM18.4273 7.26443C18.4282 7.26005 18.429 7.25556 18.4297 7.25094L18.4406 7.26172L18.4273 7.26443ZM20.4247 6.70317L19.5968 6.97044L19.6011 6.98831C19.6888 6.97361 19.8268 6.93298 20.0101 6.87048C20.0355 6.86184 20.0616 6.85281 20.0887 6.84335C20.1799 6.81144 20.4398 6.71735 20.4308 6.72055L20.425 6.70322L20.4249 6.70309L20.4247 6.70317ZM20.4247 6.70317L20.4306 6.72063L19.6024 6.98798L19.5981 6.97012C19.6845 6.95563 19.8218 6.9152 20.0042 6.85301C20.0295 6.84439 20.0556 6.83538 20.0826 6.82593C20.1707 6.79513 20.4163 6.70627 20.4247 6.70317ZM18.0125 7.33999L18.0123 7.344L18.012 7.3438L18.0125 7.33999ZM14.7857 6.42455C14.8442 6.50989 14.9978 6.63502 15.0945 6.66544C15.1015 6.73312 15.1301 6.79869 15.1782 6.85156L14.7408 6.71125L14.7291 6.72242C14.7393 6.76062 14.7566 6.79427 14.7789 6.82301L14.478 6.701C14.5029 6.70145 14.5301 6.69975 14.5598 6.69579L14.5647 6.67982L14.3483 6.48347C14.3865 6.49214 14.425 6.49886 14.4636 6.5035L14.4689 6.48615L13.6324 6.05437L13.6219 6.06926C13.822 6.2594 14.0544 6.40466 14.299 6.47119C14.2834 6.5065 14.2793 6.55142 14.2909 6.59075L13.8246 6.42456L13.8157 6.44036C13.9181 6.52498 14.0782 6.57505 14.2997 6.61342L14.3035 6.62064C14.3234 6.65538 14.3572 6.67978 14.4054 6.69203C14.3969 6.7128 14.3928 6.73278 14.393 6.75153C14.1703 6.70918 14.0294 6.69562 13.971 6.72136C13.9407 6.73479 13.9206 6.75381 13.9117 6.77574C13.8724 6.76042 13.8352 6.7476 13.7944 6.73501C13.7782 6.73001 13.7613 6.72502 13.7418 6.71944C13.7533 6.72273 13.6172 6.68447 13.5715 6.67086L13.5663 6.68914L13.5665 6.68919L13.5664 6.68935L13.5778 6.69271L13.9069 6.7948C13.9035 6.82686 13.9219 6.86297 13.965 6.89608C13.9801 6.90772 13.9982 6.91886 14.0188 6.9295C13.9752 6.95039 13.9588 6.98454 13.968 7.02111L13.2774 6.82551L13.27 6.84216C13.448 6.95543 13.6706 7.01589 13.9768 7.04363C13.9851 7.05933 13.998 7.07507 14.0153 7.09002C13.9945 7.11418 13.9864 7.14135 13.9895 7.16902C13.9484 7.16771 13.8896 7.17819 13.8512 7.19431L13.856 7.21255L13.994 7.19023C14.0023 7.21681 14.0205 7.24327 14.0473 7.26737C14.2697 7.46863 14.8188 7.46475 15.338 7.28396C15.3498 7.31019 15.3801 7.32823 15.4285 7.34178C15.4482 7.34731 15.4681 7.35202 15.4882 7.35592L14.849 7.63236L14.854 7.64994C15.0481 7.62141 15.3207 7.49477 15.5221 7.36171C15.5755 7.36963 15.6303 7.37214 15.6854 7.36956C15.6619 7.41358 15.6578 7.46996 15.6749 7.51775L14.9999 7.7571L14.9992 7.75732L14.9992 7.75736L14.9987 7.75753L15.0043 7.77506C15.227 7.70944 15.5181 7.60766 15.6823 7.53521C15.7025 7.57603 15.7402 7.60774 15.7965 7.61505L15.1181 7.9124L15.1241 7.92977C15.2826 7.88866 15.5969 7.75128 15.8375 7.61872C15.9064 7.62246 15.9826 7.61502 16.061 7.59883C16.0463 7.62933 16.0376 7.65941 16.0347 7.68799L15.387 7.99194L15.3931 8.00922C15.5894 7.95889 15.7666 7.87019 16.0336 7.71038C16.0338 7.7534 16.0478 7.79212 16.0748 7.82255L15.4821 8.12154L15.4881 8.1388C15.5525 8.12528 15.6293 8.09612 15.7166 8.05378C15.7644 8.03058 15.8145 8.00378 15.8668 7.97383C15.9415 7.93105 16.0003 7.89439 16.0891 7.83686C16.1191 7.86346 16.161 7.88175 16.2139 7.88812C16.22 7.88885 16.2261 7.8894 16.2324 7.88976L15.7474 8.11713L15.7532 8.1345C15.8609 8.11162 15.9638 8.06944 16.0746 8.00841C16.0996 7.99465 16.1506 7.9643 16.196 7.93722L16.196 7.93722L16.1961 7.9372L16.1961 7.93718C16.2314 7.91617 16.2633 7.89714 16.2772 7.88938C16.3326 7.88553 16.3943 7.86963 16.4594 7.84287C16.4304 7.88847 16.4148 7.92495 16.4124 7.95706L15.9169 8.20497L15.924 8.22192C16.0111 8.19148 16.2628 8.06294 16.4128 7.97836C16.4153 7.99976 16.4243 8.01951 16.4397 8.03928C16.4551 8.05901 16.4733 8.06972 16.4973 8.07161L16.1574 8.22995L16.1647 8.24686L16.1651 8.24669L16.1651 8.24671L16.1655 8.24654C16.2822 8.19935 16.4411 8.12564 16.5754 8.05659C16.6117 8.04334 16.6562 8.02155 16.7121 7.99144C16.7561 7.96778 16.8079 7.93421 16.8673 7.89162C16.8829 7.88042 16.899 7.86865 16.9156 7.85627C16.9029 7.90233 16.9023 7.94204 16.9123 7.97516L16.3677 8.30574L16.3757 8.32223C16.5216 8.26617 16.7917 8.09701 16.9195 7.99418C16.9334 8.02425 16.9574 8.04784 16.99 8.06471L16.6117 8.30583L16.6202 8.3221C16.7643 8.261 16.931 8.15323 17.0115 8.07436L17.0152 8.07575C17.0991 8.10707 17.1836 8.10809 17.2627 8.06658L16.9384 8.31044L16.9485 8.32575C17.107 8.23165 17.295 8.09257 17.3567 8.01863L17.3442 8.00534L17.3434 8.00593L17.3409 7.99186L16.9577 7.82443C16.9789 7.80821 17.0009 7.79109 17.025 7.77215L17.1027 7.71068L17.0953 7.69437L16.8444 7.74088L17.0186 7.60733L17.0194 7.60681L17.0193 7.60676L17.0198 7.60639L17.0091 7.59141C16.953 7.62916 16.8681 7.69086 16.7887 7.75119L16.5622 7.79318C16.6967 7.71879 16.8391 7.60429 16.9673 7.45891L16.9592 7.44367L16.6279 7.49097L16.6722 7.46162L16.7725 7.39436C16.8095 7.36972 16.8392 7.3503 16.8674 7.33257L16.8698 7.33115L16.8697 7.33108L16.87 7.33094L16.8604 7.31519L16.5428 7.50312L16.2498 7.54495C16.4302 7.47981 16.6023 7.37922 16.7077 7.27222C16.7526 7.26601 16.7989 7.2573 16.846 7.24589L16.8482 7.24633L16.8482 7.24535L16.8522 7.24438L16.8517 7.22637L16.3022 7.12078C16.3371 7.11816 16.3731 7.11396 16.4097 7.10804L16.4108 7.0901L15.78 6.90503L15.7683 6.91343C15.768 6.91976 15.7682 6.92602 15.769 6.9322L15.1064 6.60871L15.0933 6.61653C15.0929 6.62364 15.0928 6.63076 15.0929 6.63788L14.7988 6.412L14.7857 6.42455ZM15.0931 6.64555L15.0929 6.63788L15.1108 6.65164L15.1029 6.66786L15.0945 6.66544L15.0942 6.6621L15.0996 6.66627L15.1076 6.65005C15.1029 6.64881 15.0981 6.6473 15.0931 6.64555ZM15.0421 6.62212L14.8573 6.4801C14.8343 6.45698 14.8147 6.43432 14.8008 6.4141L14.7877 6.42664L14.8573 6.4801C14.91 6.53309 14.9808 6.58845 15.0421 6.62212ZM15.0421 6.62212C15.0602 6.632 15.0774 6.64001 15.0931 6.64555C15.0933 6.65107 15.0937 6.65659 15.0942 6.6621L15.0421 6.62212ZM15.7897 6.94231L15.769 6.9322C15.7695 6.9364 15.7703 6.94056 15.7714 6.94468L15.7589 6.94778L15.1112 6.63156C15.1112 6.62688 15.1114 6.62219 15.1116 6.6175L15.0984 6.62531L15.1112 6.63156C15.1107 6.76067 15.194 6.88866 15.3453 6.93425C15.4792 6.97459 15.6105 6.97966 15.7216 6.95817C15.6934 6.96665 15.6652 6.9765 15.6377 6.98742C15.545 6.99356 15.4432 6.98297 15.34 6.95187C15.2887 6.93641 15.2447 6.91189 15.2088 6.8812L15.2131 6.87776L15.2101 6.86181L15.1782 6.85156C15.1835 6.85744 15.1891 6.86316 15.1949 6.86871L15.1876 6.87404L14.7518 6.73424C14.75 6.72885 14.7484 6.72334 14.7469 6.71774L14.7352 6.7289L14.7518 6.73424C14.7707 6.79024 14.8064 6.83485 14.8509 6.86659L14.809 6.85597L14.8085 6.85554L14.8126 6.8543L14.8133 6.83695L14.7789 6.82301C14.7837 6.82915 14.7887 6.83507 14.7939 6.84076L14.7819 6.8442L14.4227 6.69852L14.4237 6.69598C14.4403 6.69895 14.4584 6.70064 14.478 6.701L14.4213 6.67798L14.4095 6.68261L14.4054 6.69203L14.4161 6.6945L14.4144 6.69517L14.4227 6.69852C14.4145 6.71846 14.4109 6.7376 14.4118 6.75541L14.4076 6.75434L14.4071 6.75422L14.393 6.75153C14.393 6.75803 14.3935 6.76439 14.3946 6.77059C14.1742 6.72849 14.0321 6.71455 13.9784 6.73822C13.9109 6.76817 13.904 6.82599 13.9761 6.88144C13.9948 6.89574 14.018 6.90928 14.0451 6.92205L14.0432 6.92156L14.038 6.92176C14.0311 6.92408 14.0247 6.92667 14.0188 6.9295C14.0252 6.93283 14.0319 6.93611 14.0389 6.93933L14.0387 6.93934L14.0391 6.93945L14.0408 6.94021C13.9685 6.9661 13.9656 7.02758 14.0317 7.08046L14.0297 7.08018L14.0219 7.08281C14.0196 7.08518 14.0173 7.08758 14.0153 7.09002C14.0198 7.09392 14.0246 7.09777 14.0297 7.10154C13.9907 7.1465 14.0043 7.2039 14.0596 7.25374C14.2714 7.44544 14.7973 7.44549 15.3019 7.2769L15.3371 7.28184L15.338 7.28396L15.3444 7.28175L15.3426 7.26392L15.3424 7.26389L15.3436 7.24746L15.3332 7.24487C15.3356 7.22657 15.3434 7.20544 15.3566 7.1809C15.377 7.1433 15.4226 7.10292 15.4818 7.0656C15.4986 7.06278 15.5145 7.05973 15.5296 7.05645L15.5299 7.03851L15.5287 7.0382C15.5627 7.01977 15.5996 7.00257 15.6377 6.98742C15.6682 6.9854 15.6977 6.98158 15.7259 6.97608C15.5691 7.02346 15.4135 7.11429 15.3728 7.18963C15.3304 7.2682 15.3484 7.30018 15.4335 7.32398C15.6807 7.39352 15.9751 7.33035 16.2 7.17271L16.2091 7.17736C16.2106 7.18009 16.2122 7.18277 16.214 7.18541C16.1224 7.25021 16.0193 7.29957 15.9124 7.33096L15.7006 7.35156L15.6939 7.35555C15.6908 7.36005 15.688 7.36473 15.6854 7.36956L15.7048 7.36844L15.7024 7.36989L15.7068 7.36947C15.6571 7.44798 15.6835 7.58211 15.7993 7.59681C15.8097 7.59813 15.8204 7.59914 15.8312 7.59987L15.7965 7.61505L15.797 7.61511L15.8042 7.61596C15.7242 7.65929 15.637 7.70277 15.5509 7.74286L15.3523 7.82992C15.2606 7.86739 15.1789 7.89656 15.1195 7.91196L15.1255 7.92933L15.3523 7.82992C15.4152 7.80421 15.4827 7.7746 15.5509 7.74286L15.8345 7.61855L15.8375 7.61872L15.851 7.61127L15.8457 7.60066C15.9155 7.60363 15.9927 7.59508 16.0722 7.57761C16.0681 7.5847 16.0644 7.59178 16.061 7.59883L16.0841 7.59382C16.012 7.72744 16.063 7.85131 16.2161 7.86974C16.2338 7.87186 16.2524 7.87233 16.272 7.87119L16.2324 7.88976L16.2394 7.89008L16.1857 7.92195C16.1582 7.93835 16.1288 7.95585 16.1045 7.97007L15.8525 8.08822C15.8183 8.09969 15.7841 8.10912 15.7494 8.11649L15.7552 8.13386L15.8525 8.08822C15.9225 8.06475 15.9923 8.03273 16.0658 7.99228C16.0754 7.987 16.0889 7.97921 16.1045 7.97007L16.2765 7.88943L16.2772 7.88938L16.281 7.88735L16.2811 7.8873L16.2811 7.88729L16.2815 7.88709L16.2736 7.8711C16.3347 7.86728 16.4043 7.84792 16.4782 7.81472C16.4714 7.82448 16.4652 7.83385 16.4594 7.84287C16.4697 7.83866 16.48 7.83418 16.4904 7.82943C16.4239 7.92603 16.4145 7.97705 16.4541 8.02799C16.4754 8.05525 16.5063 8.06027 16.5605 8.04218L16.4973 8.07161L16.5043 8.07191C16.3855 8.13098 16.2564 8.18998 16.1578 8.2298L16.1651 8.24669L16.1655 8.24654L16.5665 8.05972L16.5754 8.05659L16.5952 8.04637L16.5957 8.04615L16.5956 8.04613L16.596 8.04594L16.5889 8.03147C16.6201 8.01862 16.6577 7.99992 16.7034 7.97526C16.7466 7.95203 16.7978 7.91885 16.8566 7.87668C16.8772 7.86195 16.8985 7.84621 16.9209 7.82937L16.9254 7.82596C16.9216 7.83635 16.9183 7.84645 16.9156 7.85627L16.9319 7.84405L16.9408 7.83725C16.8998 7.95344 16.9343 8.02609 17.0216 8.05846C17.1249 8.09704 17.2281 8.08714 17.3207 8.00315L17.3335 8.00874L17.3308 7.99367L17.3207 8.00315L16.9409 7.83718L16.9577 7.82443L16.9393 7.81637L16.9364 7.81757C16.9607 7.79912 16.9858 7.77964 17.0136 7.75771L17.0621 7.71932L17.0986 7.71256L17.0913 7.69625L17.0621 7.71932L16.8121 7.76568L16.8444 7.74088L16.8294 7.74366C16.8991 7.6913 16.9698 7.64022 17.0186 7.60733L17.0193 7.60676L17.0087 7.59183L16.8047 7.74824L16.7887 7.75119L16.7563 7.77602L16.5052 7.82256C16.524 7.8136 16.543 7.8038 16.5622 7.79318L16.4996 7.80479C16.6412 7.73686 16.7966 7.6198 16.9367 7.46541L16.9617 7.46184L16.9536 7.4466L16.9367 7.46541L16.5914 7.5147L16.6279 7.49097L16.5907 7.49628L16.8674 7.33257L16.8697 7.33108L16.8602 7.31539C16.8312 7.33366 16.8006 7.3536 16.7624 7.37909L16.662 7.44636C16.6348 7.46453 16.6092 7.4814 16.5849 7.49711L16.5428 7.50312L16.5015 7.52754L16.1451 7.57844C16.18 7.56873 16.2151 7.55749 16.2498 7.54495L16.1406 7.56053C16.344 7.50391 16.5518 7.39485 16.6775 7.27605C16.6875 7.2749 16.6976 7.27362 16.7077 7.27222L16.7102 7.2697L16.7037 7.25616C16.7368 7.25154 16.7708 7.24552 16.8054 7.23798L16.846 7.24589L16.8482 7.24535L16.8478 7.22806C16.8336 7.23162 16.8194 7.23492 16.8054 7.23798L16.2214 7.12409C16.2476 7.12393 16.2746 7.12284 16.3022 7.12078L16.2231 7.10559C16.2684 7.10521 16.3159 7.10207 16.3651 7.09579L16.4057 7.10771L16.4068 7.08976C16.3928 7.09202 16.3789 7.09403 16.3651 7.09579L15.7868 6.92615C15.7865 6.92221 15.7864 6.91824 15.7866 6.91424L15.7749 6.92264L15.7868 6.92615C15.7873 6.9316 15.7883 6.93699 15.7897 6.94231ZM15.791 6.9447L15.7912 6.94302L15.7897 6.94231L15.7903 6.94432L15.7878 6.94304L15.7845 6.94263L15.7845 6.94252L15.7842 6.9426L15.7816 6.94228L15.7714 6.94468L15.7718 6.94627L15.7615 6.94907L15.7589 6.94778C15.7465 6.95095 15.734 6.95443 15.7216 6.95817C15.7352 6.95553 15.7485 6.95249 15.7615 6.94907L15.7746 6.95547L15.7773 6.96215C15.7602 6.96622 15.743 6.97089 15.7259 6.97608C15.7438 6.9726 15.7611 6.96844 15.7779 6.96365C15.8055 7.02547 15.8897 7.07581 16.0085 7.10274L15.6352 7.22552L15.6391 7.24405C15.8079 7.22264 15.9043 7.18662 16.0453 7.11047L16.0451 7.11011C16.0595 7.11265 16.0744 7.11486 16.0896 7.11674L16.2 7.17271L16.2052 7.169C16.2063 7.17183 16.2076 7.17462 16.2091 7.17736L16.2135 7.1796L16.2123 7.16391L16.2052 7.169C16.203 7.16358 16.2013 7.15801 16.2003 7.15229L16.2218 7.16321L16.2231 7.1789L16.214 7.18541C16.2368 7.21935 16.2848 7.24591 16.3505 7.26289L16.279 7.2953L15.9124 7.33096C15.845 7.35073 15.7761 7.36338 15.7075 7.36825L15.7091 7.3659L15.7048 7.36844L15.7075 7.36825L15.7068 7.36947L16.227 7.31886L15.9131 7.46116L15.9197 7.47835C16.0455 7.43863 16.1841 7.37691 16.3065 7.31113L16.6003 7.28256C16.6253 7.28124 16.6511 7.27908 16.6775 7.27605L16.6787 7.27493L16.7045 7.27242L16.6972 7.25705L16.7037 7.25616L16.7027 7.25408L16.5628 7.26769C16.3496 7.27218 16.2022 7.21222 16.2189 7.12411L16.2214 7.12409L16.219 7.12362C16.2195 7.12096 16.2202 7.11826 16.221 7.11555L16.2105 7.12197L16.219 7.12362L16.2189 7.12411L16.2002 7.12403C16.201 7.11948 16.202 7.11485 16.2035 7.11016L16.211 7.10562L16.2231 7.10559L16.214 7.10383L16.211 7.10562C16.1702 7.10552 16.1314 7.10315 16.0949 7.09883L15.791 6.9447ZM15.7909 6.94632L15.791 6.9447L15.7903 6.94432L15.7909 6.94632ZM15.8028 6.97124C15.7976 6.96315 15.7936 6.95482 15.7909 6.94632L15.7899 6.96011L15.7842 6.96183L15.7824 6.96094L15.7857 6.9602L15.7795 6.95944L15.7824 6.96094L15.7773 6.96215L15.7779 6.96365L15.7842 6.96183L15.8028 6.97124ZM16.0367 7.08989C16.0553 7.09344 16.0747 7.09643 16.0949 7.09883L16.1397 7.12155C16.1226 7.12035 16.1059 7.11874 16.0896 7.11674L16.0367 7.08989ZM15.8028 6.97124L16.0367 7.08989C15.9209 7.06782 15.8365 7.02437 15.8028 6.97124ZM16.1397 7.12155L16.2003 7.15229C16.1987 7.14324 16.1987 7.13381 16.2002 7.12403C16.1796 7.12377 16.1594 7.12293 16.1397 7.12155ZM16.6967 7.25711L16.697 7.2568L16.6972 7.25705L16.6967 7.25711ZM16.6967 7.25711C16.65 7.26337 16.6051 7.2668 16.5628 7.26769L16.4439 7.27925C16.4216 7.27689 16.4004 7.2737 16.3805 7.26973L16.3825 7.26856L16.3741 7.2522L16.3505 7.26289L16.3539 7.26377C16.3367 7.27361 16.319 7.28343 16.301 7.29316L16.279 7.2953L16.227 7.31886L16.258 7.31585C16.1468 7.37312 16.0253 7.42566 15.9141 7.46075L15.9207 7.47794L16.2838 7.31334L16.3065 7.31113C16.3204 7.30368 16.334 7.29617 16.3474 7.28864L16.4439 7.27925C16.4914 7.28426 16.544 7.28551 16.6003 7.28256L16.6787 7.27493C16.6849 7.26901 16.6909 7.26307 16.6967 7.25711ZM16.3357 7.28978L16.3474 7.28864C16.3586 7.28235 16.3696 7.27604 16.3805 7.26973L16.3801 7.26966L16.3816 7.26898L16.3732 7.25262L16.3539 7.26377C16.3624 7.26589 16.3711 7.26786 16.3801 7.26966L16.3357 7.28978ZM16.3357 7.28978L16.301 7.29316C16.2869 7.30078 16.2725 7.30836 16.258 7.31585L16.2838 7.31334L16.3357 7.28978ZM16.0433 7.10978L16.0451 7.11011L16.0383 7.09295L16.0085 7.10274L16.0164 7.10449C15.9807 7.1233 15.9478 7.13943 15.9154 7.15333L15.7643 7.20303C15.7259 7.21195 15.6843 7.21913 15.6369 7.22514L15.6408 7.24367L15.7643 7.20303C15.8184 7.19048 15.8663 7.17447 15.9154 7.15333L16.0438 7.1111L16.0433 7.10978ZM16.0433 7.10978C16.0342 7.10815 16.0252 7.10638 16.0164 7.10449L16.0368 7.09358L16.0433 7.10978ZM15.7746 6.95547C15.7736 6.95243 15.7726 6.94936 15.7718 6.94627L15.7842 6.9426L15.7845 6.94263L15.7831 6.95962L15.7746 6.95547ZM16.0882 7.58655L16.0841 7.59382C16.1044 7.58923 16.1247 7.58409 16.1451 7.57844L16.0882 7.58655ZM16.0882 7.58655L16.0904 7.58275L16.0838 7.58718L16.0882 7.58655ZM16.5475 7.52097L16.5015 7.52754L16.26 7.67043L16.2679 7.687C16.3676 7.64956 16.4609 7.59887 16.5914 7.5147L16.5494 7.52071L16.5907 7.49628L16.5849 7.49711L16.5475 7.52097ZM16.5218 7.53703L16.5475 7.52097L16.5494 7.52071L16.5218 7.53703ZM16.5218 7.53703C16.4929 7.55486 16.4658 7.57092 16.4399 7.58547L16.5218 7.53703ZM16.4399 7.58547C16.3765 7.62114 16.32 7.64784 16.2615 7.66982L16.2694 7.68639L16.4399 7.58547ZM16.4937 7.82469L16.4904 7.82943L16.5052 7.82256L16.4937 7.82469ZM16.4937 7.82469L16.4959 7.82162L16.49 7.82537L16.4937 7.82469ZM16.7723 7.77304L16.7563 7.77602C16.6834 7.83211 16.6196 7.88387 16.5936 7.91006L16.6057 7.92388L16.8121 7.76568L16.7964 7.76858L16.8294 7.74366L16.8047 7.74824L16.7723 7.77304ZM16.7723 7.77304L16.5946 7.90932L16.6067 7.92315C16.6354 7.89416 16.7125 7.83241 16.7964 7.76858L16.7723 7.77304ZM16.9409 7.83716L16.9408 7.83725L16.9409 7.83718L16.9409 7.83716ZM16.9409 7.83716L16.9442 7.82809L16.932 7.83326L16.9409 7.83716ZM16.9364 7.81757L16.9254 7.82596L16.927 7.82154L16.9364 7.81757ZM16.5885 8.03163L16.5889 8.03147L16.5879 8.0294L16.5605 8.04218L16.569 8.03922C16.548 8.05004 16.5263 8.06098 16.5043 8.07191C16.5218 8.07206 16.5422 8.06798 16.5665 8.05972L16.5952 8.04637L16.5956 8.04613L16.5885 8.03163ZM16.5885 8.03163L16.5876 8.02961L16.569 8.03922C16.5752 8.03697 16.5817 8.03444 16.5885 8.03163ZM16.4996 7.80479L16.4782 7.81472L16.4808 7.81094L16.4867 7.80718L16.4996 7.80479ZM16.2731 7.87112L16.2811 7.88729L16.281 7.88735L16.2765 7.88943C16.2638 7.89029 16.2514 7.89051 16.2394 7.89008C16.2546 7.88113 16.2663 7.87431 16.2722 7.87118L16.2731 7.87112ZM16.2731 7.87112L16.2736 7.8711L16.2733 7.87057L16.272 7.87119L16.2722 7.87118L16.2729 7.87078L16.2731 7.87112ZM16.1406 7.56053C16.1177 7.56691 16.0949 7.57263 16.0722 7.57761L16.0746 7.57345L16.0812 7.56902L16.1406 7.56053ZM15.8447 7.60061L15.8502 7.61169L15.8345 7.61855C15.8242 7.61794 15.8141 7.61708 15.8042 7.61596L15.8334 7.59999L15.8447 7.60061ZM15.8447 7.60061L15.8457 7.60066L15.8428 7.59476L15.8312 7.59987L15.8334 7.59999L15.8421 7.59518L15.8447 7.60061ZM15.5257 7.03984L15.5287 7.0382L15.1062 6.93122C15.1429 6.92172 15.1779 6.9052 15.2088 6.8812L15.2041 6.87713L15.2016 6.86352L15.1949 6.86871L15.2041 6.87713L15.2045 6.87947L15.1876 6.87404C15.1506 6.90003 15.108 6.91526 15.064 6.92054L14.8509 6.86659C14.8721 6.88172 14.8954 6.89393 14.9198 6.90304L14.8432 6.88363C14.8311 6.87528 14.8197 6.86605 14.809 6.85597L14.8079 6.85571L14.8085 6.85554L14.8065 6.85358L14.8072 6.83678L14.7939 6.84076C14.798 6.84517 14.8022 6.84944 14.8065 6.85358L14.8064 6.85414L14.7819 6.8442L14.7726 6.84675L14.4118 6.75541C14.4121 6.76219 14.4131 6.76878 14.4147 6.77515L14.4033 6.77227L14.4036 6.77232L14.4031 6.7722L14.4033 6.77227L14.3946 6.77059C14.4108 6.86794 14.5491 6.92388 14.7724 6.86572L14.8432 6.88363C14.9066 6.92766 14.9862 6.9474 15.0625 6.93916L15.4855 7.04626C15.2478 7.08766 14.8338 7.0821 14.4918 7.03399L14.0451 6.92205C14.1489 6.97091 14.3102 7.00844 14.4918 7.03399L14.6347 7.06981C14.5852 7.06475 14.5363 7.05886 14.4888 7.05214L14.0413 6.94L14.0438 6.93914L14.0389 6.93933L14.0391 6.93945L14.0413 6.94L14.0408 6.94021C14.1468 6.98908 14.308 7.02658 14.4888 7.05214L15.2841 7.25146L15.262 7.25264L14.0317 7.08046C14.0419 7.0886 14.0537 7.09653 14.0671 7.10409L14.0318 7.09916L14.0349 7.09588L14.0272 7.09851L14.0318 7.09916L14.0297 7.10154C14.0507 7.11712 14.0769 7.13153 14.108 7.14377C14.3222 7.22808 14.9152 7.28747 15.2613 7.27123L15.3019 7.2769L15.3324 7.26649L15.3331 7.26643C15.3338 7.27185 15.3352 7.27699 15.3371 7.28184L15.3401 7.28225L15.3384 7.26593L15.3422 7.26558L15.3424 7.26389L15.3392 7.26346L15.3405 7.24712L15.3329 7.24783L15.3332 7.24487L14.6347 7.06981C14.9411 7.10109 15.2743 7.10049 15.4818 7.0656C15.4894 7.06078 15.4973 7.05601 15.5054 7.0513L15.5254 7.05637L15.5257 7.03984ZM15.5257 7.03984C15.5188 7.04361 15.512 7.04744 15.5054 7.0513L15.4855 7.04626C15.4995 7.04381 15.5129 7.0412 15.5257 7.03843L15.5257 7.03984ZM15.3327 7.26254C15.3323 7.25786 15.3324 7.25296 15.3329 7.24783C15.3174 7.24925 15.3011 7.25045 15.2841 7.25146L15.3228 7.26116L15.262 7.25264C15.2264 7.25434 15.1881 7.25522 15.1479 7.25536L14.0671 7.10409C14.0812 7.11202 14.097 7.11955 14.1147 7.1265C14.3046 7.20122 14.8 7.25649 15.1479 7.25536L15.2613 7.27123C15.2864 7.27005 15.3101 7.26848 15.3324 7.26649L15.3331 7.26624L15.3331 7.26643L15.3384 7.26593L15.3384 7.26505L15.3391 7.26524L15.3392 7.26346L15.3327 7.26254ZM15.3328 7.26366L15.3327 7.26254L15.3228 7.26116L15.3328 7.26366ZM15.3373 7.26478L15.3331 7.26624L15.3328 7.26366L15.3373 7.26478ZM15.3373 7.26478L15.3384 7.26505L15.3383 7.26442L15.3373 7.26478ZM14.9855 6.91966L14.9198 6.90304C14.941 6.91095 14.9631 6.91652 14.9855 6.91966ZM14.9855 6.91966L15.0625 6.93916C15.0772 6.93757 15.0918 6.93493 15.1062 6.93122L15.064 6.92054C15.038 6.92366 15.0115 6.92331 14.9855 6.91966ZM14.7344 6.85609C14.7468 6.85336 14.7595 6.85025 14.7726 6.84675L14.8079 6.85571C14.7959 6.85936 14.784 6.86269 14.7724 6.86572L14.7344 6.85609ZM14.7344 6.85609L14.4147 6.77515C14.4343 6.85262 14.5472 6.89726 14.7344 6.85609ZM14.4161 6.6945L14.4237 6.69598L14.4262 6.69053L14.4161 6.6945ZM17.3432 8.00734L17.3436 8.00692L17.3434 8.00593L17.2627 8.06658C17.2884 8.05314 17.3134 8.03526 17.3377 8.01251C17.273 8.08582 17.0919 8.21919 16.9392 8.3099L16.9493 8.3252L17.3552 8.0201L17.3432 8.00734ZM17.3432 8.00734L17.3377 8.01251L17.3426 8.0068L17.3432 8.00734ZM17.01 8.07378L17.0115 8.07436L17.0165 8.06942L17.005 8.05514L16.99 8.06471L16.9933 8.06636C16.9614 8.09664 16.9171 8.13105 16.8665 8.16524L16.7925 8.2124C16.7339 8.24763 16.6716 8.28029 16.6131 8.30509L16.6216 8.32136L16.7925 8.2124C16.8181 8.19703 16.843 8.18116 16.8665 8.16524L17.01 8.07378ZM17.01 8.07378L17.0149 8.07067L17.0035 8.0564L16.9933 8.06636C16.9986 8.06901 17.0042 8.07148 17.01 8.07378ZM16.9188 7.99261L16.9195 7.99418L16.929 7.98644L16.9184 7.97144L16.9173 7.97208L16.9173 7.97206L16.9172 7.97218L16.9123 7.97516L16.9125 7.97599C16.8611 8.01789 16.7841 8.07184 16.7012 8.12466L16.5727 8.20269C16.4966 8.2465 16.4238 8.28385 16.3691 8.30488L16.3772 8.32137L16.5727 8.20269C16.6153 8.17813 16.6591 8.15154 16.7012 8.12466L16.9188 7.99261ZM16.9188 7.99261C16.9164 7.98727 16.9143 7.98173 16.9125 7.97599L16.9172 7.97218L16.9173 7.97208L16.9279 7.98707L16.9188 7.99261ZM16.4127 7.97748L16.4128 7.97836L16.4266 7.97054L16.418 7.95428L16.4175 7.95449L16.4175 7.95449L16.4174 7.95458L16.4124 7.95706L16.4124 7.95741C16.2646 8.04129 16.0054 8.17394 15.918 8.20449L15.9251 8.22144L16.4127 7.97748ZM16.4127 7.97748C16.412 7.97096 16.4119 7.96429 16.4124 7.95741L16.4174 7.95458L16.4175 7.95449L16.4262 7.97075L16.4127 7.97748ZM16.0884 7.83624L16.0891 7.83686L16.0957 7.83256L16.0866 7.81658L16.0857 7.81701L16.0857 7.817L16.0856 7.81706L16.0748 7.82255L16.0756 7.82354C16.0152 7.86267 15.9687 7.89208 15.9212 7.92055L15.5817 8.09183C15.5466 8.10475 15.514 8.11445 15.4843 8.12068L15.4903 8.13793L15.5817 8.09183C15.6209 8.07746 15.6633 8.0591 15.7086 8.03711C15.756 8.0141 15.8058 7.9875 15.8577 7.95774C15.8799 7.94505 15.9007 7.93289 15.9212 7.92055L16.0884 7.83624ZM16.0884 7.83624C16.0839 7.83219 16.0796 7.82796 16.0756 7.82354L16.0856 7.81706L16.0857 7.81701L16.0949 7.83297L16.0884 7.83624ZM16.0336 7.70883L16.0336 7.71038L16.0458 7.7031L16.0372 7.68684L16.0347 7.68799L16.0347 7.68825C15.9703 7.72688 15.9112 7.7614 15.8558 7.79225L15.5111 7.95404C15.4703 7.96842 15.4299 7.98075 15.3886 7.99134L15.3947 8.00862L15.5111 7.95404C15.6181 7.91621 15.7268 7.86417 15.8558 7.79225L16.0336 7.70883ZM16.0336 7.70883L16.0449 7.70351L16.0363 7.68726L16.0347 7.68825C16.034 7.69521 16.0336 7.70207 16.0336 7.70883ZM15.682 7.5347L15.6823 7.53521L15.6887 7.53236L15.682 7.51524L15.6813 7.51547L15.6813 7.51545L15.681 7.51559L15.6749 7.51775L15.6751 7.51822C15.5118 7.59022 15.2218 7.69166 14.9999 7.7571L14.9992 7.75736L15.0048 7.77485L15.682 7.5347ZM15.682 7.5347C15.6794 7.52935 15.6771 7.52384 15.6751 7.51822L15.681 7.51559L15.6813 7.51547L15.6881 7.53256L15.682 7.5347ZM15.5216 7.36163L15.5221 7.36171L15.5243 7.36022L15.5157 7.34406L15.4882 7.35592L15.4953 7.35727C15.4674 7.37532 15.4382 7.39321 15.4081 7.41071L14.9385 7.6138C14.9081 7.62164 14.8788 7.62772 14.8513 7.63177L14.8563 7.64935L14.9385 7.6138C15.084 7.57629 15.2571 7.49855 15.4081 7.41071L15.5216 7.36163ZM15.5216 7.36163C15.5128 7.36033 15.504 7.35887 15.4953 7.35727L15.5142 7.3449L15.5229 7.36106L15.5216 7.36163ZM13.9934 7.18825L13.994 7.19023L14.003 7.18878L14.0025 7.1699C13.9984 7.16946 13.9941 7.16917 13.9895 7.16902L13.9899 7.17162L13.8532 7.19373L13.858 7.21197C13.8956 7.19621 13.9551 7.18602 13.9934 7.18825ZM13.9934 7.18825C13.9918 7.1827 13.9906 7.17715 13.9899 7.17162L14.0001 7.16996L14.0006 7.18884L13.9934 7.18825ZM13.9763 7.04255L13.9768 7.04363L13.9822 7.04411L13.9855 7.02606L13.968 7.02111L13.9689 7.02435C13.9374 7.0214 13.9068 7.01811 13.877 7.01443L13.3419 6.86289C13.3206 6.85144 13.2999 6.83934 13.2799 6.82656L13.2725 6.84321L13.3419 6.86289C13.4851 6.93978 13.6576 6.98734 13.877 7.01443L13.9763 7.04255ZM13.9763 7.04255C13.9731 7.03646 13.9707 7.03038 13.9689 7.02435L13.9839 7.02571L13.9806 7.04376L13.9763 7.04255ZM13.907 6.79442L13.9069 6.7948L13.9117 6.79627L13.9135 6.79698L13.9136 6.79684L13.9141 6.79703L13.92 6.779L13.9117 6.77574L13.9114 6.77649L13.5716 6.67107L13.5665 6.68919L13.5778 6.69271C13.6314 6.70837 13.7476 6.74105 13.7369 6.73798C13.7563 6.74353 13.7731 6.74849 13.7891 6.75345C13.8302 6.76609 13.8675 6.77897 13.907 6.79442ZM13.907 6.79442C13.9077 6.78827 13.9092 6.78228 13.9114 6.77649L13.9194 6.77896L13.9136 6.79684L13.9117 6.79627L13.907 6.79442ZM14.2991 6.6121L14.2997 6.61342L14.3003 6.61354L14.305 6.59577L14.2909 6.59075L14.2917 6.5932C14.2536 6.58649 14.2175 6.5794 14.1832 6.57184L13.8821 6.46449C13.8622 6.45251 13.844 6.43972 13.8274 6.42603L13.8185 6.44183L13.8821 6.46449C13.9581 6.51032 14.0583 6.54427 14.1832 6.57184L14.2988 6.61303L14.2991 6.6121ZM14.2991 6.6121C14.2961 6.60601 14.2937 6.59969 14.2917 6.5932L14.3034 6.59527L14.2991 6.6121ZM14.3176 6.45723L14.3049 6.45936C14.3028 6.46316 14.3008 6.46711 14.299 6.47119L14.3108 6.47433L14.3157 6.4788C14.2983 6.51843 14.2971 6.57235 14.3195 6.61145C14.3502 6.66526 14.421 6.69176 14.5374 6.67986L14.5524 6.69348L14.5574 6.6775C14.5506 6.67841 14.5439 6.67919 14.5374 6.67986L14.3157 6.4788L14.317 6.47594C14.3274 6.4786 14.3378 6.48111 14.3483 6.48347L14.32 6.45784C14.3504 6.46565 14.3809 6.47221 14.4116 6.47747L14.4605 6.50272L14.4658 6.48537C14.4477 6.48319 14.4296 6.48056 14.4116 6.47747L13.685 6.10241C13.6679 6.08728 13.6511 6.07182 13.6345 6.05605L13.624 6.07094L13.685 6.10241C13.875 6.2712 14.0915 6.39861 14.3176 6.45723ZM14.3176 6.45723L14.3191 6.457L14.32 6.45784L14.3176 6.45723ZM14.317 6.47594L14.3108 6.47433L14.3068 6.47066L14.3209 6.4683L14.317 6.47594ZM17.1565 8.37426L17.1562 8.3746L17.1699 8.38686C17.2311 8.32098 17.3269 8.20767 17.3653 8.15619L17.3509 8.14471L17.3506 8.14512L17.1566 8.37417C17.2173 8.30873 17.3127 8.19601 17.3506 8.14512L17.3649 8.15661L17.1702 8.38651L17.1565 8.37426Z" fill="black"/>
<path fill-rule="evenodd" clip-rule="evenodd" d="M16.8777 6.6311C16.9054 6.61639 16.9192 6.61223 16.9503 6.6063C16.958 6.60482 16.9628 6.60378 16.9678 6.60231C16.9874 6.5966 17.0044 6.58563 17.0269 6.56261C17.0401 6.54918 17.0539 6.5356 17.0684 6.52198L17.586 6.22563C17.611 6.24957 17.6394 6.25596 17.6827 6.23978C17.7133 6.22825 17.7287 6.20597 17.7347 6.17389C17.7364 6.16474 17.737 6.15887 17.7383 6.14199L17.7386 6.1383L17.7908 6.10842C17.8014 6.10771 17.8122 6.1075 17.8236 6.10778L17.8241 6.08936L17.7908 6.10842C17.7755 6.10944 17.7608 6.1115 17.7459 6.11465L17.7451 6.11481L17.7435 6.09634L17.7224 6.11922L17.7412 6.0976L17.7432 6.09637C17.7405 6.09664 17.7381 6.09716 17.736 6.09796C17.7131 6.10319 17.6892 6.11087 17.6584 6.12255C17.6381 6.13025 17.5504 6.16556 17.5513 6.16521C17.4153 6.21916 17.1734 6.3888 17.0205 6.54287L16.9473 6.5881L16.9469 6.58819C16.9141 6.59444 16.8988 6.59907 16.8691 6.61481L16.8777 6.6311ZM16.9559 6.58634L16.9473 6.5881L16.8777 6.6311L16.9559 6.58634ZM17.0053 6.55809L17.0138 6.5497L17.0205 6.54287L17.0967 6.4958C17.0871 6.50453 17.0776 6.51326 17.0684 6.52198L17.0053 6.55809ZM17.5441 6.18813C17.4267 6.2388 17.2396 6.36687 17.0967 6.4958L17.5677 6.20482L17.5751 6.21381L17.5767 6.21578C17.5798 6.21933 17.5829 6.22262 17.586 6.22563L17.6031 6.21584C17.622 6.23159 17.643 6.23442 17.6764 6.22191C17.7003 6.21291 17.7118 6.19628 17.7167 6.17025C17.7179 6.16379 17.7185 6.15903 17.7193 6.14934L17.7386 6.1383C17.7401 6.1203 17.7418 6.11558 17.7451 6.11528L17.7451 6.11481L17.7317 6.11739L17.7248 6.11871L17.7224 6.11922C17.7234 6.11416 17.7246 6.11008 17.7263 6.10685L17.7412 6.0976L17.7421 6.09661L17.736 6.09796C17.7316 6.0996 17.7285 6.10245 17.7263 6.10685L17.6862 6.13162C17.6683 6.1385 17.6412 6.14927 17.5977 6.16658L17.5977 6.16658L17.5977 6.16659L17.5977 6.16659L17.5977 6.16659L17.5977 6.16659L17.5685 6.1782C17.5589 6.1702 17.549 6.16807 17.5377 6.17334L17.5441 6.18813ZM17.5837 6.19493L17.5677 6.20482C17.5645 6.20092 17.5613 6.19714 17.5599 6.19573C17.5538 6.18952 17.5503 6.18833 17.5452 6.19069L17.5441 6.18813L17.558 6.18235L17.5685 6.1782L17.5727 6.18218C17.5748 6.18431 17.5796 6.19001 17.5837 6.19493ZM17.5837 6.19493L17.59 6.20263L17.5901 6.20263L17.5905 6.20315C17.5947 6.20803 17.5988 6.21227 17.6031 6.21584L17.7193 6.14934L17.72 6.14052C17.7206 6.13201 17.7213 6.12497 17.7224 6.11922C17.7152 6.12089 17.7069 6.12364 17.6862 6.13162L17.5837 6.19493ZM17.0053 6.55809L16.9559 6.58634L16.9627 6.5846C16.9767 6.58054 16.9892 6.57318 17.0053 6.55809ZM20.8481 7.06794L20.8396 7.07112L20.8332 7.05382L20.848 7.04835C20.8485 7.05465 20.8485 7.06119 20.8481 7.06794ZM20.7779 7.23171C20.8059 7.1976 20.8318 7.14874 20.8426 7.10428C20.8456 7.0916 20.8475 7.07946 20.8481 7.06794C21.2489 6.91948 21.4725 6.82401 21.7414 6.6685C21.8803 6.58813 22.0095 6.50132 22.1285 6.40669L22.1171 6.39224C21.9988 6.48628 21.8704 6.57259 21.7322 6.65253C21.4659 6.80657 21.2439 6.90155 20.848 7.04835C20.8451 7.01092 20.8271 6.98175 20.7925 6.96476C21.1431 6.85054 21.4709 6.6968 21.5965 6.57323L21.5836 6.56007C21.4577 6.68393 21.1208 6.84038 20.7642 6.95454L20.7641 6.95453L20.7641 6.95455C20.6594 6.98808 20.5529 7.01797 20.4496 7.0423C20.4255 7.03077 20.3964 7.02099 20.3622 7.01316C20.1428 6.96306 19.8126 7.01607 19.6106 7.1327C19.5834 7.12582 19.5564 7.1195 19.5299 7.11384C19.5913 7.05906 19.6235 6.98875 19.5985 6.92272L19.5813 6.92927C19.632 7.06309 19.4075 7.22488 19.2149 7.18843L19.2115 7.20654C19.3177 7.22665 19.4333 7.18989 19.5119 7.12888C19.6091 7.14895 19.7155 7.17858 19.8108 7.21199L19.8109 7.21318L19.8131 7.21281C19.925 7.25219 20.0211 7.29673 20.0684 7.337C20.1231 7.3834 20.1518 7.42466 20.1501 7.45618C20.1482 7.49076 20.1083 7.51739 20.0231 7.53251C19.9165 7.55152 19.8483 7.55624 19.7531 7.54574L19.6993 7.53545L19.6987 7.5386C19.6636 7.53334 19.6243 7.52644 19.5786 7.51784C19.4484 7.42577 19.2485 7.33522 19.0422 7.26403L19.0362 7.28146C19.2395 7.35159 19.4369 7.44099 19.5653 7.53099L19.5647 7.53398L19.5712 7.53521C19.6079 7.56135 19.6386 7.58752 19.6619 7.61325C19.7183 7.67572 19.7112 7.71718 19.6493 7.74109C19.5882 7.76467 19.4798 7.76734 19.3553 7.7485C19.1214 7.71297 18.7331 7.51366 18.5359 7.33695L18.5236 7.3507C18.6428 7.45747 18.8302 7.57207 19.0125 7.65482L19.012 7.65537C19.0569 7.70079 19.0987 7.76699 19.1174 7.82724C19.1349 7.88372 19.1123 7.9113 19.0606 7.90719C18.9913 7.90188 18.9401 7.88982 18.8733 7.85792L18.8706 7.86351C18.8386 7.82679 18.7955 7.79179 18.7412 7.76202C18.5928 7.68068 18.3995 7.50977 18.3096 7.38441L18.2947 7.39518C18.3862 7.52278 18.5816 7.69554 18.7324 7.7782C18.903 7.87161 18.9552 8.01499 18.9032 8.09078C18.8572 8.15783 18.7039 8.16662 18.551 8.07555C18.3683 7.96657 18.1572 7.6202 18.1289 7.3762L18.1106 7.37833C18.1396 7.62787 18.3539 7.97939 18.5416 8.0914C18.5722 8.10959 18.6029 8.12398 18.6329 8.13483C18.6468 8.17328 18.6525 8.22125 18.649 8.29626C18.6446 8.39018 18.5757 8.45362 18.4917 8.42182C18.4088 8.39046 18.3448 8.32074 18.302 8.23406L18.2855 8.24224C18.3302 8.33273 18.3973 8.40582 18.4852 8.43907C18.5083 8.44781 18.5305 8.45033 18.5508 8.44768C18.6005 8.55326 18.6277 8.63073 18.6242 8.65893C18.619 8.70143 18.608 8.71439 18.5691 8.70534L18.565 8.7233C18.617 8.73543 18.6361 8.71309 18.6425 8.66118C18.6465 8.6284 18.6195 8.55108 18.5693 8.44374C18.5796 8.44065 18.5893 8.43617 18.5983 8.43047C18.6682 8.52311 18.7194 8.58911 18.7825 8.66543C18.8014 8.68832 18.8198 8.71012 18.8377 8.73072C18.9039 8.80717 18.9603 8.86483 19.0044 8.89934L19.0157 8.8848C18.9727 8.8512 18.917 8.79425 18.8515 8.71862C18.8338 8.69814 18.8154 8.67645 18.7966 8.65366C18.7338 8.57765 18.6827 8.51186 18.6131 8.41953C18.6446 8.39241 18.6649 8.34854 18.6674 8.29712C18.6695 8.25186 18.6683 8.21583 18.664 8.18552C18.8461 8.39649 19.2738 8.79238 19.4011 8.86464L19.4102 8.84859C19.2799 8.77467 18.8234 8.35018 18.657 8.1488L18.6566 8.14912L18.6546 8.1421C18.7613 8.17498 18.8569 8.16279 18.9042 8.11779C19.0108 8.2576 19.3435 8.45395 19.515 8.48683L19.5184 8.46872C19.3499 8.43642 19.0174 8.23963 18.9166 8.1037L18.9183 8.10123C18.9495 8.05582 18.9482 7.99088 18.9135 7.92524C19.0348 8.02695 19.2386 8.17689 19.4273 8.30832L19.4378 8.29318C19.2361 8.15274 19.0168 7.99082 18.9008 7.89025C18.9539 7.91176 19.0004 7.92107 19.0592 7.92557C19.0864 7.92773 19.108 7.92187 19.1222 7.90916C19.2505 8.04299 19.5804 8.31252 19.7115 8.37741L19.7196 8.36087C19.5902 8.2968 19.2593 8.0263 19.1337 7.89457C19.1433 7.87683 19.1444 7.85212 19.1349 7.82177C19.1191 7.77078 19.0879 7.71624 19.0517 7.67216C19.1612 7.71927 19.2669 7.75371 19.3526 7.76673C19.3783 7.77063 19.4035 7.77363 19.4277 7.77573L19.4264 7.77714C19.5878 7.92046 19.8867 8.11661 20.0622 8.20046L20.0701 8.18381C19.902 8.10347 19.6184 7.91839 19.4551 7.77773C19.5039 7.78065 19.5484 7.77965 19.5862 7.77473C19.6362 7.81525 19.7289 7.87203 19.862 7.94589L19.9157 7.97545C19.9612 8.00028 20.0706 8.05875 20.1383 8.09497L20.1943 8.12494L20.203 8.10872L20.1468 8.07861C20.079 8.04237 19.9698 7.98402 19.9245 7.95926L19.8709 7.92976C19.7499 7.86259 19.6624 7.80961 19.611 7.77075C19.6277 7.76751 19.6428 7.76336 19.6559 7.75829C19.6695 7.75302 19.681 7.74682 19.6902 7.73975C20.0301 7.95464 20.2465 8.06806 20.4678 8.11959L20.472 8.10163C20.2542 8.05094 20.0398 7.93881 19.704 7.72666C19.7205 7.70673 19.7231 7.68179 19.7108 7.65312C19.7494 7.66859 19.7949 7.6876 19.8526 7.71228L19.9998 7.77564L20.0419 7.79378L20.0789 7.80964C20.2909 7.90023 20.4239 7.9519 20.5152 7.97542L20.5198 7.95756C20.4298 7.93437 20.2972 7.88288 20.0861 7.79268L20.0491 7.77684L20.0071 7.75871L19.8598 7.69532C19.7912 7.66602 19.74 7.64468 19.6968 7.62773L19.6968 7.62782C19.6909 7.61909 19.6838 7.6101 19.6755 7.60086C19.6581 7.58161 19.6367 7.56219 19.612 7.54276C19.6658 7.55249 19.7103 7.55954 19.7503 7.56397C20.1016 7.63251 20.441 7.72266 20.5239 7.79394L20.5359 7.77994C20.4587 7.71363 20.1809 7.63477 19.8694 7.56928C19.9172 7.56772 19.9657 7.56147 20.0263 7.55066C20.0768 7.5417 20.1138 7.5283 20.1373 7.51056L20.1375 7.51177C20.1514 7.51034 20.1651 7.50875 20.1786 7.507C20.3374 7.57582 20.5925 7.5947 20.7157 7.53548C20.7544 7.61286 20.6944 7.72942 20.6252 7.7516L20.6308 7.76916C20.669 7.75692 20.7041 7.72082 20.7254 7.67683C20.9062 7.71908 21.3122 7.72722 21.5091 7.68388L21.5053 7.66524C21.3123 7.70772 20.9129 7.70001 20.733 7.65908C20.7409 7.63845 20.7456 7.61664 20.7462 7.59511C21.0162 7.61959 21.3412 7.5992 21.5069 7.51989L21.4992 7.50259C21.3368 7.58034 21.013 7.60045 20.7456 7.57594C20.7441 7.55883 20.7397 7.54218 20.7319 7.52677L20.7379 7.52299C20.7588 7.50916 20.7759 7.49373 20.7894 7.47735C21.1217 7.42957 21.3667 7.35233 21.5903 7.24022C21.6387 7.21596 21.74 7.15882 21.8218 7.11264C21.8763 7.08193 21.9221 7.05606 21.9381 7.04793C21.9673 7.03312 21.9945 7.02055 22.0214 7.00972L22.0145 6.99262C21.9871 7.00366 21.9594 7.01644 21.9298 7.03149C21.9135 7.03979 21.8669 7.06604 21.812 7.09705C21.7303 7.14314 21.6299 7.19977 21.5821 7.22373C21.3642 7.33299 21.1257 7.40888 20.8043 7.45655C20.8192 7.43219 20.8267 7.40638 20.827 7.38097C21.3857 7.24054 21.8696 7.03108 22.1949 6.76329L22.1833 6.74904C21.8611 7.01427 21.3808 7.22242 20.8259 7.36224C20.8207 7.3219 20.7972 7.28373 20.7565 7.25525C21.0517 7.19207 21.2456 7.1054 21.6192 6.89673L21.6436 6.88309C21.7497 6.82385 21.8069 6.79263 21.873 6.75875L21.8646 6.74234C21.7983 6.77634 21.741 6.80764 21.6347 6.86698L21.6103 6.88062C21.2489 7.08244 21.0569 7.16943 20.7779 7.23171ZM20.756 7.25488C20.7633 7.24836 20.7707 7.24053 20.7779 7.23171L20.7516 7.23746L20.7552 7.25433L20.746 7.24834L20.7364 7.26406L20.7411 7.26707C20.5823 7.39391 20.4256 7.46888 20.2151 7.50178C20.205 7.49805 20.1952 7.49413 20.1857 7.49002L20.1784 7.50694L20.1786 7.507C20.1909 7.5054 20.2031 7.50366 20.2151 7.50178C20.3806 7.56273 20.6281 7.57342 20.7278 7.5076C20.8335 7.4377 20.833 7.32717 20.7411 7.26707L20.7511 7.25908L20.7554 7.25537L20.7554 7.25549L20.7565 7.25525L20.756 7.25488ZM20.756 7.25488L20.7552 7.25433L20.7554 7.25537L20.756 7.25488ZM20.8259 7.36224L20.8121 7.36569L20.8166 7.38358L20.827 7.38097C20.827 7.37469 20.8267 7.36844 20.8259 7.36224ZM20.8043 7.45655L20.7799 7.4601L20.7824 7.47835L20.7894 7.47735C20.795 7.47057 20.7999 7.46362 20.8043 7.45655ZM20.7456 7.57594C20.7462 7.58228 20.7464 7.58868 20.7462 7.59511L20.7361 7.59417L20.7377 7.5752L20.7456 7.57594ZM20.733 7.65908L20.7226 7.65661L20.7183 7.67514L20.7254 7.67683C20.7282 7.67104 20.7307 7.66511 20.733 7.65908ZM20.7319 7.52677C20.7268 7.52984 20.7214 7.53274 20.7157 7.53548L20.7125 7.52968L20.7284 7.52038L20.7319 7.52677ZM20.1566 7.49113L20.1356 7.49344L20.1373 7.51056C20.1453 7.50458 20.1517 7.4981 20.1566 7.49113ZM20.1151 7.35517C20.1513 7.39242 20.1701 7.42669 20.1685 7.45719C20.1678 7.46956 20.1638 7.48088 20.1566 7.49113C20.397 7.46316 20.566 7.38561 20.7395 7.24475C20.7732 7.21729 20.8115 7.15465 20.8247 7.09993C20.8403 7.03557 20.8224 6.9905 20.7646 6.97375L20.7925 6.96476C20.7841 6.96061 20.7746 6.95718 20.7642 6.95454L20.7641 6.95455L20.7597 6.97241L20.7646 6.97375C20.6678 7.00463 20.5695 7.03236 20.4737 7.0555C20.4663 7.05088 20.4583 7.04648 20.4496 7.0423L20.4492 7.0424L20.4534 7.06034L20.4737 7.0555C20.5076 7.07677 20.5276 7.10272 20.5342 7.13246C20.544 7.17658 20.5222 7.22519 20.4824 7.26288C20.4142 7.32738 20.2672 7.36521 20.1151 7.35517ZM20.094 7.33496L20.0919 7.33475L20.09 7.35309C20.0984 7.35393 20.1067 7.35462 20.1151 7.35517C20.1086 7.34853 20.1016 7.34179 20.094 7.33496ZM19.8505 7.2067C19.9508 7.24393 20.0357 7.28498 20.0803 7.32294L20.094 7.33496C20.2493 7.35011 20.4026 7.31303 20.4698 7.24947C20.5054 7.21581 20.5244 7.17324 20.5163 7.13646C20.5061 7.09064 20.4556 7.05341 20.3581 7.03113C20.1492 6.98342 19.8356 7.03153 19.6364 7.13937L19.6106 7.1327L19.606 7.13541L19.6153 7.15132C19.6222 7.14726 19.6292 7.14327 19.6364 7.13937C19.6965 7.15524 19.7569 7.17363 19.8136 7.19342L19.8079 7.19439L19.8108 7.21199L19.8131 7.21281C19.8248 7.21078 19.8373 7.20874 19.8505 7.2067ZM19.8505 7.2067C19.9985 7.18381 20.2286 7.1615 20.3477 7.1615V7.14245C20.2179 7.14245 19.9589 7.16858 19.8136 7.19342C19.8261 7.19778 19.8384 7.20221 19.8505 7.2067ZM19.8694 7.56928C19.8312 7.57052 19.7934 7.56877 19.7503 7.56397L19.6959 7.55356L19.6987 7.5386C19.718 7.54147 19.736 7.54385 19.7531 7.54574C19.7921 7.55335 19.831 7.56121 19.8694 7.56928ZM19.6968 7.62782L19.6901 7.64489L19.7108 7.65312C19.7074 7.64498 19.7027 7.63653 19.6968 7.62782ZM19.704 7.72666C19.7001 7.7313 19.6955 7.73567 19.6902 7.73975L19.6843 7.73603L19.6941 7.72044L19.704 7.72666ZM19.611 7.77075C19.6055 7.76658 19.6004 7.76257 19.5957 7.75873L19.5841 7.77299L19.5862 7.77473C19.5948 7.7736 19.6031 7.77228 19.611 7.77075ZM19.4551 7.77773C19.4461 7.7772 19.437 7.77653 19.4277 7.77573L19.4386 7.76333L19.4551 7.77773ZM19.1337 7.89457L19.1287 7.88931L19.1154 7.90195L19.1222 7.90916C19.1269 7.90501 19.1307 7.90013 19.1337 7.89457ZM18.8878 7.88479L18.9008 7.89025C18.8917 7.88236 18.8833 7.87485 18.8755 7.86776L18.8749 7.86846L18.8706 7.86351L18.8654 7.87456L18.8681 7.87587L18.8631 7.88139C18.8777 7.89466 18.8946 7.90937 18.9135 7.92524C18.9064 7.91173 18.8978 7.89819 18.8878 7.88479ZM18.8878 7.88479C18.8814 7.882 18.8748 7.87903 18.8681 7.87587L18.8749 7.86846C18.8794 7.87387 18.8837 7.87932 18.8878 7.88479ZM18.9166 8.1037C18.9129 8.1087 18.9088 8.1134 18.9042 8.11779C18.9014 8.11415 18.8988 8.11055 18.8963 8.10699L18.9114 8.09648L18.9166 8.1037ZM18.6566 8.14912C18.6596 8.16037 18.6621 8.17241 18.664 8.18552C18.6565 8.17688 18.6495 8.16855 18.6429 8.16056L18.6566 8.14912ZM18.6131 8.41953L18.6076 8.41226L18.5929 8.42338L18.5983 8.43047C18.6035 8.42721 18.6084 8.42356 18.6131 8.41953ZM18.5693 8.44374L18.563 8.43047L18.5464 8.4384L18.5508 8.44768C18.5572 8.44685 18.5633 8.44553 18.5693 8.44374ZM18.6546 8.1421C18.6474 8.13988 18.6402 8.13746 18.6329 8.13483L18.6319 8.13227L18.6491 8.12578C18.6511 8.13105 18.6529 8.13648 18.6546 8.1421ZM19.0517 7.67216C19.0387 7.66655 19.0256 7.66077 19.0125 7.65482L19.025 7.64238C19.0341 7.65157 19.043 7.66156 19.0517 7.67216ZM19.612 7.54276C19.6015 7.53445 19.5903 7.52614 19.5786 7.51784L19.5681 7.51587L19.5653 7.53099L19.5712 7.53521L19.612 7.54276ZM19.5119 7.12888C19.5181 7.12401 19.5242 7.119 19.5299 7.11384L19.5075 7.10918L19.5039 7.12725L19.5119 7.12888ZM18.3908 6.94219C18.3138 6.96408 18.2707 6.98622 18.1896 7.03836L18.1993 7.05455C18.279 7.00329 18.3207 6.98186 18.3957 6.96055L18.3908 6.94219ZM18.7488 7.32277C18.9603 7.44276 19.2446 7.57763 19.4419 7.64931L19.4481 7.63198C19.2518 7.56067 18.9685 7.42624 18.7579 7.30672L18.7488 7.32277ZM19.5177 7.33308C19.3651 7.30159 19.2334 7.28098 19.1005 7.26942L19.1021 7.25106C19.2357 7.26268 19.3681 7.28341 19.5214 7.31503C19.5828 7.32771 19.6463 7.34181 19.7276 7.36063L19.8045 7.37856L19.9398 7.41008L19.9357 7.42804L19.8003 7.3965L19.7235 7.37859C19.6423 7.3598 19.579 7.34573 19.5177 7.33308ZM18.2022 7.39687C18.2395 7.50954 18.5038 7.84133 18.6285 7.91996L18.6382 7.90435C18.5171 7.82796 18.2556 7.49961 18.2196 7.39106L18.2022 7.39687ZM18.4342 8.19569C18.393 8.09495 18.1375 7.7133 18.0007 7.53345L18.0153 7.52226C18.1531 7.70346 18.4092 8.0859 18.4512 8.18869L18.4342 8.19569ZM18.3697 7.37082C18.455 7.46784 18.7345 7.6812 18.8618 7.73264L18.8686 7.71554C18.7442 7.66527 18.4671 7.45363 18.3835 7.35862L18.3697 7.37082ZM17.8507 6.337C17.7993 6.36373 17.7618 6.40282 17.7309 6.45724L17.7467 6.46692C17.7759 6.41547 17.8109 6.37899 17.859 6.35402L17.8507 6.337ZM16.9968 6.9391C16.9918 6.86972 16.9989 6.77939 17.0177 6.71451L17.0354 6.71966C17.0172 6.78226 17.0102 6.87043 17.0151 6.93775L16.9968 6.9391ZM17.0094 7.05351C16.9943 7.11783 17.0054 7.2675 17.026 7.35028L17.0438 7.34581C17.0239 7.26563 17.013 7.11868 17.0273 7.05773L17.0094 7.05351ZM17.0744 7.54844C17.0658 7.53487 17.0594 7.52208 17.0552 7.51007L17.0725 7.50364C17.0761 7.51411 17.0819 7.52563 17.0898 7.53805C17.0995 7.55361 17.1121 7.57017 17.1273 7.58788C17.1399 7.60252 17.1501 7.61352 17.1697 7.63393L17.1567 7.64736C17.1369 7.62672 17.1265 7.61552 17.1136 7.60054C17.0979 7.58218 17.0847 7.5649 17.0744 7.54844ZM17.1458 7.16359C17.1374 7.27052 17.1961 7.47346 17.2558 7.54227C17.2689 7.6561 17.3478 7.81901 17.4591 7.93129L17.4721 7.91829C17.3636 7.8089 17.2866 7.64973 17.2718 7.53504C17.2134 7.46529 17.1561 7.26725 17.1641 7.16504L17.1458 7.16359ZM17.1211 7.04441C17.1116 6.97684 17.1093 6.90907 17.117 6.86601L17.1351 6.86927C17.1278 6.91 17.13 6.97603 17.1392 7.04184L17.1211 7.04441ZM17.279 6.44623C17.2424 6.5386 17.222 6.73404 17.2329 6.81032C17.2349 6.82494 17.2346 6.82863 17.2282 6.89C17.2165 7.0019 17.2211 7.08678 17.2581 7.19641L17.2755 7.1905C17.2395 7.08379 17.235 7.00142 17.2465 6.89193C17.2532 6.82778 17.2534 6.82468 17.2511 6.80772C17.2406 6.73453 17.2607 6.54233 17.296 6.45304L17.279 6.44623ZM17.4071 7.15444C17.368 7.02283 17.3665 6.70678 17.407 6.53956L17.4249 6.54391C17.3851 6.70808 17.3865 7.02082 17.4247 7.14916L17.4071 7.15444ZM17.3572 7.20397C17.335 7.30215 17.3374 7.41581 17.3658 7.50135L17.3832 7.49552C17.3559 7.41336 17.3537 7.30309 17.3751 7.20804L17.3572 7.20397ZM17.6907 7.05325C17.5806 6.93029 17.5139 6.74695 17.5184 6.60381L17.5368 6.60439C17.5324 6.74279 17.5974 6.9215 17.7043 7.04093L17.6907 7.05325ZM17.4895 7.06314C17.4768 7.22196 17.4859 7.36785 17.5148 7.4512C17.5223 7.47271 17.5275 7.49885 17.5349 7.54674L17.542 7.59338C17.5449 7.61175 17.5476 7.62722 17.5504 7.64205C17.5643 7.71437 17.5825 7.76758 17.6114 7.80872L17.6264 7.79811C17.5993 7.75956 17.5819 7.70854 17.5685 7.63857C17.5657 7.62397 17.563 7.60869 17.5602 7.5905L17.553 7.54393C17.5455 7.49493 17.5401 7.46807 17.5322 7.44515C17.5043 7.36468 17.4953 7.22111 17.5078 7.06461L17.4895 7.06314ZM17.6375 7.32229L17.6306 7.29618L17.6483 7.29145L17.6552 7.31767C17.6648 7.35461 17.6704 7.38247 17.673 7.41028C17.6768 7.45043 17.6732 7.48508 17.6604 7.51471L17.6435 7.50736C17.655 7.48095 17.6582 7.44931 17.6547 7.41201C17.6522 7.38538 17.6468 7.35837 17.6375 7.32229ZM17.7384 7.17525C17.7689 7.27563 17.7879 7.39845 17.7836 7.45184L17.8019 7.45335C17.8065 7.39729 17.7871 7.27229 17.7559 7.16986L17.7384 7.17525ZM17.8676 7.98778C17.8298 7.92126 17.7955 7.81499 17.7877 7.72923L17.806 7.72755C17.8135 7.81064 17.847 7.91437 17.8836 7.97864L17.8676 7.98778ZM17.6514 7.98198C17.6861 8.08652 17.7457 8.19445 17.7995 8.237L17.8109 8.22252C17.7605 8.18274 17.7025 8.07757 17.6689 7.97616L17.6514 7.98198ZM18.1609 8.27439C18.1241 8.16301 18.1 8.10889 18.0419 8.02611L18.0569 8.0155C18.1162 8.10004 18.141 8.15564 18.1783 8.2686L18.1609 8.27439Z" fill="black"/>
<path fill-rule="evenodd" clip-rule="evenodd" d="M17.3694 8.05104C17.3808 8.05227 17.388 8.05272 17.4077 8.05371C17.4534 8.056 17.4695 8.06066 17.4901 8.08249C17.5037 8.09688 17.5172 8.11863 17.5317 8.15029C17.5826 8.26084 17.7215 8.42984 17.8027 8.48247L17.8026 8.48252C17.9101 8.67175 17.9579 8.92153 17.9245 9.05559C17.915 8.99661 17.8816 8.95122 17.83 8.91404C17.81 8.89959 17.7972 8.89224 17.7624 8.87371C17.7164 8.91395 17.6493 8.96027 17.6155 8.96751L17.6193 8.98554C17.6575 8.97737 17.7276 8.92897 17.7649 8.88807C17.7819 8.90288 17.793 8.91062 17.8054 8.91921L17.8193 8.92901C17.8673 8.96362 17.8978 9.00515 17.9064 9.0588L17.9245 9.05588L17.9233 9.06054L17.941 9.06536C17.9767 8.93309 17.9335 8.68991 17.8319 8.49774C17.9571 8.5554 18.0371 8.62039 18.0528 8.71205L18.0702 8.71426L18.0792 8.69408C18.121 8.60002 18.1368 8.53538 18.1209 8.46864L18.1225 8.47054L18.1372 8.48823C18.1832 8.54367 18.2171 8.58447 18.2422 8.61532L18.2406 8.61555C18.243 8.63311 18.2454 8.65985 18.2481 8.70062C18.2486 8.7079 18.2499 8.72898 18.2514 8.75293C18.2535 8.78548 18.2559 8.82333 18.257 8.8391C18.2636 8.93593 18.2702 9.00044 18.2792 9.04252L18.2971 9.03865C18.2884 8.99774 18.2818 8.93378 18.2753 8.83784C18.2742 8.82214 18.2718 8.78439 18.2698 8.75187C18.2683 8.72786 18.2669 8.70669 18.2664 8.69937C18.2648 8.67477 18.2633 8.65521 18.2618 8.63959C18.3009 8.68867 18.3111 8.70586 18.3164 8.72446C18.318 8.73003 18.3192 8.73574 18.3205 8.74246L18.3205 8.74247L18.3221 8.74999C18.3374 8.82328 18.3963 8.92378 18.4553 8.98835L18.4689 8.97588C18.4118 8.91356 18.3546 8.81583 18.34 8.7462L18.3381 8.73654L18.3381 8.73654C18.3366 8.72925 18.3354 8.72311 18.3337 8.71711C18.3245 8.68505 18.3013 8.65703 18.1536 8.47924L18.1366 8.45874C18.1241 8.44363 18.1128 8.42978 18.1021 8.41642L18.0866 8.42604C18.1231 8.50571 18.1128 8.57192 18.0645 8.68202C18.0372 8.59422 17.9535 8.53213 17.8296 8.47645C17.758 8.44436 17.6019 8.25885 17.5484 8.14257C17.5331 8.10924 17.5186 8.08587 17.5034 8.06981C17.4787 8.04362 17.4587 8.0378 17.4086 8.0353C17.3892 8.03433 17.3823 8.03389 17.3713 8.03271L17.3694 8.05104ZM18.2618 8.63959C18.2608 8.62904 18.2598 8.62028 18.2587 8.61297L18.2422 8.61532C18.2494 8.6242 18.2559 8.63225 18.2618 8.63959ZM17.9245 9.05588L17.9246 9.05586L17.9245 9.05559L17.9245 9.05588ZM17.8319 8.49774L17.8221 8.49328C17.8161 8.49059 17.8096 8.48695 17.8027 8.48247L17.8186 8.47339C17.8231 8.4814 17.8276 8.48952 17.8319 8.49774ZM17.4982 8.33041C17.5304 8.42768 17.5559 8.54445 17.5585 8.61203L17.5769 8.61132C17.5742 8.54173 17.5483 8.42337 17.5156 8.3246L17.4982 8.33041ZM17.7766 8.80989C17.7737 8.75533 17.7395 8.61247 17.7054 8.51729L17.7227 8.51106C17.7573 8.60778 17.792 8.75229 17.7949 8.80891L17.7766 8.80989ZM18.0974 8.77656C18.1241 8.84103 18.141 8.94279 18.1356 9.00344L18.1539 9.00507C18.1595 8.94138 18.1422 8.83664 18.1144 8.7695L18.0974 8.77656Z" fill="black"/>
</g>
</svg>
