<svg width="24" height="24" viewBox="0 0 24 24" fill="none" xmlns="http://www.w3.org/2000/svg">
<mask id="mask0_91_3399" style="mask-type:luminance" maskUnits="userSpaceOnUse" x="0" y="3" width="24" height="18">
<path d="M0 5.42993C0 4.32536 0.895431 3.42993 2 3.42993H22C23.1046 3.42993 24 4.32536 24 5.42993V18.5728C24 19.6774 23.1046 20.5728 22 20.5728H2C0.89543 20.5728 0 19.6774 0 18.5728V5.42993Z" fill="white"/>
</mask>
<g mask="url(#mask0_91_3399)">
<path d="M0 3.42993H24V20.5728H0V3.42993Z" fill="#EE343C"/>
<path fill-rule="evenodd" clip-rule="evenodd" d="M10.6727 7.24508C10.448 7.02037 10.0959 6.98551 9.83146 7.16178L9.52777 7.36424C9.10186 7.64818 9.14159 8.28631 9.59943 8.51523L10.4891 8.96007C10.715 9.073 10.8576 9.30384 10.8576 9.55636V9.62052C10.8576 9.98871 10.5592 10.2872 10.191 10.2872H9.87216C9.76866 10.2872 9.66658 10.2631 9.57401 10.2168L7.85884 9.35922C7.60218 9.23089 7.2922 9.2812 7.08929 9.4841L6.94024 9.63315C6.61848 9.95491 6.70651 10.4973 7.11351 10.7008L7.80441 11.0463C8.1464 11.2173 8.17608 11.6939 7.85794 11.906C7.4888 12.1521 7.60147 12.7217 8.0365 12.8087L8.51817 12.905C8.98063 12.9975 9.11583 13.5935 8.73853 13.8765L8.30731 14.1999C8.02598 14.4109 8.1752 14.8586 8.52687 14.8586C8.55679 14.8586 8.5866 14.8549 8.61562 14.8477L9.69715 14.5773C10.1072 14.4748 10.4286 14.9308 10.1941 15.2825C9.98922 15.5898 10.2095 16.0015 10.5789 16.0015H11.079C11.2881 16.0015 11.4737 16.1352 11.5398 16.3336C11.6873 16.7763 12.3136 16.7763 12.4612 16.3336C12.5273 16.1352 12.7129 16.0015 12.922 16.0015H13.4221C13.7915 16.0015 14.0118 15.5898 13.8069 15.2825C13.5724 14.9308 13.8938 14.4748 14.3038 14.5773L15.3854 14.8477C15.4144 14.8549 15.4442 14.8586 15.4741 14.8586C15.8258 14.8586 15.975 14.4109 15.6937 14.1999L15.2625 13.8765C14.8852 13.5935 15.0204 12.9975 15.4828 12.905L15.9645 12.8087C16.3995 12.7217 16.5122 12.1521 16.143 11.906C15.8249 11.6939 15.8546 11.2173 16.1966 11.0463L16.8875 10.7008C17.2945 10.4973 17.3825 9.95491 17.0607 9.63315L16.9117 9.4841C16.7088 9.28119 16.3988 9.23089 16.1421 9.35922L14.427 10.2168C14.3344 10.2631 14.2323 10.2872 14.1288 10.2872H13.81C13.4418 10.2872 13.1433 9.98871 13.1433 9.62052V9.55636C13.1433 9.30384 13.2857 9.07315 13.5116 8.96023C13.7899 8.82107 14.1068 8.66263 14.4016 8.51518C14.8595 8.28626 14.8991 7.64818 14.4732 7.36424L14.1695 7.16178C13.9051 6.98551 13.553 7.02037 13.3283 7.24508L12.4719 8.1015C12.2115 8.36185 11.7894 8.36185 11.5291 8.1015L10.6727 7.24508Z" fill="#262626"/>
</g>
</svg>
