<svg width="24" height="24" viewBox="0 0 24 24" fill="none" xmlns="http://www.w3.org/2000/svg">
<rect x="0.25" y="3.67993" width="23.5" height="16.6429" rx="1.75" fill="white" stroke="#F5F5F5" stroke-width="0.5"/>
<mask id="mask0_91_1069" style="mask-type:luminance" maskUnits="userSpaceOnUse" x="0" y="3" width="24" height="18">
<rect x="0.25" y="3.67993" width="23.5" height="16.6429" rx="1.75" fill="white" stroke="white" stroke-width="0.5"/>
</mask>
<g mask="url(#mask0_91_1069)">
<path fill-rule="evenodd" clip-rule="evenodd" d="M24 3.42993H0V20.5728H0.000144196L24 9.14429V3.42993ZM24 14.8586L0.000288391 20.5728H24V14.8586Z" fill="url(#paint0_linear_91_1069)"/>
<path fill-rule="evenodd" clip-rule="evenodd" d="M0 3.42993H8L0 20.5728V3.42993Z" fill="#0858B4"/>
<path fill-rule="evenodd" clip-rule="evenodd" d="M16 3.42993H24V9.14422L0 20.5728L16 3.42993Z" fill="#ED3535"/>
<path fill-rule="evenodd" clip-rule="evenodd" d="M24 20.5727V14.8584L0 20.5727H24Z" fill="#08964F"/>
<path fill-rule="evenodd" clip-rule="evenodd" d="M8 3.42993H16L0 20.5728L8 3.42993Z" fill="#FFDD67"/>
</g>
<defs>
<linearGradient id="paint0_linear_91_1069" x1="0" y1="3.42993" x2="0" y2="20.5728" gradientUnits="userSpaceOnUse">
<stop stop-color="#1DBE4F"/>
<stop offset="1" stop-color="#159B3F"/>
</linearGradient>
</defs>
</svg>
