<svg width="24" height="24" viewBox="0 0 24 24" fill="none" xmlns="http://www.w3.org/2000/svg">
<rect y="3.42993" width="24" height="17.1429" rx="2" fill="white"/>
<mask id="mask0_91_2899" style="mask-type:luminance" maskUnits="userSpaceOnUse" x="0" y="3" width="24" height="18">
<rect y="3.42993" width="24" height="17.1429" rx="2" fill="white"/>
</mask>
<g mask="url(#mask0_91_2899)">
<rect y="3.42993" width="24" height="17.1429" fill="#0A17A7"/>
<path fill-rule="evenodd" clip-rule="evenodd" d="M4 6.8585L0 3.42993H0.571429L4.57143 6.28707H5.71429L10.2857 3.42993V3.82982C10.2857 3.93747 10.2337 4.03849 10.1461 4.10107L6.28571 6.8585V8.00136L9.89784 11.0975C10.031 11.2116 9.9503 11.4299 9.77485 11.4299C9.73546 11.4299 9.69705 11.4176 9.665 11.3947L5.71429 8.57279H4.57143L0 11.4299V10.8585L4 8.00136V6.8585Z" fill="#FF2E3B"/>
<path fill-rule="evenodd" clip-rule="evenodd" d="M3.99993 6.85845V8.00131L-7.43866e-05 10.8585V11.4299L4.57135 8.57274H5.71421L9.66493 11.3947C9.69698 11.4176 9.73538 11.4299 9.77477 11.4299C9.95022 11.4299 10.031 11.2116 9.89776 11.0974L6.28564 8.00131V6.85845L10.1461 4.10102C10.2337 4.03845 10.2856 3.93742 10.2856 3.82977V3.42988L5.71421 6.28703H4.57135L0.571354 3.42988H-7.43866e-05L3.99993 6.85845ZM4.785 5.62036L0.784997 2.76322H-1.80225L3.33326 7.16508V7.65823L-0.666741 10.5154V12.6327L4.76255 9.23941H5.50057L9.27744 11.9372C9.42256 12.0408 9.59644 12.0965 9.77477 12.0965C10.5692 12.0965 10.9348 11.1082 10.3316 10.5912L6.95231 7.69469V7.20153L10.5335 4.64351C10.7963 4.45579 10.9523 4.15272 10.9523 3.82977V2.22705L5.52301 5.62036H4.785Z" fill="white"/>
<path fill-rule="evenodd" clip-rule="evenodd" d="M0 6.28707V8.57279H4V11.3347C4 11.7029 4.29848 12.0014 4.66667 12.0014H5.61905C5.98724 12.0014 6.28571 11.7029 6.28571 11.3347V8.57279H10.1905C10.5587 8.57279 10.8571 8.27431 10.8571 7.90612V6.95374C10.8571 6.58555 10.5587 6.28707 10.1905 6.28707H6.28571V3.42993H4V6.28707H0Z" fill="white"/>
<path fill-rule="evenodd" clip-rule="evenodd" d="M0 6.8585H4.57143V6.28707V3.42993H5.71429V6.28707V6.8585H10.2857V8.00136H5.71429V8.57279V11.4299H4.57143V8.57279V8.00136H0V6.8585Z" fill="#FF2E3B"/>
<path fill-rule="evenodd" clip-rule="evenodd" d="M17.1429 18.287L16.3347 18.5237L16.5714 17.7156L16.3347 16.9075L17.1429 17.1442L17.951 16.9075L17.7143 17.7156L17.951 18.5237L17.1429 18.287Z" fill="#CA1931"/>
<path fill-rule="evenodd" clip-rule="evenodd" d="M17.1429 7.42986L16.3347 7.66656L16.5714 6.85843L16.3347 6.05031L17.1429 6.287L17.951 6.05031L17.7143 6.85843L17.951 7.66656L17.1429 7.42986Z" fill="#CA1931"/>
<path fill-rule="evenodd" clip-rule="evenodd" d="M20.5713 10.8586L19.7632 11.0953L19.9999 10.2871L19.7632 9.47902L20.5713 9.71572L21.3794 9.47902L21.1428 10.2871L21.3794 11.0953L20.5713 10.8586Z" fill="#CA1931"/>
<path fill-rule="evenodd" clip-rule="evenodd" d="M13.7141 12.0014L12.906 12.2381L13.1427 11.43L12.906 10.6218L13.7141 10.8585L14.5223 10.6218L14.2856 11.43L14.5223 12.2381L13.7141 12.0014Z" fill="#CA1931"/>
</g>
</svg>
