<svg width="24" height="24" viewBox="0 0 24 24" fill="none" xmlns="http://www.w3.org/2000/svg">
<rect x="0.25" y="3.67993" width="23.5" height="16.6429" rx="1.75" fill="white" stroke="#F5F5F5" stroke-width="0.5"/>
<mask id="mask0_91_3106" style="mask-type:luminance" maskUnits="userSpaceOnUse" x="0" y="3" width="24" height="18">
<rect x="0.25" y="3.67993" width="23.5" height="16.6429" rx="1.75" fill="white" stroke="white" stroke-width="0.5"/>
</mask>
<g mask="url(#mask0_91_3106)">
<path fill-rule="evenodd" clip-rule="evenodd" d="M0 9.14422H24V3.42993H0V9.14422Z" fill="#DF1E35"/>
<path fill-rule="evenodd" clip-rule="evenodd" d="M0 20.5727H24V14.8584H0V20.5727Z" fill="#262626"/>
<path fill-rule="evenodd" clip-rule="evenodd" d="M16 10.8265C16 10.5787 16.2608 10.4175 16.4824 10.5283L16.9586 10.7664C17.0715 10.8229 17.1429 10.9383 17.1429 11.0645V13.3823C17.1429 13.5664 16.9936 13.7157 16.8095 13.7157H16.3333C16.1492 13.7157 16 13.5664 16 13.3823V10.8265Z" fill="#0F7A40"/>
<path fill-rule="evenodd" clip-rule="evenodd" d="M9.14282 10.8265C9.14282 10.5787 9.40359 10.4175 9.62523 10.5283L10.1014 10.7664C10.2143 10.8229 10.2857 10.9383 10.2857 11.0645V13.3823C10.2857 13.5664 10.1364 13.7157 9.95235 13.7157H9.47616C9.29206 13.7157 9.14282 13.5664 9.14282 13.3823V10.8265Z" fill="#0F7A40"/>
<path fill-rule="evenodd" clip-rule="evenodd" d="M13.7144 11.0645C13.7144 10.9383 13.7857 10.8229 13.8986 10.7664L14.3748 10.5283C14.5964 10.4175 14.8572 10.5787 14.8572 10.8265V13.3823C14.8572 13.5664 14.708 13.7157 14.5239 13.7157H14.0477C13.8636 13.7157 13.7144 13.5664 13.7144 13.3823V11.0645Z" fill="#0F7A40"/>
<path fill-rule="evenodd" clip-rule="evenodd" d="M11.4287 12.2074C11.4287 12.0811 11.5 11.9657 11.613 11.9092L12.0892 11.6711C12.3108 11.5603 12.5716 11.7215 12.5716 11.9693V12.624H14.2859V13.7157H12.5716H11.762C11.5779 13.7157 11.4287 13.5664 11.4287 13.3823V12.2074Z" fill="#0F7A40"/>
<path fill-rule="evenodd" clip-rule="evenodd" d="M6.85718 12.2074C6.85718 12.0811 6.92851 11.9657 7.04144 11.9092L7.51763 11.6711C7.73926 11.5603 8.00003 11.7215 8.00003 11.9693V12.624H9.71432V13.7157H8.00003H7.19051C7.00642 13.7157 6.85718 13.5664 6.85718 13.3823V12.2074Z" fill="#0F7A40"/>
</g>
</svg>
