<svg width="24" height="24" viewBox="0 0 24 24" fill="none" xmlns="http://www.w3.org/2000/svg">
<rect x="0.25" y="3.67993" width="23.5" height="16.6429" rx="1.75" fill="white" stroke="#F5F5F5" stroke-width="0.5"/>
<mask id="mask0_91_3191" style="mask-type:luminance" maskUnits="userSpaceOnUse" x="0" y="3" width="24" height="18">
<rect x="0.25" y="3.67993" width="23.5" height="16.6429" rx="1.75" fill="white" stroke="white" stroke-width="0.5"/>
</mask>
<g mask="url(#mask0_91_3191)">
<path fill-rule="evenodd" clip-rule="evenodd" d="M24 3.42993H6.85718V20.5728H24V3.42993Z" fill="#0A632F"/>
<path fill-rule="evenodd" clip-rule="evenodd" d="M20.2887 12.6447C20.1787 13.7167 19.7218 14.7468 18.9142 15.5544C16.9892 17.4794 13.8005 17.4118 11.7921 15.4034C9.78366 13.395 9.71606 10.2063 11.6411 8.28127C12.4487 7.47366 13.4787 7.01676 14.5507 6.90676C14.2131 7.10575 13.8934 7.3513 13.6017 7.64309C11.8516 9.39312 11.7651 12.1439 13.4083 13.7872C15.0516 15.4304 17.8023 15.3438 19.5524 13.5938C19.8442 13.302 20.0897 12.9824 20.2887 12.6447ZM18.0793 10.3769L17.8065 12.0041L17.0443 10.5408L15.4124 10.7842L16.5685 9.60708L15.8327 8.13028L17.3095 8.86607L18.4867 7.70994L18.2432 9.34183L19.7065 10.1041L18.0793 10.3769Z" fill="white"/>
</g>
</svg>
