<svg width="24" height="24" viewBox="0 0 24 24" fill="none" xmlns="http://www.w3.org/2000/svg">
<rect y="3.42993" width="24" height="17.1429" rx="2" fill="white"/>
<mask id="mask0_91_2375" style="mask-type:luminance" maskUnits="userSpaceOnUse" x="0" y="3" width="24" height="18">
<rect y="3.42993" width="24" height="17.1429" rx="2" fill="white"/>
</mask>
<g mask="url(#mask0_91_2375)">
<rect y="3.42993" width="24" height="17.1429" fill="url(#paint0_linear_91_2375)"/>
<path fill-rule="evenodd" clip-rule="evenodd" d="M11.5398 6.287C11.4677 6.287 11.3975 6.3104 11.3398 6.35367L9.1968 7.9609C9.16126 7.98756 9.12075 8.00684 9.07764 8.01762L6.89273 8.56384C6.86914 8.56974 6.84626 8.57821 6.82451 8.58908L4.6709 9.66589C4.60639 9.69814 4.55408 9.75045 4.52183 9.81496L3.51517 11.8283C3.46168 11.9353 3.46961 12.0627 3.53596 12.1622L4.51554 13.6316C4.55204 13.6864 4.57152 13.7507 4.57152 13.8165V15.2918C4.57152 15.3802 4.60664 15.465 4.66915 15.5275L5.54449 16.4028C5.64595 16.5043 5.80094 16.5294 5.92927 16.4653L9.07257 14.8936C9.11885 14.8705 9.16989 14.8584 9.22164 14.8584H11.308C11.386 14.8584 11.4615 14.8858 11.5214 14.9357L14.7645 17.6383C14.8244 17.6882 14.8999 17.7156 14.9779 17.7156H16.9646C17.076 17.7156 17.1801 17.6599 17.2419 17.5671L19.3727 14.371C19.4092 14.3162 19.4287 14.2519 19.4287 14.1861V12.1022C19.4287 12.0364 19.4092 11.9721 19.3727 11.9173L17.1429 8.57272L15.5258 5.87741C15.4655 5.77701 15.357 5.71558 15.2399 5.71558H14.9081C14.6785 5.71558 14.5635 5.99324 14.7259 6.15563C14.8043 6.23408 14.8238 6.35394 14.7741 6.45318L14.3779 7.2456C14.3215 7.35853 14.2061 7.42986 14.0798 7.42986H12.7775C12.6513 7.42986 12.5359 7.35853 12.4794 7.2456L12.0922 6.47127C12.0358 6.35834 11.9203 6.287 11.7941 6.287H11.5398ZM16.5715 18.2869H15.4286L15.7644 18.6227C15.8945 18.7528 16.1056 18.7528 16.2358 18.6227L16.5715 18.2869Z" fill="white"/>
</g>
<defs>
<linearGradient id="paint0_linear_91_2375" x1="0" y1="3.42993" x2="0" y2="20.5728" gradientUnits="userSpaceOnUse">
<stop stop-color="#19BFBF"/>
<stop offset="1" stop-color="#10ACAC"/>
</linearGradient>
</defs>
</svg>
