<svg width="24" height="24" viewBox="0 0 24 24" fill="none" xmlns="http://www.w3.org/2000/svg">
<path d="M0 5.42993C0 4.32536 0.895431 3.42993 2 3.42993H22C23.1046 3.42993 24 4.32536 24 5.42993V18.5728C24 19.6774 23.1046 20.5728 22 20.5728H2C0.89543 20.5728 0 19.6774 0 18.5728V5.42993Z" fill="white"/>
<mask id="mask0_91_2161" style="mask-type:alpha" maskUnits="userSpaceOnUse" x="0" y="3" width="24" height="18">
<path d="M0 5.42993C0 4.32536 0.895431 3.42993 2 3.42993H22C23.1046 3.42993 24 4.32536 24 5.42993V18.5728C24 19.6774 23.1046 20.5728 22 20.5728H2C0.89543 20.5728 0 19.6774 0 18.5728V5.42993Z" fill="white"/>
</mask>
<g mask="url(#mask0_91_2161)">
<path fill-rule="evenodd" clip-rule="evenodd" d="M0 20.5729H24V17.1443H0V20.5729Z" fill="#1DBB63"/>
<path fill-rule="evenodd" clip-rule="evenodd" d="M0 12.5726H24V8.00122H0V12.5726Z" fill="#222B82"/>
<path fill-rule="evenodd" clip-rule="evenodd" d="M0 17.1442H24V12.5728H0V17.1442Z" fill="#FFD741"/>
<path fill-rule="evenodd" clip-rule="evenodd" d="M0 8.00136H24V3.42993H0V8.00136Z" fill="#F4374A"/>
</g>
</svg>
