<svg width="24" height="24" viewBox="0 0 24 24" fill="none" xmlns="http://www.w3.org/2000/svg">
<rect y="3.42993" width="24" height="17.1429" rx="2" fill="white"/>
<mask id="mask0_91_3221" style="mask-type:luminance" maskUnits="userSpaceOnUse" x="0" y="3" width="24" height="18">
<rect y="3.42993" width="24" height="17.1429" rx="2" fill="white"/>
</mask>
<g mask="url(#mask0_91_3221)">
<path fill-rule="evenodd" clip-rule="evenodd" d="M0 10.2871H24V3.42993H0V10.2871Z" fill="#108753"/>
<path fill-rule="evenodd" clip-rule="evenodd" d="M0 20.5727H24V13.7156H0V20.5727Z" fill="#108753"/>
<path fill-rule="evenodd" clip-rule="evenodd" d="M13.7143 20.5728H10.2857V13.7156H0V10.2871H10.2857V3.42993H13.7143V10.2871H24V13.7156H13.7143V20.5728Z" fill="white"/>
<path fill-rule="evenodd" clip-rule="evenodd" d="M12.5715 20.5728H11.4286V12.5728H0V11.4299H11.4286V3.42993H12.5715V11.4299H24V12.5728H12.5715V20.5728Z" fill="#262626"/>
<path fill-rule="evenodd" clip-rule="evenodd" d="M11.4286 20.5728H10.2857V11.4299H0V10.2871H10.2857V3.42993H11.4286V10.2871H24V11.4299H11.4286V20.5728Z" fill="#FCD449"/>
<path fill-rule="evenodd" clip-rule="evenodd" d="M12 16.0012C14.2091 16.0012 16 14.2104 16 12.0012C16 9.79208 14.2091 8.00122 12 8.00122C9.79086 8.00122 8 9.79208 8 12.0012C8 14.2104 9.79086 16.0012 12 16.0012Z" fill="url(#paint0_linear_91_3221)"/>
<path fill-rule="evenodd" clip-rule="evenodd" d="M11.9999 9.81087C11.8826 9.81087 11.7678 9.82004 11.6563 9.83757C11.2926 9.89473 10.9514 9.64621 10.8942 9.28248C10.837 8.91876 11.0856 8.57756 11.4493 8.5204C11.6291 8.49215 11.813 8.47754 11.9999 8.47754C12.1868 8.47754 12.3707 8.49215 12.5505 8.5204C12.9142 8.57756 13.1627 8.91876 13.1056 9.28248C13.0484 9.64621 12.7072 9.89473 12.3435 9.83757C12.2319 9.82004 12.1172 9.81087 11.9999 9.81087ZM9.28102 10.8957C9.64474 10.9528 9.89326 11.294 9.8361 11.6577C9.81857 11.7693 9.80941 11.884 9.80941 12.0013C9.80941 12.1187 9.81857 12.2334 9.8361 12.345C9.89326 12.7087 9.64474 13.0499 9.28102 13.107C8.91729 13.1642 8.5761 12.9157 8.51894 12.552C8.49068 12.3722 8.47607 12.1882 8.47607 12.0013C8.47607 11.8145 8.49068 11.6305 8.51894 11.4507C8.5761 11.087 8.91729 10.8385 9.28102 10.8957ZM14.7187 10.8957C15.0825 10.8385 15.4237 11.087 15.4808 11.4507C15.5091 11.6305 15.5237 11.8145 15.5237 12.0013C15.5237 12.1882 15.5091 12.3722 15.4808 12.552C15.4237 12.9157 15.0825 13.1642 14.7187 13.107C14.355 13.0499 14.1065 12.7087 14.1637 12.345C14.1812 12.2334 14.1904 12.1187 14.1904 12.0013C14.1904 11.884 14.1812 11.7693 14.1637 11.6577C14.1065 11.294 14.355 10.9528 14.7187 10.8957ZM10.8942 14.7202C10.9514 14.3565 11.2926 14.108 11.6563 14.1651C11.7678 14.1827 11.8826 14.1918 11.9999 14.1918C12.1172 14.1918 12.2319 14.1827 12.3435 14.1651C12.7072 14.108 13.0484 14.3565 13.1056 14.7202C13.1627 15.0839 12.9142 15.4251 12.5505 15.4823C12.3707 15.5106 12.1868 15.5252 11.9999 15.5252C11.813 15.5252 11.6291 15.5106 11.4493 15.4823C11.0856 15.4251 10.837 15.0839 10.8942 14.7202Z" fill="#0E673F"/>
<path fill-rule="evenodd" clip-rule="evenodd" d="M11.9999 13.1444C12.6311 13.1444 12.5714 12.6327 12.5714 12.0015C12.5714 11.3703 12.6311 10.8586 11.9999 10.8586C11.3688 10.8586 11.4285 11.3703 11.4285 12.0015C11.4285 12.6327 11.3688 13.1444 11.9999 13.1444Z" fill="#0E673F"/>
</g>
<defs>
<linearGradient id="paint0_linear_91_3221" x1="8" y1="8.00122" x2="8" y2="16.0012" gradientUnits="userSpaceOnUse">
<stop stop-color="#E02C42"/>
<stop offset="1" stop-color="#D22036"/>
</linearGradient>
</defs>
</svg>
