<svg width="24" height="24" viewBox="0 0 24 24" fill="none" xmlns="http://www.w3.org/2000/svg">
<rect y="3.42993" width="24" height="17.1429" rx="2" fill="white"/>
<mask id="mask0_91_2482" style="mask-type:luminance" maskUnits="userSpaceOnUse" x="0" y="3" width="24" height="18">
<rect y="3.42993" width="24" height="17.1429" rx="2" fill="white"/>
</mask>
<g mask="url(#mask0_91_2482)">
<path fill-rule="evenodd" clip-rule="evenodd" d="M0 11.4299H24V3.42993H0V11.4299Z" fill="#112EBC"/>
<path fill-rule="evenodd" clip-rule="evenodd" d="M0 20.5728H24V11.4299H0V20.5728Z" fill="#E3264A"/>
<rect x="8" y="9.14429" width="8" height="6.85714" rx="0.666667" fill="url(#paint0_linear_91_2482)"/>
<mask id="mask1_91_2482" style="mask-type:luminance" maskUnits="userSpaceOnUse" x="8" y="9" width="8" height="8">
<rect x="8" y="9.14429" width="8" height="6.85714" rx="0.666667" fill="white"/>
</mask>
<g mask="url(#mask1_91_2482)">
<path fill-rule="evenodd" clip-rule="evenodd" d="M8 14.8584L9.72266 13.9971C10.0929 13.812 10.5012 13.7156 10.9152 13.7156H13.0848C13.4988 13.7156 13.9071 13.812 14.2773 13.9971L16 14.8584V16.0013H8V14.8584Z" fill="#AABCAE"/>
<path fill-rule="evenodd" clip-rule="evenodd" d="M8.66667 15.3346V15.2705L10.0208 14.5934C10.2985 14.4545 10.6047 14.3822 10.9152 14.3822H13.0848C13.3953 14.3822 13.7015 14.4545 13.9792 14.5934L15.3333 15.2705V15.3346H8.66667ZM16 14.8584L14.2773 13.9971C13.9071 13.812 13.4988 13.7156 13.0848 13.7156H10.9152C10.5012 13.7156 10.0929 13.812 9.72266 13.9971L8 14.8584V16.0013H16V14.8584Z" fill="#366C14"/>
<path fill-rule="evenodd" clip-rule="evenodd" d="M11.9999 13.7157C12.9467 13.7157 13.7142 12.9482 13.7142 12.0014C13.7142 11.0546 12.9467 10.2871 11.9999 10.2871C11.0532 10.2871 10.2856 11.0546 10.2856 12.0014C10.2856 12.9482 11.0532 13.7157 11.9999 13.7157Z" fill="#D4B872"/>
<path fill-rule="evenodd" clip-rule="evenodd" d="M9.14282 13.3886C9.14282 12.8296 9.78944 12.5188 10.226 12.868L11.5835 13.9541C11.827 14.1489 12.1729 14.1489 12.4164 13.9541L13.774 12.868C14.2105 12.5188 14.8571 12.8296 14.8571 13.3886V14.192C14.8571 14.5602 14.5586 14.8587 14.1904 14.8587H9.80949C9.4413 14.8587 9.14282 14.5602 9.14282 14.192V13.3886Z" fill="#C28321"/>
<path fill-rule="evenodd" clip-rule="evenodd" d="M10.8137 14.192L9.80949 13.3886L9.80949 14.192H10.8137ZM13.1862 14.192H14.1904V13.3886L13.1862 14.192ZM10.226 12.868C9.78944 12.5188 9.14282 12.8296 9.14282 13.3886V14.192C9.14282 14.5602 9.4413 14.8587 9.80949 14.8587H14.1904C14.5586 14.8587 14.8571 14.5602 14.8571 14.192V13.3886C14.8571 12.8296 14.2105 12.5188 13.774 12.868L12.4164 13.9541C12.1729 14.1489 11.827 14.1489 11.5835 13.9541L10.226 12.868Z" fill="#0D3488"/>
<path fill-rule="evenodd" clip-rule="evenodd" d="M10.8546 10.8561C10.6447 10.6462 10.7934 10.2871 11.0903 10.2871H12.9094C13.2064 10.2871 13.3551 10.6462 13.1451 10.8561L12.2356 11.7657C12.1054 11.8959 11.8944 11.8959 11.7642 11.7657L10.8546 10.8561Z" fill="#216C30"/>
</g>
</g>
<defs>
<linearGradient id="paint0_linear_91_2482" x1="8" y1="9.14429" x2="8" y2="16.0014" gradientUnits="userSpaceOnUse">
<stop stop-color="white"/>
<stop offset="1" stop-color="#F0F0F0"/>
</linearGradient>
</defs>
</svg>
