<svg width="24" height="24" viewBox="0 0 24 24" fill="none" xmlns="http://www.w3.org/2000/svg">
<rect y="3.42993" width="24" height="17.1429" rx="2" fill="white"/>
<mask id="mask0_91_3466" style="mask-type:luminance" maskUnits="userSpaceOnUse" x="0" y="3" width="24" height="18">
<rect y="3.42993" width="24" height="17.1429" rx="2" fill="white"/>
</mask>
<g mask="url(#mask0_91_3466)">
<rect y="3.42993" width="24" height="17.1429" fill="#E6BE53"/>
<path fill-rule="evenodd" clip-rule="evenodd" d="M1.14258 18.4301C1.14258 18.9824 1.59029 19.4301 2.14258 19.4301H21.8569C22.4091 19.4301 22.8569 18.9824 22.8569 18.4301V5.573C22.8569 5.02071 22.4091 4.573 21.8569 4.573H2.14258C1.59029 4.573 1.14258 5.02071 1.14258 5.573V18.4301Z" fill="#E01826"/>
<path fill-rule="evenodd" clip-rule="evenodd" d="M11.3094 6.51725C10.8393 6.67397 10.6984 7.27068 11.0488 7.62111L11.2337 7.80596C11.3587 7.93098 11.5283 8.00122 11.7051 8.00122H12.2957C12.4725 8.00122 12.642 7.93098 12.7671 7.80596L12.9519 7.62111C13.3023 7.27068 13.1615 6.67397 12.6913 6.51725L12.2112 6.35721C12.0743 6.31159 11.9264 6.31159 11.7896 6.35721L11.3094 6.51725ZM12.4718 9.24413C12.2115 9.50448 11.7894 9.50448 11.529 9.24413L11.429 9.1441L10.595 8.31014C10.4106 8.12567 10.1287 8.07994 9.89541 8.19661L9.86608 8.21127C9.51049 8.38907 9.43358 8.86298 9.7147 9.1441L10.5178 9.94719C10.7207 10.1501 10.771 10.4601 10.6427 10.7167L10.3187 11.3647C10.2973 11.4075 10.2861 11.4547 10.2861 11.5026C10.2861 11.7317 10.045 11.8807 9.84011 11.7782L9.56333 11.6398C9.35668 11.5365 9.31199 11.2611 9.47536 11.0977C9.60754 10.9655 9.60754 10.7512 9.47536 10.619L9.21977 10.3635C9.16911 10.3128 9.12694 10.2543 9.09489 10.1902L8.60458 9.20956C8.58282 9.16605 8.5659 9.1203 8.5541 9.07311L8.34013 8.21722C8.20398 7.67262 7.49684 7.52982 7.16003 7.97891L6.41947 8.96632C6.33292 9.08172 6.28613 9.22208 6.28613 9.36632V11.2724C6.28613 11.3759 6.31023 11.478 6.35651 11.5706L6.80918 12.4759C6.84122 12.54 6.88339 12.5985 6.93406 12.6492L7.92392 13.639C7.97459 13.6897 8.03309 13.7319 8.09718 13.7639L9.08932 14.26C9.1248 14.2777 9.16393 14.287 9.2036 14.287C9.47327 14.287 9.55908 14.6505 9.31789 14.7711L9.18544 14.8373C9.15751 14.8513 9.13202 14.8696 9.10994 14.8917L8.85756 15.1441C8.69977 15.3019 8.44393 15.3019 8.28613 15.1441C8.12834 14.9863 7.8725 14.9863 7.7147 15.1441L7.66834 15.1905C7.5254 15.3334 7.48997 15.5518 7.58037 15.7326L7.81616 16.2041C7.92908 16.43 8.15993 16.5727 8.41244 16.5727H8.9859C9.08939 16.5727 9.19147 16.5486 9.28404 16.5023L10.0874 16.1006C10.2164 16.0361 10.321 15.9315 10.3855 15.8025L10.6304 15.3127C10.7421 15.0892 11.04 15.0409 11.2168 15.2176C11.3402 15.341 11.3593 15.5343 11.2625 15.6796L10.6559 16.5894C10.4517 16.8958 10.5345 17.3097 10.8408 17.5139L11.6306 18.0404C11.8546 18.1897 12.1463 18.1897 12.3702 18.0404L13.16 17.5139C13.4664 17.3097 13.5491 16.8958 13.3449 16.5894L12.7383 15.6796C12.6415 15.5343 12.6607 15.341 12.7841 15.2176C12.9608 15.0409 13.2587 15.0892 13.3704 15.3127L13.6153 15.8025C13.6798 15.9315 13.7844 16.0361 13.9135 16.1006L14.7168 16.5023C14.8094 16.5486 14.9114 16.5727 15.0149 16.5727H15.5884C15.8409 16.5727 16.0718 16.43 16.1847 16.2041L16.4205 15.7326C16.5109 15.5518 16.4754 15.3334 16.3325 15.1905L16.2861 15.1441C16.1283 14.9863 15.8725 14.9863 15.7147 15.1441C15.5569 15.3019 15.3011 15.3019 15.1433 15.1441L14.8909 14.8917C14.8688 14.8696 14.8433 14.8513 14.8154 14.8373L14.6829 14.7711C14.4418 14.6505 14.5276 14.287 14.7972 14.287C14.8369 14.287 14.876 14.2777 14.9115 14.26L15.9037 13.7639C15.9677 13.7319 16.0262 13.6897 16.0769 13.639L17.0668 12.6492C17.1174 12.5985 17.1596 12.54 17.1917 12.4759L17.6443 11.5706C17.6906 11.478 17.7147 11.3759 17.7147 11.2724V9.36632C17.7147 9.22208 17.6679 9.08172 17.5814 8.96632L16.8408 7.97891C16.504 7.52982 15.7969 7.67262 15.6607 8.21722L15.4467 9.07311C15.4349 9.1203 15.418 9.16605 15.3963 9.20956L14.9059 10.1902C14.8739 10.2543 14.8317 10.3128 14.7811 10.3635L14.5255 10.619C14.3933 10.7512 14.3933 10.9655 14.5255 11.0977C14.6889 11.2611 14.6442 11.5365 14.4375 11.6398L14.1607 11.7782C13.9558 11.8807 13.7147 11.7317 13.7147 11.5026C13.7147 11.4547 13.7036 11.4075 13.6822 11.3647L13.3582 10.7167C13.2298 10.4601 13.2801 10.1501 13.483 9.94719L14.2861 9.1441C14.5673 8.86298 14.4903 8.38907 14.1348 8.21127L14.1054 8.19661C13.8721 8.07994 13.5903 8.12567 13.4058 8.31014L12.5718 9.1441L12.4718 9.24413Z" fill="#E6BE53"/>
<path fill-rule="evenodd" clip-rule="evenodd" d="M10.8574 13.1442C10.8574 13.3546 11.2117 13.4246 11.3143 13.2409C11.5135 12.8838 11.7569 12.5728 12.0003 12.5728C12.2437 12.5728 12.4871 12.8838 12.6863 13.2409C12.7888 13.4246 13.1431 13.3546 13.1431 13.1442C13.1431 12.1974 12.6315 11.4299 12.0003 11.4299C11.3691 11.4299 10.8574 12.1974 10.8574 13.1442Z" fill="#215F90"/>
</g>
</svg>
