<svg width="24" height="24" viewBox="0 0 24 24" fill="none" xmlns="http://www.w3.org/2000/svg">
<rect x="0.25" y="3.67993" width="23.5" height="16.6429" rx="1.75" fill="white" stroke="#F5F5F5" stroke-width="0.5"/>
<mask id="mask0_91_2349" style="mask-type:luminance" maskUnits="userSpaceOnUse" x="0" y="3" width="24" height="18">
<rect x="0.25" y="3.67993" width="23.5" height="16.6429" rx="1.75" fill="white" stroke="white" stroke-width="0.5"/>
</mask>
<g mask="url(#mask0_91_2349)">
<path fill-rule="evenodd" clip-rule="evenodd" d="M11.4286 3.42993H11.4286V14.8585H0V17.1442H24L24 14.8586H11.4286V12.5729H24V10.2872H11.4286V8.0015H24V5.71565H11.4286V3.42993ZM0 20.5728V19.4299H24V20.5728H0Z" fill="#0E4DC5"/>
<path fill-rule="evenodd" clip-rule="evenodd" d="M5.71422 11.4197L4.95129 12.5585L4.75804 11.2014L3.57654 11.8965L3.99124 10.5899L2.62518 10.7035L3.5657 9.70629L2.28564 9.2159L3.5657 8.72552L2.62518 7.7283L3.99124 7.84187L3.57654 6.53534L4.75804 7.23038L4.95129 5.87329L5.71422 7.01213L6.47715 5.87329L6.67039 7.23038L7.8519 6.53534L7.43719 7.84187L8.80325 7.7283L7.86273 8.72552L9.14279 9.2159L7.86273 9.70629L8.80325 10.7035L7.43719 10.5899L7.8519 11.8965L6.67039 11.2014L6.47715 12.5585L5.71422 11.4197ZM5.71423 11.3978C6.91921 11.3978 7.89605 10.4209 7.89605 9.21594C7.89605 8.01095 6.91921 7.03412 5.71423 7.03412C4.50924 7.03412 3.53241 8.01095 3.53241 9.21594C3.53241 10.4209 4.50924 11.3978 5.71423 11.3978ZM7.4285 9.14429C7.4285 10.0911 6.66099 10.8586 5.71422 10.8586C4.76744 10.8586 3.99993 10.0911 3.99993 9.14429C3.99993 8.19751 4.76744 7.43 5.71422 7.43C6.66099 7.43 7.4285 8.19751 7.4285 9.14429Z" fill="#FED443"/>
</g>
</svg>
