<svg width="24" height="24" viewBox="0 0 24 24" fill="none" xmlns="http://www.w3.org/2000/svg">
<rect x="0.25" y="3.67993" width="23.5" height="16.6429" rx="1.75" fill="white" stroke="#F5F5F5" stroke-width="0.5"/>
<mask id="mask0_91_1208" style="mask-type:luminance" maskUnits="userSpaceOnUse" x="0" y="3" width="24" height="18">
<rect x="0.25" y="3.67993" width="23.5" height="16.6429" rx="1.75" fill="white" stroke="white" stroke-width="0.5"/>
</mask>
<g mask="url(#mask0_91_1208)">
<path fill-rule="evenodd" clip-rule="evenodd" d="M0 9.14422H24V3.42993H0V9.14422Z" fill="#D9101C"/>
<path fill-rule="evenodd" clip-rule="evenodd" d="M0 20.5727H24V14.8584H0V20.5727Z" fill="#0F7811"/>
<path fill-rule="evenodd" clip-rule="evenodd" d="M11.4286 10.8585C11.4286 11.1741 11.1728 11.43 10.8572 11.43C10.5416 11.43 10.2857 11.1741 10.2857 10.8585C10.2857 10.5429 10.5416 10.2871 10.8572 10.2871C11.1728 10.2871 11.4286 10.5429 11.4286 10.8585ZM12.5714 12.0014C12.5714 12.1047 12.544 12.3243 12.496 12.5728H13.1429C13.4585 12.5728 13.7143 12.8287 13.7143 13.1443C13.7143 13.4599 13.4585 13.7157 13.1429 13.7157H10.8572C10.5416 13.7157 10.2857 13.4599 10.2857 13.1443C10.2857 12.8287 10.5416 12.5728 10.8572 12.5728H11.504C11.456 12.3243 11.4286 12.1047 11.4286 12.0014C11.4286 11.6858 11.6844 11.4299 12 11.4299C12.3156 11.4299 12.5714 11.6858 12.5714 12.0014ZM13.7143 10.8585C13.7143 11.1741 13.4584 11.43 13.1428 11.43C12.8272 11.43 12.5714 11.1741 12.5714 10.8585C12.5714 10.5429 12.8272 10.2871 13.1428 10.2871C13.4584 10.2871 13.7143 10.5429 13.7143 10.8585ZM15.4286 12.5728C15.7442 12.5728 16 12.317 16 12.0014C16 11.6858 15.7442 11.4299 15.4286 11.4299C15.113 11.4299 14.8571 11.6858 14.8571 12.0014C14.8571 12.317 15.113 12.5728 15.4286 12.5728ZM9.14286 12.0014C9.14286 12.317 8.88702 12.5728 8.57143 12.5728C8.25584 12.5728 8 12.317 8 12.0014C8 11.6858 8.25584 11.4299 8.57143 11.4299C8.88702 11.4299 9.14286 11.6858 9.14286 12.0014Z" fill="#FAD14E"/>
</g>
</svg>
