<svg width="24" height="24" viewBox="0 0 24 24" fill="none" xmlns="http://www.w3.org/2000/svg">
<rect x="0.25" y="3.67993" width="23.5" height="16.6429" rx="1.75" fill="white" stroke="#F5F5F5" stroke-width="0.5"/>
<mask id="mask0_91_2103" style="mask-type:luminance" maskUnits="userSpaceOnUse" x="0" y="3" width="24" height="18">
<rect x="0.25" y="3.67993" width="23.5" height="16.6429" rx="1.75" fill="white" stroke="white" stroke-width="0.5"/>
</mask>
<g mask="url(#mask0_91_2103)">
<path fill-rule="evenodd" clip-rule="evenodd" d="M0 3.42993H24V6.8585H0V3.42993ZM0 10.2871H24V13.7156H0V10.2871ZM0 17.1442V20.5728H24V17.1442H0Z" fill="#FA2222"/>
<path fill-rule="evenodd" clip-rule="evenodd" d="M0 3.42993L11.4286 12.0014L0 20.5728V3.42993Z" fill="#1D63F9"/>
<g filter="url(#filter0_d_91_2103)">
<path fill-rule="evenodd" clip-rule="evenodd" d="M3.99997 13.0935L2.32058 14.3129L2.96135 12.3389L1.28266 11.1185L3.35806 11.1179L3.99997 9.14429L4.64187 11.1179L6.71727 11.1185L5.03858 12.3389L5.67935 14.3129L3.99997 13.0935Z" fill="url(#paint0_linear_91_2103)"/>
</g>
</g>
<defs>
<filter id="filter0_d_91_2103" x="1.28271" y="9.14429" width="5.43457" height="6.1687" filterUnits="userSpaceOnUse" color-interpolation-filters="sRGB">
<feFlood flood-opacity="0" result="BackgroundImageFix"/>
<feColorMatrix in="SourceAlpha" type="matrix" values="0 0 0 0 0 0 0 0 0 0 0 0 0 0 0 0 0 0 127 0" result="hardAlpha"/>
<feOffset dy="1"/>
<feColorMatrix type="matrix" values="0 0 0 0 0 0 0 0 0 0 0 0 0 0 0 0 0 0 0.06 0"/>
<feBlend mode="normal" in2="BackgroundImageFix" result="effect1_dropShadow_91_2103"/>
<feBlend mode="normal" in="SourceGraphic" in2="effect1_dropShadow_91_2103" result="shape"/>
</filter>
<linearGradient id="paint0_linear_91_2103" x1="1.14282" y1="9.14429" x2="1.14282" y2="14.3129" gradientUnits="userSpaceOnUse">
<stop stop-color="white"/>
<stop offset="1" stop-color="#F0F0F0"/>
</linearGradient>
</defs>
</svg>
