<svg width="24" height="24" viewBox="0 0 24 24" fill="none" xmlns="http://www.w3.org/2000/svg">
<rect y="3.42993" width="24" height="17.1429" rx="2" fill="white"/>
<mask id="mask0_91_2040" style="mask-type:luminance" maskUnits="userSpaceOnUse" x="0" y="3" width="24" height="18">
<rect y="3.42993" width="24" height="17.1429" rx="2" fill="white"/>
</mask>
<g mask="url(#mask0_91_2040)">
<rect y="3.42993" width="24" height="17.1429" fill="#E31F37"/>
<path fill-rule="evenodd" clip-rule="evenodd" d="M-1.14282 12.5728H12.5715V2.28711H-1.14282V12.5728Z" fill="#083B9A"/>
<path fill-rule="evenodd" clip-rule="evenodd" d="M5.71422 5.71549L4.90609 5.95218L5.14279 5.14406L4.90609 4.33594L5.71422 4.57263L6.52234 4.33594L6.28564 5.14406L6.52234 5.95218L5.71422 5.71549ZM5.71422 11.4298L4.90609 11.6665L5.14279 10.8584L4.90609 10.0503L5.71422 10.287L6.52234 10.0503L6.28564 10.8584L6.52234 11.6665L5.71422 11.4298ZM2.62036 8.80946L3.42848 8.57277L4.23661 8.80946L3.99991 8.00134L4.23661 7.19322L3.42848 7.42991L2.62036 7.19322L2.85705 8.00134L2.62036 8.80946ZM8.57134 8.00127L7.76322 8.23797L7.99991 7.42984L7.76322 6.62172L8.57134 6.85841L9.37946 6.62172L9.14277 7.42984L9.37946 8.23797L8.57134 8.00127ZM7.42849 9.42977C7.42849 9.58757 7.30057 9.71549 7.14278 9.71549C6.98498 9.71549 6.85706 9.58757 6.85706 9.42977C6.85706 9.27198 6.98498 9.14406 7.14278 9.14406C7.30057 9.14406 7.42849 9.27198 7.42849 9.42977Z" fill="white"/>
</g>
</svg>
