<svg width="20" height="20" viewBox="0 0 20 20" fill="none" xmlns="http://www.w3.org/2000/svg">
<path d="M15.75 19.5012H11.5V14.2512C11.5 13.2862 10.715 12.5012 9.75 12.5012C8.785 12.5012 8 13.2862 8 14.2512V19.5012H3.75C1.332 19.5012 0 18.1692 0 15.7512V9.40126C0 7.27826 0.585992 6.68523 1.54199 5.89223L7.66199 0.76125C8.87099 -0.25375 10.629 -0.25375 11.838 0.76125L17.958 5.89223C18.914 6.68523 19.5 7.27926 19.5 9.40126V15.7512C19.5 18.1692 18.168 19.5012 15.75 19.5012ZM13 18.0012H15.75C17.327 18.0012 18 17.3282 18 15.7512V9.40126C18 7.87526 17.748 7.66628 17.001 7.04628L10.875 1.9103C10.223 1.3643 9.277 1.3643 8.625 1.9103L2.49902 7.04628C1.75202 7.66628 1.5 7.87526 1.5 9.40126V15.7512C1.5 17.3282 2.173 18.0012 3.75 18.0012H6.5V14.2512C6.5 12.4592 7.958 11.0012 9.75 11.0012C11.542 11.0012 13 12.4592 13 14.2512V18.0012Z" fill="currentColor"/>
</svg>
