<svg width="24" height="24" viewBox="0 0 24 24" fill="none" xmlns="http://www.w3.org/2000/svg">
<path d="M17.5649 14.2959C17.3739 14.2959 17.1819 14.2229 17.0359 14.0779C16.7429 13.7859 16.7409 13.3109 17.0339 13.0169L19.001 11.0389C19.809 10.2409 20.25 9.17088 20.25 8.02288C20.25 6.87688 19.8069 5.80286 19.0029 4.99786C17.3389 3.33286 14.6289 3.33286 12.9629 4.99786L10.9961 6.97488C10.7041 7.26888 10.2291 7.26987 9.93506 6.97787C9.64206 6.68587 9.63988 6.21086 9.93188 5.91686L11.9009 3.93887C14.1539 1.68687 17.814 1.68886 20.063 3.93786C21.151 5.02486 21.75 6.47588 21.75 8.02288C21.75 9.57488 21.15 11.0229 20.061 12.1009L18.0979 14.0749C17.9499 14.2229 17.7579 14.2959 17.5649 14.2959ZM12.0991 20.0629L14.0779 18.0949C14.3709 17.8029 14.3731 17.3279 14.0801 17.0339C13.7881 16.7399 13.313 16.7399 13.019 17.0309L11.04 19.0009C9.37604 20.6659 6.666 20.6659 5 19.0009C3.335 17.3359 3.33502 14.6269 4.99902 12.9629L6.97803 10.9949C7.27103 10.7029 7.27298 10.2279 6.97998 9.93386C6.68798 9.63986 6.21295 9.63987 5.91895 9.93087L3.93994 11.9009C1.68994 14.1509 1.68994 17.8109 3.93994 20.0609C5.06594 21.1859 6.544 21.7479 8.021 21.7479C9.498 21.7479 10.9751 21.1869 12.0991 20.0629ZM9.53003 15.5299L15.5559 9.50488C15.8489 9.21188 15.8489 8.73687 15.5559 8.44387C15.2639 8.15187 14.7891 8.14987 14.4951 8.44387L8.46899 14.4689C8.17599 14.7619 8.17599 15.2369 8.46899 15.5299C8.61499 15.6759 8.80702 15.7499 8.99902 15.7499C9.19102 15.7499 9.38403 15.6769 9.53003 15.5299Z" fill="currentColor"/>
</svg>
