<svg width="24" height="24" viewBox="0 0 24 24" fill="none" xmlns="http://www.w3.org/2000/svg">
<path d="M20.7101 17.12L17.1201 20.71C16.7311 21.099 16.0991 21.099 15.7101 20.71L13.7421 18.742C13.6251 18.625 13.6251 18.435 13.7421 18.318L18.3181 13.742C18.4351 13.625 18.6251 13.625 18.7421 13.742L20.7101 15.71C21.0991 16.099 21.0991 16.731 20.7101 17.12ZM17.7491 11.985L16.4801 6.91C16.1901 5.75 15.2401 4.87001 14.0601 4.67001L4.15012 3.01001C4.13612 3.03701 4.13712 3.03599 4.12312 3.06299L9.62012 8.56C10.1201 8.41 10.6701 8.54 11.0601 8.94C11.6501 9.52 11.6501 10.47 11.0601 11.06C10.4801 11.65 9.52012 11.65 8.94012 11.06C8.54012 10.67 8.41012 10.11 8.56012 9.62L3.00012 4.06C2.99612 4.062 3.00012 4.06001 2.99512 4.06201L4.67012 14.06C4.87012 15.24 5.75013 16.19 6.91013 16.48L11.9851 17.749C12.0871 17.775 12.1951 17.745 12.2701 17.67L17.6701 12.27C17.7441 12.196 17.7741 12.087 17.7491 11.985Z" fill="currentColor"/>
</svg>
