<svg width="24" height="24" viewBox="0 0 24 24" fill="none" xmlns="http://www.w3.org/2000/svg">
<path d="M16.5521 21.7519C16.0931 21.7519 15.6311 21.6899 15.1751 21.5649C9.01011 19.8729 4.12909 14.9949 2.43609 8.83393C2.05109 7.43293 2.26204 5.97292 3.03204 4.72492C3.80504 3.47092 5.0761 2.58592 6.5191 2.29792C7.4791 2.10592 8.4281 2.53392 8.9151 3.35492L10.4781 5.99491C11.2371 7.27691 10.86 8.92791 9.61896 9.75391L8.4881 10.5059C9.5451 12.6759 11.3229 14.4589 13.4839 15.5149L14.2462 14.3779C15.0772 13.1389 16.7281 12.7679 18.0091 13.5309L20.6522 15.1069C21.4702 15.5949 21.8931 16.5499 21.7071 17.4819C21.4191 18.9249 20.5341 20.1959 19.2811 20.9689C18.4391 21.4869 17.5021 21.7519 16.5521 21.7519ZM6.97809 3.74991C6.92909 3.74991 6.87911 3.75493 6.83111 3.76493C5.77711 3.97593 4.86412 4.6109 4.31012 5.5119C3.76112 6.4019 3.61009 7.44092 3.88409 8.43592C5.43709 14.0889 9.91608 18.5659 15.5721 20.1179C16.5681 20.3909 17.604 20.2389 18.493 19.6909C19.393 19.1359 20.0291 18.2219 20.2361 17.1859C20.2981 16.8749 20.1571 16.5559 19.8831 16.3929L17.241 14.8169C16.646 14.4629 15.878 14.6359 15.492 15.2109L14.377 16.8759C14.177 17.1739 13.7911 17.2879 13.4651 17.1499C10.5021 15.9109 8.09113 13.4949 6.85113 10.5209C6.71313 10.1889 6.82899 9.80691 7.12799 9.60791L8.78912 8.5029C9.36512 8.1199 9.54007 7.35291 9.18707 6.75791L7.62408 4.1189C7.48708 3.8869 7.23909 3.74991 6.97809 3.74991Z" fill="currentColor"/>
</svg>
