<svg width="24" height="24" viewBox="0 0 24 24" fill="none" xmlns="http://www.w3.org/2000/svg">
<path d="M20.145 16.7499C19.97 16.7499 19.7929 16.7289 19.6189 16.6849L16.8911 15.9849C15.5311 15.6359 14.6839 14.2839 14.9619 12.9079L15.0791 12.3289C13.0911 11.7289 10.955 11.7289 8.949 12.3269L9.06399 12.9169C9.33299 14.2909 8.48007 15.6359 7.12307 15.9789L4.3821 16.6729C3.5131 16.8919 2.58813 16.5399 2.08913 15.7999C1.30213 14.6189 1.05405 13.0999 1.40505 11.6289C1.73805 10.2359 2.58598 9.06594 3.73098 8.41994C5.02098 7.69194 6.40201 7.13793 7.83401 6.77193C12.053 5.69493 16.467 6.28494 20.261 8.43294C21.411 9.08394 22.2629 10.2619 22.5969 11.6649C22.9459 13.1279 22.7011 14.6339 21.9241 15.7979C21.5271 16.3999 20.853 16.7499 20.145 16.7499ZM12.0171 10.3779C13.4401 10.3779 14.8591 10.6269 16.2061 11.1249C16.5531 11.2529 16.7549 11.6149 16.6819 11.9779L16.4331 13.2059C16.3131 13.7989 16.6779 14.3819 17.2639 14.5319L19.9881 15.2309C20.2551 15.2969 20.5229 15.1969 20.6699 14.9739C21.2229 14.1469 21.3909 13.0709 21.1389 12.0119C20.9009 11.0129 20.3119 10.1849 19.5239 9.73894C16.0679 7.78294 12.0471 7.24494 8.20705 8.22594C6.90305 8.55894 5.64499 9.06392 4.46999 9.72692C3.68699 10.1689 3.10299 10.9889 2.86599 11.9779C2.61399 13.0289 2.78996 14.1449 3.33596 14.9639C3.48496 15.1829 3.75107 15.2829 4.01907 15.2179L6.75808 14.5249C7.34308 14.3769 7.71002 13.7969 7.59402 13.2049L7.35207 11.9669C7.28207 11.6049 7.48508 11.2449 7.83108 11.1179C9.18308 10.6249 10.6021 10.3779 12.0171 10.3779Z" fill="currentColor"/>
</svg>
