<svg width="20" height="20" viewBox="0 0 20 20" fill="none" xmlns="http://www.w3.org/2000/svg">
<path d="M14.25 9.75C14.25 12.231 12.231 14.25 9.75 14.25C7.269 14.25 5.25 12.231 5.25 9.75C5.25 7.269 7.269 5.25 9.75 5.25C12.231 5.25 14.25 7.269 14.25 9.75ZM10.5 2.75V0.75C10.5 0.336 10.164 0 9.75 0C9.336 0 9 0.336 9 0.75V2.75C9 3.164 9.336 3.5 9.75 3.5C10.164 3.5 10.5 3.164 10.5 2.75ZM10.5 18.75V16.75C10.5 16.336 10.164 16 9.75 16C9.336 16 9 16.336 9 16.75V18.75C9 19.164 9.336 19.5 9.75 19.5C10.164 19.5 10.5 19.164 10.5 18.75ZM3.5 9.75C3.5 9.336 3.164 9 2.75 9H0.75C0.336 9 0 9.336 0 9.75C0 10.164 0.336 10.5 0.75 10.5H2.75C3.164 10.5 3.5 10.164 3.5 9.75ZM19.5 9.75C19.5 9.336 19.164 9 18.75 9H16.75C16.336 9 16 9.336 16 9.75C16 10.164 16.336 10.5 16.75 10.5H18.75C19.164 10.5 19.5 10.164 19.5 9.75ZM5.33099 5.33099C5.62399 5.03799 5.62399 4.56299 5.33099 4.26999L3.91699 2.85599C3.62399 2.56299 3.14899 2.56299 2.85599 2.85599C2.56299 3.14899 2.56299 3.62399 2.85599 3.91699L4.26999 5.33099C4.41599 5.47699 4.60799 5.55099 4.79999 5.55099C4.99199 5.55099 5.18399 5.47699 5.33099 5.33099ZM16.644 16.644C16.937 16.351 16.937 15.876 16.644 15.583L15.23 14.169C14.937 13.876 14.462 13.876 14.169 14.169C13.876 14.462 13.876 14.937 14.169 15.23L15.583 16.644C15.729 16.79 15.921 16.864 16.113 16.864C16.305 16.864 16.498 16.791 16.644 16.644ZM3.91699 16.644L5.33099 15.23C5.62399 14.937 5.62399 14.462 5.33099 14.169C5.03799 13.876 4.56299 13.876 4.26999 14.169L2.85599 15.583C2.56299 15.876 2.56299 16.351 2.85599 16.644C3.00199 16.79 3.19399 16.864 3.38599 16.864C3.57799 16.864 3.76999 16.791 3.91699 16.644ZM15.23 5.33099L16.644 3.91699C16.937 3.62399 16.937 3.14899 16.644 2.85599C16.351 2.56299 15.876 2.56299 15.583 2.85599L14.169 4.26999C13.876 4.56299 13.876 5.03799 14.169 5.33099C14.315 5.47699 14.507 5.55099 14.699 5.55099C14.891 5.55099 15.083 5.47699 15.23 5.33099Z" fill="currentColor"/>
</svg>
