<svg width="366" height="244" viewBox="0 0 366 244" fill="none" xmlns="http://www.w3.org/2000/svg">
<g clip-path="url(#clip0_11_19489)">
<path d="M303.284 79.2986C303.024 79.2986 302.771 79.3186 302.519 79.3493C301.891 76.8186 300.893 74.4346 299.583 72.26C299.783 72.104 299.976 71.9386 300.16 71.7546C302.623 69.292 302.623 65.3013 300.16 62.8386C297.697 60.376 293.707 60.376 291.244 62.8386C291.06 63.0226 290.895 63.216 290.739 63.416C288.564 62.1053 286.18 61.108 283.649 60.48C283.68 60.2293 283.7 59.9746 283.7 59.7146C283.7 56.2333 280.877 53.4106 277.396 53.4106C273.915 53.4106 271.092 56.2333 271.092 59.7146C271.092 59.9746 271.112 60.228 271.143 60.48C268.612 61.108 266.228 62.1053 264.053 63.416C263.897 63.2173 263.732 63.0226 263.548 62.8386C261.085 60.376 257.095 60.376 254.632 62.8386C252.169 65.3013 252.169 69.2933 254.632 71.7546C254.816 71.9386 255.009 72.1026 255.209 72.26C253.899 74.4346 252.9 76.8186 252.273 79.3493C252.023 79.3186 251.768 79.2986 251.508 79.2986C248.027 79.2986 245.204 82.1213 245.204 85.6026C245.204 89.084 248.027 91.9066 251.508 91.9066C251.768 91.9066 252.021 91.8866 252.273 91.856C252.901 94.3866 253.899 96.7706 255.209 98.9453C255.009 99.1013 254.816 99.2666 254.632 99.4506C252.169 101.913 252.169 105.904 254.632 108.367C257.095 110.829 261.085 110.829 263.548 108.367C263.732 108.183 263.897 107.989 264.053 107.789C266.228 109.1 268.612 110.097 271.143 110.725C271.112 110.976 271.092 111.231 271.092 111.491C271.092 114.972 273.915 117.795 277.396 117.795C280.877 117.795 283.7 114.972 283.7 111.491C283.7 111.231 283.68 110.977 283.649 110.725C286.18 110.097 288.564 109.1 290.739 107.789C290.895 107.988 291.06 108.183 291.244 108.367C293.707 110.829 297.697 110.829 300.16 108.367C302.623 105.904 302.623 101.913 300.16 99.4506C299.976 99.2666 299.783 99.1013 299.583 98.9453C300.893 96.7706 301.892 94.3866 302.519 91.856C302.769 91.8866 303.024 91.9066 303.284 91.9066C306.765 91.9066 309.588 89.084 309.588 85.6026C309.588 82.1213 306.765 79.2986 303.284 79.2986ZM277.395 97.312C270.928 97.312 265.687 92.0706 265.687 85.604C265.687 79.1373 270.929 73.896 277.395 73.896C283.86 73.896 289.103 79.1373 289.103 85.604C289.103 92.0706 283.86 97.312 277.395 97.312Z" fill="#5479F7"/>
<path d="M277.396 156.636C258.423 156.636 240.585 149.247 227.168 135.831C213.752 122.415 206.363 104.577 206.363 85.6027C206.363 66.628 213.752 48.7907 227.168 35.3747C240.584 21.9587 258.423 14.5693 277.396 14.5693C296.369 14.5693 314.207 21.9587 327.624 35.3747C341.04 48.7907 348.429 66.6293 348.429 85.6027C348.429 104.576 341.04 122.413 327.624 135.831C314.208 149.247 296.369 156.636 277.396 156.636ZM277.396 15.452C238.715 15.452 207.245 46.9213 207.245 85.6027C207.245 124.284 238.715 155.753 277.396 155.753C316.077 155.753 347.547 124.284 347.547 85.6027C347.547 46.9213 316.077 15.452 277.396 15.452Z" fill="#E2EAFF"/>
<path d="M363.077 69.3682H332.897C331.283 69.3682 329.975 70.6767 329.975 72.2908V98.9162C329.975 100.53 331.283 101.839 332.897 101.839H363.077C364.691 101.839 366 100.53 366 98.9162V72.2908C366 70.6767 364.691 69.3682 363.077 69.3682Z" fill="#E2EAFF"/>
<path d="M358.035 90.1697L354.739 88.0724C354.297 87.807 353.444 87.7924 352.551 88.4764C351.712 89.1204 350.36 90.1337 347.008 87.1751C343.656 84.2191 344.357 82.6591 345.019 81.8324C345.119 81.7071 345.82 80.5217 345.143 79.6071L343.204 77.2671C341.608 75.4764 340.171 77.3417 340.085 77.447C337.719 80.4017 339.553 85.7937 344.437 90.1004C349.321 94.4084 354.892 95.5524 357.517 92.8257C357.611 92.7284 359.169 90.9631 358.033 90.1711L358.035 90.1697Z" fill="white"/>
<path d="M357.52 93.1175C357.447 93.1175 357.373 93.0908 357.316 93.0348C357.199 92.9228 357.196 92.7362 357.308 92.6188C357.491 92.4282 358.215 91.5188 358.151 90.8735C358.132 90.6788 358.041 90.5308 357.867 90.4095L354.581 88.3188C354.223 88.1028 353.485 88.1295 352.731 88.7082C351.585 89.5868 350.088 90.2815 346.815 87.3935C344.203 85.0882 343.54 83.2095 344.791 81.6468C344.797 81.6375 345.495 80.5722 344.908 79.7802L342.979 77.4522C342.576 77.0002 342.153 76.7735 341.721 76.7855C341.024 76.8055 340.473 77.4308 340.321 77.6215L339.857 77.2602C340.053 77.0135 340.753 76.2242 341.705 76.1975C342.315 76.1748 342.893 76.4735 343.424 77.0682L345.371 79.4162C346.149 80.4695 345.424 81.7962 345.249 82.0135C344.837 82.5282 343.741 83.8975 347.204 86.9508C350.389 89.7615 351.583 88.8455 352.373 88.2402C353.352 87.4908 354.343 87.4868 354.891 87.8175L358.192 89.9188C358.515 90.1428 358.699 90.4508 358.735 90.8148C358.836 91.8442 357.741 93.0135 357.731 93.0255C357.673 93.0855 357.596 93.1162 357.519 93.1162L357.52 93.1175Z" fill="#5479F7"/>
<path d="M292.485 0H262.305C260.691 0 259.383 1.30852 259.383 2.92267V29.548C259.383 31.1621 260.691 32.4707 262.305 32.4707H292.485C294.099 32.4707 295.408 31.1621 295.408 29.548V2.92267C295.408 1.30852 294.099 0 292.485 0Z" fill="#E2EAFF"/>
<path d="M267.305 23.0312L287.427 22.9609L287.383 10.1903L267.26 10.2606L267.305 23.0312Z" fill="white"/>
<path d="M277.348 18.2361C277.296 18.2361 277.244 18.2228 277.197 18.1948L270.677 14.3214C270.537 14.2388 270.492 14.0588 270.575 13.9188C270.657 13.7788 270.837 13.7334 270.977 13.8161L277.347 17.6001L283.661 13.8161C283.801 13.7321 283.981 13.7774 284.064 13.9174C284.148 14.0561 284.103 14.2374 283.963 14.3201L277.497 18.1934C277.451 18.2214 277.399 18.2348 277.347 18.2348L277.348 18.2361Z" fill="#5479F7"/>
<path d="M221.893 69.3682H191.713C190.099 69.3682 188.791 70.6767 188.791 72.2908V98.9162C188.791 100.53 190.099 101.839 191.713 101.839H221.893C223.507 101.839 224.816 100.53 224.816 98.9162V72.2908C224.816 70.6767 223.507 69.3682 221.893 69.3682Z" fill="#E2EAFF"/>
<path d="M206.719 98.3575L199.98 86.8295C197.912 83.2908 198.8 78.7095 202.135 76.3242C203.445 75.3868 205.061 74.8282 206.848 74.8375C208.635 74.8469 210.245 75.4242 211.545 76.3762C214.853 78.7988 215.691 83.3895 213.584 86.9055L206.719 98.3588V98.3575Z" fill="white"/>
<path d="M206.804 88.096H206.775C205.391 88.088 204.092 87.5427 203.119 86.56C202.145 85.5773 201.613 84.2733 201.621 82.8907C201.637 80.0467 203.96 77.7427 206.804 77.7427H206.833C209.691 77.7587 212.003 80.0933 211.988 82.948C211.972 85.792 209.651 88.0947 206.805 88.0947L206.804 88.096ZM206.804 78.332C204.281 78.332 202.224 80.3733 202.209 82.8947C202.203 84.12 202.675 85.2747 203.537 86.1453C204.4 87.0173 205.552 87.5 206.779 87.5067H206.804C209.325 87.5067 211.384 85.4653 211.399 82.944C211.412 80.4147 209.363 78.344 206.829 78.3307H206.804V78.332Z" fill="#5479F7"/>
<path d="M345.064 20.9399H314.884C313.27 20.9399 311.961 22.2485 311.961 23.8626V50.4879C311.961 52.1021 313.27 53.4106 314.884 53.4106H345.064C346.678 53.4106 347.987 52.1021 347.987 50.4879V23.8626C347.987 22.2485 346.678 20.9399 345.064 20.9399Z" fill="#E2EAFF"/>
<path d="M331.837 41.1984C335.049 41.1984 337.653 38.5945 337.653 35.3824C337.653 32.1703 335.049 29.5664 331.837 29.5664C328.625 29.5664 326.021 32.1703 326.021 35.3824C326.021 38.5945 328.625 41.1984 331.837 41.1984Z" fill="white"/>
<path d="M331.837 41.4918C328.464 41.4918 325.719 38.7505 325.719 35.3812C325.719 32.0118 328.463 29.2705 331.837 29.2705C335.212 29.2705 337.956 32.0118 337.956 35.3812C337.956 38.7505 335.212 41.4918 331.837 41.4918ZM331.837 29.8598C328.788 29.8598 326.307 32.3372 326.307 35.3825C326.307 38.4278 328.788 40.9052 331.837 40.9052C334.887 40.9052 337.368 38.4278 337.368 35.3825C337.368 32.3372 334.887 29.8598 331.837 29.8598Z" fill="#5479F7"/>
<path d="M322.288 45.077C322.213 45.077 322.137 45.0477 322.08 44.9903C321.965 44.8757 321.965 44.689 322.08 44.5743L327.443 39.2183C327.557 39.1037 327.744 39.1037 327.859 39.2183C327.973 39.333 327.973 39.5197 327.859 39.6343L322.496 44.9903C322.439 45.0477 322.364 45.0757 322.288 45.0757V45.077Z" fill="#5479F7"/>
<path d="M239.907 19.1465H209.727C208.112 19.1465 206.804 20.455 206.804 22.0692V48.6945C206.804 50.3086 208.112 51.6171 209.727 51.6171H239.907C241.521 51.6171 242.829 50.3086 242.829 48.6945V22.0692C242.829 20.455 241.521 19.1465 239.907 19.1465Z" fill="#E2EAFF"/>
<path d="M221.423 44.3638C220.903 44.3638 220.377 44.2318 219.9 43.9531C218.519 43.1504 217.996 41.4024 218.711 39.9744L219.257 38.8584C219.293 38.7851 219.359 38.7304 219.436 38.7064C219.513 38.6838 219.599 38.6931 219.669 38.7331L224.559 41.5758C224.629 41.6171 224.68 41.6851 224.697 41.7651C224.716 41.8451 224.7 41.9278 224.653 41.9958L223.951 43.0224C223.369 43.8878 222.407 44.3624 221.424 44.3624L221.423 44.3638ZM219.645 39.4011L219.237 40.2358C218.66 41.3891 219.081 42.7984 220.196 43.4464C221.309 44.0944 222.745 43.7638 223.464 42.6958L223.989 41.9278L219.647 39.4024L219.645 39.4011Z" fill="#5479F7"/>
<path d="M230.908 30.7423C230.857 30.7423 230.807 30.729 230.76 30.7023L226.076 27.9796C225.948 27.905 225.895 27.7463 225.953 27.6103L226.045 27.3956C226.053 27.3783 226.061 27.3623 226.072 27.3476C226.963 26.0223 228.743 25.613 230.124 26.417C231.505 27.2196 232.028 28.9676 231.313 30.3956C231.305 30.4116 231.295 30.4276 231.284 30.4436L231.143 30.629C231.085 30.7036 230.997 30.7436 230.909 30.7436L230.908 30.7423ZM226.607 27.6076L230.823 30.0583C231.345 28.921 230.919 27.557 229.828 26.9236C228.737 26.2903 227.339 26.5916 226.607 27.6076Z" fill="#5479F7"/>
<path d="M228.945 44.9088C228.869 44.9088 228.793 44.8901 228.724 44.8488L214.764 36.7315C214.663 36.6728 214.589 36.5755 214.559 36.4621C214.529 36.3488 214.545 36.2288 214.604 36.1274C215.107 35.2661 215.944 34.6395 216.964 34.3635C218.685 33.8968 220.083 32.9541 221.005 31.6368L222.796 29.0808C223.535 28.0048 224.777 27.3475 226.204 27.2835C226.291 27.2808 226.372 27.2995 226.445 27.3421L231.129 30.0648C231.203 30.1075 231.261 30.1701 231.3 30.2461C231.948 31.5168 231.991 32.9221 231.416 34.0981L230.076 36.9128C229.385 38.3635 229.253 40.0435 229.697 41.7675C229.96 42.7888 229.828 43.8261 229.327 44.6875C229.245 44.8288 229.097 44.9061 228.945 44.9061V44.9088ZM215.62 36.2101L228.756 43.8474C228.976 43.2754 229.008 42.6301 228.844 41.9888C228.348 40.0621 228.5 38.1754 229.281 36.5354L230.624 33.7168C231.061 32.8221 231.04 31.7528 230.573 30.7621L226.12 28.1728C225.025 28.2555 224.084 28.7661 223.523 29.5835L221.729 32.1435C220.687 33.6315 219.12 34.6941 217.196 35.2155C216.556 35.3888 216.009 35.7355 215.621 36.2088L215.62 36.2101Z" fill="white"/>
<path d="M292.485 138.736H262.305C260.691 138.736 259.383 140.044 259.383 141.658V168.284C259.383 169.898 260.691 171.207 262.305 171.207H292.485C294.099 171.207 295.408 169.898 295.408 168.284V141.658C295.408 140.044 294.099 138.736 292.485 138.736Z" fill="#E2EAFF"/>
<path d="M283.745 153.355C283.583 153.355 283.452 153.223 283.452 153.061V146.725H274.021L271.34 149.404V153.061C271.34 153.224 271.208 153.355 271.047 153.355C270.885 153.355 270.753 153.223 270.753 153.061V149.281C270.753 149.203 270.784 149.128 270.84 149.073L273.695 146.223C273.749 146.168 273.825 146.137 273.903 146.137H283.748C283.911 146.137 284.041 146.269 284.041 146.431V153.061C284.041 153.224 283.909 153.355 283.748 153.355H283.745Z" fill="#5479F7"/>
<path d="M273.9 149.575H271.045C270.883 149.575 270.752 149.443 270.752 149.281C270.752 149.12 270.884 148.988 271.045 148.988H273.605V146.432C273.605 146.269 273.737 146.139 273.899 146.139C274.06 146.139 274.192 146.271 274.192 146.432V149.283C274.192 149.445 274.06 149.576 273.899 149.576L273.9 149.575Z" fill="#5479F7"/>
<path d="M284.885 163.953H270.957C270.136 163.953 269.467 163.285 269.467 162.464V153.061C269.467 152.817 269.664 152.62 269.908 152.62H278.46V152.456C278.46 151.905 278.908 151.457 279.46 151.457H282.769C283.32 151.457 283.769 151.905 283.769 152.456V152.62H284.887C285.131 152.62 285.328 152.817 285.328 153.061V163.513C285.328 163.757 285.131 163.954 284.887 163.954L284.885 163.953ZM270.348 153.501V162.462C270.348 162.797 270.621 163.07 270.956 163.07H284.444V153.501H283.327C283.083 153.501 282.885 153.304 282.885 153.06V152.456C282.885 152.392 282.832 152.338 282.768 152.338H279.459C279.393 152.338 279.341 152.39 279.341 152.456V153.06C279.341 153.304 279.144 153.501 278.9 153.501H270.348Z" fill="white"/>
<path d="M345.064 117.797H314.884C313.27 117.797 311.961 119.106 311.961 120.72V147.345C311.961 148.96 313.27 150.268 314.884 150.268H345.064C346.678 150.268 347.987 148.96 347.987 147.345V120.72C347.987 119.106 346.678 117.797 345.064 117.797Z" fill="#E2EAFF"/>
<path d="M328.189 135.745C328.091 135.745 327.997 135.696 327.943 135.612C327.888 135.529 327.88 135.424 327.919 135.333C327.919 135.332 328.083 134.928 328.083 134.029C328.083 133.25 327.911 132.704 327.909 132.698C327.881 132.609 327.897 132.512 327.952 132.436C328.008 132.36 328.096 132.314 328.189 132.314L342.509 132.308C342.588 132.308 342.663 132.338 342.717 132.394C342.772 132.45 342.804 132.524 342.804 132.602C342.804 134.332 341.396 135.74 339.665 135.74H339.177C339.1 135.74 339.024 135.709 338.969 135.654C338.915 135.6 338.883 135.525 338.883 135.446V134.318H337.836V135.446C337.836 135.609 337.704 135.74 337.543 135.74H336.111C336.033 135.74 335.957 135.709 335.903 135.654C335.848 135.6 335.816 135.525 335.816 135.446V134.97L334.832 134.67V135.446C334.832 135.609 334.7 135.74 334.537 135.74H333.16C333.083 135.74 333.007 135.709 332.952 135.654C332.897 135.6 332.865 135.525 332.865 135.446V134.89H331.672V135.446C331.672 135.609 331.54 135.74 331.379 135.74L328.188 135.742L328.189 135.745ZM328.563 132.902C328.615 133.17 328.671 133.561 328.671 134.03C328.671 134.537 328.624 134.906 328.575 135.157H331.087V134.598C331.087 134.436 331.219 134.305 331.38 134.305H333.161C333.239 134.305 333.315 134.336 333.369 134.39C333.424 134.445 333.456 134.52 333.456 134.598V135.154H334.245V134.274C334.245 134.181 334.289 134.093 334.364 134.038C334.439 133.982 334.535 133.966 334.624 133.993L336.196 134.472C336.32 134.509 336.404 134.624 336.404 134.753V135.153H337.248V134.025C337.248 133.862 337.38 133.732 337.541 133.732H339.176C339.255 133.732 339.329 133.762 339.384 133.817C339.439 133.872 339.471 133.946 339.471 134.025V135.152H339.664C340.972 135.152 342.052 134.164 342.199 132.896L328.563 132.901V132.902Z" fill="#5479F7"/>
<path d="M322.901 139.936C321.325 139.936 319.843 139.324 318.728 138.21C317.612 137.096 316.999 135.614 316.999 134.037C316.999 130.782 319.649 128.13 322.908 128.126C326.168 128.126 328.819 130.774 328.819 134.03C328.819 137.286 326.167 139.937 322.908 139.937H322.9L322.901 139.936ZM322.909 129.008C320.137 129.012 317.881 131.268 317.881 134.037C317.881 135.378 318.404 136.638 319.352 137.586C320.3 138.533 321.56 139.054 322.903 139.054H322.909C325.683 139.054 327.939 136.801 327.939 134.03C327.939 131.26 325.683 129.009 322.911 129.009L322.909 129.008Z" fill="white"/>
<path d="M320.948 135.719C320.016 135.719 319.257 134.96 319.257 134.028C319.257 133.096 320.016 132.336 320.948 132.336C321.88 132.336 322.64 133.095 322.64 134.028C322.64 134.961 321.881 135.719 320.948 135.719ZM320.948 133.217C320.501 133.217 320.139 133.58 320.139 134.027C320.139 134.473 320.501 134.836 320.948 134.836C321.395 134.836 321.757 134.473 321.757 134.027C321.757 133.58 321.395 133.217 320.948 133.217Z" fill="white"/>
<path d="M239.5 115.636H209.32C207.706 115.636 206.397 116.945 206.397 118.559V145.184C206.397 146.798 207.706 148.107 209.32 148.107H239.5C241.114 148.107 242.423 146.798 242.423 145.184V118.559C242.423 116.945 241.114 115.636 239.5 115.636Z" fill="#E2EAFF"/>
<path d="M228.86 131.891C228.876 130.608 229.929 129.58 231.213 129.596C232.497 129.612 233.525 130.664 233.511 131.947C233.495 133.23 232.441 134.258 231.157 134.242C229.873 134.226 228.845 133.174 228.86 131.891Z" fill="white"/>
<path d="M219.957 137.94C220.057 136.661 219.1 135.543 217.82 135.443C216.54 135.343 215.421 136.299 215.321 137.577C215.221 138.856 216.178 139.974 217.458 140.074C218.738 140.174 219.857 139.219 219.957 137.94Z" fill="white"/>
<path d="M219.769 137.131C219.656 137.131 219.548 137.064 219.5 136.954C219.436 136.804 219.504 136.632 219.653 136.567L228.831 132.611C228.979 132.547 229.152 132.615 229.217 132.764C229.281 132.914 229.213 133.086 229.064 133.151L219.887 137.107C219.849 137.123 219.809 137.131 219.771 137.131H219.769Z" fill="#5479F7"/>
<path d="M220.021 126.176C220.12 124.897 219.163 123.78 217.883 123.68C216.602 123.58 215.484 124.536 215.384 125.815C215.285 127.094 216.242 128.212 217.522 128.311C218.803 128.411 219.921 127.455 220.021 126.176Z" fill="white"/>
<path d="M228.955 131.259C228.915 131.259 228.875 131.251 228.836 131.234L219.695 127.194C219.547 127.128 219.479 126.954 219.544 126.806C219.611 126.658 219.783 126.591 219.932 126.655L229.073 130.695C229.221 130.76 229.289 130.935 229.224 131.083C229.175 131.192 229.068 131.258 228.955 131.258V131.259Z" fill="#5479F7"/>
<path d="M99.6147 94.54L90.3907 121.505C89.8013 123.228 88.336 124.505 86.548 124.853L82.4413 125.652C82.4413 125.652 93.1187 148.829 111.112 144.947C129.105 141.064 125.148 125.652 125.148 125.652L121.341 125.344C119.063 125.16 117.5 122.965 118.072 120.752L122.351 104.181C122.351 104.181 104.915 90.128 99.6133 94.5414L99.6147 94.54Z" fill="white"/>
<path d="M107.131 145.671C101.063 145.671 95.144 142.71 89.8147 136.955C84.9213 131.672 82.2027 125.834 82.176 125.775C82.1387 125.694 82.14 125.599 82.1813 125.518C82.2227 125.438 82.2987 125.38 82.3867 125.363L86.4933 124.564C88.1733 124.238 89.56 123.03 90.1147 121.41L99.3387 94.4442C99.356 94.3936 99.3867 94.3482 99.4293 94.3136C104.853 89.7976 121.819 103.371 122.539 103.951C122.628 104.023 122.668 104.142 122.639 104.254L118.36 120.824C118.109 121.795 118.299 122.822 118.881 123.638C119.463 124.455 120.369 124.97 121.369 125.05L125.176 125.358C125.301 125.368 125.405 125.456 125.437 125.578C125.504 125.835 127.017 131.948 123.579 137.512C121.192 141.375 117.02 143.972 111.177 145.232C109.825 145.524 108.476 145.668 107.133 145.668L107.131 145.671ZM82.8733 125.868C83.524 127.18 86.0933 132.079 90.2547 136.567C94.6893 141.35 101.896 146.635 111.051 144.66C116.728 143.435 120.772 140.93 123.072 137.211C126.039 132.415 125.137 127.03 124.909 125.928L121.319 125.638C120.145 125.543 119.081 124.939 118.399 123.98C117.716 123.022 117.493 121.818 117.788 120.679L122.019 104.294C120.328 102.959 104.741 90.8722 99.8653 94.7176L90.6693 121.603C90.048 123.42 88.4907 124.778 86.604 125.144L82.8733 125.87V125.868Z" fill="black"/>
<path d="M138.477 61.0149C140.053 68.7949 133.997 75.8482 128.759 77.1469C128.573 77.1922 128.387 77.2336 128.205 77.2736C128.093 77.6589 127.956 78.0442 127.781 78.4242C125.72 82.9322 119.824 85.1256 114.871 84.6776C113.435 86.2136 111.565 88.3522 109.581 91.0562C103.248 99.6922 98.7533 95.8082 92.1733 87.2576C91.2973 86.1189 90.0347 84.6656 89.3787 82.2549C88.0773 77.4682 90.328 73.1576 90.6147 72.6282C92.7613 68.6562 95.5253 68.8042 101.599 64.7256C110.833 58.5229 110.993 53.7829 118.931 51.1056C121.032 50.3962 123.676 49.5389 126.977 50.1456C131.78 51.0269 137.232 54.8696 138.476 61.0136L138.477 61.0149Z" fill="black"/>
<path d="M105.901 98.7333C105.901 98.7333 110.369 109.051 122.073 107.145C133.777 105.24 134.073 90.3533 133.029 74.5347C131.859 76.0293 129.24 77.18 127.172 78.0587C118.755 81.6373 111.184 76.9453 110.069 76.3453C112.075 78.8093 112.077 82.1547 110.389 84.42C109.457 85.6693 108.115 86.572 105.007 86.6253C105.007 86.6253 103.108 81.6707 98.6933 84.5467C94.2787 87.4227 95.92 99.5587 105.9 98.7347L105.901 98.7333Z" fill="white"/>
<path d="M119.283 107.672C110.377 107.672 106.359 100.331 105.721 99.0415C101.391 99.3268 97.9973 97.1428 96.6373 93.1735C95.4373 89.6708 96.2706 85.7721 98.532 84.2988C99.9066 83.4028 101.199 83.1415 102.369 83.5215C104.044 84.0655 104.936 85.7481 105.197 86.3255C108.249 86.2348 109.384 85.2721 110.152 84.2428C111.831 81.9908 111.703 78.8188 109.84 76.5295C109.752 76.4215 109.752 76.2641 109.841 76.1561C109.931 76.0481 110.084 76.0188 110.208 76.0841C110.267 76.1161 110.341 76.1588 110.435 76.2095C117.683 80.2721 123.473 79.3081 127.056 77.7855C128.877 77.0108 131.629 75.8415 132.796 74.3508C132.871 74.2548 132.997 74.2161 133.115 74.2508C133.231 74.2868 133.313 74.3908 133.321 74.5121C134.304 89.3975 134.331 105.444 122.12 107.432C121.124 107.595 120.179 107.668 119.283 107.668V107.672ZM105.901 98.4401C106.017 98.4401 106.124 98.5095 106.171 98.6175C106.215 98.7188 110.693 108.7 122.027 106.856C133.568 104.977 133.701 89.6735 132.781 75.2455C131.507 76.4735 129.381 77.4415 127.288 78.3308C123.725 79.8455 118.057 80.8281 110.996 77.1828C112.333 79.5468 112.227 82.4495 110.625 84.5975C109.793 85.7135 108.476 86.8615 105.012 86.9215H105.007C104.885 86.9215 104.776 86.8468 104.732 86.7335C104.724 86.7135 103.908 84.6415 102.185 84.0841C101.192 83.7628 100.071 84.0015 98.8533 84.7961C96.8066 86.1295 96.0773 89.7281 97.1933 92.9881C98.48 96.7481 101.728 98.7868 105.876 98.4455C105.884 98.4455 105.892 98.4455 105.9 98.4455L105.901 98.4401Z" fill="black"/>
<path d="M105.212 94.3643C105.089 94.3643 104.976 94.2883 104.933 94.1656C104.676 93.4123 104.409 92.6336 103.948 91.9909C103.456 91.3056 102.793 90.8856 102.128 90.8403C101.965 90.8296 101.844 90.6883 101.855 90.5269C101.867 90.3643 102.009 90.2483 102.168 90.2536C103.008 90.3109 103.831 90.8203 104.425 91.6483C104.937 92.3603 105.217 93.1816 105.489 93.9749C105.541 94.1283 105.46 94.2949 105.307 94.3483C105.276 94.3589 105.243 94.3643 105.212 94.3643Z" fill="black"/>
<path d="M108.043 82.2881C108.043 82.2881 109.949 90.5668 114.077 94.0348C118.205 97.5028 124.245 89.9988 133.651 89.9388C133.651 89.9388 133.909 104.523 131.813 107.732C129.167 111.783 108.168 113.169 105.708 99.0854C105.708 99.0854 107.943 92.3094 104.815 86.9761L108.043 82.2881Z" fill="black"/>
<path d="M103.188 64.1685C103.188 64.1685 94.3293 68.8471 100.444 83.2338L96.5067 85.3698C96.5067 85.3698 87.6013 66.9618 103.188 64.1685Z" fill="white"/>
<path d="M96.5067 85.6643C96.476 85.6643 96.4467 85.6603 96.416 85.6496C96.34 85.6243 96.276 85.5696 96.2414 85.4976C96.0494 85.1016 91.588 75.7256 94.872 69.2829C96.332 66.4176 99.112 64.5989 103.135 63.8776C103.28 63.8523 103.417 63.9349 103.464 64.0709C103.512 64.2069 103.452 64.3589 103.324 64.4269C103.303 64.4389 101.156 65.6043 99.7694 68.4669C97.928 72.2669 98.2547 77.3336 100.713 83.1176C100.773 83.2576 100.716 83.4189 100.583 83.4909L96.6454 85.6283C96.6014 85.6523 96.5533 85.6643 96.5053 85.6643H96.5067ZM101.86 64.7629C98.7694 65.5883 96.5987 67.1936 95.3973 69.5509C92.5507 75.1336 95.9267 83.3469 96.644 84.9616L100.071 83.1016C96.992 75.7083 97.924 70.9096 99.2587 68.1763C100.059 66.5389 101.079 65.4363 101.86 64.7616V64.7629Z" fill="black"/>
<path d="M111.769 102.967C110.54 102.967 109.329 102.509 108.403 101.656L102.168 95.9094C102.048 95.8 102.041 95.6134 102.151 95.4934C102.261 95.3747 102.447 95.3667 102.567 95.476L108.801 101.223C109.939 102.271 111.563 102.641 113.041 102.187L122.543 99.2734C122.699 99.2254 122.863 99.3134 122.909 99.468C122.957 99.6227 122.869 99.788 122.715 99.8347L113.213 102.748C112.74 102.893 112.253 102.964 111.769 102.964V102.967Z" fill="white"/>
<path d="M123.069 101.564C125.149 101.108 126.639 99.8402 126.396 98.7317C126.153 97.6233 124.27 97.0942 122.19 97.5501C120.109 98.0059 118.62 99.2741 118.863 100.383C119.106 101.491 120.989 102.02 123.069 101.564Z" fill="white"/>
<path d="M121.603 102.02C121.099 102.02 120.621 101.96 120.196 101.84C119.292 101.586 118.716 101.09 118.576 100.442C118.296 99.1549 119.856 97.7576 122.129 97.2602C123.181 97.0296 124.223 97.0322 125.064 97.2696C125.968 97.5242 126.543 98.0202 126.684 98.6682C126.965 99.9549 125.404 101.352 123.131 101.85C122.612 101.963 122.095 102.02 121.604 102.02H121.603ZM123.656 97.6789C123.208 97.6789 122.733 97.7309 122.255 97.8362C120.368 98.2496 118.947 99.3855 119.149 100.318C119.241 100.736 119.68 101.086 120.355 101.275C121.104 101.486 122.044 101.486 123.004 101.275C124.891 100.862 126.312 99.7256 126.108 98.7936C126.015 98.3682 125.587 98.0282 124.903 97.8362C124.528 97.7309 124.105 97.6776 123.656 97.6776V97.6789Z" fill="black"/>
<path d="M100.416 100.73C105.672 100.73 109.932 96.4629 109.932 91.1985C109.932 85.9341 105.672 81.6665 100.416 81.6665C95.1605 81.6665 90.9 85.9341 90.9 91.1985C90.9 96.4629 95.1605 100.73 100.416 100.73Z" fill="white"/>
<path d="M100.416 101.025C95.0067 101.025 90.6067 96.6174 90.6067 91.1987C90.6067 85.7801 95.0067 81.3721 100.416 81.3721C105.825 81.3721 110.225 85.7801 110.225 91.1987C110.225 96.6174 105.825 101.025 100.416 101.025ZM100.416 81.9601C95.3307 81.9601 91.1947 86.1041 91.1947 91.1987C91.1947 96.2934 95.3307 100.437 100.416 100.437C105.501 100.437 109.637 96.2934 109.637 91.1987C109.637 86.1041 105.501 81.9601 100.416 81.9601Z" fill="black"/>
<path d="M100.416 97.9279C104.126 97.9279 107.133 94.9151 107.133 91.1986C107.133 87.4821 104.126 84.4692 100.416 84.4692C96.7062 84.4692 93.6987 87.4821 93.6987 91.1986C93.6987 94.9151 96.7062 97.9279 100.416 97.9279Z" fill="white"/>
<path d="M100.416 98.2228C96.5494 98.2228 93.4041 95.0721 93.4041 91.1988C93.4041 87.3255 96.5494 84.1748 100.416 84.1748C104.283 84.1748 107.428 87.3255 107.428 91.1988C107.428 95.0721 104.283 98.2228 100.416 98.2228ZM100.416 84.7641C96.8734 84.7641 93.992 87.6508 93.992 91.2001C93.992 94.7495 96.8734 97.6361 100.416 97.6361C103.959 97.6361 106.84 94.7495 106.84 91.2001C106.84 87.6508 103.959 84.7641 100.416 84.7641Z" fill="black"/>
<path d="M163.685 137.91C158.361 130.72 150.227 126.15 141.319 125.328C136.245 124.86 129.884 124.363 122.789 124C122.399 125.278 121.853 126.514 121.144 127.68C119.088 131.064 115.867 133.67 112.277 135.287C108.687 136.906 104.667 137.638 100.743 137.163C96.9 136.699 93.244 135.063 90.588 132.202C88.4226 129.87 85.8253 127.051 85.16 123.992C78.7226 124.356 73.6506 124.89 67.608 125.836C56.0773 127.643 46.148 134.626 39.8493 144.452C26.1093 165.89 10.832 188.523 10.832 214.631C10.832 244.315 82.0906 241.736 82.0906 241.736H151.567L195.992 203.991C195.992 203.991 182.164 162.868 163.684 137.908L163.685 137.91Z" fill="#5479F7"/>
<path d="M75.7573 236.911C75.2319 240.452 82.0919 241.736 82.0919 241.736H103.349L135.004 237.667C135.004 237.667 137.475 196.88 92.7213 201.808C92.7213 201.808 79.2159 213.556 75.7573 236.909V236.911Z" fill="white"/>
<path d="M111.689 238.12C111.675 238.12 111.661 238.12 111.647 238.118C111.487 238.095 111.375 237.946 111.399 237.784C111.732 235.5 111.196 232.963 109.891 230.639C108.797 228.692 107.181 226.858 104.949 225.03C104.524 224.682 104.065 224.322 103.547 224.095C103.397 224.03 103.331 223.856 103.396 223.708C103.461 223.56 103.633 223.491 103.783 223.558C104.369 223.815 104.865 224.202 105.323 224.576C107.612 226.452 109.275 228.342 110.404 230.354C111.772 232.79 112.332 235.46 111.98 237.872C111.959 238.019 111.833 238.124 111.689 238.124V238.12Z" fill="black"/>
<path d="M121.921 237.533C121.777 237.533 121.652 237.428 121.631 237.281C121.247 234.572 120.695 231.403 119.511 228.437C118.285 225.368 116.487 222.861 114.309 221.189C114.181 221.091 114.156 220.905 114.256 220.777C114.355 220.649 114.539 220.624 114.668 220.724C116.929 222.461 118.793 225.053 120.057 228.22C121.264 231.243 121.824 234.456 122.213 237.2C122.236 237.361 122.124 237.509 121.964 237.532C121.949 237.535 121.936 237.535 121.923 237.535L121.921 237.533Z" fill="black"/>
<path d="M130.117 237.533C130.105 237.533 130.095 237.533 130.083 237.531C129.921 237.512 129.807 237.365 129.825 237.204C131.208 225.623 123.625 218.416 123.548 218.345C123.429 218.235 123.423 218.048 123.533 217.929C123.644 217.811 123.829 217.805 123.949 217.915C124.028 217.988 131.827 225.399 130.409 237.273C130.392 237.423 130.264 237.532 130.117 237.532V237.533Z" fill="black"/>
<path d="M212.305 243.854H96.8386C96.1546 243.854 95.4706 243.678 94.9066 243.291C93.5866 242.383 93.128 240.758 93.6493 239.363C95.0106 236.507 97.8253 235.503 101.985 235.503H219.88L218.351 239.662C217.407 242.184 214.997 243.856 212.304 243.856L212.305 243.854Z" fill="black"/>
<path d="M212.96 243.853C215.269 243.853 217.345 242.445 218.2 240.301L238.641 189.001C239.184 187.64 239.016 186.099 238.193 184.885C237.371 183.672 236.001 182.947 234.536 182.947H163.571C159.295 182.947 155.483 185.641 154.055 189.672L134.868 243.855H212.96V243.853Z" fill="black"/>
<path d="M214.62 236.298H144.263C144.1 236.298 143.969 236.166 143.969 236.004C143.969 235.843 144.101 235.711 144.263 235.711H214.62C214.783 235.711 214.913 235.843 214.913 236.004C214.913 236.166 214.781 236.298 214.62 236.298Z" fill="white"/>
<path d="M38.7773 202.843C38.6173 202.843 38.4867 202.715 38.484 202.555C38.4813 202.392 38.6107 202.259 38.772 202.255L90.3973 201.275H90.4027C90.5627 201.275 90.6933 201.403 90.696 201.563C90.6987 201.726 90.5693 201.859 90.408 201.863L38.7827 202.843H38.7773Z" fill="black"/>
<path d="M56.0173 199.914C55.9893 199.914 55.9613 199.91 55.932 199.902C55.7773 199.855 55.688 199.691 55.7346 199.535C57.6133 193.282 60.204 187.234 63.436 181.559C64.0933 180.404 65.1546 178.876 66.732 178.927C66.8946 178.932 67.0213 179.068 67.016 179.231C67.0106 179.39 66.88 179.515 66.7226 179.515C66.7186 179.515 66.716 179.515 66.712 179.515C65.4466 179.464 64.5293 180.828 63.9466 181.851C60.736 187.487 58.1626 193.494 56.2973 199.706C56.2586 199.832 56.1426 199.915 56.016 199.915L56.0173 199.914Z" fill="black"/>
<path d="M263.512 244H0.293333C0.130667 244 0 243.868 0 243.707V81.1376C0 80.9749 0.132 80.8442 0.293333 80.8442C0.454667 80.8442 0.586667 80.9762 0.586667 81.1376V243.412H263.511C263.673 243.412 263.804 243.544 263.804 243.706C263.804 243.867 263.672 243.999 263.511 243.999L263.512 244Z" fill="black"/>
<path d="M291.709 200.939H263.949C263.787 200.939 263.656 200.807 263.656 200.645V192.016C263.656 190.12 265.199 188.579 267.093 188.579H288.565C290.461 188.579 292.003 190.121 292.003 192.016V200.645C292.003 200.808 291.871 200.939 291.709 200.939ZM264.244 200.351H291.416V192.016C291.416 190.444 290.137 189.167 288.567 189.167H267.095C265.523 189.167 264.245 190.445 264.245 192.016V200.351H264.244Z" fill="#5479F7"/>
<path d="M295.58 243.706H259.212C254.803 239.297 254.803 232.149 259.212 227.74L259.323 227.629H295.469L295.58 227.74C299.989 232.149 299.989 239.297 295.58 243.706Z" fill="white"/>
<path d="M295.58 244H259.211C259.129 244 259.056 243.966 259.003 243.913C254.488 239.396 254.488 232.048 259.003 227.532L259.113 227.421C259.168 227.366 259.243 227.334 259.321 227.334H295.468C295.547 227.334 295.621 227.365 295.676 227.421L295.787 227.532C300.303 232.048 300.303 239.396 295.787 243.913C295.733 243.966 295.66 244 295.579 244H295.58ZM259.335 243.412H295.457C297.48 241.345 298.592 238.62 298.592 235.722C298.592 232.825 297.448 230.024 295.372 227.946L295.347 227.921H259.444L259.419 227.946C255.16 232.205 255.131 239.117 259.333 243.412H259.335Z" fill="black"/>
<path d="M302.656 191.817H252.136C249.991 191.817 248.252 193.556 248.252 195.701V231.784C248.252 233.929 249.991 235.668 252.136 235.668H302.656C304.801 235.668 306.54 233.929 306.54 231.784V195.701C306.54 193.556 304.801 191.817 302.656 191.817Z" fill="white"/>
<path d="M302.656 235.961H252.135C249.832 235.961 247.957 234.086 247.957 231.784V195.7C247.957 193.397 249.831 191.522 252.135 191.522H302.656C304.959 191.522 306.833 193.397 306.833 195.7V231.784C306.833 234.086 304.959 235.961 302.656 235.961ZM252.135 192.11C250.156 192.11 248.545 193.721 248.545 195.7V231.784C248.545 233.762 250.155 235.373 252.135 235.373H302.656C304.635 235.373 306.245 233.762 306.245 231.784V195.7C306.245 193.721 304.635 192.11 302.656 192.11H252.135Z" fill="black"/>
<path d="M306.54 244H248.252C248.089 244 247.959 243.868 247.959 243.706C247.959 243.545 248.091 243.413 248.252 243.413H306.54C306.703 243.413 306.833 243.545 306.833 243.706C306.833 243.868 306.701 244 306.54 244Z" fill="black"/>
<path d="M299.401 197.679H256.259V229.805H299.401V197.679Z" fill="#5479F7"/>
<path d="M270.992 217.603H265.109V217.01L268.328 213.359C268.861 212.744 269.231 212.236 269.437 211.836C269.644 211.436 269.747 211.047 269.747 210.668C269.747 210.075 269.572 209.606 269.224 209.259C268.876 208.912 268.396 208.739 267.785 208.739C267.175 208.739 266.643 208.942 266.253 209.346C265.864 209.75 265.669 210.275 265.669 210.92H264.901C264.901 210.391 265.021 209.91 265.259 209.475C265.497 209.04 265.837 208.7 266.277 208.452C266.719 208.204 267.22 208.082 267.784 208.082C268.644 208.082 269.316 208.307 269.8 208.759C270.284 209.211 270.525 209.826 270.525 210.604C270.525 211.043 270.389 211.523 270.116 212.043C269.843 212.563 269.363 213.212 268.675 213.991L266.056 216.952H270.991V217.604L270.992 217.603Z" fill="white"/>
<path d="M277.172 214.578H278.636V215.23H277.172V217.603H276.399V215.23H271.98V214.791L276.328 208.211H277.173V214.578H277.172ZM272.928 214.578H276.399V209.211L276.057 209.804L272.929 214.578H272.928Z" fill="white"/>
<path d="M279.765 218.41H279.063L282.984 208.211H283.68L279.765 218.41Z" fill="white"/>
<path d="M290.783 208.656L286.771 217.603H285.964L289.951 208.87H284.609V208.211H290.783V208.656Z" fill="white"/>
<path d="M25.5066 77.3346C25.144 77.1253 11.456 53.5933 14.004 24.3906C14.2786 21.2466 17.012 18.8426 20.1573 19.1039C20.2066 19.1079 20.256 19.1119 20.3053 19.1173C22.5773 19.3359 24.4946 20.9039 25.172 23.0839C26.9 28.6333 29.9373 43.1013 30.628 77.3359H25.504L25.5066 77.3346Z" fill="white"/>
<path d="M30.6306 77.6293H25.5066C25.4546 77.6293 25.4053 77.616 25.36 77.5907C25.0146 77.392 21.4386 71.1 18.3853 61.828C15.5213 53.132 12.3853 39.5733 13.712 24.3653C14.0026 21.0307 16.904 18.54 20.1826 18.8107L20.336 18.8253C22.728 19.0547 24.7386 20.692 25.456 22.9973C27.2026 28.6067 30.2346 43.1253 30.9253 77.3307C30.9266 77.4093 30.896 77.4853 30.8413 77.5427C30.7866 77.5987 30.7106 77.6307 30.632 77.6307L30.6306 77.6293ZM25.6493 77.0413H30.3306C29.6293 43.1227 26.6253 28.7347 24.8933 23.1707C24.2466 21.0933 22.4346 19.6173 20.2786 19.4093L20.144 19.3973C17.1786 19.1467 14.56 21.404 14.2973 24.416C12.992 39.3733 16.04 52.724 18.8266 61.2893C21.8133 70.4707 25.1266 76.26 25.6493 77.0413Z" fill="black"/>
<path d="M26.2093 70.9402C26.0773 70.9402 25.956 70.8495 25.924 70.7148C22.912 58.1722 20.952 45.2882 20.0973 32.4202C20.0867 32.2588 20.2093 32.1175 20.3707 32.1068C20.5293 32.0988 20.6733 32.2188 20.684 32.3802C21.536 45.2162 23.4907 58.0668 26.4947 70.5762C26.532 70.7335 26.4347 70.8922 26.2773 70.9308C26.2547 70.9361 26.2307 70.9388 26.208 70.9388L26.2093 70.9402Z" fill="black"/>
<path d="M28.0453 77.3346H37.528C37.528 77.3346 39.716 40.1946 40.4453 26.3066C41.1746 12.4186 35.28 10.1973 32.1173 10.8186C29.9066 11.252 20.392 14.1706 28.0453 77.3346Z" fill="white"/>
<path d="M37.528 77.6293H28.0453C27.896 77.6293 27.772 77.5186 27.7533 77.3706C22.716 35.8026 24.2453 12.0639 32.06 10.5306C32.876 10.3706 34.992 10.1893 37.032 11.9599C38.9773 13.6479 41.2 17.5119 40.7386 26.3226C40.0173 40.0519 37.8426 76.9813 37.8213 77.3519C37.812 77.5066 37.684 77.6293 37.528 77.6293ZM28.3066 77.0413H37.2506C37.4533 73.6053 39.464 39.3906 40.152 26.2919C40.6026 17.7173 38.4946 14.0066 36.648 12.4039C34.8026 10.8026 32.9053 10.9639 32.1746 11.1079C29.66 11.6013 27.8093 14.7986 26.672 20.6093C24.5466 31.4693 25.0973 50.4546 28.308 77.0399L28.3066 77.0413Z" fill="black"/>
<path d="M38.84 77.3344H46.5346C46.5346 77.3344 50.6386 67.9598 53.456 57.3664C56.2733 46.7731 57.4226 34.7384 53.456 34.1558C49.4893 33.5718 43.0573 38.3344 38.8413 77.3344H38.84Z" fill="white"/>
<path d="M46.5346 77.6293H38.84C38.756 77.6293 38.6773 77.5933 38.6213 77.5319C38.5653 77.4706 38.5386 77.3866 38.548 77.3039C41.176 52.9933 45.02 38.7239 49.9746 34.8906C51.0866 34.0293 52.272 33.6853 53.4986 33.8653C54.1706 33.9639 54.7333 34.3506 55.1706 35.0146C57.4013 38.4026 56.06 48.7199 53.74 57.4426C50.9493 67.9359 46.8453 77.3586 46.804 77.4533C46.7573 77.5599 46.652 77.6293 46.5346 77.6293ZM39.168 77.0413H46.3413C46.9146 75.7026 50.6026 66.9519 53.172 57.2919C55.384 48.9746 56.8 38.5559 54.68 35.3373C54.3346 34.8133 53.92 34.5213 53.4133 34.4466C52.336 34.2893 51.3306 34.5853 50.3346 35.3546C45.5333 39.0693 41.7773 53.0946 39.168 77.0413Z" fill="black"/>
<path d="M42.5613 76.5894C42.5359 76.5894 42.5093 76.5867 42.4839 76.5787C42.3266 76.5361 42.2346 76.3747 42.2773 76.2187L49.6773 48.9681C49.7199 48.8107 49.8826 48.7187 50.0373 48.7614C50.1946 48.8041 50.2866 48.9654 50.2439 49.1214L42.8439 76.3721C42.8079 76.5027 42.6893 76.5894 42.5599 76.5894H42.5613Z" fill="black"/>
<path d="M31.8973 76.8987H31.896C31.7333 76.8987 31.6026 76.7654 31.604 76.6028L31.8893 22.0454C31.8893 21.8841 32.0213 21.7534 32.1826 21.7534H32.184C32.3466 21.7534 32.4773 21.8868 32.476 22.0494L32.1906 76.6067C32.1906 76.7681 32.0586 76.8987 31.8973 76.8987Z" fill="black"/>
<path d="M49.0293 74.3774H22.044C20.4613 74.3774 19.2533 75.7948 19.5053 77.3574L23.2707 100.732H47.8013L51.5667 77.3574C51.8187 75.7948 50.612 74.3774 49.028 74.3774H49.0293Z" fill="#E2EAFF"/>
<path d="M56.0173 101.025H0.293333C0.130667 101.025 0 100.893 0 100.732C0 100.57 0.132 100.438 0.293333 100.438H56.0173C56.18 100.438 56.3107 100.57 56.3107 100.732C56.3107 100.893 56.1787 101.025 56.0173 101.025Z" fill="black"/>
<path d="M112.499 49.3385C112.336 49.3385 112.205 49.2065 112.205 49.0451V20.9891C112.205 20.8265 112.337 20.6958 112.499 20.6958H143.247C143.409 20.6958 143.54 20.8278 143.54 20.9891C143.54 21.1505 143.408 21.2825 143.247 21.2825H112.792V49.0438C112.792 49.2065 112.66 49.3371 112.499 49.3371V49.3385Z" fill="black"/>
<path d="M178.327 34.2913C185.124 27.4936 185.124 16.4723 178.327 9.67454C171.529 2.87681 160.508 2.87681 153.71 9.67453C146.912 16.4723 146.912 27.4936 153.71 34.2913C160.508 41.089 171.529 41.089 178.327 34.2913Z" fill="white"/>
<path d="M166.019 39.6839C156.259 39.6839 148.319 31.7439 148.319 21.9826C148.319 12.2212 156.259 4.28125 166.019 4.28125C175.779 4.28125 183.72 12.2212 183.72 21.9826C183.72 31.7439 175.78 39.6839 166.019 39.6839ZM166.019 4.87058C156.583 4.87058 148.907 12.5466 148.907 21.9839C148.907 31.4212 156.584 39.0972 166.019 39.0972C175.453 39.0972 183.132 31.4199 183.132 21.9839C183.132 12.5479 175.456 4.87058 166.019 4.87058Z" fill="black"/>
<mask id="mask0_11_19489" style="mask-type:luminance" maskUnits="userSpaceOnUse" x="150" y="6" width="32" height="32">
<path d="M176.799 32.7639C182.754 26.8097 182.754 17.1561 176.799 11.2019C170.845 5.2477 161.192 5.2477 155.237 11.2019C149.283 17.1561 149.283 26.8097 155.237 32.7639C161.192 38.7181 170.845 38.7181 176.799 32.7639Z" fill="white"/>
</mask>
<g mask="url(#mask0_11_19489)">
<path d="M175.549 38.7598H156.489C156.409 38.7598 156.332 38.7265 156.276 38.6691C156.22 38.6118 156.191 38.5318 156.196 38.4518L157.144 19.5011C157.447 13.4425 161.347 8.6958 166.02 8.6958C170.693 8.6958 174.592 13.4425 174.896 19.5011L175.844 38.4518C175.848 38.5318 175.819 38.6105 175.763 38.6691C175.707 38.7278 175.631 38.7598 175.549 38.7598ZM156.799 38.1718H175.24L174.308 19.5291C174.02 13.7838 170.38 9.28247 166.02 9.28247C161.66 9.28247 158.019 13.7838 157.732 19.5291L156.799 38.1718Z" fill="black"/>
<path d="M179.471 33.9036C178.809 31.6169 176.961 29.8689 174.643 29.3343L169.737 28.2049V22.0103H162.301V28.2049L157.396 29.3343C155.077 29.8689 153.229 31.6169 152.568 33.9036L150.696 43.7903H181.341L179.469 33.9036H179.471Z" fill="white"/>
<path d="M181.341 44.0838H150.696C150.608 44.0838 150.525 44.0452 150.469 43.9772C150.413 43.9092 150.391 43.8212 150.407 43.7345L152.277 33.8492C152.975 31.4358 154.907 29.6065 157.328 29.0478L162.005 27.9705V22.0092C162.005 21.8465 162.137 21.7158 162.299 21.7158H169.735C169.897 21.7158 170.028 21.8478 170.028 22.0092V27.9705L174.705 29.0478C177.127 29.6052 179.06 31.4345 179.751 33.8212C179.753 33.8292 179.755 33.8385 179.757 33.8478L181.629 43.7332C181.645 43.8185 181.623 43.9078 181.567 43.9758C181.511 44.0438 181.428 44.0825 181.34 44.0825L181.341 44.0838ZM151.051 43.4958H180.987L179.184 33.9732C178.549 31.7972 176.785 30.1305 174.576 29.6225L169.671 28.4932C169.537 28.4625 169.443 28.3438 169.443 28.2065V22.3052H162.595V28.2065C162.595 28.3438 162.5 28.4625 162.367 28.4932L157.461 29.6225C155.248 30.1318 153.481 31.8052 152.849 33.9865L151.051 43.4972V43.4958Z" fill="black"/>
<path d="M172.247 17.1866C171.976 17.1199 171.701 17.1452 171.448 17.2426C171.232 13.8026 168.885 11.4692 166.02 11.4692C163.155 11.4692 160.808 13.8026 160.592 17.2426C160.337 17.1452 160.063 17.1199 159.793 17.1866C158.989 17.3866 158.528 18.3172 158.764 19.2652C159 20.2132 159.843 20.8199 160.647 20.6199C160.776 20.5879 160.896 20.5346 161.007 20.4679C161.836 23.0092 163.768 24.9546 166.021 24.9546C168.275 24.9546 170.207 23.0092 171.036 20.4679C171.147 20.5346 171.265 20.5879 171.396 20.6199C172.2 20.8199 173.044 20.2132 173.279 19.2652C173.515 18.3172 173.053 17.3866 172.249 17.1866H172.247Z" fill="white"/>
<path d="M166.019 25.2491C163.852 25.2491 161.8 23.5038 160.833 20.8718C160.795 20.8851 160.755 20.8971 160.716 20.9064C160.243 21.0238 159.747 20.9198 159.319 20.6131C158.907 20.3171 158.608 19.8638 158.476 19.3371C158.345 18.8104 158.397 18.2704 158.623 17.8158C158.856 17.3438 159.245 17.0198 159.72 16.9024C159.917 16.8531 160.121 16.8424 160.327 16.8731C160.68 13.5504 163.028 11.1758 166.019 11.1758C169.009 11.1758 171.357 13.5504 171.711 16.8731C171.915 16.8438 172.12 16.8531 172.317 16.9024C172.792 17.0211 173.181 17.3451 173.415 17.8158C173.64 18.2704 173.692 18.8104 173.561 19.3371C173.287 20.4411 172.284 21.1451 171.321 20.9064C171.281 20.8971 171.243 20.8851 171.204 20.8718C170.237 23.5038 168.185 25.2491 166.019 25.2491ZM161.004 20.1744C161.039 20.1744 161.073 20.1811 161.107 20.1931C161.191 20.2238 161.256 20.2918 161.284 20.3771C162.12 22.9398 164.023 24.6611 166.019 24.6611C168.015 24.6611 169.919 22.9398 170.753 20.3771C170.781 20.2918 170.847 20.2238 170.931 20.1931C171.015 20.1624 171.109 20.1704 171.185 20.2184C171.276 20.2731 171.368 20.3131 171.463 20.3358C172.108 20.4958 172.793 19.9838 172.989 19.1958C173.087 18.8051 173.051 18.4078 172.887 18.0771C172.731 17.7624 172.479 17.5491 172.175 17.4731C171.972 17.4224 171.761 17.4371 171.552 17.5184C171.464 17.5518 171.367 17.5411 171.288 17.4904C171.209 17.4398 171.16 17.3544 171.153 17.2611C170.953 14.0758 168.793 11.7624 166.019 11.7624C163.244 11.7624 161.084 14.0744 160.884 17.2611C160.879 17.3544 160.828 17.4398 160.749 17.4904C160.671 17.5411 160.573 17.5504 160.485 17.5184C160.275 17.4384 160.065 17.4224 159.863 17.4731C159.559 17.5491 159.305 17.7624 159.151 18.0771C158.987 18.4078 158.951 18.8051 159.048 19.1958C159.145 19.5864 159.364 19.9211 159.663 20.1358C159.947 20.3411 160.271 20.4131 160.575 20.3358C160.669 20.3131 160.76 20.2731 160.852 20.2171C160.899 20.1891 160.952 20.1744 161.005 20.1744H161.004Z" fill="black"/>
<path d="M160.5 18.1063C163.215 17.5957 166.044 15.177 167.743 12.9997C168.075 14.9343 169.788 17.193 171.583 17.9876C171.583 17.9876 172.437 10.2876 166.02 10.5356C159.603 10.7836 160.501 18.1063 160.501 18.1063H160.5Z" fill="white"/>
<path d="M160.5 18.4012C160.437 18.4012 160.377 18.3812 160.327 18.3452C160.261 18.2972 160.219 18.2238 160.208 18.1438C160.201 18.0905 160.051 16.8238 160.332 15.3052C160.361 15.1452 160.513 15.0385 160.675 15.0692C160.835 15.0985 160.94 15.2518 160.911 15.4118C160.727 16.4025 160.74 17.2932 160.765 17.7492C163.4 17.1092 166.024 14.7265 167.509 12.8198C167.581 12.7278 167.701 12.6878 167.813 12.7158C167.927 12.7438 168.012 12.8358 168.032 12.9518C168.324 14.6558 169.78 16.6492 171.317 17.5265C171.337 17.0025 171.332 16.0612 171.128 15.0532C171.096 14.8945 171.199 14.7385 171.357 14.7065C171.519 14.6758 171.672 14.7772 171.704 14.9358C172.031 16.5532 171.88 17.9625 171.873 18.0225C171.863 18.1158 171.809 18.1985 171.728 18.2452C171.647 18.2918 171.548 18.2972 171.463 18.2585C169.783 17.5145 168.152 15.5358 167.593 13.6505C165.932 15.6225 163.24 17.8918 160.553 18.3972C160.535 18.4012 160.517 18.4025 160.499 18.4025L160.5 18.4012Z" fill="black"/>
</g>
</g>
<defs>
<clipPath id="clip0_11_19489">
<rect width="366" height="244" fill="white"/>
</clipPath>
</defs>
</svg>
