<svg width="393" height="360" viewBox="0 0 393 360" fill="none" xmlns="http://www.w3.org/2000/svg">
<path d="M0 0H393V360H0V0Z" fill="#304FFE"/>
<g opacity="0.05" clip-path="url(#clip0_693_12308)">
<path d="M262.555 119.793H181.353" stroke="black" stroke-width="2" stroke-linejoin="round"/>
<path d="M137.684 123.561H89.693" stroke="black" stroke-width="2" stroke-linejoin="round"/>
<path d="M29.5682 151.714H22.4515C17.1234 151.714 12.8025 156.038 12.8025 161.369C12.8025 166.7 17.1234 171.024 22.4515 171.024H96.8379C103.202 171.024 108.36 176.185 108.36 182.553C108.36 188.92 103.202 194.082 96.8379 194.082H38.8971C21.576 194.082 7.54028 208.135 7.54028 225.457C7.54028 242.788 21.5854 256.832 38.8971 256.832H81.7855" stroke="black" stroke-width="2" stroke-linejoin="round"/>
<path d="M112.069 308.666H266.763C272.223 308.666 276.648 313.093 276.648 318.556C276.648 324.019 272.223 328.446 266.763 328.446H241.563C235.19 328.446 230.031 333.607 230.031 339.984C230.031 346.361 235.19 351.523 241.563 351.523H324.996" stroke="black" stroke-width="2" stroke-linejoin="round"/>
<path d="M354.404 192.16H193.318C180.412 192.16 169.944 202.634 169.944 215.548C169.944 228.462 159.476 238.936 146.57 238.936H140.244" stroke="black" stroke-width="2" stroke-linejoin="round"/>
<path d="M155.353 190.418C161.852 190.418 167.12 185.146 167.12 178.644C167.12 172.141 161.852 166.87 155.353 166.87C148.854 166.87 143.586 172.141 143.586 178.644C143.586 185.146 148.854 190.418 155.353 190.418Z" stroke="black" stroke-width="2" stroke-linejoin="round"/>
<path d="M27.0453 295.441C33.1542 295.441 38.1063 290.486 38.1063 284.374C38.1063 278.261 33.1542 273.306 27.0453 273.306C20.9365 273.306 15.9843 278.261 15.9843 284.374C15.9843 290.486 20.9365 295.441 27.0453 295.441Z" stroke="black" stroke-width="2" stroke-linejoin="round"/>
<path d="M112.069 344.816C112.069 342.273 110.017 340.22 107.475 340.22C110.017 340.22 112.069 338.166 112.069 335.623C112.069 338.166 114.121 340.22 116.663 340.22C114.121 340.22 112.069 342.273 112.069 344.816Z" fill="#66CEDB"/>
<path d="M31.2344 329.134C31.2344 326.59 29.1822 324.537 26.6406 324.537C29.1822 324.537 31.2344 322.484 31.2344 319.94C31.2344 322.484 33.2866 324.537 35.8283 324.537C33.2866 324.537 31.2344 326.59 31.2344 329.134Z" fill="#66CEDB"/>
<path d="M64.4645 299.604C64.4645 297.061 62.4123 295.008 59.8707 295.008C62.4123 295.008 64.4645 292.954 64.4645 290.411C64.4645 292.954 66.5167 295.008 69.0584 295.008C66.5167 295.008 64.4645 297.061 64.4645 299.604Z" fill="#66CEDB"/>
<path d="M102.872 154.794C102.872 152.251 100.82 150.198 98.2783 150.198C100.82 150.198 102.872 148.144 102.872 145.601C102.872 148.144 104.924 150.198 107.466 150.198C104.924 150.198 102.872 152.251 102.872 154.794Z" fill="#66CEDB"/>
<path d="M345.536 124.389C345.536 121.846 343.484 119.793 340.943 119.793C343.484 119.793 345.536 117.739 345.536 115.196C345.536 117.739 347.589 119.793 350.13 119.793C347.589 119.793 345.536 121.846 345.536 124.389Z" fill="#66CEDB"/>
<path d="M260.362 110.732C260.362 108.188 258.31 106.135 255.768 106.135C258.31 106.135 260.362 104.082 260.362 101.539C260.362 104.082 262.414 106.135 264.956 106.135C262.414 106.135 260.362 108.188 260.362 110.732Z" fill="#F6BF58"/>
<path d="M136.827 325.545C136.827 326.364 136.159 327.033 135.34 327.033C134.521 327.033 133.852 326.364 133.852 325.545C133.852 324.725 134.521 324.057 135.34 324.057C136.159 324.057 136.827 324.725 136.827 325.545Z" fill="#F6BF58"/>
<path d="M111.053 100.079C111.053 101.595 109.819 102.829 108.304 102.829C106.788 102.829 105.555 101.595 105.555 100.079C105.555 98.562 106.788 97.3281 108.304 97.3281C109.819 97.3281 111.053 98.562 111.053 100.079Z" fill="#F6BF58"/>
<path d="M28.175 184.144C28.175 184.851 27.6008 185.425 26.8948 185.425C26.1887 185.425 25.6145 184.851 25.6145 184.144C25.6145 183.438 26.1887 182.863 26.8948 182.863C27.6008 182.863 28.175 183.438 28.175 184.144Z" fill="#66CEDB"/>
<path d="M320.129 271.497C320.129 272.496 319.32 273.306 318.322 273.306C317.324 273.306 316.514 272.496 316.514 271.497C316.514 270.499 317.324 269.689 318.322 269.689C319.32 269.689 320.129 270.499 320.129 271.497Z" fill="#66CEDB"/>
<path d="M121.596 192.791L126.689 197.887" stroke="black" stroke-width="2" stroke-linejoin="round"/>
<path d="M126.689 192.791L121.596 197.887" stroke="black" stroke-width="2" stroke-linejoin="round"/>
<path d="M186.936 282.688L192.029 287.783" stroke="black" stroke-width="2" stroke-linejoin="round"/>
<path d="M192.029 282.688L186.936 287.783" stroke="black" stroke-width="2" stroke-linejoin="round"/>
<path d="M151.625 202.86L148.142 208.898H155.108L151.625 202.86Z" stroke="black" stroke-width="2" stroke-linejoin="round"/>
<path d="M126.885 178.692L130.586 174.989L126.885 171.286L123.184 174.989L126.885 178.692Z" stroke="black" stroke-width="2" stroke-linejoin="round"/>
<path d="M372.805 290.091L376.506 286.388L372.805 282.685L369.104 286.388L372.805 290.091Z" stroke="black" stroke-width="2" stroke-linejoin="round"/>
<path d="M111.053 354.019H138.832" stroke="black" stroke-width="2" stroke-linejoin="round"/>
<path d="M185.006 96.9419H213.51" stroke="black" stroke-width="2" stroke-linejoin="round"/>
<path d="M220.759 96.9419H231.312" stroke="black" stroke-width="2" stroke-linejoin="round"/>
<path d="M46.5786 178.973H62.017" stroke="black" stroke-width="2" stroke-linejoin="round"/>
<path d="M70.4892 178.973H80.8442" stroke="black" stroke-width="2" stroke-linejoin="round"/>
<path d="M272.308 290.176H233.063C207.589 290.176 186.936 256.889 186.936 215.821C186.936 174.754 207.589 141.466 233.063 141.466H272.308" fill="#F6BF58"/>
<path d="M272.308 290.167C297.783 290.167 318.435 256.877 318.435 215.812C318.435 174.747 297.783 141.457 272.308 141.457C246.833 141.457 226.181 174.747 226.181 215.812C226.181 256.877 246.833 290.167 272.308 290.167Z" fill="#F6BF58" stroke="black" stroke-width="2" stroke-linejoin="round"/>
<path d="M244.124 156.838H205.688" stroke="black" stroke-width="2" stroke-linejoin="round"/>
<path d="M234.813 172.22H195.436" stroke="black" stroke-width="2" stroke-linejoin="round"/>
<path d="M228.742 187.611H190.306" stroke="black" stroke-width="2" stroke-linejoin="round"/>
<path d="M226.181 202.992H187.745" stroke="black" stroke-width="2" stroke-linejoin="round"/>
<path d="M225.503 218.374H186.098" stroke="black" stroke-width="2" stroke-linejoin="round"/>
<path d="M227.123 233.765H187.745" stroke="black" stroke-width="2" stroke-linejoin="round"/>
<path d="M231.312 249.146H192.866" stroke="black" stroke-width="2" stroke-linejoin="round"/>
<path d="M237.374 264.528H197.997" stroke="black" stroke-width="2" stroke-linejoin="round"/>
<path d="M249.245 279.918H210.809" stroke="black" stroke-width="2" stroke-linejoin="round"/>
<path d="M321.221 170.289C321.221 163.206 315.488 157.469 308.409 157.469C315.488 157.469 321.221 151.733 321.221 144.65C321.221 151.733 326.954 157.469 334.033 157.469C326.954 157.469 321.221 163.206 321.221 170.289Z" fill="#66CEDB"/>
<path d="M272.308 279.919C292.121 279.919 308.183 251.217 308.183 215.812C308.183 180.407 292.121 151.705 272.308 151.705C252.495 151.705 236.433 180.407 236.433 215.812C236.433 251.217 252.495 279.919 272.308 279.919Z" stroke="black" stroke-width="2" stroke-linejoin="round"/>
<path d="M274.671 202.992H259.741V228.631H274.671V202.992Z" stroke="black" stroke-width="2" stroke-linejoin="round"/>
<path d="M280.065 202.992H285.628V228.631" stroke="black" stroke-width="2" stroke-linejoin="round"/>
<path d="M280.065 228.462H291.869V222.735" stroke="black" stroke-width="2" stroke-linejoin="round"/>
<path d="M276.036 172.267C276.036 174.904 274.755 177.052 273.165 177.052C271.574 177.052 270.293 174.914 270.293 172.267C270.293 169.62 271.574 167.482 273.165 167.482C274.755 167.482 276.036 169.62 276.036 172.267Z" stroke="black" stroke-width="2" stroke-linejoin="round"/>
<path d="M273.165 264.537C274.75 264.537 276.036 262.395 276.036 259.752C276.036 257.11 274.75 254.967 273.165 254.967C271.579 254.967 270.293 257.11 270.293 259.752C270.293 262.395 271.579 264.537 273.165 264.537Z" stroke="black" stroke-width="2" stroke-linejoin="round"/>
<path d="M351.345 340.22V308.195L346.638 296.892H338.166V328.917H329.693L325.457 340.22H351.345Z" fill="#F6BF58"/>
<path d="M298.628 340.22V308.195L303.335 296.892H311.807V328.917H320.28L324.987 340.22H298.628Z" fill="#F6BF58"/>
<path d="M311.807 328.917V296.892L316.514 285.589H333.459L338.166 296.892V328.917" fill="#F6BF58"/>
<path d="M324.987 340.22H298.628L303.335 328.917H320.28L324.987 340.22Z" fill="#66CEDB" stroke="black" stroke-width="2" stroke-linejoin="round"/>
<path d="M351.345 340.22H324.987L329.693 328.917H346.638L351.345 340.22Z" fill="#66CEDB" stroke="black" stroke-width="2" stroke-linejoin="round"/>
<path d="M338.166 328.917H311.807L316.514 317.614H333.459L338.166 328.917Z" fill="#66CEDB" stroke="black" stroke-width="2" stroke-linejoin="round"/>
<path d="M316.514 317.614V285.589" stroke="black" stroke-width="2" stroke-linejoin="round"/>
<path d="M333.459 317.614V285.589" stroke="black" stroke-width="2" stroke-linejoin="round"/>
<path d="M346.638 328.917V296.892" stroke="black" stroke-width="2" stroke-linejoin="round"/>
<path d="M303.335 328.917V296.892" stroke="black" stroke-width="2" stroke-linejoin="round"/>
<path d="M328.752 291.24H321.221V298.776H328.752V291.24Z" stroke="black" stroke-width="2" stroke-linejoin="round"/>
<path d="M321.221 304.427H329.693" stroke="black" stroke-width="2" stroke-linejoin="round"/>
<path d="M321.221 311.962H329.693" stroke="black" stroke-width="2" stroke-linejoin="round"/>
<path d="M321.221 308.195H323.104" stroke="black" stroke-width="2" stroke-linejoin="round"/>
<path d="M324.987 308.195H326.869" stroke="black" stroke-width="2" stroke-linejoin="round"/>
<path d="M349.462 294.066C349.462 291.466 347.353 289.357 344.755 289.357C347.353 289.357 349.462 287.247 349.462 284.647C349.462 287.247 351.571 289.357 354.169 289.357C351.571 289.357 349.462 291.466 349.462 294.066Z" stroke="black" stroke-width="2" stroke-linejoin="round"/>
<path d="M311.807 296.892V328.917" stroke="black" stroke-width="2" stroke-linejoin="round"/>
<path d="M338.166 328.917V296.892" stroke="black" stroke-width="2" stroke-linejoin="round"/>
<path d="M58.2515 311.962L63.8997 318.555H73.3133L80.8442 311.02L69.5479 304.427L58.2515 311.962Z" stroke="black" stroke-width="2" stroke-linejoin="round"/>
<path d="M80.8442 311.02L69.5479 304.427L58.2515 311.962L60.0778 334.832L62.017 336.452V359.058H70.4892L76.8058 345.362L80.8442 311.02Z" stroke="black" stroke-width="2" stroke-linejoin="round"/>
<path d="M42.2484 341.161L48.8379 359.058H62.017V336.452L50.7206 327.033L42.2484 341.161Z" stroke="black" stroke-width="2" stroke-linejoin="round"/>
<path d="M73.3133 318.556L70.4892 359.058" stroke="black" stroke-width="2" stroke-linejoin="round"/>
<path d="M63.8997 318.556L66.7237 359.058" stroke="black" stroke-width="2" stroke-linejoin="round"/>
<path d="M81.7856 334.568L86.4924 344.929L96.8474 340.22L93.0819 326.091L81.7856 334.568Z" stroke="black" stroke-width="2" stroke-linejoin="round"/>
<path d="M81.7855 334.568L70.4892 359.058H82.7269L96.8473 340.22L93.0819 326.091L81.7855 334.568Z" stroke="black" stroke-width="2" stroke-linejoin="round"/>
<path d="M42.2484 341.161L51.662 343.987L62.017 336.452L50.7206 327.033L42.2484 341.161Z" stroke="black" stroke-width="2" stroke-linejoin="round"/>
<path d="M42.2484 341.161L48.8379 359.058H62.017V336.452" stroke="black" stroke-width="2" stroke-linejoin="round"/>
<path d="M50.7206 327.033L51.662 343.987L57.3102 359.058" stroke="black" stroke-width="2" stroke-linejoin="round"/>
<path d="M78.9615 359.058L86.4924 344.929L93.0819 326.091" stroke="black" stroke-width="2" stroke-linejoin="round"/>
<path d="M46.9552 313.846C46.9552 311.246 44.8465 309.136 42.2484 309.136C44.8465 309.136 46.9552 307.026 46.9552 304.427C46.9552 307.026 49.0638 309.136 51.662 309.136C49.0638 309.136 46.9552 311.246 46.9552 313.846Z" fill="#F6BF58"/>
<path d="M90.2578 321.381C90.2578 318.781 88.1492 316.671 85.551 316.671C88.1492 316.671 90.2578 314.562 90.2578 311.962C90.2578 314.562 92.3665 316.671 94.9646 316.671C92.3665 316.671 90.2578 318.781 90.2578 321.381Z" fill="#F6BF58"/>
<path d="M86.4924 359.058H81.7856" stroke="black" stroke-width="2" stroke-linejoin="round"/>
<path d="M88.3751 359.058H90.2578" stroke="black" stroke-width="2" stroke-linejoin="round"/>
<path d="M92.1406 359.058H94.0233" stroke="black" stroke-width="2" stroke-linejoin="round"/>
<path d="M45.0724 359.058H50.7206" stroke="black" stroke-width="2" stroke-linejoin="round"/>
<path d="M125.681 273.457V257.783C135.18 264.113 146.947 265.413 157.386 261.702C158.205 258.33 158.648 254.816 158.648 251.19C158.648 226.596 138.729 206.666 114.15 206.666C89.5707 206.666 69.6514 226.596 69.6514 251.19C69.6514 275.783 89.5707 295.714 114.15 295.714C120.852 295.714 127.197 294.226 132.892 291.57C128.298 286.7 125.681 280.239 125.681 273.457Z" fill="#66CEDB"/>
<path d="M125.681 273.457V257.783C127.555 259.027 129.513 260.063 131.537 260.92C132.12 257.783 132.469 254.534 132.469 251.19C132.469 226.596 114.15 206.666 114.15 206.666C114.15 206.666 95.8307 226.596 95.8307 251.19C95.8307 275.783 114.15 295.714 114.15 295.714C114.15 295.714 120.749 288.527 126.03 277.46C125.823 276.141 125.691 274.813 125.691 273.457H125.681Z" stroke="black" stroke-width="2" stroke-linejoin="round"/>
<path d="M158.648 251.19H69.6514" stroke="black" stroke-width="2" stroke-linejoin="round"/>
<path d="M85.3533 217.14C101.253 233.049 127.037 233.049 142.936 217.14" stroke="black" stroke-width="2" stroke-linejoin="round"/>
<path d="M155.748 293.727L145.459 302.308L135.17 293.727C129.155 288.716 125.681 281.284 125.681 273.457V257.783C137.655 265.771 153.263 265.771 165.237 257.783V273.457C165.237 281.284 161.764 288.716 155.748 293.727V293.727Z" stroke="black" stroke-width="2" stroke-linejoin="round"/>
<path d="M125.766 274.992C111.909 270.876 96.292 274.295 85.3533 285.24" stroke="black" stroke-width="2" stroke-linejoin="round"/>
<path d="M139.388 288.659C134.869 284.891 132.271 279.344 132.271 273.457V268.267C136.498 269.661 140.941 270.376 145.459 270.376C149.978 270.376 154.421 269.661 158.648 268.267V273.457C158.648 279.344 156.059 284.891 151.531 288.659L145.459 293.717L139.388 288.659Z" fill="#F6BF58"/>
<path d="M142.165 279.222L145.459 282.518L152.049 275.925" stroke="black" stroke-width="2" stroke-linejoin="round"/>
<path d="M79.5357 242.938H76.241V246.235H79.5357V242.938Z" fill="white"/>
<path d="M86.1253 242.938H82.8305V246.235H86.1253V242.938Z" fill="white"/>
<path d="M79.5357 236.345H76.241V239.642H79.5357V236.345Z" fill="white"/>
<path d="M357.228 229.356H344.049C343.009 229.356 342.166 230.2 342.166 231.24V255.73C342.166 256.77 343.009 257.614 344.049 257.614H357.228C358.268 257.614 359.111 256.77 359.111 255.73V231.24C359.111 230.2 358.268 229.356 357.228 229.356Z" fill="#66CEDB"/>
<path d="M340.284 243.485C341.323 243.485 342.166 242.642 342.166 241.601C342.166 240.561 341.323 239.717 340.284 239.717C339.244 239.717 338.401 240.561 338.401 241.601C338.401 242.642 339.244 243.485 340.284 243.485Z" stroke="black" stroke-width="2" stroke-linejoin="round"/>
<path d="M340.284 247.253C341.323 247.253 342.166 246.41 342.166 245.369C342.166 244.329 341.323 243.485 340.284 243.485C339.244 243.485 338.401 244.329 338.401 245.369C338.401 246.41 339.244 247.253 340.284 247.253Z" stroke="black" stroke-width="2" stroke-linejoin="round"/>
<path d="M340.284 251.021C341.323 251.021 342.166 250.177 342.166 249.137C342.166 248.096 341.323 247.253 340.284 247.253C339.244 247.253 338.401 248.096 338.401 249.137C338.401 250.177 339.244 251.021 340.284 251.021Z" stroke="black" stroke-width="2" stroke-linejoin="round"/>
<path d="M340.284 254.788C341.323 254.788 342.166 253.945 342.166 252.904C342.166 251.864 341.323 251.021 340.284 251.021C339.244 251.021 338.401 251.864 338.401 252.904C338.401 253.945 339.244 254.788 340.284 254.788Z" stroke="black" stroke-width="2" stroke-linejoin="round"/>
<path d="M359.111 244.427V241.601C359.111 239.001 361.22 236.892 363.818 236.892V262.323" stroke="black" stroke-width="2" stroke-linejoin="round"/>
<path d="M346.873 257.614V262.323" stroke="black" stroke-width="2" stroke-linejoin="round"/>
<path d="M342.166 234.066H359.111" stroke="black" stroke-width="2" stroke-linejoin="round"/>
<path d="M342.166 252.904H359.111" stroke="black" stroke-width="2" stroke-linejoin="round"/>
<path d="M377.938 236.892C386.257 236.892 393 230.144 393 221.821C393 213.498 386.257 206.75 377.938 206.75C369.62 206.75 362.876 213.498 362.876 221.821C362.876 230.144 369.62 236.892 377.938 236.892Z" fill="#F6BF58"/>
<path d="M377.938 233.124C384.177 233.124 389.235 228.064 389.235 221.821C389.235 215.579 384.177 210.518 377.938 210.518C371.699 210.518 366.642 215.579 366.642 221.821C366.642 228.064 371.699 233.124 377.938 233.124Z" stroke="black" stroke-width="2" stroke-linejoin="round"/>
<path d="M381.704 218.995C381.704 217.432 380.442 216.169 378.88 216.169H376.997C375.434 216.169 374.173 217.432 374.173 218.995C374.173 220.559 375.434 221.821 376.997 221.821H378.88C380.442 221.821 381.704 223.083 381.704 224.647C381.704 226.21 380.442 227.472 378.88 227.472H376.997C375.434 227.472 374.173 226.21 374.173 224.647" stroke="black" stroke-width="2" stroke-linejoin="round"/>
<path d="M377.938 213.344V216.169" stroke="black" stroke-width="2" stroke-linejoin="round"/>
<path d="M377.938 230.298V227.473" stroke="black" stroke-width="2" stroke-linejoin="round"/>
<path d="M370.407 220.879V222.763" stroke="black" stroke-width="2" stroke-linejoin="round"/>
<path d="M385.469 220.879V222.763" stroke="black" stroke-width="2" stroke-linejoin="round"/>
<path d="M352.521 218.054H350.639" stroke="black" stroke-width="2" stroke-linejoin="round"/>
<path d="M356.287 218.054H354.404" stroke="black" stroke-width="2" stroke-linejoin="round"/>
<path d="M360.052 218.054H358.17" stroke="black" stroke-width="2" stroke-linejoin="round"/>
<path d="M348.756 218.054H346.873" stroke="black" stroke-width="2" stroke-linejoin="round"/>
<path d="M348.756 221.821H346.873" stroke="black" stroke-width="2" stroke-linejoin="round"/>
<path d="M348.756 225.589H346.873" stroke="black" stroke-width="2" stroke-linejoin="round"/>
<path d="M370.407 253.846H372.29" stroke="black" stroke-width="2" stroke-linejoin="round"/>
<path d="M366.642 253.846H368.525" stroke="black" stroke-width="2" stroke-linejoin="round"/>
<path d="M374.173 253.846H376.055" stroke="black" stroke-width="2" stroke-linejoin="round"/>
<path d="M377.938 253.846H379.821" stroke="black" stroke-width="2" stroke-linejoin="round"/>
<path d="M381.704 253.846H383.586" stroke="black" stroke-width="2" stroke-linejoin="round"/>
<path d="M385.469 253.846H387.352" stroke="black" stroke-width="2" stroke-linejoin="round"/>
<path d="M385.469 250.079H387.352" stroke="black" stroke-width="2" stroke-linejoin="round"/>
<path d="M385.469 246.311H387.352" stroke="black" stroke-width="2" stroke-linejoin="round"/>
<path d="M385.469 242.543H387.352" stroke="black" stroke-width="2" stroke-linejoin="round"/>
<path d="M385.469 238.775H387.352" stroke="black" stroke-width="2" stroke-linejoin="round"/>
<path d="M346.873 242.543L349.697 245.369L355.345 239.717" stroke="black" stroke-width="2" stroke-linejoin="round"/>
<path d="M62.5818 154.644H32.4582V158.411H62.5818V154.644Z" fill="#F6BF58"/>
<path d="M47.52 132.038L32.4582 136.747V140.515H62.5818V136.747L47.52 132.038Z" fill="#F6BF58"/>
<path d="M38.1064 140.515H34.3409V154.644H38.1064V140.515Z" fill="white" stroke="black" stroke-width="2" stroke-linejoin="round"/>
<path d="M45.6373 140.515H41.8718V154.644H45.6373V140.515Z" fill="white" stroke="black" stroke-width="2" stroke-linejoin="round"/>
<path d="M53.1682 140.515H49.4027V154.644H53.1682V140.515Z" fill="white" stroke="black" stroke-width="2" stroke-linejoin="round"/>
<path d="M60.699 140.515H56.9336V154.644H60.699V140.515Z" fill="white" stroke="black" stroke-width="2" stroke-linejoin="round"/>
<path d="M87.0572 126.386H56.9336V130.154H87.0572V126.386Z" fill="#66CEDB"/>
<path d="M71.9954 103.78L56.9336 108.49V112.258H87.0572V108.49L71.9954 103.78Z" fill="#66CEDB"/>
<path d="M62.5818 112.257H58.8163V126.386H62.5818V112.257Z" fill="white" stroke="black" stroke-width="2" stroke-linejoin="round"/>
<path d="M70.1127 112.257H66.3472V126.386H70.1127V112.257Z" fill="white" stroke="black" stroke-width="2" stroke-linejoin="round"/>
<path d="M77.6436 112.257H73.8782V126.386H77.6436V112.257Z" fill="white" stroke="black" stroke-width="2" stroke-linejoin="round"/>
<path d="M85.1745 112.257H81.4091V126.386H85.1745V112.257Z" fill="white" stroke="black" stroke-width="2" stroke-linejoin="round"/>
<path d="M47.52 135.805V137.689" stroke="black" stroke-width="2" stroke-linejoin="round"/>
<path d="M71.9954 107.548V109.432" stroke="black" stroke-width="2" stroke-linejoin="round"/>
<path d="M40.9305 116.025H39.0477" stroke="black" stroke-width="2" stroke-linejoin="round"/>
<path d="M44.6959 116.025H42.8132" stroke="black" stroke-width="2" stroke-linejoin="round"/>
<path d="M48.4613 116.025H46.5786" stroke="black" stroke-width="2" stroke-linejoin="round"/>
<path d="M52.2268 116.025H50.3441" stroke="black" stroke-width="2" stroke-linejoin="round"/>
<path d="M55.9922 116.025H54.1095" stroke="black" stroke-width="2" stroke-linejoin="round"/>
<path d="M37.165 116.025H35.2823" stroke="black" stroke-width="2" stroke-linejoin="round"/>
<path d="M37.165 119.793H35.2823" stroke="black" stroke-width="2" stroke-linejoin="round"/>
<path d="M37.165 123.561H35.2823" stroke="black" stroke-width="2" stroke-linejoin="round"/>
<path d="M37.165 127.328H35.2823" stroke="black" stroke-width="2" stroke-linejoin="round"/>
<path d="M37.165 131.096H35.2823" stroke="black" stroke-width="2" stroke-linejoin="round"/>
<path d="M78.585 148.992H80.4677" stroke="black" stroke-width="2" stroke-linejoin="round"/>
<path d="M74.8195 148.992H76.7022" stroke="black" stroke-width="2" stroke-linejoin="round"/>
<path d="M71.0541 148.992H72.9368" stroke="black" stroke-width="2" stroke-linejoin="round"/>
<path d="M67.2886 148.992H69.1713" stroke="black" stroke-width="2" stroke-linejoin="round"/>
<path d="M63.5231 148.992H65.4059" stroke="black" stroke-width="2" stroke-linejoin="round"/>
<path d="M82.3504 148.992H84.2331" stroke="black" stroke-width="2" stroke-linejoin="round"/>
<path d="M82.3504 145.225H84.2331" stroke="black" stroke-width="2" stroke-linejoin="round"/>
<path d="M82.3504 141.457H84.2331" stroke="black" stroke-width="2" stroke-linejoin="round"/>
<path d="M82.3504 137.689H84.2331" stroke="black" stroke-width="2" stroke-linejoin="round"/>
<path d="M82.3504 133.921H84.2331" stroke="black" stroke-width="2" stroke-linejoin="round"/>
<path d="M359.591 139.309C372.045 139.309 382.137 149.406 382.137 161.868C382.137 174.329 372.045 184.427 359.591 184.427" fill="#66CEDB"/>
<path d="M359.591 184.418C366.887 184.418 372.808 174.32 372.808 161.859C372.808 149.397 366.896 139.3 359.591 139.3" stroke="black" stroke-width="2" stroke-linejoin="round"/>
<path d="M359.591 161.868H382.137" stroke="black" stroke-width="2" stroke-linejoin="round"/>
<path d="M376.696 147.089C371.659 150.979 365.625 152.929 359.591 152.929" stroke="black" stroke-width="2" stroke-linejoin="round"/>
<path d="M376.696 176.637C371.659 172.747 365.625 170.797 359.591 170.797" stroke="black" stroke-width="2" stroke-linejoin="round"/>
<path d="M358.038 139.309H340.933V184.417H358.038" fill="#66CEDB"/>
<path d="M358.038 181.309H346.374C346.374 180.019 345.593 178.973 344.04 178.973V144.753C345.593 144.753 346.374 143.708 346.374 142.417H358.038" fill="white"/>
<path d="M358.038 181.309H346.374C346.374 180.019 345.593 178.973 344.04 178.973V144.753C345.593 144.753 346.374 143.708 346.374 142.417H358.038" stroke="black" stroke-width="2" stroke-linejoin="round"/>
<path d="M356.485 168.866C352.625 168.866 349.49 165.73 349.49 161.868C349.49 158.006 352.625 154.87 356.485 154.87" fill="#66CEDB"/>
<path d="M348.709 145.535H347.156V147.089H348.709V145.535Z" fill="black"/>
<path d="M348.709 176.637H347.156V178.191H348.709V176.637Z" fill="black"/>
<path d="M359.591 140.863H358.038V142.417H359.591V140.863Z" fill="black"/>
<path d="M359.591 143.972H358.038V145.526H359.591V143.972Z" fill="black"/>
<path d="M359.591 147.089H358.038V148.644H359.591V147.089Z" fill="black"/>
<path d="M359.591 150.198H358.038V151.752H359.591V150.198Z" fill="black"/>
<path d="M359.591 153.306H358.038V154.86H359.591V153.306Z" fill="black"/>
<path d="M359.591 156.424H358.038V157.978H359.591V156.424Z" fill="black"/>
<path d="M359.591 159.532H358.038V161.086H359.591V159.532Z" fill="black"/>
<path d="M359.591 162.641H358.038V164.195H359.591V162.641Z" fill="black"/>
<path d="M359.591 165.749H358.038V167.303H359.591V165.749Z" fill="black"/>
<path d="M359.591 168.867H358.038V170.421H359.591V168.867Z" fill="black"/>
<path d="M359.591 171.975H358.038V173.529H359.591V171.975Z" fill="black"/>
<path d="M359.591 175.083H358.038V176.637H359.591V175.083Z" fill="black"/>
<path d="M359.591 178.201H358.038V179.755H359.591V178.201Z" fill="black"/>
<path d="M359.591 181.309H358.038V182.863H359.591V181.309Z" fill="black"/>
<path d="M175.037 324.047H161.858C160.818 324.047 159.975 324.89 159.975 325.931V350.42C159.975 351.461 160.818 352.304 161.858 352.304H175.037C176.077 352.304 176.92 351.461 176.92 350.42V325.931C176.92 324.89 176.077 324.047 175.037 324.047Z" fill="#66CEDB"/>
<path d="M158.092 338.175C159.132 338.175 159.975 337.332 159.975 336.292C159.975 335.251 159.132 334.408 158.092 334.408C157.053 334.408 156.21 335.251 156.21 336.292C156.21 337.332 157.053 338.175 158.092 338.175Z" stroke="black" stroke-width="2" stroke-linejoin="round"/>
<path d="M158.092 341.943C159.132 341.943 159.975 341.1 159.975 340.06C159.975 339.019 159.132 338.176 158.092 338.176C157.053 338.176 156.21 339.019 156.21 340.06C156.21 341.1 157.053 341.943 158.092 341.943Z" stroke="black" stroke-width="2" stroke-linejoin="round"/>
<path d="M158.092 345.711C159.132 345.711 159.975 344.868 159.975 343.827C159.975 342.787 159.132 341.943 158.092 341.943C157.053 341.943 156.21 342.787 156.21 343.827C156.21 344.868 157.053 345.711 158.092 345.711Z" stroke="black" stroke-width="2" stroke-linejoin="round"/>
<path d="M158.092 349.479C159.132 349.479 159.975 348.635 159.975 347.595C159.975 346.554 159.132 345.711 158.092 345.711C157.053 345.711 156.21 346.554 156.21 347.595C156.21 348.635 157.053 349.479 158.092 349.479Z" stroke="black" stroke-width="2" stroke-linejoin="round"/>
<path d="M176.92 339.117V336.292C176.92 333.692 179.028 331.582 181.626 331.582V357.014" stroke="black" stroke-width="2" stroke-linejoin="round"/>
<path d="M164.682 352.304V357.014" stroke="black" stroke-width="2" stroke-linejoin="round"/>
<path d="M159.975 328.756H176.92" stroke="black" stroke-width="2" stroke-linejoin="round"/>
<path d="M159.975 347.595H176.92" stroke="black" stroke-width="2" stroke-linejoin="round"/>
<path d="M204.219 324.047H191.04C190 324.047 189.157 324.89 189.157 325.931V350.42C189.157 351.461 190 352.304 191.04 352.304H204.219C205.259 352.304 206.102 351.461 206.102 350.42V325.931C206.102 324.89 205.259 324.047 204.219 324.047Z" fill="#F6BF58"/>
<path d="M187.275 338.175C188.314 338.175 189.157 337.332 189.157 336.292C189.157 335.251 188.314 334.408 187.275 334.408C186.235 334.408 185.392 335.251 185.392 336.292C185.392 337.332 186.235 338.175 187.275 338.175Z" stroke="black" stroke-width="2" stroke-linejoin="round"/>
<path d="M187.275 341.943C188.314 341.943 189.157 341.1 189.157 340.06C189.157 339.019 188.314 338.176 187.275 338.176C186.235 338.176 185.392 339.019 185.392 340.06C185.392 341.1 186.235 341.943 187.275 341.943Z" stroke="black" stroke-width="2" stroke-linejoin="round"/>
<path d="M187.275 345.711C188.314 345.711 189.157 344.868 189.157 343.827C189.157 342.787 188.314 341.943 187.275 341.943C186.235 341.943 185.392 342.787 185.392 343.827C185.392 344.868 186.235 345.711 187.275 345.711Z" stroke="black" stroke-width="2" stroke-linejoin="round"/>
<path d="M187.275 349.479C188.314 349.479 189.157 348.635 189.157 347.595C189.157 346.554 188.314 345.711 187.275 345.711C186.235 345.711 185.392 346.554 185.392 347.595C185.392 348.635 186.235 349.479 187.275 349.479Z" stroke="black" stroke-width="2" stroke-linejoin="round"/>
<path d="M206.102 339.117V336.292C206.102 333.692 208.211 331.582 210.809 331.582V357.014" stroke="black" stroke-width="2" stroke-linejoin="round"/>
<path d="M193.864 352.304V357.014" stroke="black" stroke-width="2" stroke-linejoin="round"/>
<path d="M189.157 328.756H206.102" stroke="black" stroke-width="2" stroke-linejoin="round"/>
<path d="M189.157 347.595H206.102" stroke="black" stroke-width="2" stroke-linejoin="round"/>
<path d="M196.688 301.441H170.33V316.512H196.688V301.441Z" fill="white" stroke="black" stroke-width="2" stroke-linejoin="round"/>
<path d="M191.981 301.441C191.981 304.041 194.09 306.15 196.688 306.15" stroke="black" stroke-width="2" stroke-linejoin="round"/>
<path d="M196.688 311.802C194.09 311.802 191.981 313.912 191.981 316.511" stroke="black" stroke-width="2" stroke-linejoin="round"/>
<path d="M175.037 316.511C175.037 313.912 172.928 311.802 170.33 311.802" stroke="black" stroke-width="2" stroke-linejoin="round"/>
<path d="M170.33 306.15C172.928 306.15 175.037 304.041 175.037 301.441" stroke="black" stroke-width="2" stroke-linejoin="round"/>
<path d="M183.509 311.802C185.069 311.802 186.333 310.537 186.333 308.976C186.333 307.416 185.069 306.15 183.509 306.15C181.95 306.15 180.685 307.416 180.685 308.976C180.685 310.537 181.95 311.802 183.509 311.802Z" fill="#66CEDB"/>
<path d="M164.682 337.233L168.447 333.466L172.213 337.233" stroke="black" stroke-width="2" stroke-linejoin="round"/>
<path d="M168.447 343.827V333.466" stroke="black" stroke-width="2" stroke-linejoin="round"/>
<path d="M201.395 339.118L197.63 342.885L193.864 339.118" stroke="black" stroke-width="2" stroke-linejoin="round"/>
<path d="M197.63 332.524V342.885" stroke="black" stroke-width="2" stroke-linejoin="round"/>
<path d="M158.648 133.922C161.247 133.922 163.355 131.813 163.355 129.212C163.355 126.611 161.247 124.502 158.648 124.502C156.048 124.502 153.941 126.611 153.941 129.212C153.941 131.813 156.048 133.922 158.648 133.922Z" fill="#F6BF58"/>
<path d="M160.766 133.394C160.126 133.724 159.41 133.922 158.648 133.922C157.885 133.922 157.17 133.724 156.53 133.394C154.459 134.232 153 136.257 153 138.631V145.224H164.296V138.631C164.296 136.257 162.837 134.232 160.766 133.394Z" fill="#F6BF58"/>
<path d="M180.299 116.967C182.899 116.967 185.006 114.858 185.006 112.257C185.006 109.656 182.899 107.548 180.299 107.548C177.7 107.548 175.592 109.656 175.592 112.257C175.592 114.858 177.7 116.967 180.299 116.967Z" fill="#66CEDB"/>
<path d="M182.417 116.439C181.777 116.769 181.062 116.967 180.299 116.967C179.537 116.967 178.821 116.769 178.181 116.439C176.11 117.278 174.651 119.303 174.651 121.677V128.27H185.947V121.677C185.947 119.303 184.488 117.278 182.417 116.439Z" fill="#66CEDB"/>
<path d="M136.996 116.967C139.596 116.967 141.703 114.858 141.703 112.257C141.703 109.656 139.596 107.548 136.996 107.548C134.397 107.548 132.29 109.656 132.29 112.257C132.29 114.858 134.397 116.967 136.996 116.967Z" fill="#66CEDB"/>
<path d="M139.115 116.439C138.474 116.769 137.759 116.967 136.996 116.967C136.234 116.967 135.519 116.769 134.878 116.439C132.807 117.278 131.348 119.303 131.348 121.677V128.27H142.645V121.677C142.645 119.303 141.186 117.278 139.115 116.439Z" fill="#66CEDB"/>
<path d="M180.299 150.876C182.899 150.876 185.006 148.768 185.006 146.167C185.006 143.566 182.899 141.457 180.299 141.457C177.7 141.457 175.592 143.566 175.592 146.167C175.592 148.768 177.7 150.876 180.299 150.876Z" fill="#66CEDB"/>
<path d="M182.417 150.349C181.777 150.678 181.062 150.876 180.299 150.876C179.537 150.876 178.821 150.678 178.181 150.349C176.11 151.187 174.651 153.212 174.651 155.586V162.179H185.947V155.586C185.947 153.212 184.488 151.187 182.417 150.349Z" fill="#66CEDB"/>
<path d="M136.996 150.876C139.596 150.876 141.703 148.768 141.703 146.167C141.703 143.566 139.596 141.457 136.996 141.457C134.397 141.457 132.29 143.566 132.29 146.167C132.29 148.768 134.397 150.876 136.996 150.876Z" fill="#66CEDB"/>
<path d="M139.115 150.349C138.474 150.678 137.759 150.876 136.996 150.876C136.234 150.876 135.519 150.678 134.878 150.349C132.807 151.187 131.348 153.212 131.348 155.586V162.179H142.645V155.586C142.645 153.212 141.186 151.187 139.115 150.349Z" fill="#66CEDB"/>
<path d="M136.996 131.096V138.631" stroke="black" stroke-width="2" stroke-linejoin="round"/>
<path d="M180.299 131.096V138.631" stroke="black" stroke-width="2" stroke-linejoin="round"/>
<path d="M145.469 157.469H171.827" stroke="black" stroke-width="2" stroke-linejoin="round"/>
<path d="M145.469 112.257H171.827" stroke="black" stroke-width="2" stroke-linejoin="round"/>
<path d="M166.179 127.328L171.827 121.677" stroke="black" stroke-width="2" stroke-linejoin="round"/>
<path d="M151.117 127.328L145.469 121.677" stroke="black" stroke-width="2" stroke-linejoin="round"/>
<path d="M167.12 143.341L172.768 148.992" stroke="black" stroke-width="2" stroke-linejoin="round"/>
<path d="M144.527 148.992L150.176 143.341" stroke="black" stroke-width="2" stroke-linejoin="round"/>
<path d="M287.332 108.96H281.684V125.915H287.332V108.96Z" fill="#66CEDB"/>
<path d="M298.628 109.902H292.98V122.147H298.628V109.902Z" fill="#66CEDB"/>
<path d="M309.925 114.612H304.277V127.799H309.925V114.612Z" stroke="black" stroke-width="2" stroke-linejoin="round"/>
<path d="M321.221 109.902H315.573V129.683H321.221V109.902Z" fill="#F6BF58"/>
<path d="M332.517 100.483H326.869V115.554H332.517V100.483Z" fill="#F6BF58"/>
<path d="M307.101 114.612V111.787" stroke="black" stroke-width="2" stroke-linejoin="round"/>
<path d="M284.508 108.961V99.5415" stroke="black" stroke-width="2" stroke-linejoin="round"/>
<path d="M284.508 125.915V130.625" stroke="black" stroke-width="2" stroke-linejoin="round"/>
<path d="M295.804 110.844V106.135" stroke="black" stroke-width="2" stroke-linejoin="round"/>
<path d="M318.397 129.683V136.276" stroke="black" stroke-width="2" stroke-linejoin="round"/>
<path d="M318.397 109.902V104.251" stroke="black" stroke-width="2" stroke-linejoin="round"/>
<path d="M307.101 127.799V131.566" stroke="black" stroke-width="2" stroke-linejoin="round"/>
<path d="M329.693 115.554V119.322" stroke="black" stroke-width="2" stroke-linejoin="round"/>
<path d="M29.2858 226.549C28.8245 224.92 27.949 223.394 26.6688 222.113C25.3979 220.841 23.8635 219.975 22.2444 219.513C21.0865 221.491 21.3313 224.062 23.0257 225.758C24.7202 227.453 24.9649 230.025 23.807 232.003C23.5905 232.37 23.3458 232.728 23.0257 233.039L13.9227 242.147C11.9082 244.163 8.65111 244.163 6.64601 242.147C4.63149 240.132 4.63149 236.872 6.64601 234.866L15.749 225.758C16.0596 225.447 16.4079 225.174 16.7751 224.957C16.2667 223.177 16.2479 221.284 16.7186 219.494H16.5397C14.9206 219.965 13.3862 220.832 12.1059 222.113L3.00293 231.221C-1.01668 235.243 -1.01668 241.77 3.00293 245.792C7.02255 249.814 13.5462 249.814 17.5658 245.792L26.6688 236.684C27.9961 235.356 28.8716 233.755 29.3234 232.069C29.8035 230.26 29.7941 228.358 29.2764 226.559L29.2858 226.549Z" fill="#F6BF58"/>
<path d="M43.0579 205.724C39.0383 201.702 32.5146 201.702 28.495 205.724L19.392 214.832C18.0553 216.169 17.1704 217.789 16.728 219.494C16.2573 221.284 16.2761 223.177 16.7845 224.957C17.2457 226.587 18.1212 228.113 19.4015 229.394C20.6817 230.675 22.2067 231.532 23.8259 231.994C24.9837 230.016 24.739 227.444 23.0445 225.749C21.3501 224.053 21.1053 221.482 22.2632 219.504C22.4797 219.136 22.7245 218.778 23.0445 218.468L32.1475 209.359C34.162 207.344 37.4191 207.344 39.4242 209.359C41.4387 211.375 41.4387 214.634 39.4242 216.64L30.3213 225.749C30.0106 226.059 29.6623 226.333 29.2952 226.549C29.8129 228.348 29.8223 230.26 29.3422 232.059C31.0367 231.607 32.637 230.722 33.9643 229.394L43.0673 220.286C47.0869 216.264 47.0869 209.736 43.0673 205.714L43.0579 205.724Z" fill="white" stroke="black" stroke-width="2" stroke-linejoin="round"/>
<path d="M244.764 301.441H218.405V316.512H244.764V301.441Z" fill="white" stroke="black" stroke-width="2" stroke-linejoin="round"/>
<path d="M240.057 301.441C240.057 304.041 242.165 306.15 244.764 306.15" stroke="black" stroke-width="2" stroke-linejoin="round"/>
<path d="M244.764 311.802C242.165 311.802 240.057 313.912 240.057 316.512" stroke="black" stroke-width="2" stroke-linejoin="round"/>
<path d="M223.112 316.512C223.112 313.912 221.004 311.802 218.405 311.802" stroke="black" stroke-width="2" stroke-linejoin="round"/>
<path d="M218.405 306.15C221.004 306.15 223.112 304.041 223.112 301.441" stroke="black" stroke-width="2" stroke-linejoin="round"/>
<path d="M231.585 311.802C233.144 311.802 234.409 310.537 234.409 308.977C234.409 307.416 233.144 306.151 231.585 306.151C230.025 306.151 228.76 307.416 228.76 308.977C228.76 310.537 230.025 311.802 231.585 311.802Z" fill="#66CEDB"/>
</g>
<defs>
<clipPath id="clip0_693_12308">
<rect width="393" height="264" fill="white" transform="translate(0 96)"/>
</clipPath>
</defs>
</svg>
